<svg id="Layer_1" data-name="Layer 1" xmlns="http://www.w3.org/2000/svg" viewBox="0 0 50 25"><title>icon_boat-launch</title><path d="M18.75,13.81a5.11,5.11,0,0,0,0,.56L0,9.8V7.28l19.14,4.66A4.64,4.64,0,0,0,18.75,13.81Z"/><path d="M44.13,18l-0.29,2.46L26.92,16.36A4.57,4.57,0,0,0,27.66,14Z"/><path d="M45.32,11.25L42.55,16,27.41,12.26a4.46,4.46,0,0,0-4.2-3,4.33,4.33,0,0,0-3.06,1.25L5.76,6.92S2.27,3.7,2,.32L12.93,3.07l5-3.07,2.75,1.28-3.75,2.3Z"/><ellipse cx="23.21" cy="13.81" rx="3" ry="3.09"/><polygon points="50 25 0 25 0 13.07 50 25"/></svg>