<?xml version="1.0" encoding="utf-8"?>
<!-- Generator: Adobe Illustrator 19.2.1, SVG Export Plug-In . SVG Version: 6.00 Build 0)  -->
<svg version="1.1" id="Layer_1" xmlns="http://www.w3.org/2000/svg" xmlns:xlink="http://www.w3.org/1999/xlink" x="0px" y="0px"
	 viewBox="0 0 20 30" style="enable-background:new 0 0 20 30;" xml:space="preserve">
<title>icon_map-marker</title>
<path d="M10,1C5.1,1,1,4.9,1,9.9c0,0,0,0,0,0C1,19.3,10,29,10,29s9-9.8,9-19.1C19,5,14.9,1,10,1C10,1,10,1,10,1z M10,15.4
	c-3,0-5.5-2.5-5.4-5.6c0-3,2.5-5.5,5.6-5.4c3,0,5.4,2.5,5.4,5.5C15.6,13,13.1,15.4,10,15.4z"/>
</svg>
