<svg id="Layer_1" data-name="Layer 1" xmlns="http://www.w3.org/2000/svg" viewBox="0 0 20 30"><defs><style>.cls-1{fill:none;stroke:#fff;stroke-miterlimit:10;}</style></defs><title>icon_map-marker</title><path d="M10,1A8.94,8.94,0,0,0,1,9.89C1,19.26,10,29,10,29s9-9.76,9-19.11A8.94,8.94,0,0,0,10,1Zm0,14.4a5.51,5.51,0,1,1,5.58-5.51A5.55,5.55,0,0,1,10,15.4Z"/><path class="cls-1" d="M10,1A8.94,8.94,0,0,0,1,9.89C1,19.26,10,29,10,29s9-9.76,9-19.11A8.94,8.94,0,0,0,10,1Zm0,14.4a5.51,5.51,0,1,1,5.58-5.51A5.55,5.55,0,0,1,10,15.4Z"/></svg>