<svg id="Layer_1" data-name="Layer 1" xmlns="http://www.w3.org/2000/svg" viewBox="0 0 20 32"><defs><style>.cls-1{fill:none;stroke:#fff;stroke-miterlimit:10;}</style></defs><title>icon_marker-pushpin</title><path d="M18.6,19.11H11.23l-0.34,6.48L10,29,9.11,25.58,8.77,19.11H1.4A0.36,0.36,0,0,1,1,18.68L1.69,15.9A0.55,0.55,0,0,1,2,15.52l3.54-1.35a0.53,0.53,0,0,0,.36-0.45L6.42,5.9a0.52,0.52,0,0,0-.37-0.51L4.53,4.83A0.56,0.56,0,0,1,4.2,4.5L3.11,1.45A0.36,0.36,0,0,1,3.5,1h13a0.36,0.36,0,0,1,.38.45L15.8,4.5a0.56,0.56,0,0,1-.34.33l-1.52.56a0.52,0.52,0,0,0-.37.51l0.5,7.82a0.53,0.53,0,0,0,.36.45L18,15.52a0.55,0.55,0,0,1,.35.37L19,18.68A0.36,0.36,0,0,1,18.6,19.11Z"/><path class="cls-1" d="M18.6,19.11H11.23l-0.34,6.48L10,29,9.11,25.58,8.77,19.11H1.4A0.36,0.36,0,0,1,1,18.68L1.69,15.9A0.55,0.55,0,0,1,2,15.52l3.54-1.35a0.53,0.53,0,0,0,.36-0.45L6.42,5.9a0.52,0.52,0,0,0-.37-0.51L4.53,4.83A0.56,0.56,0,0,1,4.2,4.5L3.11,1.45A0.36,0.36,0,0,1,3.5,1h13a0.36,0.36,0,0,1,.38.45L15.8,4.5a0.56,0.56,0,0,1-.34.33l-1.52.56a0.52,0.52,0,0,0-.37.51l0.5,7.82a0.53,0.53,0,0,0,.36.45L18,15.52a0.55,0.55,0,0,1,.35.37L19,18.68A0.36,0.36,0,0,1,18.6,19.11Z"/></svg>