<svg xmlns="http://www.w3.org/2000/svg" viewBox="0 0 19 29.24"><title>icon_marker-eyedrop</title><path d="M10,1A8.94,8.94,0,0,0,1,9.88H1C1,19.26,10,29,10,29s9-9.76,9-19.11A8.94,8.94,0,0,0,10,1h0Zm0,14.4a5.51,5.51,0,1,1,5.58-5.51A5.51,5.51,0,0,1,10,15.4Z" transform="translate(-0.5 -0.5)" style="fill:#b895c9;stroke:#fff;stroke-miterlimit:10"/><path d="M10,1A8.94,8.94,0,0,0,1,9.88H1C1,19.26,10,29,10,29s9-9.76,9-19.11A8.94,8.94,0,0,0,10,1h0Zm0,14.4a5.51,5.51,0,1,1,5.58-5.51A5.51,5.51,0,0,1,10,15.4Z" transform="translate(-0.5 -0.5)" style="fill:none;stroke:#fff;stroke-miterlimit:10"/></svg>