<svg xmlns="http://www.w3.org/2000/svg" viewBox="0 0 19 29.24"><title>icon_marker-eyedrop-blue</title><path d="M9.5,0.5a8.94,8.94,0,0,0-9,8.88h0c0,9.38,9,19.12,9,19.12s9-9.76,9-19.11A8.94,8.94,0,0,0,9.51.5h0Zm0,14.4a5.51,5.51,0,1,1,.07,0H9.5Z" transform="translate(0 0)" style="fill:#49a3be;stroke:#fff;stroke-miterlimit:10"/><path d="M9.5,0.5a8.94,8.94,0,0,0-9,8.88h0c0,9.38,9,19.12,9,19.12s9-9.76,9-19.11A8.94,8.94,0,0,0,9.51.5h0Zm0,14.4a5.51,5.51,0,1,1,.07,0H9.5Z" transform="translate(0 0)" style="fill:none;stroke:#fff;stroke-miterlimit:10"/></svg>