<?xml version="1.0" standalone="no"?>
<!DOCTYPE svg PUBLIC "-//W3C//DTD SVG 1.1//EN" "http://www.w3.org/Graphics/SVG/1.1/DTD/svg11.dtd" >
<svg>
<metadata>
Created by FontForge 20090622 at Tue Apr 12 23:37:48 2016
 By deploy user
(C)2004 House Industries/Brand Design Co., Inc. All Rights Reserved.
</metadata>
<defs>
<font id="NeutrafaceText-BookItalic" horiz-adv-x="201" >
  <font-face 
    font-family="Neutraface Text Book Italic"
    font-weight="400"
    font-style="italic"
    font-stretch="normal"
    units-per-em="1000"
    panose-1="2 0 6 0 5 0 0 9 0 4"
    ascent="780"
    descent="-220"
    x-height="414"
    cap-height="680"
    bbox="-116 -257 1156 966"
    underline-thickness="20"
    underline-position="-113"
    slope="-12"
    unicode-range="U+000D-U+FB04"
  />
<missing-glyph horiz-adv-x="232" 
 />
    <glyph glyph-name="ff" unicode="ff" horiz-adv-x="555" 
d="M372 356h-176l-80 -454q-12 -67 -40 -90.5t-82 -23.5h-42l10 55h30q22 0 36 13.5t21 52.5l79 447h-66l10 58h66l31 176q21 125 125 125q60 0 92 -44l-44 -42q-19 25 -46 25q-24 0 -38.5 -15t-21.5 -53l-30 -172h176l35 193q23 128 127 128q64 0 100 -50l-47 -40
q-22 29 -51 29q-25 0 -40 -15.5t-22 -55.5l-33 -189h107l-10 -58h-108l-76 -432q-11 -67 -39.5 -90.5t-82.5 -23.5h-39l10 55h28q21 0 35 13.5t21 51.5z" />
    <glyph glyph-name="fi" unicode="fi" horiz-adv-x="502" 
d="M447 536q-19 0 -33.5 13.5t-14.5 33.5t14.5 33.5t33.5 13.5t33 -13.5t14 -33.5t-14 -33.5t-33 -13.5zM195 356l-79 -454q-12 -67 -40 -90.5t-82 -23.5h-42l10 55h30q22 0 36 13.5t21 52.5l78 447h-65l10 58h66l34 195q21 126 125 126q65 0 99 -49l-47 -40q-21 28 -50 28
q-23 0 -38 -15.5t-22 -53.5l-33 -191h245l-58 -327q-6 -32 19 -32h41l-9 -55h-49q-45 0 -61 22t-8 70l47 264h-178z" />
    <glyph glyph-name="fl" unicode="fl" horiz-adv-x="497" 
d="M128 356h-66l10 58h66l29 167q27 154 171 154q74 0 113 -47.5t24 -129.5l-83 -471q-5 -32 20 -32h45l-9 -55h-54q-45 0 -61 22t-7 70l82 470q10 55 -9.5 84.5t-63.5 29.5t-68 -25.5t-33 -78.5l-28 -158h102l-10 -58h-102l-80 -454q-12 -67 -40 -90.5t-82 -23.5h-42l10 55
h30q22 0 36 13.5t21 52.5z" />
    <glyph glyph-name="ffi" unicode="ffi" horiz-adv-x="747" 
d="M692 536q-19 0 -33 13.5t-14 33.5t14 33.5t33 13.5t33 -13.5t14 -33.5t-14 -33.5t-33 -13.5zM440 356l-75 -432q-11 -67 -39.5 -90.5t-82.5 -23.5h-39l10 55h28q21 0 35 13.5t21 51.5l74 426h-176l-80 -454q-12 -67 -40 -90.5t-82 -23.5h-42l10 55h30q22 0 36 13.5
t21 52.5l79 447h-66l10 58h66l31 176q21 125 125 125q60 0 92 -44l-44 -42q-19 25 -46 25q-24 0 -38.5 -15t-21.5 -53l-30 -172h177l34 195q21 126 125 126q65 0 99 -49l-47 -40q-21 28 -50 28q-23 0 -38 -15.5t-22 -53.5l-33 -191h245l-58 -327q-5 -32 20 -32h40l-9 -55
h-49q-45 0 -61 22t-8 70l47 264h-178z" />
    <glyph glyph-name="ffl" unicode="ffl" horiz-adv-x="742" 
d="M372 356h-176l-80 -454q-12 -67 -40 -90.5t-82 -23.5h-42l10 55h30q22 0 36 13.5t21 52.5l79 447h-66l10 58h66l31 176q21 125 125 125q60 0 92 -44l-44 -42q-19 25 -46 25q-24 0 -38.5 -15t-21.5 -53l-30 -172h176l30 167q28 154 171 154q75 0 113.5 -47.5t23.5 -129.5
l-82 -471q-6 -32 19 -32h45l-9 -55h-53q-45 0 -61 22t-8 70l82 470q10 55 -9.5 84.5t-63.5 29.5t-68 -25.5t-33 -78.5l-28 -158h102l-10 -58h-102l-77 -432q-11 -67 -39.5 -90.5t-82.5 -23.5h-39l10 55h28q21 0 35 13.5t21 51.5z" />
    <glyph glyph-name="fj" unicode="fj" horiz-adv-x="502" 
d="M447 536q-19 0 -33.5 13.5t-14.5 33.5t14.5 33.5t33.5 13.5t33 -13.5t14 -33.5t-14 -33.5t-33 -13.5zM195 356l-79 -454q-12 -67 -40 -90.5t-82 -23.5h-42l10 55h30q22 0 36 13.5t21 52.5l78 447h-65l10 58h66l34 195q21 126 125 126q65 0 99 -49l-47 -40q-21 28 -50 28
q-23 0 -38 -15.5t-22 -53.5l-33 -191h245l-91 -521q-21 -115 -114 -115q-56 0 -90 36l41 41q19 -19 44 -19q22 0 33.5 13t16.5 44l82 463h-178z" />
    <glyph glyph-name="ft" unicode="ft" horiz-adv-x="578" 
d="M372 356h-177l-79 -454q-12 -67 -40 -90.5t-82 -23.5h-42l10 55h30q22 0 36 13.5t21 52.5l78 447h-65l10 58h66l34 195q21 126 125 126q65 0 99 -49l-47 -40q-21 28 -50 28q-23 0 -38 -15.5t-22 -53.5l-33 -191h176l39 216h67l-38 -216h112l-10 -58h-112l-41 -231
q-13 -74 39 -74q28 0 54 22l32 -46q-39 -35 -94 -35q-54 0 -82.5 33.5t-15.5 102.5z" />
    <glyph glyph-name="fb" unicode="fb" horiz-adv-x="807" 
d="M128 356h-66l10 58h66l29 167q27 154 171 154q74 0 113 -47t24 -130l-39 -223q56 88 151 88q79 0 127.5 -55t48.5 -144q0 -100 -60 -166t-146 -66q-59 0 -103 33.5t-59 90.5l-17 -116h-68l98 562q10 55 -9.5 84.5t-63.5 29.5t-68 -25.5t-33 -78.5l-28 -158h102l-10 -58
h-102l-80 -454q-12 -67 -40 -90.5t-82 -23.5h-42l10 55h30q22 0 36 13.5t21 52.5zM541 51q68 0 110 49t42 124q0 62 -33.5 100.5t-89.5 38.5q-67 0 -111.5 -48t-44.5 -121q0 -63 34.5 -103t92.5 -40z" />
    <glyph glyph-name="fh" unicode="fh" horiz-adv-x="777" 
d="M128 356h-66l10 58h66l29 167q27 154 171 154q74 0 113 -47.5t24 -129.5l-39 -221q53 86 144 86q70 0 108 -50t23 -134l-27 -152q-5 -32 20 -32h38l-10 -55h-43q-88 0 -71 94l24 139q11 60 -11.5 94.5t-74.5 34.5q-115 0 -138 -129l-41 -233h-68l99 562q10 55 -9.5 84.5
t-63.5 29.5t-68 -25.5t-33 -78.5l-28 -158h102l-10 -58h-102l-80 -454q-12 -67 -40 -90.5t-82 -23.5h-42l10 55h30q22 0 36 13.5t21 52.5z" />
    <glyph glyph-name="fk" unicode="fk" horiz-adv-x="730" 
d="M206 414h102l-10 -58h-102l-80 -454q-12 -67 -40 -90.5t-82 -23.5h-42l10 55h30q22 0 36 13.5t21 52.5l79 447h-66l10 58h66l29 167q27 154 171 154q74 0 113 -47.5t24 -129.5l-53 -299q-5 -26 -15 -61l228 216h81l-185 -176l96 -162q13 -21 37 -21h26l-10 -55h-29
q-30 0 -48 11t-34 39l-89 149l-81 -69l-22 -130h-68l99 562q10 55 -9.5 84.5t-63.5 29.5t-68 -25.5t-33 -78.5z" />
    <glyph glyph-name="fff" unicode="fff" horiz-adv-x="798" 
d="M617 356h-176l-78 -444q-12 -67 -40.5 -90.5t-81.5 -23.5h-42l10 55h30q22 0 36 13.5t21 52.5l77 437h-177l-80 -454q-12 -67 -40 -90.5t-82 -23.5h-42l10 55h30q22 0 36 13.5t21 52.5l79 447h-66l10 58h66l31 176q21 125 125 125q60 0 92 -44l-44 -42q-19 25 -46 25
q-24 0 -38.5 -15t-21.5 -53l-30 -172h177l33 186q21 125 125 125q60 0 92 -44l-44 -42q-19 25 -46 25q-24 0 -38.5 -15t-21.5 -53l-32 -182h176l35 193q23 128 127 128q64 0 100 -50l-47 -40q-22 29 -51 29q-25 0 -40 -15.5t-22 -55.5l-33 -189h107l-10 -58h-108l-76 -432
q-11 -67 -39.5 -90.5t-82.5 -23.5h-39l10 55h28q21 0 35 13.5t21 51.5z" />
    <glyph glyph-name="ffj" unicode="ffj" horiz-adv-x="747" 
d="M692 536q-19 0 -33 13.5t-14 33.5t14 33.5t33 13.5t33 -13.5t14 -33.5t-14 -33.5t-33 -13.5zM440 356l-75 -432q-11 -67 -39.5 -90.5t-82.5 -23.5h-39l10 55h28q21 0 35 13.5t21 51.5l74 426h-176l-80 -454q-12 -67 -40 -90.5t-82 -23.5h-42l10 55h30q22 0 36 13.5
t21 52.5l79 447h-66l10 58h66l31 176q21 125 125 125q60 0 92 -44l-44 -42q-19 25 -46 25q-24 0 -38.5 -15t-21.5 -53l-30 -172h177l34 195q21 126 125 126q65 0 99 -49l-47 -40q-21 28 -50 28q-23 0 -38 -15.5t-22 -53.5l-33 -191h245l-91 -521q-21 -115 -114 -115
q-56 0 -90 36l41 41q19 -19 44 -19q22 0 33.5 13t16.5 44l82 463h-178z" />
    <glyph glyph-name="fft" unicode="fft" horiz-adv-x="824" 
d="M618 356h-178l-75 -432q-11 -67 -39.5 -90.5t-82.5 -23.5h-39l10 55h28q21 0 35 13.5t21 51.5l75 426h-177l-80 -454q-12 -67 -40 -90.5t-82 -23.5h-42l10 55h30q22 0 36 13.5t21 52.5l79 447h-66l10 58h66l31 176q21 125 125 125q60 0 92 -44l-44 -42q-19 25 -46 25
q-24 0 -38.5 -15t-21.5 -53l-30 -172h177l34 195q21 126 125 126q65 0 99 -49l-47 -40q-21 28 -50 28q-23 0 -38 -15.5t-22 -53.5l-33 -191h177l39 216h67l-38 -216h112l-10 -58h-112l-41 -231q-13 -74 39 -74q28 0 54 22l32 -46q-39 -35 -94 -35q-54 0 -82.5 33.5
t-15.5 102.5z" />
    <glyph glyph-name="ffb" unicode="ffb" horiz-adv-x="1052" 
d="M128 356h-66l10 58h66l31 176q21 125 125 125q60 0 92 -44l-44 -42q-19 25 -46 25q-24 0 -38.5 -15t-21.5 -53l-30 -172h176l30 167q28 154 171 154q75 0 113.5 -47t23.5 -130l-39 -223q56 88 151 88q79 0 127.5 -55t48.5 -144q0 -100 -60 -166t-146 -66q-59 0 -103 33.5
t-60 90.5l-16 -116h-68l98 562q10 55 -9.5 84.5t-63.5 29.5t-68 -25.5t-33 -78.5l-28 -158h102l-10 -58h-102l-77 -432q-11 -67 -39.5 -90.5t-82.5 -23.5h-39l10 55h28q21 0 35 13.5t21 51.5l75 426h-176l-80 -454q-12 -67 -40 -90.5t-82 -23.5h-42l10 55h30q22 0 36 13.5
t21 52.5zM786 51q68 0 110 49t42 124q0 62 -33.5 100.5t-89.5 38.5q-67 0 -111.5 -48t-44.5 -121q0 -63 34.5 -103t92.5 -40z" />
    <glyph glyph-name="ffh" unicode="ffh" horiz-adv-x="1022" 
d="M372 356h-176l-80 -454q-12 -67 -40 -90.5t-82 -23.5h-42l10 55h30q22 0 36 13.5t21 52.5l79 447h-66l10 58h66l31 176q21 125 125 125q60 0 92 -44l-44 -42q-19 25 -46 25q-24 0 -38.5 -15t-21.5 -53l-30 -172h176l30 167q28 154 171 154q75 0 113.5 -47.5t23.5 -129.5
l-38 -221q52 86 143 86q70 0 108 -50t23 -134l-27 -152q-5 -32 20 -32h38l-10 -55h-43q-88 0 -71 94l24 139q11 60 -11.5 94.5t-74.5 34.5q-115 0 -138 -129l-41 -233h-68l99 562q10 55 -9.5 84.5t-63.5 29.5t-68 -25.5t-33 -78.5l-28 -158h102l-10 -58h-102l-77 -432
q-11 -67 -39.5 -90.5t-82.5 -23.5h-39l10 55h28q21 0 35 13.5t21 51.5z" />
    <glyph glyph-name="ffk" unicode="ffk" horiz-adv-x="975" 
d="M451 414h102l-10 -58h-102l-77 -432q-11 -67 -39.5 -90.5t-82.5 -23.5h-39l10 55h28q21 0 35 13.5t21 51.5l75 426h-176l-80 -454q-12 -67 -40 -90.5t-82 -23.5h-42l10 55h30q22 0 36 13.5t21 52.5l79 447h-66l10 58h66l31 176q21 125 125 125q60 0 92 -44l-44 -42
q-19 25 -46 25q-24 0 -38.5 -15t-21.5 -53l-30 -172h176l30 167q28 154 171 154q75 0 113.5 -47.5t23.5 -129.5l-52 -299q-5 -26 -15 -61l227 216h82l-185 -175l97 -163q12 -21 35 -21h27l-10 -55h-29q-30 0 -48 11t-34 39l-89 149l-81 -71l-23 -128h-68l99 562
q10 55 -9.5 84.5t-63.5 29.5t-68 -25.5t-33 -78.5z" />
    <glyph glyph-name="fiacute" unicode="f&#xed;" horiz-adv-x="502" 
d="M402 498l98 193h84l-127 -193h-55zM195 356l-79 -454q-12 -67 -40 -90.5t-82 -23.5h-42l10 55h30q22 0 36 13.5t21 52.5l78 447h-65l10 58h66l34 195q21 126 125 126q65 0 99 -49l-47 -40q-21 28 -50 28q-23 0 -38 -15.5t-22 -53.5l-33 -191h245l-58 -327q-6 -32 19 -32
h41l-9 -55h-49q-45 0 -61 22t-8 70l47 264h-178z" />
    <glyph glyph-name="ficircumflex" unicode="f&#xee;" horiz-adv-x="502" 
d="M313 496l158 193h10l95 -193h-56l-56 108l-91 -108h-60zM195 356l-79 -454q-12 -67 -40 -90.5t-82 -23.5h-42l10 55h30q22 0 36 13.5t21 52.5l78 447h-65l10 58h66l34 195q21 126 125 126q65 0 99 -49l-47 -40q-21 28 -50 28q-23 0 -38 -15.5t-22 -53.5l-33 -191h245
l-58 -327q-6 -32 19 -32h41l-9 -55h-49q-45 0 -61 22t-8 70l47 264h-178z" />
    <glyph glyph-name="fidieresis" unicode="f&#xef;" horiz-adv-x="502" 
d="M524 509q-18 0 -31.5 13t-13.5 31t13.5 31t31.5 13q17 0 30.5 -13t13.5 -31t-13.5 -31t-30.5 -13zM364 509q-17 0 -30.5 13t-13.5 31t13.5 31t30.5 13q18 0 31.5 -13t13.5 -31t-13.5 -31t-31.5 -13zM195 356l-79 -454q-12 -67 -40 -90.5t-82 -23.5h-42l10 55h30
q22 0 36 13.5t21 52.5l78 447h-65l10 58h66l34 195q21 126 125 126q65 0 99 -49l-47 -40q-21 28 -50 28q-23 0 -38 -15.5t-22 -53.5l-33 -191h245l-58 -327q-6 -32 19 -32h41l-9 -55h-49q-45 0 -61 22t-8 70l47 264h-178z" />
    <glyph glyph-name="ffiacute" unicode="ff&#xed;" horiz-adv-x="747" 
d="M647 498l98 193h84l-127 -193h-55zM440 356l-75 -432q-11 -67 -39.5 -90.5t-82.5 -23.5h-39l10 55h28q21 0 35 13.5t21 51.5l74 426h-176l-80 -454q-12 -67 -40 -90.5t-82 -23.5h-42l10 55h30q22 0 36 13.5t21 52.5l79 447h-66l10 58h66l31 176q21 125 125 125
q60 0 92 -44l-44 -42q-19 25 -46 25q-24 0 -38.5 -15t-21.5 -53l-30 -172h177l34 195q21 126 125 126q65 0 99 -49l-47 -40q-21 28 -50 28q-23 0 -38 -15.5t-22 -53.5l-33 -191h245l-58 -327q-5 -32 20 -32h40l-9 -55h-49q-45 0 -61 22t-8 70l47 264h-178z" />
    <glyph glyph-name="fficircumflex" unicode="ff&#xee;" horiz-adv-x="747" 
d="M558 496l158 193h10l95 -193h-56l-56 108l-91 -108h-60zM440 356l-75 -432q-11 -67 -39.5 -90.5t-82.5 -23.5h-39l10 55h28q21 0 35 13.5t21 51.5l74 426h-176l-80 -454q-12 -67 -40 -90.5t-82 -23.5h-42l10 55h30q22 0 36 13.5t21 52.5l79 447h-66l10 58h66l31 176
q21 125 125 125q60 0 92 -44l-44 -42q-19 25 -46 25q-24 0 -38.5 -15t-21.5 -53l-30 -172h177l34 195q21 126 125 126q65 0 99 -49l-47 -40q-21 28 -50 28q-23 0 -38 -15.5t-22 -53.5l-33 -191h245l-58 -327q-5 -32 20 -32h40l-9 -55h-49q-45 0 -61 22t-8 70l47 264h-178z
" />
    <glyph glyph-name="ffidieresis" unicode="ff&#xef;" horiz-adv-x="747" 
d="M769 509q-18 0 -31.5 13t-13.5 31t13.5 31t31.5 13q17 0 30.5 -13t13.5 -31t-13.5 -31t-30.5 -13zM609 509q-17 0 -30.5 13t-13.5 31t13.5 31t30.5 13q18 0 31.5 -13t13.5 -31t-13.5 -31t-31.5 -13zM440 356l-75 -432q-11 -67 -39.5 -90.5t-82.5 -23.5h-39l10 55h28
q21 0 35 13.5t21 51.5l74 426h-176l-80 -454q-12 -67 -40 -90.5t-82 -23.5h-42l10 55h30q22 0 36 13.5t21 52.5l79 447h-66l10 58h66l31 176q21 125 125 125q60 0 92 -44l-44 -42q-19 25 -46 25q-24 0 -38.5 -15t-21.5 -53l-30 -172h177l34 195q21 126 125 126q65 0 99 -49
l-47 -40q-21 28 -50 28q-23 0 -38 -15.5t-22 -53.5l-33 -191h245l-58 -327q-5 -32 20 -32h40l-9 -55h-49q-45 0 -61 22t-8 70l47 264h-178z" />
    <glyph glyph-name="tt" unicode="tt" horiz-adv-x="596" 
d="M390 356h-200l-41 -231q-13 -74 39 -74q28 0 54 22l32 -46q-39 -35 -94 -35q-54 0 -82.5 33.5t-15.5 102.5l40 228h-62l10 58h62l39 216h67l-38 -216h200l39 216h67l-38 -216h112l-10 -58h-112l-41 -231q-13 -74 39 -74q28 0 54 22l32 -46q-39 -35 -94 -35
q-54 0 -82.5 33.5t-15.5 102.5z" />
    <glyph glyph-name="fffi" unicode="fffi" horiz-adv-x="991" 
d="M937 536q-19 0 -33.5 13.5t-14.5 33.5t14.5 33.5t33.5 13.5t33 -13.5t14 -33.5t-14 -33.5t-33 -13.5zM685 356l-76 -432q-12 -67 -40.5 -90.5t-81.5 -23.5h-39l10 55h27q22 0 36 13.5t21 51.5l75 426h-176l-78 -444q-12 -67 -40.5 -90.5t-81.5 -23.5h-42l10 55h30
q22 0 36 13.5t21 52.5l77 437h-177l-80 -454q-12 -67 -40 -90.5t-82 -23.5h-42l10 55h30q22 0 36 13.5t21 52.5l79 447h-66l10 58h66l31 176q21 125 125 125q60 0 92 -44l-44 -42q-19 25 -46 25q-24 0 -38.5 -15t-21.5 -53l-30 -172h177l33 186q21 125 125 125q60 0 92 -44
l-44 -42q-19 25 -46 25q-24 0 -38.5 -15t-21.5 -53l-32 -182h176l35 195q21 126 125 126q65 0 99 -49l-47 -40q-21 28 -50 28q-23 0 -38 -15.5t-22 -53.5l-34 -191h246l-58 -327q-6 -32 19 -32h41l-9 -55h-49q-45 0 -61 22t-8 70l47 264h-178z" />
    <glyph glyph-name="fffl" unicode="fffl" horiz-adv-x="988" 
d="M617 356h-176l-78 -444q-12 -67 -40.5 -90.5t-81.5 -23.5h-42l10 55h30q22 0 36 13.5t21 52.5l77 437h-177l-80 -454q-12 -67 -40 -90.5t-82 -23.5h-42l10 55h30q22 0 36 13.5t21 52.5l79 447h-66l10 58h66l31 176q21 125 125 125q60 0 92 -44l-44 -42q-19 25 -46 25
q-24 0 -38.5 -15t-21.5 -53l-30 -172h177l33 186q21 125 125 125q60 0 92 -44l-44 -42q-19 25 -46 25q-24 0 -38.5 -15t-21.5 -53l-32 -182h176l30 167q27 154 171 154q74 0 113 -47.5t24 -129.5l-83 -471q-5 -32 20 -32h45l-9 -55h-54q-45 0 -61 22t-7 70l82 470
q10 55 -9.5 84.5t-63.5 29.5t-68 -25.5t-33 -78.5l-28 -158h102l-10 -58h-102l-77 -432q-12 -67 -40.5 -90.5t-81.5 -23.5h-39l10 55h27q22 0 36 13.5t21 51.5z" />
    <glyph glyph-name=".notdef" horiz-adv-x="232" 
 />
    <glyph glyph-name=".null" horiz-adv-x="0" 
 />
    <glyph glyph-name="nonmarkingreturn" horiz-adv-x="333" 
 />
    <glyph glyph-name="CR" unicode="&#xd;" horiz-adv-x="232" 
 />
    <glyph glyph-name="space" unicode=" " horiz-adv-x="232" 
 />
    <glyph glyph-name="exclam" unicode="!" horiz-adv-x="236" 
d="M88 190l77 490h77l-101 -490h-53zM90 -7q-21 0 -36.5 15.5t-15.5 37.5t15.5 37.5t36.5 15.5t36.5 -15.5t15.5 -37.5t-15.5 -37.5t-36.5 -15.5z" />
    <glyph glyph-name="quotedbl" unicode="&#x22;" horiz-adv-x="281" 
d="M223 470l29 210h73l-46 -210h-56zM95 470l29 210h73l-47 -210h-55z" />
    <glyph glyph-name="numbersign" unicode="#" horiz-adv-x="429" 
d="M155 449h-79l10 55h83l27 109h57l-27 -109h98l27 109h58l-27 -109h68l-10 -55h-72l-28 -110h81l-10 -55h-84l-27 -107h-58l27 107h-98l-27 -107h-57l27 107h-68l10 55h71zM310 449h-98l-28 -110h98z" />
    <glyph glyph-name="dollar" unicode="$" horiz-adv-x="427" 
d="M148 -4q-56 10 -95 40.5t-56 69.5l57 28q32 -68 103 -84l33 190q-119 46 -119 140q0 62 46 97t118 35h3l18 101h50l-19 -107q75 -18 110 -85l-51 -32q-23 49 -68 63l-30 -168l6 -2q67 -26 98.5 -60.5t31.5 -86.5q0 -68 -51.5 -105t-135.5 -38l-19 -108h-50zM228 458
q-92 -3 -92 -75q0 -52 65 -79zM206 46q53 2 82 25t29 63q0 29 -18.5 49.5t-61.5 36.5z" />
    <glyph glyph-name="percent" unicode="%" horiz-adv-x="778" 
d="M194 218q-60 0 -101 39.5t-41 100.5q0 66 46 110t108 44q60 0 101 -39t41 -99q0 -68 -45.5 -112t-108.5 -44zM163 0l401 504h70l-401 -504h-70zM589 -8q-60 0 -101 39.5t-41 100.5q0 66 46 109.5t108 43.5q60 0 101 -39t41 -99q0 -68 -45.5 -111.5t-108.5 -43.5zM194 271
q40 0 66.5 28t26.5 74q0 40 -22 62.5t-59 22.5q-40 0 -66.5 -27.5t-26.5 -71.5q0 -41 22.5 -64.5t58.5 -23.5zM589 44q40 0 66.5 28.5t26.5 73.5q0 40 -22.5 63t-58.5 23q-40 0 -66.5 -28t-26.5 -72q0 -41 22.5 -64.5t58.5 -23.5z" />
    <glyph glyph-name="ampersand" unicode="&#x26;" horiz-adv-x="652" 
d="M339 388l121 -195q38 70 55 175h67q-23 -141 -84 -235l20 -32q16 -25 27.5 -33t32.5 -8h30l-11 -60h-30q-42 0 -64 15.5t-49 59.5l-2 3q-84 -86 -204 -86q-95 0 -152 48.5t-57 128.5q0 83 54.5 136.5t154.5 98.5l-3 5q-44 69 -44 135q0 62 42.5 103t109.5 41q61 0 98 -37
t37 -94q0 -97 -149 -169zM311 432q56 27 84.5 55.5t28.5 67.5q0 34 -20 55t-52 21q-37 0 -60 -24t-23 -62q0 -45 29 -93zM418 132l-142 228q-79 -36 -120.5 -79.5t-41.5 -108.5q0 -54 37 -86t96 -32q104 0 171 78z" />
    <glyph glyph-name="quotesingle" unicode="'" horiz-adv-x="153" 
d="M95 470l29 210h73l-47 -210h-55z" />
    <glyph glyph-name="parenleft" unicode="(" horiz-adv-x="277" 
d="M147 -135q-107 140 -107 338q0 295 256 515l36 -39q-220 -205 -220 -474q0 -178 82 -308z" />
    <glyph glyph-name="parenright" unicode=")" horiz-adv-x="275" 
d="M11 -135l-36 39q220 207 220 477q0 174 -82 306l46 31q107 -138 107 -335q0 -299 -255 -518z" />
    <glyph glyph-name="asterisk" unicode="*" horiz-adv-x="398" 
d="M210 374l28 127l-104 -64l-25 56l120 37l-112 57l35 51l92 -81l-5 123h64l-27 -125l103 64l25 -56l-120 -36l112 -58l-35 -50l-91 80l4 -125h-64z" />
    <glyph glyph-name="plus" unicode="+" horiz-adv-x="371" 
d="M219 223l-22 -125h-62l22 125h-115l11 59h114l23 126h62l-23 -126h116l-11 -59h-115z" />
    <glyph glyph-name="comma" unicode="," horiz-adv-x="196" 
d="M-8 -112l55 112q-29 14 -29 48q0 22 16 37.5t37 15.5q23 0 37.5 -15t14.5 -38q0 -20 -18 -46l-75 -114h-38z" />
    <glyph glyph-name="hyphen" unicode="-" horiz-adv-x="277" 
d="M44 201l11 60h188l-10 -60h-189z" />
    <glyph glyph-name="hyphen" unicode="&#xad;" horiz-adv-x="277" 
d="M44 201l11 60h188l-10 -60h-189z" />
    <glyph glyph-name="period" unicode="." horiz-adv-x="196" 
d="M71 -7q-21 0 -37 15.5t-16 37.5q0 23 16 38.5t37 15.5t36.5 -15.5t15.5 -38.5q0 -22 -15.5 -37.5t-36.5 -15.5z" />
    <glyph glyph-name="slash" unicode="/" horiz-adv-x="416" 
d="M-38 -128l445 850h72l-445 -850h-72z" />
    <glyph glyph-name="zero" unicode="0" horiz-adv-x="608" 
d="M298 -8q-106 0 -177 71.5t-71 178.5q0 120 82 195t194 75q105 0 177 -71.5t72 -177.5q0 -121 -82 -196t-195 -75zM300 53q87 0 144.5 58.5t57.5 153.5q0 82 -49.5 134t-128.5 52q-87 0 -144.5 -58.5t-57.5 -152.5q0 -83 49.5 -135t128.5 -52z" />
    <glyph glyph-name="one" unicode="1" horiz-adv-x="288" 
d="M92 0l78 446h-108l10 58h178l-89 -504h-69z" />
    <glyph glyph-name="two" unicode="2" horiz-adv-x="448" 
d="M-2 0v9l218 177q73 58 105.5 97t32.5 82q0 41 -25 63t-65 22q-89 0 -127 -96l-63 19q24 69 74 104t118 35q69 0 113.5 -39.5t44.5 -102.5q0 -57 -38 -105.5t-114 -109.5l-87 -71l-47 -29q33 4 52 4h206l-11 -59h-387z" />
    <glyph glyph-name="three" unicode="3" horiz-adv-x="489" 
d="M207 -103q-75 0 -129.5 34.5t-81.5 91.5l60 31q46 -96 150 -96q66 0 108.5 38.5t42.5 111.5q0 63 -36.5 99.5t-100.5 36.5q-45 0 -85 -19l-7 10l180 179q7 8 17.5 17t17.5 13l7 5q-35 -3 -57 -3h-192l10 58h360v-7l-172 -172l-40 -32q74 -5 122 -56t48 -133
q0 -92 -62 -149.5t-160 -57.5z" />
    <glyph glyph-name="four" unicode="4" horiz-adv-x="518" 
d="M391 76h75l-10 -55h-75l-20 -115h-69l20 115h-319l6 34l460 459h10zM322 76l41 228l16 60q-22 -27 -40 -45l-203 -207l-44 -38q30 2 52 2h178z" />
    <glyph glyph-name="five" unicode="5" horiz-adv-x="478" 
d="M197 -103q-71 0 -120.5 32t-72.5 81l60 29q40 -81 132 -81q69 0 111 42t42 111q0 61 -35.5 97.5t-101.5 36.5q-73 0 -138 -48l-6 4l52 303h317l-10 -58h-256l-27 -160q34 17 87 17q85 0 138.5 -54.5t53.5 -137.5q0 -94 -63.5 -154t-162.5 -60z" />
    <glyph glyph-name="six" unicode="6" horiz-adv-x="506" 
d="M243 -8q-90 0 -146 55.5t-56 140.5q0 84 79 172l221 251h80l-177 -200q-8 -8 -24 -21l-28 -22l-12 -9q53 33 99 33q81 0 133.5 -53.5t52.5 -136.5q0 -92 -63.5 -151t-158.5 -59zM243 53q67 0 108.5 42t41.5 108q0 60 -34.5 96.5t-96.5 36.5q-69 0 -109.5 -43t-40.5 -107
q0 -58 35.5 -95.5t95.5 -37.5z" />
    <glyph glyph-name="seven" unicode="7" horiz-adv-x="441" 
d="M15 -94l342 540h-287l10 58h382v-9l-372 -589h-75z" />
    <glyph glyph-name="eight" unicode="8" horiz-adv-x="517" 
d="M206 352q-68 39 -67 111q0 65 49.5 110t123.5 45q70 0 117.5 -41.5t47.5 -101.5q0 -53 -32 -88t-82 -50q50 -20 79 -59.5t29 -93.5q0 -87 -62 -139.5t-161 -52.5q-93 0 -152 52t-59 130q0 73 46.5 119.5t122.5 58.5zM303 371q48 0 76.5 28t28.5 73q0 39 -26.5 63.5
t-70.5 24.5q-46 0 -75.5 -27.5t-29.5 -71.5q0 -40 26 -65t71 -25zM248 53q66 0 108.5 38.5t42.5 99.5q0 57 -38 90.5t-101 33.5q-67 0 -108.5 -38t-41.5 -100q0 -54 37.5 -89t100.5 -35z" />
    <glyph glyph-name="nine" unicode="9" horiz-adv-x="505" 
d="M91 -94l169 176q12 12 28.5 26t27.5 22l11 8q-43 -29 -93 -29q-81 0 -134 54t-53 136q0 92 63 152.5t157 60.5q90 0 146 -56.5t56 -140.5q0 -94 -90 -192l-205 -217h-83zM248 165q70 0 110.5 43.5t40.5 108.5q0 59 -36 96.5t-96 37.5q-66 0 -107.5 -43t-41.5 -109
q0 -60 34.5 -97t95.5 -37z" />
    <glyph glyph-name="colon" unicode=":" horiz-adv-x="205" 
d="M114 218q-21 0 -36.5 15t-15.5 38t15.5 38.5t36.5 15.5q22 0 37.5 -15.5t15.5 -38.5t-15.5 -38t-37.5 -15zM75 -7q-21 0 -36.5 15.5t-15.5 37.5q0 23 15.5 38.5t36.5 15.5q22 0 37.5 -15.5t15.5 -38.5q0 -22 -15.5 -37.5t-37.5 -15.5z" />
    <glyph glyph-name="semicolon" unicode=";" horiz-adv-x="205" 
d="M114 218q-21 0 -36.5 15t-15.5 38t15.5 38.5t36.5 15.5q22 0 37.5 -15.5t15.5 -38.5t-15.5 -38t-37.5 -15zM-3 -112l55 112q-29 13 -29 48q0 22 15.5 37.5t36.5 15.5q23 0 38 -15t15 -38q0 -20 -18 -46l-75 -114h-38z" />
    <glyph glyph-name="semicolon" unicode="&#x37e;" horiz-adv-x="205" 
d="M114 218q-21 0 -36.5 15t-15.5 38t15.5 38.5t36.5 15.5q22 0 37.5 -15.5t15.5 -38.5t-15.5 -38t-37.5 -15zM-3 -112l55 112q-29 13 -29 48q0 22 15.5 37.5t36.5 15.5q23 0 38 -15t15 -38q0 -20 -18 -46l-75 -114h-38z" />
    <glyph glyph-name="less" unicode="&#x3c;" horiz-adv-x="354" 
d="M281 94l-242 144v11l294 143l-12 -67l-183 -84l153 -86z" />
    <glyph glyph-name="equal" unicode="=" horiz-adv-x="369" 
d="M55 282l11 61h285l-11 -61h-285zM33 152l10 62h285l-11 -62h-284z" />
    <glyph glyph-name="greater" unicode="&#x3e;" horiz-adv-x="354" 
d="M25 94l12 67l184 84l-154 86l10 61l242 -144v-11z" />
    <glyph glyph-name="question" unicode="?" horiz-adv-x="468" 
d="M178 187l31 176h44q71 0 110.5 40.5t39.5 102.5q0 56 -33 88.5t-87 32.5q-90 0 -139 -89l-54 30q27 57 78 88.5t116 31.5q85 0 137 -50.5t52 -131.5q0 -86 -58.5 -141.5t-150.5 -55.5l-21 -122h-65zM186 -7q-21 0 -36 15.5t-15 37.5t15 37.5t36 15.5t37 -15.5t16 -37.5
t-16 -37.5t-37 -15.5z" />
    <glyph glyph-name="at" unicode="@" horiz-adv-x="872" 
d="M421 -206q-168 0 -273 105.5t-105 269.5q0 180 120 298.5t292 118.5q166 0 269 -100.5t103 -257.5q0 -115 -48.5 -174t-121.5 -59q-48 0 -77 22.5t-38 61.5q-23 -41 -59 -64t-79 -23q-74 0 -120.5 51t-46.5 128q0 89 53 147.5t130 58.5q50 0 86 -27.5t50 -73.5l14 91h67
l-41 -227q-8 -45 8.5 -69t53.5 -24q46 0 77 46.5t31 136.5q0 133 -84.5 217.5t-225.5 84.5q-150 0 -249 -103.5t-99 -258.5q0 -141 85 -231.5t228 -90.5q89 0 168 37l22 -49q-78 -42 -190 -42zM418 48q52 0 88.5 43.5t36.5 102.5q0 52 -32 89t-79 37q-55 0 -90 -40.5
t-35 -108.5q0 -56 30.5 -89.5t80.5 -33.5z" />
    <glyph glyph-name="A" unicode="A" horiz-adv-x="642" 
d="M137 115l-65 -115h-72l398 687h11l161 -687h-71l-26 115h-336zM460 174l-68 301l-12 78q-17 -43 -37 -78l-172 -301h289z" />
    <glyph glyph-name="B" unicode="B" horiz-adv-x="595" 
d="M51 0l119 680h213q79 0 122.5 -43t43.5 -108q0 -122 -113 -158q51 -13 82 -54t30 -100q0 -96 -61.5 -156.5t-171.5 -60.5h-264zM193 402h160q62 0 93.5 33t31.5 91q0 40 -26.5 65.5t-76.5 25.5h-144zM133 63h175q83 0 125 41.5t42 114.5q1 56 -30 89t-94 33h-169z" />
    <glyph glyph-name="C" unicode="C" horiz-adv-x="712" 
d="M392 -8q-139 0 -230 93t-91 235q0 158 105.5 263t257.5 105q177 0 261 -133l-56 -37q-72 107 -207 107q-122 0 -205 -87.5t-83 -215.5q0 -116 70.5 -191.5t180.5 -75.5q131 0 218 99l52 -41q-105 -121 -273 -121z" />
    <glyph glyph-name="D" unicode="D" horiz-adv-x="659" 
d="M54 0l120 680h154q149 0 230.5 -82.5t81.5 -219.5q0 -171 -107 -274.5t-288 -103.5h-191zM136 62h105q159 0 242 87.5t83 230.5q0 109 -61.5 173.5t-184.5 64.5h-86z" />
    <glyph glyph-name="E" unicode="E" horiz-adv-x="566" 
d="M54 0l120 680h405l-10 -62h-336l-56 -321h298l-11 -61h-298l-31 -174h349l-11 -62h-419z" />
    <glyph glyph-name="F" unicode="F" horiz-adv-x="544" 
d="M54 0l120 680h401l-12 -62h-330l-56 -321h300l-11 -63h-300l-41 -234h-71z" />
    <glyph glyph-name="G" unicode="G" horiz-adv-x="735" 
d="M409 -8q-149 0 -242 90.5t-93 236.5q0 160 106.5 264.5t256.5 104.5q160 0 244 -97l-52 -46q-67 80 -193 80q-123 0 -206 -87t-83 -217q0 -120 72 -193.5t190 -73.5q98 0 178 48l28 159h-198l11 62h264l-45 -259q-100 -72 -238 -72z" />
    <glyph glyph-name="H" unicode="H" horiz-adv-x="677" 
d="M532 297l68 383h71l-120 -680h-71l41 234h-355l-41 -234h-71l120 680h71l-68 -383h355z" />
    <glyph glyph-name="I" unicode="I" horiz-adv-x="259" 
d="M58 0l120 680h71l-120 -680h-71z" />
    <glyph glyph-name="J" unicode="J" horiz-adv-x="455" 
d="M176 -8q-62 0 -105.5 29.5t-63.5 74.5l61 34q39 -74 110 -74q95 0 114 108l91 516h71l-92 -526q-28 -162 -186 -162z" />
    <glyph glyph-name="K" unicode="K" horiz-adv-x="592" 
d="M168 287q33 49 60 77l306 316h85l-311 -324l219 -356h-80l-191 311l-93 -92l-38 -219h-71l120 680h71l-54 -304q-4 -24 -23 -89z" />
    <glyph glyph-name="L" unicode="L" horiz-adv-x="515" 
d="M54 0l120 680h71l-109 -617h315l-11 -63h-386z" />
    <glyph glyph-name="M" unicode="M" horiz-adv-x="826" 
d="M54 0l121 688h10l241 -393l385 393h10l-121 -688h-68l79 449l19 82q-30 -43 -60 -73l-249 -259h-11l-159 261l-40 73q-4 -50 -10 -84l-79 -449h-68z" />
    <glyph glyph-name="N" unicode="N" horiz-adv-x="697" 
d="M558 -7l-312 481l-37 64q-1 -47 -7 -76l-81 -462h-67l121 687h11l313 -483l36 -64q2 42 7 76l82 464h67l-121 -687h-12z" />
    <glyph glyph-name="O" unicode="O" horiz-adv-x="784" 
d="M395 -8q-139 0 -230.5 91.5t-91.5 234.5q0 161 105 265.5t258 104.5q138 0 230.5 -91.5t92.5 -233.5q0 -161 -105.5 -266t-258.5 -105zM398 55q125 0 206.5 88t81.5 221q0 116 -69.5 188t-181.5 72q-125 0 -207 -87t-82 -219q0 -116 69.5 -189.5t182.5 -73.5z" />
    <glyph glyph-name="P" unicode="P" horiz-adv-x="572" 
d="M156 169l-30 -169h-71l120 680h139q118 0 182 -64.5t63 -166.5q0 -127 -79 -203.5t-222 -76.5h-102zM167 230h91q117 0 172.5 59.5t55.5 159.5q1 77 -43 123.5t-135 46.5h-73z" />
    <glyph glyph-name="Q" unicode="Q" horiz-adv-x="784" 
d="M632 80l79 -102l-53 -40l-80 103q-85 -49 -183 -49q-139 0 -230.5 91.5t-91.5 234.5q0 161 105 265.5t258 104.5q138 0 230.5 -91.5t92.5 -233.5q0 -172 -127 -283zM541 89l-92 119l53 40l92 -120q92 87 92 236q0 116 -69.5 188t-181.5 72q-125 0 -207 -87t-82 -219
q0 -116 69.5 -190t182.5 -74q81 0 143 35z" />
    <glyph glyph-name="R" unicode="R" horiz-adv-x="577" 
d="M380 200l107 -200h-76l-97 184q-23 -4 -56 -4h-104l-32 -180h-71l120 680h135q118 0 183 -62.5t64 -164.5q-1 -91 -44.5 -158.5t-128.5 -94.5zM165 241h93q114 0 167.5 56.5t54.5 155.5q1 78 -44.5 121.5t-136.5 43.5h-68z" />
    <glyph glyph-name="S" unicode="S" horiz-adv-x="528" 
d="M243 -8q-82 0 -141 39.5t-88 94.5l61 36q66 -108 168 -108q69 0 107 35.5t38 94.5q0 39 -21.5 65.5t-74.5 60.5l-47 30q-61 39 -90.5 81.5t-29.5 98.5q0 76 50 122t126 46q113 0 172 -92l-56 -39q-23 35 -50 52t-69 17q-45 0 -74 -27.5t-29 -75.5q0 -38 19.5 -64.5
t66.5 -55.5l47 -30q69 -44 100.5 -86t31.5 -104q0 -87 -59 -139t-158 -52z" />
    <glyph glyph-name="T" unicode="T" horiz-adv-x="543" 
d="M200 0l110 618h-206l11 62h481l-11 -62h-204l-109 -618h-72z" />
    <glyph glyph-name="U" unicode="U" horiz-adv-x="648" 
d="M313 -8q-111 0 -176 69.5t-44 190.5l75 428h72l-75 -429q-17 -96 25 -146t126 -50q74 0 118.5 38t59.5 123l81 464h72l-84 -473q-37 -215 -250 -215z" />
    <glyph glyph-name="V" unicode="V" horiz-adv-x="641" 
d="M283 -7l-164 687h73l105 -452q4 -16 7.5 -40.5t5.5 -40.5l2 -16q24 60 44 95l259 454h75l-394 -687h-13z" />
    <glyph glyph-name="W" unicode="W" horiz-adv-x="932" 
d="M218 -7l-101 687h74l63 -444l5 -84q20 52 36 81l251 454h12l89 -451l13 -83q14 51 29 81l220 446h74l-342 -687h-11l-93 468l-10 77q-18 -47 -34 -75l-263 -470h-12z" />
    <glyph glyph-name="X" unicode="X" horiz-adv-x="613" 
d="M1 0l295 371l-138 309h76l94 -207q4 -10 8 -24.5t6 -24.5l2 -9q15 33 32 56l166 209h79l-246 -310l166 -370h-77l-119 266q-4 10 -8 24.5t-6 23.5l-2 10q-16 -33 -33 -55l-216 -269h-79z" />
    <glyph glyph-name="Y" unicode="Y" horiz-adv-x="641" 
d="M288 215l-170 465h75l123 -336q4 -12 8.5 -30t6.5 -30l2 -12q19 44 38 72l240 336h79l-331 -466l-38 -214h-71z" />
    <glyph glyph-name="Z" unicode="Z" horiz-adv-x="577" 
d="M9 0v11l469 608h-318l11 61h428v-11l-470 -608h372l-11 -61h-481z" />
    <glyph glyph-name="bracketleft" unicode="[" horiz-adv-x="299" 
d="M14 -128l150 850h191l-10 -59h-122l-129 -732h122l-11 -59h-191z" />
    <glyph glyph-name="backslash" unicode="\" horiz-adv-x="408" 
d="M265 -128l-150 850h67l150 -850h-67z" />
    <glyph glyph-name="bracketright" unicode="]" horiz-adv-x="300" 
d="M-24 -128l11 59h122l129 732h-122l10 59h192l-150 -850h-192z" />
    <glyph glyph-name="asciicircum" unicode="^" horiz-adv-x="412" 
d="M112 463l173 225h10l96 -225h-55l-61 129l-104 -129h-59z" />
    <glyph glyph-name="underscore" unicode="_" horiz-adv-x="254" 
d="M-61 -128l11 61h258l-10 -61h-259z" />
    <glyph glyph-name="grave" unicode="`" horiz-adv-x="497" 
d="M259 498l-87 193h80l61 -193h-54z" />
    <glyph glyph-name="a" unicode="a" horiz-adv-x="528" 
d="M216 -8q-76 0 -123.5 54.5t-47.5 144.5q0 102 59 167t145 65q55 0 97 -33t57 -89l17 113h68l-57 -327q-5 -32 20 -32h38l-10 -55h-45q-43 0 -58 18t-11 54l3 13q-57 -93 -152 -93zM233 51q64 0 107.5 47.5t43.5 121.5q0 62 -33.5 102.5t-89.5 40.5q-65 0 -105.5 -48.5
t-40.5 -124.5q0 -62 32 -100.5t86 -38.5z" />
    <glyph glyph-name="b" unicode="b" horiz-adv-x="540" 
d="M290 -8q-59 0 -103 33.5t-60 90.5l-16 -116h-68l126 722h68l-68 -387q56 88 151 88q79 0 127.5 -55t48.5 -144q0 -100 -60 -166t-146 -66zM274 51q68 0 110 49t42 124q0 62 -33.5 100.5t-89.5 38.5q-67 0 -111.5 -48t-44.5 -121q0 -63 34.5 -103t92.5 -40z" />
    <glyph glyph-name="c" unicode="c" horiz-adv-x="455" 
d="M250 -8q-88 0 -146 58.5t-58 147.5q0 96 64 160.5t160 64.5q102 0 159 -74l-50 -40q-39 54 -109 54q-69 0 -111.5 -47t-42.5 -119q0 -63 37 -104.5t97 -41.5q64 0 110 41l40 -45q-59 -55 -150 -55z" />
    <glyph glyph-name="d" unicode="d" horiz-adv-x="541" 
d="M220 -8q-78 0 -126.5 55.5t-48.5 143.5q0 102 60.5 167t148.5 65q56 0 99 -32t58 -83l74 414h68l-112 -635q-6 -32 19 -32h38l-9 -55h-46q-43 0 -58 18.5t-11 54.5l3 13q-25 -44 -67 -69t-90 -25zM238 51q67 0 111.5 47.5t44.5 121.5q1 62 -34.5 102.5t-93.5 40.5
q-68 0 -109.5 -48.5t-41.5 -124.5q0 -62 33.5 -100.5t89.5 -38.5z" />
    <glyph glyph-name="e" unicode="e" horiz-adv-x="499" 
d="M116 170q8 -55 46 -88t96 -33q79 0 129 52l43 -42q-65 -67 -172 -67q-94 0 -153 58.5t-59 147.5q0 96 62 160.5t153 64.5q93 0 143 -59.5t52 -157.5zM115 222l269 28q-5 50 -35.5 83.5t-88.5 33.5q-60 0 -99 -40t-46 -105z" />
    <glyph glyph-name="f" unicode="f" horiz-adv-x="310" 
d="M128 356h-66l10 58h66l34 193q23 128 127 128q64 0 100 -50l-47 -40q-22 29 -51 29q-25 0 -40 -15.5t-22 -55.5l-33 -189h107l-10 -58h-107l-80 -454q-12 -67 -40 -90.5t-82 -23.5h-42l10 55h30q22 0 36 13.5t21 52.5z" />
    <glyph glyph-name="g" unicode="g" horiz-adv-x="533" 
d="M202 -223q-68 0 -119.5 31t-76.5 78l55 34q48 -83 141 -83q124 0 152 143l20 99q-56 -87 -152 -87q-78 0 -126.5 55.5t-48.5 143.5q0 102 61 167t149 65q57 0 100 -33t59 -89l16 113h68l-78 -442q-18 -98 -74.5 -146.5t-145.5 -48.5zM240 51q67 0 111.5 47.5t45.5 121.5
q0 62 -35.5 102.5t-93.5 40.5q-68 0 -109.5 -48.5t-41.5 -124.5q0 -62 33.5 -100.5t89.5 -38.5z" />
    <glyph glyph-name="h" unicode="h" horiz-adv-x="510" 
d="M42 0l127 722h68l-68 -385q53 86 144 86q70 0 107.5 -50t23.5 -134l-27 -152q-6 -32 19 -32h38l-9 -55h-44q-87 0 -70 94l24 139q11 60 -11.5 94.5t-74.5 34.5q-115 0 -138 -129l-41 -233h-68z" />
    <glyph glyph-name="i" unicode="i" horiz-adv-x="233" 
d="M178 535q-19 0 -33.5 13.5t-14.5 34.5t14 35t34 14q19 0 33.5 -14t14.5 -35t-14 -34.5t-34 -13.5zM127 0q-45 0 -61 22t-8 70l56 322h68l-57 -327q-6 -32 19 -32h41l-10 -55h-48z" />
    <glyph glyph-name="j" unicode="j" horiz-adv-x="225" 
d="M180 535q-19 0 -33.5 13.5t-14.5 34.5t14 35t34 14q19 0 33.5 -14t14.5 -35t-14 -34.5t-34 -13.5zM-22 -222q-58 0 -94 40l43 40q20 -22 46 -22q22 0 34 13t17 44l92 521h68l-91 -521q-21 -115 -115 -115z" />
    <glyph glyph-name="k" unicode="k" horiz-adv-x="462" 
d="M132 130l-22 -130h-68l127 722h68l-82 -463q-5 -26 -15 -61l228 216h81l-185 -176l96 -162q13 -21 37 -21h26l-10 -55h-29q-30 0 -48 11t-34 39l-89 149z" />
    <glyph glyph-name="l" unicode="l" horiz-adv-x="235" 
d="M132 0q-45 0 -61 22t-8 70l112 630h68l-113 -635q-6 -32 19 -32h46l-10 -55h-53z" />
    <glyph glyph-name="m" unicode="m" horiz-adv-x="742" 
d="M35 0l73 414h68l-16 -75q50 84 134 84q43 0 72 -24t40 -65q50 89 149 89q67 0 101 -50.5t19 -133.5l-27 -152q-5 -32 20 -32h38l-10 -55h-46q-45 0 -61 22t-7 70l24 141q23 129 -72 129q-101 0 -124 -129l-41 -233h-68l41 233q11 60 -6.5 94.5t-64.5 34.5
q-104 0 -127 -129l-41 -233h-68z" />
    <glyph glyph-name="n" unicode="n" horiz-adv-x="501" 
d="M35 0l73 414h68l-17 -83q50 92 147 92q70 0 108 -50t23 -134l-27 -152q-6 -32 20 -32h38l-10 -55h-46q-45 0 -61 22t-8 70l25 141q11 60 -11.5 94.5t-74.5 34.5q-115 0 -138 -129l-41 -233h-68z" />
    <glyph glyph-name="o" unicode="o" horiz-adv-x="521" 
d="M253 -8q-87 0 -147 59.5t-60 145.5q0 96 65 161t159 65q87 0 146.5 -60t59.5 -146q0 -96 -64.5 -160.5t-158.5 -64.5zM254 51q68 0 110 47t42 120q0 63 -38 104t-99 41q-67 0 -110 -47.5t-43 -119.5q0 -63 38.5 -104t99.5 -41z" />
    <glyph glyph-name="p" unicode="p" horiz-adv-x="534" 
d="M-2 -212l110 626h68l-18 -85q57 94 156 94q78 0 127 -55.5t49 -143.5q0 -100 -60.5 -166t-146.5 -66q-58 0 -101.5 32.5t-58.5 84.5l-57 -321h-68zM268 51q68 0 110 49t42 124q0 62 -34 100.5t-90 38.5q-67 0 -111.5 -48t-44.5 -121q0 -63 35 -103t93 -40z" />
    <glyph glyph-name="q" unicode="q" horiz-adv-x="534" 
d="M405 -212q-45 0 -61 22t-8 70l36 199q-56 -87 -152 -87q-78 0 -126.5 55.5t-48.5 143.5q0 102 60.5 167t148.5 65q57 0 100.5 -33t58.5 -89l17 113h68l-95 -539q-6 -32 19 -32h38l-9 -55h-46zM238 51q67 0 111.5 47.5t44.5 121.5q1 62 -34.5 102.5t-93.5 40.5
q-68 0 -109.5 -48.5t-41.5 -124.5q0 -62 33.5 -100.5t89.5 -38.5z" />
    <glyph glyph-name="r" unicode="r" horiz-adv-x="330" 
d="M35 0l73 414h68l-20 -89q48 97 129 97q28 0 54 -13l-27 -61q-17 10 -41 10q-51 0 -84.5 -37t-45.5 -105l-38 -216h-68z" />
    <glyph glyph-name="s" unicode="s" horiz-adv-x="403" 
d="M186 -8q-60 0 -104 25t-66 66l52 33q42 -68 120 -68q84 0 84 62q0 24 -18 38.5t-73 42.5q-51 25 -76.5 52t-25.5 70q0 52 37.5 81t94.5 29q86 0 133 -63l-47 -38q-37 46 -87 46q-30 0 -48.5 -13t-18.5 -37q0 -23 17 -38.5t61 -36.5q28 -13 44.5 -23t35.5 -26t28 -36.5
t9 -45.5q0 -55 -39 -87.5t-113 -32.5z" />
    <glyph glyph-name="t" unicode="t" horiz-adv-x="328" 
d="M122 356h-62l10 58h62l39 216h67l-38 -216h112l-10 -58h-112l-41 -231q-13 -74 39 -74q28 0 54 22l32 -46q-39 -35 -94 -35q-54 0 -82.5 33.5t-15.5 102.5z" />
    <glyph glyph-name="u" unicode="u" horiz-adv-x="503" 
d="M193 -9q-70 0 -107.5 50t-23.5 134l42 239h68l-41 -233q-11 -60 11.5 -94.5t74.5 -34.5q114 0 137 129l42 233h68l-58 -327q-5 -32 20 -32h38l-10 -55h-45q-42 0 -58 21t-11 52l1 7q-54 -89 -148 -89z" />
    <glyph glyph-name="v" unicode="v" horiz-adv-x="451" 
d="M189 -8l-131 422h71l70 -239q4 -12 7 -30t4 -29l1 -12q15 42 31 69l146 241h73l-260 -422h-12z" />
    <glyph glyph-name="w" unicode="w" horiz-adv-x="669" 
d="M161 -9l-100 423h71l51 -232l10 -63q15 36 31 63l143 238h9l68 -235l12 -63q13 36 28 63l126 229h71l-234 -423h-11l-69 246l-12 62q-12 -34 -27 -59l-156 -249h-11z" />
    <glyph glyph-name="x" unicode="x" horiz-adv-x="460" 
d="M-6 0l198 221l-104 193h76l57 -108l17 -45q14 28 27 44l97 109h80l-169 -190l122 -224h-77l-72 135l-19 50q-17 -33 -32 -49l-122 -136h-79z" />
    <glyph glyph-name="y" unicode="y" horiz-adv-x="504" 
d="M184 -223q-61 0 -107 26.5t-69 72.5l54 35q42 -74 122 -74q114 0 138 133l18 99q-53 -78 -141 -78q-70 0 -108 50t-23 134l42 239h68l-41 -233q-11 -60 11.5 -94.5t74.5 -34.5q114 0 137 129l42 233h68l-80 -453q-16 -92 -69.5 -138t-136.5 -46z" />
    <glyph glyph-name="z" unicode="z" horiz-adv-x="421" 
d="M10 0v10l294 347h-211l10 57h318v-11l-293 -347h230l-10 -56h-338z" />
    <glyph glyph-name="braceleft" unicode="{" horiz-adv-x="361" 
d="M217 -128q-61 0 -94 34.5t-18 116.5l25 147q7 40 -3.5 54t-38.5 14h-59l10 59h56q30 0 47 16t24 58l39 217q14 78 50 106t91 28h71l-10 -59h-55q-34 0 -51.5 -16.5t-26.5 -63.5l-40 -227q-8 -44 -28 -63.5t-54 -25.5q63 -16 48 -99l-26 -151q-9 -49 4.5 -67.5t48.5 -18.5
h51l-11 -59h-50z" />
    <glyph glyph-name="bar" unicode="|" horiz-adv-x="236" 
d="M25 -128l150 850h67l-150 -850h-67z" />
    <glyph glyph-name="braceright" unicode="}" horiz-adv-x="362" 
d="M-25 -128l10 59h56q33 0 51 16.5t26 63.5l29 167q8 45 28 64.5t55 25.5q-62 14 -49 98l38 211q9 49 -4.5 67.5t-48.5 18.5h-51l10 59h51q60 0 93.5 -35t18.5 -116l-37 -207q-7 -39 3.5 -53.5t38.5 -14.5h60l-11 -58h-55q-30 0 -47 -16.5t-25 -58.5l-28 -157
q-14 -78 -50.5 -106t-90.5 -28h-71z" />
    <glyph glyph-name="asciitilde" unicode="~" horiz-adv-x="386" 
d="M110 224l-51 6q19 110 93 110q29 0 64 -31q4 -3 11 -9.5t10 -9t8 -6t9 -4.5t8 -1q15 0 24 13t17 47l51 -6q-18 -110 -92 -110q-30 0 -65 31q-3 3 -9 8.5t-8.5 8t-7 5.5t-7 4.5t-6 2.5t-7.5 1q-28 0 -42 -60z" />
    <glyph glyph-name="nbspace" unicode="&#xa0;" horiz-adv-x="232" 
 />
    <glyph glyph-name="exclamdown" unicode="&#xa1;" horiz-adv-x="235" 
d="M194 687q21 0 36 -15.5t15 -37.5t-15 -37.5t-36 -15.5t-37 15.5t-16 37.5t16 37.5t37 15.5zM195 490l-77 -490h-77l101 490h53z" />
    <glyph glyph-name="cent" unicode="&#xa2;" horiz-adv-x="455" 
d="M188 1q-64 19 -103 72.5t-39 124.5q0 93 61.5 157.5t154.5 67.5l19 106h50l-19 -109q72 -12 117 -71l-50 -40q-31 41 -77 52l-55 -311h3q61 0 110 41l40 -44q-59 -55 -150 -55h-13l-19 -108h-50zM252 363q-62 -6 -99.5 -51.5t-37.5 -114.5q0 -47 22.5 -84.5t60.5 -52.5z
" />
    <glyph glyph-name="sterling" unicode="&#xa3;" horiz-adv-x="540" 
d="M188 260h-96l10 55h78q-10 78 -10 113q0 89 52.5 139.5t140.5 50.5q117 0 171 -106l-55 -33q-42 78 -117 78q-122 0 -122 -134q0 -22 7 -108h157l-10 -55h-141q6 -46 6 -99q0 -30 -8 -59q67 -51 110 -51q51 0 93 44l41 -42q-52 -61 -134 -61q-62 0 -134 60
q-42 -60 -117 -60q-46 0 -74 25t-28 63q0 42 29 66t74 24q41 0 87 -28v9q0 47 -10 109zM185 88q-43 36 -74 36q-22 0 -35.5 -12t-13.5 -31t13 -31t35 -12q50 0 75 50z" />
    <glyph glyph-name="yen" unicode="&#xa5;" horiz-adv-x="543" 
d="M226 167l-28 70h-136l9 55h105l-84 212h73l90 -232l16 -71q14 39 35 70l172 233h77l-159 -212h104l-9 -55h-136l-52 -70h176l-9 -55h-181l-19 -112h-70l20 112h-179l9 55h176z" />
    <glyph glyph-name="brokenbar" unicode="&#xa6;" 
d="M107 189q-21 0 -37.5 16t-16.5 39t16 38.5t38 15.5t38 -15.5t16 -38.5t-16 -39t-38 -16z" />
    <glyph glyph-name="section" unicode="&#xa7;" horiz-adv-x="486" 
d="M145 413q-12 27 -12 61q0 63 44.5 103.5t112.5 40.5q107 0 152 -91l-55 -29q-32 63 -96 63q-43 0 -66.5 -24t-23.5 -62q0 -57 58 -83l89 -42q108 -48 108 -136q0 -82 -96 -117q15 -27 15 -64q0 -62 -44 -99t-120 -37q-67 0 -114 31t-65 76l57 27q35 -77 120 -77
q44 0 70 21.5t26 57.5q0 29 -16.5 47t-53.5 35l-80 37q-58 27 -83 59t-25 82q0 44 27 76t71 44zM331 133q59 20 59 75q0 51 -69 83l-87 41q-40 18 -65 45q-57 -19 -57 -77q0 -31 16 -50t53 -37l80 -36q46 -21 70 -44z" />
    <glyph glyph-name="dieresis" unicode="&#xa8;" horiz-adv-x="497" 
d="M397 517q-18 0 -31.5 13.5t-13.5 31.5q0 19 13.5 32.5t31.5 13.5t31.5 -13.5t13.5 -32.5t-13.5 -32t-31.5 -13zM227 517q-18 0 -31.5 13t-13.5 32t13.5 32.5t31.5 13.5t31.5 -13.5t13.5 -32.5q0 -18 -13.5 -31.5t-31.5 -13.5z" />
    <glyph glyph-name="copyright" unicode="&#xa9;" horiz-adv-x="599" 
d="M308 -7q-107 0 -183.5 74.5t-76.5 184.5q0 111 76.5 185.5t183.5 74.5t183.5 -74.5t76.5 -185.5q0 -110 -76.5 -184.5t-183.5 -74.5zM308 33q92 0 154.5 62t62.5 157q0 96 -62.5 158t-154.5 62q-93 0 -155.5 -62t-62.5 -158q0 -95 63 -157t155 -62zM308 103
q-62 0 -103 42t-41 104q0 67 43 110t106 43q69 0 113 -49l-42 -37q-26 32 -69 32q-38 0 -63.5 -28t-25.5 -71q0 -40 23 -66t59 -26q43 0 71 30l39 -37q-43 -47 -110 -47z" />
    <glyph glyph-name="ordfeminine" unicode="&#xaa;" horiz-adv-x="471" 
d="M213 146q-64 0 -106 46t-42 123q0 88 51.5 142.5t125.5 54.5q46 0 81 -27t47 -74l14 93h61l-48 -274q-5 -27 18 -27h32l-9 -50h-38q-36 0 -50 16t-12 45v6q-48 -74 -125 -74zM228 200q54 0 90 39t36 101q0 52 -27.5 85t-75.5 33q-55 0 -88 -39.5t-33 -103.5
q0 -52 26 -83.5t72 -31.5z" />
    <glyph glyph-name="guillemotleft" unicode="&#xab;" horiz-adv-x="390" 
d="M252 37l-65 151l1 8l118 165h75l-126 -172l68 -152h-71zM102 37l-66 151l1 8l118 165h75l-125 -172l67 -152h-70z" />
    <glyph glyph-name="logicalnot" unicode="&#xac;" 
d="M107 189q-21 0 -37.5 16t-16.5 39t16 38.5t38 15.5t38 -15.5t16 -38.5t-16 -39t-38 -16z" />
    <glyph glyph-name="registered" unicode="&#xae;" horiz-adv-x="515" 
d="M304 265q-90 0 -153 61t-63 153q0 93 63 154t153 61q91 0 155 -61t64 -154q0 -92 -64 -153t-155 -61zM304 299q79 0 129.5 49.5t50.5 130.5q0 82 -50 131.5t-130 49.5q-78 0 -127 -49.5t-49 -131.5q0 -81 49 -130.5t127 -49.5zM351 430l35 -67h-46l-30 57h-12h-37
l-10 -57h-44l42 236h64q47 0 71.5 -27t21.5 -66q-3 -55 -55 -76zM267 455h32q57 0 62 51q3 25 -9.5 41t-40.5 16h-25z" />
    <glyph glyph-name="macron" unicode="&#xaf;" horiz-adv-x="497" 
d="M200 519l9 54h209l-10 -54h-208z" />
    <glyph glyph-name="macron" unicode="&#x2c9;" horiz-adv-x="497" 
d="M200 519l9 54h209l-10 -54h-208z" />
    <glyph glyph-name="degree" unicode="&#xb0;" horiz-adv-x="323" 
d="M187 286q-47 0 -79.5 31.5t-32.5 77.5q0 50 35 83.5t85 33.5q47 0 79 -31.5t32 -77.5q0 -50 -35 -83.5t-84 -33.5zM187 330q30 0 48.5 21t18.5 53q0 29 -16 46t-44 17q-30 0 -49 -20.5t-19 -52.5q0 -29 16.5 -46.5t44.5 -17.5z" />
    <glyph glyph-name="twosuperior" unicode="&#xb2;" 
d="M107 189q-21 0 -37.5 16t-16.5 39t16 38.5t38 15.5t38 -15.5t16 -38.5t-16 -39t-38 -16z" />
    <glyph glyph-name="threesuperior" unicode="&#xb3;" 
d="M107 189q-21 0 -37.5 16t-16.5 39t16 38.5t38 15.5t38 -15.5t16 -38.5t-16 -39t-38 -16z" />
    <glyph glyph-name="acute" unicode="&#xb4;" horiz-adv-x="497" 
d="M267 498l98 193h84l-127 -193h-55z" />
    <glyph glyph-name="mu" unicode="&#xb5;" 
d="M107 189q-21 0 -37.5 16t-16.5 39t16 38.5t38 15.5t38 -15.5t16 -38.5t-16 -39t-38 -16z" />
    <glyph glyph-name="mu" unicode="&#x3bc;" 
d="M107 189q-21 0 -37.5 16t-16.5 39t16 38.5t38 15.5t38 -15.5t16 -38.5t-16 -39t-38 -16z" />
    <glyph glyph-name="paragraph" unicode="&#xb6;" horiz-adv-x="619" 
d="M327 304h-41q-87 0 -136.5 49t-49.5 125q0 86 59 144t154 58h298l-120 -680h-69l109 620h-79l-109 -620h-69zM338 364l45 256h-73q-62 0 -98.5 -38t-36.5 -103q0 -55 30.5 -85t84.5 -30h48z" />
    <glyph glyph-name="periodcentered" unicode="&#xb7;" 
d="M107 189q-21 0 -37.5 16t-16.5 39t16 38.5t38 15.5t38 -15.5t16 -38.5t-16 -39t-38 -16z" />
    <glyph glyph-name="periodcentered" unicode="&#x2219;" 
d="M107 189q-21 0 -37.5 16t-16.5 39t16 38.5t38 15.5t38 -15.5t16 -38.5t-16 -39t-38 -16z" />
    <glyph glyph-name="cedilla" unicode="&#xb8;" horiz-adv-x="497" 
d="M209 -232q-38 0 -64.5 17t-37.5 43l44 24q17 -37 55 -37q21 0 34 12.5t13 33.5q0 20 -13 34t-38 14h-21l16 91h46l-9 -53q30 -5 51 -28.5t21 -58.5q0 -42 -28.5 -67t-68.5 -25z" />
    <glyph glyph-name="onesuperior" unicode="&#xb9;" 
d="M107 189q-21 0 -37.5 16t-16.5 39t16 38.5t38 15.5t38 -15.5t16 -38.5t-16 -39t-38 -16z" />
    <glyph glyph-name="ordmasculine" unicode="&#xba;" horiz-adv-x="445" 
d="M238 146q-74 0 -123 50.5t-49 126.5q0 81 54 135t130 54q74 0 123 -51.5t49 -125.5q0 -84 -53.5 -136.5t-130.5 -52.5zM239 200q52 0 85 37.5t33 99.5q0 52 -29.5 86.5t-78.5 34.5q-53 0 -85 -38t-32 -99q0 -53 29 -87t78 -34z" />
    <glyph glyph-name="guillemotright" unicode="&#xbb;" horiz-adv-x="389" 
d="M159 37l126 173l-68 151h71l65 -150l-1 -8l-118 -166h-75zM8 37l126 173l-68 151h71l66 -150l-2 -8l-118 -166h-75z" />
    <glyph glyph-name="onequarter" unicode="&#xbc;" 
d="M107 189q-21 0 -37.5 16t-16.5 39t16 38.5t38 15.5t38 -15.5t16 -38.5t-16 -39t-38 -16z" />
    <glyph glyph-name="onehalf" unicode="&#xbd;" 
d="M107 189q-21 0 -37.5 16t-16.5 39t16 38.5t38 15.5t38 -15.5t16 -38.5t-16 -39t-38 -16z" />
    <glyph glyph-name="threequarters" unicode="&#xbe;" 
d="M107 189q-21 0 -37.5 16t-16.5 39t16 38.5t38 15.5t38 -15.5t16 -38.5t-16 -39t-38 -16z" />
    <glyph glyph-name="questiondown" unicode="&#xbf;" horiz-adv-x="467" 
d="M329 687q21 0 36.5 -15t15.5 -37t-15.5 -37.5t-36.5 -15.5t-36.5 15.5t-15.5 37.5t15.5 37t36.5 15zM338 494l-31 -176h-44q-71 0 -110.5 -40.5t-39.5 -102.5q0 -56 33 -88.5t87 -32.5q90 0 139 89l53 -30q-26 -57 -77 -88.5t-116 -31.5q-85 0 -137 50.5t-52 131.5
q0 86 58.5 141.5t150.5 55.5l21 122h65z" />
    <glyph glyph-name="Agrave" unicode="&#xc0;" horiz-adv-x="642" 
d="M137 115l-65 -115h-72l398 687h11l161 -687h-71l-26 115h-336zM460 174l-68 301l-12 78q-17 -43 -37 -78l-172 -301h289zM372 753l-87 193h80l61 -193h-54z" />
    <glyph glyph-name="Aacute" unicode="&#xc1;" horiz-adv-x="642" 
d="M137 115l-65 -115h-72l398 687h11l161 -687h-71l-26 115h-336zM460 174l-68 301l-12 78q-17 -43 -37 -78l-172 -301h289zM374 753l98 193h84l-127 -193h-55z" />
    <glyph glyph-name="Acircumflex" unicode="&#xc2;" horiz-adv-x="642" 
d="M137 115l-65 -115h-72l398 687h11l161 -687h-71l-26 115h-336zM460 174l-68 301l-12 78q-17 -43 -37 -78l-172 -301h289zM265 751l158 193h10l94 -193h-55l-56 106l-91 -106h-60z" />
    <glyph glyph-name="Atilde" unicode="&#xc3;" horiz-adv-x="642" 
d="M137 115l-65 -115h-72l398 687h11l161 -687h-71l-26 115h-336zM460 174l-68 301l-12 78q-17 -43 -37 -78l-172 -301h289zM305 747l-51 6q19 110 93 110q29 0 64 -31q4 -3 11 -9.5t10 -9t8 -6t9 -4.5t8 -1q15 0 24 13t17 47l51 -6q-18 -110 -92 -110q-30 0 -65 31
q-3 3 -9 8.5t-8.5 8t-7 5.5t-7 4.5t-6 2.5t-7.5 1q-28 0 -42 -60z" />
    <glyph glyph-name="Adieresis" unicode="&#xc4;" horiz-adv-x="642" 
d="M495 772q-18 0 -31.5 13.5t-13.5 31.5q0 19 13.5 32.5t31.5 13.5t31.5 -13.5t13.5 -32.5t-13.5 -32t-31.5 -13zM325 772q-18 0 -31.5 13t-13.5 32t13.5 32.5t31.5 13.5t31.5 -13.5t13.5 -32.5q0 -18 -13.5 -31.5t-31.5 -13.5zM137 115l-65 -115h-72l398 687h11l161 -687
h-71l-26 115h-336zM460 174l-68 301l-12 78q-17 -43 -37 -78l-172 -301h289z" />
    <glyph glyph-name="Aring" unicode="&#xc5;" horiz-adv-x="642" 
d="M409 739q-43 0 -73.5 29.5t-30.5 70.5q0 42 30.5 71.5t73.5 29.5t73.5 -29.5t30.5 -71.5q0 -41 -30.5 -70.5t-73.5 -29.5zM137 115l-65 -115h-72l398 687h11l161 -687h-71l-26 115h-336zM409 783q23 0 37.5 15.5t14.5 40.5q0 26 -14.5 41t-37.5 15t-38 -15t-15 -41
q0 -25 15 -40.5t38 -15.5zM460 174l-68 301l-12 78q-17 -43 -37 -78l-172 -301h289z" />
    <glyph glyph-name="AE" unicode="&#xc6;" horiz-adv-x="927" 
d="M162 114l-93 -114h-79l562 680h388l-10 -62h-332l-57 -321h295l-10 -62h-296l-31 -173h346l-11 -62h-416l20 114h-276zM448 174l54 308l24 89q-32 -51 -56 -80l-259 -317h237z" />
    <glyph glyph-name="Ccedilla" unicode="&#xc7;" horiz-adv-x="712" 
d="M333 -3q-116 20 -189 109t-73 214q0 158 105.5 263t257.5 105q177 0 261 -133l-56 -37q-72 107 -207 107q-122 0 -205 -87.5t-83 -215.5q0 -116 70.5 -191.5t180.5 -75.5q131 0 218 99l52 -41q-105 -121 -273 -121h-13l-8 -45q30 -5 51 -28.5t21 -58.5q0 -42 -28.5 -67
t-68.5 -25q-38 0 -64.5 17t-37.5 43l44 24q17 -37 55 -37q21 0 34 12.5t13 33.5q0 20 -13 34t-38 14h-21z" />
    <glyph glyph-name="Egrave" unicode="&#xc8;" horiz-adv-x="566" 
d="M54 0l120 680h405l-10 -62h-336l-56 -321h298l-11 -61h-298l-31 -174h349l-11 -62h-419zM359 753l-87 193h80l61 -193h-54z" />
    <glyph glyph-name="Eacute" unicode="&#xc9;" horiz-adv-x="566" 
d="M54 0l120 680h405l-10 -62h-336l-56 -321h298l-11 -61h-298l-31 -174h349l-11 -62h-419zM351 753l98 193h84l-127 -193h-55z" />
    <glyph glyph-name="Ecircumflex" unicode="&#xca;" horiz-adv-x="566" 
d="M54 0l120 680h405l-10 -62h-336l-56 -321h298l-11 -61h-298l-31 -174h349l-11 -62h-419zM252 751l158 193h10l94 -193h-55l-56 106l-91 -106h-60z" />
    <glyph glyph-name="Edieresis" unicode="&#xcb;" horiz-adv-x="566" 
d="M54 0l120 680h405l-10 -62h-336l-56 -321h298l-11 -61h-298l-31 -174h349l-11 -62h-419zM474 772q-18 0 -31.5 13.5t-13.5 31.5q0 19 13.5 32.5t31.5 13.5t31.5 -13.5t13.5 -32.5t-13.5 -32t-31.5 -13zM304 772q-18 0 -31.5 13t-13.5 32t13.5 32.5t31.5 13.5t31.5 -13.5
t13.5 -32.5q0 -18 -13.5 -31.5t-31.5 -13.5z" />
    <glyph glyph-name="Igrave" unicode="&#xcc;" horiz-adv-x="259" 
d="M58 0l120 680h71l-120 -680h-71zM189 753l-87 193h80l61 -193h-54z" />
    <glyph glyph-name="Iacute" unicode="&#xcd;" horiz-adv-x="259" 
d="M58 0l120 680h71l-120 -680h-71zM189 753l98 193h84l-127 -193h-55z" />
    <glyph glyph-name="Icircumflex" unicode="&#xce;" horiz-adv-x="259" 
d="M58 0l120 680h71l-120 -680h-71zM92 751l158 193h10l94 -193h-55l-56 106l-91 -106h-60z" />
    <glyph glyph-name="Idieresis" unicode="&#xcf;" horiz-adv-x="259" 
d="M58 0l120 680h71l-120 -680h-71zM325 772q-18 0 -31.5 13.5t-13.5 31.5q0 19 13.5 32.5t31.5 13.5t31.5 -13.5t13.5 -32.5t-13.5 -32t-31.5 -13zM155 772q-18 0 -31.5 13t-13.5 32t13.5 32.5t31.5 13.5t31.5 -13.5t13.5 -32.5q0 -18 -13.5 -31.5t-31.5 -13.5z" />
    <glyph glyph-name="Eth" unicode="&#xd0;" horiz-adv-x="659" 
d="M97 243h-78l11 62h78l66 375h154q147 0 229.5 -83.5t82.5 -218.5q0 -171 -107 -274.5t-288 -103.5h-191zM179 305h180l-11 -62h-180l-32 -181h105q159 0 242 87.5t83 230.5q0 109 -61.5 173.5t-184.5 64.5h-86z" />
    <glyph glyph-name="Ntilde" unicode="&#xd1;" horiz-adv-x="697" 
d="M558 -7l-312 481l-37 64q-1 -47 -7 -76l-81 -462h-67l121 687h11l313 -483l36 -64q2 42 7 76l82 464h67l-121 -687h-12zM342 747l-51 6q19 110 93 110q29 0 64 -31q4 -3 11 -9.5t10 -9t8 -6t9 -4.5t8 -1q15 0 24 13t17 47l51 -6q-18 -110 -92 -110q-30 0 -65 31
q-3 3 -9 8.5t-8.5 8t-7 5.5t-7 4.5t-6 2.5t-7.5 1q-28 0 -42 -60z" />
    <glyph glyph-name="Ograve" unicode="&#xd2;" horiz-adv-x="784" 
d="M395 -8q-139 0 -230.5 91.5t-91.5 234.5q0 161 105 265.5t258 104.5q138 0 230.5 -91.5t92.5 -233.5q0 -161 -105.5 -266t-258.5 -105zM398 55q125 0 206.5 88t81.5 221q0 116 -69.5 188t-181.5 72q-125 0 -207 -87t-82 -219q0 -116 69.5 -189.5t182.5 -73.5zM423 753
l-87 193h80l61 -193h-54z" />
    <glyph glyph-name="Oacute" unicode="&#xd3;" horiz-adv-x="784" 
d="M395 -8q-139 0 -230.5 91.5t-91.5 234.5q0 161 105 265.5t258 104.5q138 0 230.5 -91.5t92.5 -233.5q0 -161 -105.5 -266t-258.5 -105zM398 55q125 0 206.5 88t81.5 221q0 116 -69.5 188t-181.5 72q-125 0 -207 -87t-82 -219q0 -116 69.5 -189.5t182.5 -73.5zM429 753
l98 193h84l-127 -193h-55z" />
    <glyph glyph-name="Ocircumflex" unicode="&#xd4;" horiz-adv-x="784" 
d="M395 -8q-139 0 -230.5 91.5t-91.5 234.5q0 161 105 265.5t258 104.5q138 0 230.5 -91.5t92.5 -233.5q0 -161 -105.5 -266t-258.5 -105zM398 55q125 0 206.5 88t81.5 221q0 116 -69.5 188t-181.5 72q-125 0 -207 -87t-82 -219q0 -116 69.5 -189.5t182.5 -73.5zM327 751
l158 193h10l94 -193h-55l-56 106l-91 -106h-60z" />
    <glyph glyph-name="Otilde" unicode="&#xd5;" horiz-adv-x="784" 
d="M395 -8q-139 0 -230.5 91.5t-91.5 234.5q0 161 105 265.5t258 104.5q138 0 230.5 -91.5t92.5 -233.5q0 -161 -105.5 -266t-258.5 -105zM398 55q125 0 206.5 88t81.5 221q0 116 -69.5 188t-181.5 72q-125 0 -207 -87t-82 -219q0 -116 69.5 -189.5t182.5 -73.5zM366 747
l-51 6q19 110 93 110q29 0 64 -31q4 -3 11 -9.5t10 -9t8 -6t9 -4.5t8 -1q15 0 24 13t17 47l51 -6q-18 -110 -92 -110q-30 0 -65 31q-3 3 -9 8.5t-8.5 8t-7 5.5t-7 4.5t-6 2.5t-7.5 1q-28 0 -42 -60z" />
    <glyph glyph-name="Odieresis" unicode="&#xd6;" horiz-adv-x="784" 
d="M554 772q-18 0 -31.5 13.5t-13.5 31.5q0 19 13.5 32.5t31.5 13.5t31.5 -13.5t13.5 -32.5t-13.5 -32t-31.5 -13zM384 772q-18 0 -31.5 13t-13.5 32t13.5 32.5t31.5 13.5t31.5 -13.5t13.5 -32.5q0 -18 -13.5 -31.5t-31.5 -13.5zM395 -8q-139 0 -230.5 91.5t-91.5 234.5
q0 161 105 265.5t258 104.5q138 0 230.5 -91.5t92.5 -233.5q0 -161 -105.5 -266t-258.5 -105zM398 55q125 0 206.5 88t81.5 221q0 116 -69.5 188t-181.5 72q-125 0 -207 -87t-82 -219q0 -116 69.5 -189.5t182.5 -73.5z" />
    <glyph glyph-name="multiply" unicode="&#xd7;" 
d="M107 189q-21 0 -37.5 16t-16.5 39t16 38.5t38 15.5t38 -15.5t16 -38.5t-16 -39t-38 -16z" />
    <glyph glyph-name="Oslash" unicode="&#xd8;" horiz-adv-x="784" 
d="M692 569q67 -88 67 -206q0 -161 -105.5 -266t-256.5 -105q-126 0 -216 76l-78 -77l-42 43l79 78q-67 86 -67 206q0 160 104.5 265t256.5 105q127 0 216 -76l78 76l42 -43zM190 161l412 404q-65 59 -168 59q-124 0 -206 -87t-82 -219q0 -89 44 -157zM642 520l-413 -405
q68 -60 170 -60q123 0 205 88.5t82 220.5q0 90 -44 156z" />
    <glyph glyph-name="Ugrave" unicode="&#xd9;" horiz-adv-x="648" 
d="M313 -8q-111 0 -176 69.5t-44 190.5l75 428h72l-75 -429q-17 -96 25 -146t126 -50q74 0 118.5 38t59.5 123l81 464h72l-84 -473q-37 -215 -250 -215zM376 753l-87 193h80l61 -193h-54z" />
    <glyph glyph-name="Uacute" unicode="&#xda;" horiz-adv-x="648" 
d="M313 -8q-111 0 -176 69.5t-44 190.5l75 428h72l-75 -429q-17 -96 25 -146t126 -50q74 0 118.5 38t59.5 123l81 464h72l-84 -473q-37 -215 -250 -215zM376 753l98 193h84l-127 -193h-55z" />
    <glyph glyph-name="Ucircumflex" unicode="&#xdb;" horiz-adv-x="648" 
d="M313 -8q-111 0 -176 69.5t-44 190.5l75 428h72l-75 -429q-17 -96 25 -146t126 -50q74 0 118.5 38t59.5 123l81 464h72l-84 -473q-37 -215 -250 -215zM281 751l158 193h10l94 -193h-55l-56 106l-91 -106h-60z" />
    <glyph glyph-name="Udieresis" unicode="&#xdc;" horiz-adv-x="648" 
d="M503 772q-18 0 -31.5 13.5t-13.5 31.5q0 19 13.5 32.5t31.5 13.5t31.5 -13.5t13.5 -32.5t-13.5 -32t-31.5 -13zM333 772q-18 0 -31.5 13t-13.5 32t13.5 32.5t31.5 13.5t31.5 -13.5t13.5 -32.5q0 -18 -13.5 -31.5t-31.5 -13.5zM313 -8q-111 0 -176 69.5t-44 190.5l75 428
h72l-75 -429q-17 -96 25 -146t126 -50q74 0 118.5 38t59.5 123l81 464h72l-84 -473q-37 -215 -250 -215z" />
    <glyph glyph-name="Yacute" unicode="&#xdd;" horiz-adv-x="641" 
d="M288 215l-170 465h75l123 -336q4 -12 8.5 -30t6.5 -30l2 -12q19 44 38 72l240 336h79l-331 -466l-38 -214h-71zM374 753l98 193h84l-127 -193h-55z" />
    <glyph glyph-name="Thorn" unicode="&#xde;" horiz-adv-x="566" 
d="M232 601h61q117 0 182 -65t64 -167q-1 -128 -79.5 -204t-221.5 -76h-96l-16 -89h-71l120 680h71zM153 151h86q116 0 171 58.5t56 159.5q1 78 -43.5 124.5t-134.5 46.5h-67z" />
    <glyph glyph-name="germandbls" unicode="&#xdf;" horiz-adv-x="527" 
d="M347 398q62 -19 98 -67.5t36 -117.5q0 -100 -57 -159t-156 -59q-52 0 -90 17l18 55q35 -13 69 -13q71 0 108 44.5t37 121.5q0 67 -40.5 106.5t-119.5 42.5l10 56q65 4 108 44t43 106q0 52 -25.5 77t-68.5 25q-48 0 -77 -31t-41 -99l-114 -645q-11 -67 -39.5 -90.5
t-81.5 -23.5h-42l10 55h30q22 0 36 13.5t21 52.5l113 643q32 183 186 183q70 0 114 -42t44 -117q0 -63 -34.5 -109.5t-94.5 -68.5z" />
    <glyph glyph-name="agrave" unicode="&#xe0;" horiz-adv-x="528" 
d="M216 -8q-76 0 -123.5 54.5t-47.5 144.5q0 102 59 167t145 65q55 0 97 -33t57 -89l17 113h68l-57 -327q-5 -32 20 -32h38l-10 -55h-45q-43 0 -58 18t-11 54l3 13q-57 -93 -152 -93zM233 51q64 0 107.5 47.5t43.5 121.5q0 62 -33.5 102.5t-89.5 40.5q-65 0 -105.5 -48.5
t-40.5 -124.5q0 -62 32 -100.5t86 -38.5zM260 498l-87 193h80l61 -193h-54z" />
    <glyph glyph-name="aacute" unicode="&#xe1;" horiz-adv-x="528" 
d="M216 -8q-76 0 -123.5 54.5t-47.5 144.5q0 102 59 167t145 65q55 0 97 -33t57 -89l17 113h68l-57 -327q-5 -32 20 -32h38l-10 -55h-45q-43 0 -58 18t-11 54l3 13q-57 -93 -152 -93zM233 51q64 0 107.5 47.5t43.5 121.5q0 62 -33.5 102.5t-89.5 40.5q-65 0 -105.5 -48.5
t-40.5 -124.5q0 -62 32 -100.5t86 -38.5zM258 498l98 193h84l-127 -193h-55z" />
    <glyph glyph-name="acircumflex" unicode="&#xe2;" horiz-adv-x="528" 
d="M216 -8q-76 0 -123.5 54.5t-47.5 144.5q0 102 59 167t145 65q55 0 97 -33t57 -89l17 113h68l-57 -327q-5 -32 20 -32h38l-10 -55h-45q-43 0 -58 18t-11 54l3 13q-57 -93 -152 -93zM233 51q64 0 107.5 47.5t43.5 121.5q0 62 -33.5 102.5t-89.5 40.5q-65 0 -105.5 -48.5
t-40.5 -124.5q0 -62 32 -100.5t86 -38.5zM169 496l158 193h10l94 -193h-55l-56 106l-91 -106h-60z" />
    <glyph glyph-name="atilde" unicode="&#xe3;" horiz-adv-x="528" 
d="M216 -8q-76 0 -123.5 54.5t-47.5 144.5q0 102 59 167t145 65q55 0 97 -33t57 -89l17 113h68l-57 -327q-5 -32 20 -32h38l-10 -55h-45q-43 0 -58 18t-11 54l3 13q-57 -93 -152 -93zM233 51q64 0 107.5 47.5t43.5 121.5q0 62 -33.5 102.5t-89.5 40.5q-65 0 -105.5 -48.5
t-40.5 -124.5q0 -62 32 -100.5t86 -38.5zM215 492l-51 6q19 110 93 110q29 0 64 -31q4 -3 11 -9.5t10 -9t8 -6t9 -4.5t8 -1q15 0 24 13t17 47l51 -6q-18 -110 -92 -110q-30 0 -65 31q-3 3 -9 8.5t-8.5 8t-7 5.5t-7 4.5t-6 2.5t-7.5 1q-28 0 -42 -60z" />
    <glyph glyph-name="adieresis" unicode="&#xe4;" horiz-adv-x="528" 
d="M216 -8q-76 0 -123.5 54.5t-47.5 144.5q0 102 59 167t145 65q55 0 97 -33t57 -89l17 113h68l-57 -327q-5 -32 20 -32h38l-10 -55h-45q-43 0 -58 18t-11 54l3 13q-57 -93 -152 -93zM233 51q64 0 107.5 47.5t43.5 121.5q0 62 -33.5 102.5t-89.5 40.5q-65 0 -105.5 -48.5
t-40.5 -124.5q0 -62 32 -100.5t86 -38.5zM402 517q-18 0 -31.5 13.5t-13.5 31.5q0 19 13.5 32.5t31.5 13.5t31.5 -13.5t13.5 -32.5t-13.5 -32t-31.5 -13zM232 517q-18 0 -31.5 13t-13.5 32t13.5 32.5t31.5 13.5t31.5 -13.5t13.5 -32.5q0 -18 -13.5 -31.5t-31.5 -13.5z" />
    <glyph glyph-name="aring" unicode="&#xe5;" horiz-adv-x="528" 
d="M216 -8q-76 0 -123.5 54.5t-47.5 144.5q0 102 59 167t145 65q55 0 97 -33t57 -89l17 113h68l-57 -327q-5 -32 20 -32h38l-10 -55h-45q-43 0 -58 18t-11 54l3 13q-57 -93 -152 -93zM233 51q64 0 107.5 47.5t43.5 121.5q0 62 -33.5 102.5t-89.5 40.5q-65 0 -105.5 -48.5
t-40.5 -124.5q0 -62 32 -100.5t86 -38.5zM316 484q-43 0 -73.5 29.5t-30.5 70.5q0 42 30.5 71.5t73.5 29.5t73.5 -29.5t30.5 -71.5q0 -41 -30.5 -70.5t-73.5 -29.5zM316 528q23 0 37.5 15.5t14.5 40.5q0 26 -14.5 41t-37.5 15t-38 -15t-15 -41q0 -25 15 -40.5t38 -15.5z" />
    <glyph glyph-name="ae" unicode="&#xe6;" horiz-adv-x="778" 
d="M381 342q58 81 158 81q94 0 144 -59.5t52 -157.5l-340 -36q8 -55 45.5 -88t95.5 -33q80 0 130 52l43 -42q-65 -67 -173 -67q-63 0 -109.5 29.5t-68.5 79.5q-43 -109 -178 -109q-68 0 -109 32t-41 86q0 69 47 101t121 32h133l1 3q10 58 -14 89.5t-70 31.5q-73 0 -118 -59
l-41 40q56 75 161 75q46 0 80.5 -21t50.5 -60zM394 222l269 28q-5 49 -36 83t-88 34q-59 0 -98.5 -40t-46.5 -105zM323 192h-125q-99 0 -99 -78q0 -31 22.5 -49t63.5 -18q56 0 88.5 25t40.5 67z" />
    <glyph glyph-name="ccedilla" unicode="&#xe7;" horiz-adv-x="455" 
d="M193 -1q-66 18 -106.5 72t-40.5 127q0 96 64 160.5t160 64.5q102 0 159 -74l-50 -40q-39 54 -109 54q-69 0 -111.5 -47t-42.5 -119q0 -63 37 -104.5t97 -41.5q64 0 110 41l40 -45q-59 -55 -150 -55h-12l-8 -45q30 -5 51 -28.5t21 -58.5q0 -42 -28.5 -67t-68.5 -25
q-38 0 -64.5 17t-37.5 43l44 24q17 -37 55 -37q21 0 34 12.5t13 33.5q0 20 -13 34t-38 14h-21z" />
    <glyph glyph-name="egrave" unicode="&#xe8;" horiz-adv-x="499" 
d="M116 170q8 -55 46 -88t96 -33q79 0 129 52l43 -42q-65 -67 -172 -67q-94 0 -153 58.5t-59 147.5q0 96 62 160.5t153 64.5q93 0 143 -59.5t52 -157.5zM115 222l269 28q-5 50 -35.5 83.5t-88.5 33.5q-60 0 -99 -40t-46 -105zM248 498l-87 193h80l61 -193h-54z" />
    <glyph glyph-name="eacute" unicode="&#xe9;" horiz-adv-x="499" 
d="M116 170q8 -55 46 -88t96 -33q79 0 129 52l43 -42q-65 -67 -172 -67q-94 0 -153 58.5t-59 147.5q0 96 62 160.5t153 64.5q93 0 143 -59.5t52 -157.5zM115 222l269 28q-5 50 -35.5 83.5t-88.5 33.5q-60 0 -99 -40t-46 -105zM262 498l98 193h84l-127 -193h-55z" />
    <glyph glyph-name="ecircumflex" unicode="&#xea;" horiz-adv-x="499" 
d="M116 170q8 -55 46 -88t96 -33q79 0 129 52l43 -42q-65 -67 -172 -67q-94 0 -153 58.5t-59 147.5q0 96 62 160.5t153 64.5q93 0 143 -59.5t52 -157.5zM115 222l269 28q-5 50 -35.5 83.5t-88.5 33.5q-60 0 -99 -40t-46 -105zM155 496l158 193h10l94 -193h-55l-56 106
l-91 -106h-60z" />
    <glyph glyph-name="edieresis" unicode="&#xeb;" horiz-adv-x="499" 
d="M116 170q8 -55 46 -88t96 -33q79 0 129 52l43 -42q-65 -67 -172 -67q-94 0 -153 58.5t-59 147.5q0 96 62 160.5t153 64.5q93 0 143 -59.5t52 -157.5zM115 222l269 28q-5 50 -35.5 83.5t-88.5 33.5q-60 0 -99 -40t-46 -105zM385 517q-18 0 -31.5 13.5t-13.5 31.5
q0 19 13.5 32.5t31.5 13.5t31.5 -13.5t13.5 -32.5t-13.5 -32t-31.5 -13zM215 517q-18 0 -31.5 13t-13.5 32t13.5 32.5t31.5 13.5t31.5 -13.5t13.5 -32.5q0 -18 -13.5 -31.5t-31.5 -13.5z" />
    <glyph glyph-name="igrave" unicode="&#xec;" horiz-adv-x="233" 
d="M127 0q-45 0 -61 22t-8 70l56 322h68l-57 -327q-6 -32 19 -32h41l-10 -55h-48zM130 498l-87 193h80l61 -193h-54z" />
    <glyph glyph-name="iacute" unicode="&#xed;" horiz-adv-x="233" 
d="M127 0q-45 0 -61 22t-8 70l56 322h68l-57 -327q-6 -32 19 -32h41l-10 -55h-48zM131 498l98 193h84l-127 -193h-55z" />
    <glyph glyph-name="icircumflex" unicode="&#xee;" horiz-adv-x="233" 
d="M127 0q-45 0 -61 22t-8 70l56 322h68l-57 -327q-6 -32 19 -32h41l-10 -55h-48zM27 496l158 193h10l94 -193h-55l-56 106l-91 -106h-60z" />
    <glyph glyph-name="idieresis" unicode="&#xef;" horiz-adv-x="233" 
d="M127 0q-45 0 -61 22t-8 70l56 322h68l-57 -327q-6 -32 19 -32h41l-10 -55h-48zM256 517q-18 0 -31.5 13.5t-13.5 31.5q0 19 13.5 32.5t31.5 13.5t31.5 -13.5t13.5 -32.5t-13.5 -32t-31.5 -13zM86 517q-18 0 -31.5 13t-13.5 32t13.5 32.5t31.5 13.5t31.5 -13.5t13.5 -32.5
q0 -18 -13.5 -31.5t-31.5 -13.5z" />
    <glyph glyph-name="eth" unicode="&#xf0;" horiz-adv-x="521" 
d="M310 580l-76 -59l-27 38l76 60q-31 46 -63 80l43 39q41 -41 70 -80l75 59l28 -38l-76 -59q118 -174 118 -370q0 -120 -61 -189t-164 -69q-89 0 -147 58.5t-58 149.5q0 97 64.5 160t150.5 63q92 0 138 -70q-22 117 -91 227zM254 50q68 0 110 48t42 126q0 61 -37 100.5
t-97 39.5q-67 0 -111 -47t-44 -119q0 -65 37.5 -106.5t99.5 -41.5z" />
    <glyph glyph-name="ntilde" unicode="&#xf1;" horiz-adv-x="501" 
d="M35 0l73 414h68l-17 -83q50 92 147 92q70 0 108 -50t23 -134l-27 -152q-6 -32 20 -32h38l-10 -55h-46q-45 0 -61 22t-8 70l25 141q11 60 -11.5 94.5t-74.5 34.5q-115 0 -138 -129l-41 -233h-68zM198 492l-51 6q19 110 93 110q29 0 64 -31q4 -3 11 -9.5t10 -9t8 -6t9 -4.5
t8 -1q15 0 24 13t17 47l51 -6q-18 -110 -92 -110q-30 0 -65 31q-3 3 -9 8.5t-8.5 8t-7 5.5t-7 4.5t-6 2.5t-7.5 1q-28 0 -42 -60z" />
    <glyph glyph-name="ograve" unicode="&#xf2;" horiz-adv-x="521" 
d="M253 -8q-87 0 -147 59.5t-60 145.5q0 96 65 161t159 65q87 0 146.5 -60t59.5 -146q0 -96 -64.5 -160.5t-158.5 -64.5zM254 51q68 0 110 47t42 120q0 63 -38 104t-99 41q-67 0 -110 -47.5t-43 -119.5q0 -63 38.5 -104t99.5 -41zM262 498l-87 193h80l61 -193h-54z" />
    <glyph glyph-name="oacute" unicode="&#xf3;" horiz-adv-x="521" 
d="M253 -8q-87 0 -147 59.5t-60 145.5q0 96 65 161t159 65q87 0 146.5 -60t59.5 -146q0 -96 -64.5 -160.5t-158.5 -64.5zM254 51q68 0 110 47t42 120q0 63 -38 104t-99 41q-67 0 -110 -47.5t-43 -119.5q0 -63 38.5 -104t99.5 -41zM264 498l98 193h84l-127 -193h-55z" />
    <glyph glyph-name="ocircumflex" unicode="&#xf4;" horiz-adv-x="521" 
d="M253 -8q-87 0 -147 59.5t-60 145.5q0 96 65 161t159 65q87 0 146.5 -60t59.5 -146q0 -96 -64.5 -160.5t-158.5 -64.5zM254 51q68 0 110 47t42 120q0 63 -38 104t-99 41q-67 0 -110 -47.5t-43 -119.5q0 -63 38.5 -104t99.5 -41zM167 496l158 193h10l94 -193h-55l-56 106
l-91 -106h-60z" />
    <glyph glyph-name="otilde" unicode="&#xf5;" horiz-adv-x="521" 
d="M253 -8q-87 0 -147 59.5t-60 145.5q0 96 65 161t159 65q87 0 146.5 -60t59.5 -146q0 -96 -64.5 -160.5t-158.5 -64.5zM254 51q68 0 110 47t42 120q0 63 -38 104t-99 41q-67 0 -110 -47.5t-43 -119.5q0 -63 38.5 -104t99.5 -41zM203 492l-51 6q19 110 93 110q29 0 64 -31
q4 -3 11 -9.5t10 -9t8 -6t9 -4.5t8 -1q15 0 24 13t17 47l51 -6q-18 -110 -92 -110q-30 0 -65 31q-3 3 -9 8.5t-8.5 8t-7 5.5t-7 4.5t-6 2.5t-7.5 1q-28 0 -42 -60z" />
    <glyph glyph-name="odieresis" unicode="&#xf6;" horiz-adv-x="521" 
d="M253 -8q-87 0 -147 59.5t-60 145.5q0 96 65 161t159 65q87 0 146.5 -60t59.5 -146q0 -96 -64.5 -160.5t-158.5 -64.5zM254 51q68 0 110 47t42 120q0 63 -38 104t-99 41q-67 0 -110 -47.5t-43 -119.5q0 -63 38.5 -104t99.5 -41zM398 517q-18 0 -31.5 13.5t-13.5 31.5
q0 19 13.5 32.5t31.5 13.5t31.5 -13.5t13.5 -32.5t-13.5 -32t-31.5 -13zM228 517q-18 0 -31.5 13t-13.5 32t13.5 32.5t31.5 13.5t31.5 -13.5t13.5 -32.5q0 -18 -13.5 -31.5t-31.5 -13.5z" />
    <glyph glyph-name="divide" unicode="&#xf7;" 
d="M107 189q-21 0 -37.5 16t-16.5 39t16 38.5t38 15.5t38 -15.5t16 -38.5t-16 -39t-38 -16z" />
    <glyph glyph-name="oslash" unicode="&#xf8;" horiz-adv-x="521" 
d="M440 336q37 -53 37 -119q0 -96 -64.5 -160.5t-158.5 -64.5q-78 0 -135 49l-58 -53l-35 37l58 53q-37 55 -37 119q0 96 65 161t159 65q79 0 135 -50l57 52l34 -37zM132 122l230 210q-36 34 -92 34q-68 0 -111.5 -48.5t-43.5 -121.5q0 -42 17 -74zM392 292l-230 -211
q38 -33 93 -33q69 0 111.5 48t42.5 122q0 42 -17 74z" />
    <glyph glyph-name="ugrave" unicode="&#xf9;" horiz-adv-x="503" 
d="M193 -9q-70 0 -107.5 50t-23.5 134l42 239h68l-41 -233q-11 -60 11.5 -94.5t74.5 -34.5q114 0 137 129l42 233h68l-58 -327q-5 -32 20 -32h38l-10 -55h-45q-42 0 -58 21t-11 52l1 7q-54 -89 -148 -89zM261 498l-87 193h80l61 -193h-54z" />
    <glyph glyph-name="uacute" unicode="&#xfa;" horiz-adv-x="503" 
d="M193 -9q-70 0 -107.5 50t-23.5 134l42 239h68l-41 -233q-11 -60 11.5 -94.5t74.5 -34.5q114 0 137 129l42 233h68l-58 -327q-5 -32 20 -32h38l-10 -55h-45q-42 0 -58 21t-11 52l1 7q-54 -89 -148 -89zM261 498l98 193h84l-127 -193h-55z" />
    <glyph glyph-name="ucircumflex" unicode="&#xfb;" horiz-adv-x="503" 
d="M193 -9q-70 0 -107.5 50t-23.5 134l42 239h68l-41 -233q-11 -60 11.5 -94.5t74.5 -34.5q114 0 137 129l42 233h68l-58 -327q-5 -32 20 -32h38l-10 -55h-45q-42 0 -58 21t-11 52l1 7q-54 -89 -148 -89zM165 496l158 193h10l94 -193h-55l-56 106l-91 -106h-60z" />
    <glyph glyph-name="udieresis" unicode="&#xfc;" horiz-adv-x="503" 
d="M193 -9q-70 0 -107.5 50t-23.5 134l42 239h68l-41 -233q-11 -60 11.5 -94.5t74.5 -34.5q114 0 137 129l42 233h68l-58 -327q-5 -32 20 -32h38l-10 -55h-45q-42 0 -58 21t-11 52l1 7q-54 -89 -148 -89zM387 517q-18 0 -31.5 13.5t-13.5 31.5q0 19 13.5 32.5t31.5 13.5
t31.5 -13.5t13.5 -32.5t-13.5 -32t-31.5 -13zM217 517q-18 0 -31.5 13t-13.5 32t13.5 32.5t31.5 13.5t31.5 -13.5t13.5 -32.5q0 -18 -13.5 -31.5t-31.5 -13.5z" />
    <glyph glyph-name="yacute" unicode="&#xfd;" horiz-adv-x="504" 
d="M187 -223q-61 0 -107 26.5t-69 72.5l54 35q42 -74 122 -74q114 0 138 133l18 99q-53 -78 -141 -78q-70 0 -108 50t-23 134l42 239h68l-41 -233q-11 -60 11.5 -94.5t74.5 -34.5q114 0 137 129l42 233h68l-80 -453q-16 -92 -69.5 -138t-136.5 -46zM273 498l98 193h84
l-127 -193h-55z" />
    <glyph glyph-name="thorn" unicode="&#xfe;" horiz-adv-x="534" 
d="M-2 -212l164 934h68l-68 -389q54 90 152 90q78 0 127 -55.5t49 -143.5q0 -100 -60.5 -166t-146.5 -66q-58 0 -101.5 32.5t-58.5 84.5l-57 -321h-68zM268 51q68 0 110 49t42 124q0 62 -34 100.5t-90 38.5q-67 0 -111.5 -48t-44.5 -121q0 -63 35 -103t93 -40z" />
    <glyph glyph-name="ydieresis" unicode="&#xff;" horiz-adv-x="504" 
d="M184 -223q-61 0 -107 26.5t-69 72.5l54 35q42 -74 122 -74q114 0 138 133l18 99q-53 -78 -141 -78q-70 0 -108 50t-23 134l42 239h68l-41 -233q-11 -60 11.5 -94.5t74.5 -34.5q114 0 137 129l42 233h68l-80 -453q-16 -92 -69.5 -138t-136.5 -46zM389 517
q-18 0 -31.5 13.5t-13.5 31.5q0 19 13.5 32.5t31.5 13.5t31.5 -13.5t13.5 -32.5t-13.5 -32t-31.5 -13zM219 517q-18 0 -31.5 13t-13.5 32t13.5 32.5t31.5 13.5t31.5 -13.5t13.5 -32.5q0 -18 -13.5 -31.5t-31.5 -13.5z" />
    <glyph glyph-name="Amacron" unicode="&#x100;" horiz-adv-x="642" 
d="M312 774l9 54h209l-10 -54h-208zM137 115l-65 -115h-72l398 687h11l161 -687h-71l-26 115h-336zM460 174l-68 301l-12 78q-17 -43 -37 -78l-172 -301h289z" />
    <glyph glyph-name="amacron" unicode="&#x101;" horiz-adv-x="528" 
d="M204 519l9 54h209l-10 -54h-208zM216 -8q-76 0 -123.5 54.5t-47.5 144.5q0 102 59 167t145 65q55 0 97 -33t57 -89l17 113h68l-57 -327q-5 -32 20 -32h38l-10 -55h-45q-43 0 -58 18t-11 54l3 13q-57 -93 -152 -93zM233 51q64 0 107.5 47.5t43.5 121.5q0 62 -33.5 102.5
t-89.5 40.5q-65 0 -105.5 -48.5t-40.5 -124.5q0 -62 32 -100.5t86 -38.5z" />
    <glyph glyph-name="Abreve" unicode="&#x102;" horiz-adv-x="642" 
d="M411 744q-54 0 -86 33.5t-36 83.5l56 9q5 -34 19.5 -52.5t46.5 -18.5q61 0 79 71l56 -10q-11 -50 -46 -83t-89 -33zM137 115l-65 -115h-72l398 687h11l161 -687h-71l-26 115h-336zM460 174l-68 301l-12 78q-17 -43 -37 -78l-172 -301h289z" />
    <glyph glyph-name="abreve" unicode="&#x103;" horiz-adv-x="528" 
d="M309 489q-54 0 -86 33.5t-36 83.5l56 9q5 -34 19.5 -52.5t46.5 -18.5q61 0 79 71l56 -10q-11 -50 -46 -83t-89 -33zM216 -8q-76 0 -123.5 54.5t-47.5 144.5q0 102 59 167t145 65q55 0 97 -33t57 -89l17 113h68l-57 -327q-5 -32 20 -32h38l-10 -55h-45q-43 0 -58 18
t-11 54l3 13q-57 -93 -152 -93zM233 51q64 0 107.5 47.5t43.5 121.5q0 62 -33.5 102.5t-89.5 40.5q-65 0 -105.5 -48.5t-40.5 -124.5q0 -62 32 -100.5t86 -38.5z" />
    <glyph glyph-name="Aogonek" unicode="&#x104;" horiz-adv-x="642" 
d="M568 8l-51 -61q-25 -30 -35 -49t-10 -42q0 -18 12 -29.5t30 -11.5q12 0 22 5.5t15.5 12t13.5 18.5l41 -25q-30 -58 -97 -58q-38 0 -65.5 22.5t-27.5 62.5q0 55 60 113l25 25l-28 124h-336l-65 -115h-72l398 687h11zM460 174l-68 301l-12 78q-17 -43 -37 -78l-172 -301
h289z" />
    <glyph glyph-name="aogonek" unicode="&#x105;" horiz-adv-x="528" 
d="M417 1l-46 -54q-26 -30 -36.5 -49t-10.5 -43q0 -19 12 -30.5t31 -11.5q29 0 52 36l41 -23q-30 -58 -97 -58q-38 0 -65.5 22.5t-27.5 62.5q0 55 62 115l48 47q-20 18 -15 57l3 13q-57 -93 -152 -93q-76 0 -123.5 54.5t-47.5 144.5q0 102 59 167t145 65q55 0 97 -33t57 -89
l17 113h68l-57 -327q-5 -32 20 -32h38l-10 -55h-45q-12 0 -17 1zM233 51q64 0 107.5 47.5t43.5 121.5q0 62 -33.5 102.5t-89.5 40.5q-65 0 -105.5 -48.5t-40.5 -124.5q0 -62 32 -100.5t86 -38.5z" />
    <glyph glyph-name="Cacute" unicode="&#x106;" horiz-adv-x="712" 
d="M412 753l98 193h84l-127 -193h-55zM392 -8q-139 0 -230 93t-91 235q0 158 105.5 263t257.5 105q177 0 261 -133l-56 -37q-72 107 -207 107q-122 0 -205 -87.5t-83 -215.5q0 -116 70.5 -191.5t180.5 -75.5q131 0 218 99l52 -41q-105 -121 -273 -121z" />
    <glyph glyph-name="cacute" unicode="&#x107;" horiz-adv-x="455" 
d="M253 498l98 193h84l-127 -193h-55zM250 -8q-88 0 -146 58.5t-58 147.5q0 96 64 160.5t160 64.5q102 0 159 -74l-50 -40q-39 54 -109 54q-69 0 -111.5 -47t-42.5 -119q0 -63 37 -104.5t97 -41.5q64 0 110 41l40 -45q-59 -55 -150 -55z" />
    <glyph glyph-name="Ccircumflex" unicode="&#x108;" horiz-adv-x="712" 
d="M315 751l158 193h10l94 -193h-55l-56 106l-91 -106h-60zM392 -8q-139 0 -230 93t-91 235q0 158 105.5 263t257.5 105q177 0 261 -133l-56 -37q-72 107 -207 107q-122 0 -205 -87.5t-83 -215.5q0 -116 70.5 -191.5t180.5 -75.5q131 0 218 99l52 -41q-105 -121 -273 -121z
" />
    <glyph glyph-name="ccircumflex" unicode="&#x109;" horiz-adv-x="455" 
d="M156 496l158 193h10l94 -193h-55l-56 106l-91 -106h-60zM250 -8q-88 0 -146 58.5t-58 147.5q0 96 64 160.5t160 64.5q102 0 159 -74l-50 -40q-39 54 -109 54q-69 0 -111.5 -47t-42.5 -119q0 -63 37 -104.5t97 -41.5q64 0 110 41l40 -45q-59 -55 -150 -55z" />
    <glyph glyph-name="Ccaron" unicode="&#x10c;" horiz-adv-x="712" 
d="M438 742l-94 194h56l56 -107l90 107h60l-158 -194h-10zM392 -8q-139 0 -230 93t-91 235q0 158 105.5 263t257.5 105q177 0 261 -133l-56 -37q-72 107 -207 107q-122 0 -205 -87.5t-83 -215.5q0 -116 70.5 -191.5t180.5 -75.5q131 0 218 99l52 -41q-105 -121 -273 -121z
" />
    <glyph glyph-name="ccaron" unicode="&#x10d;" horiz-adv-x="455" 
d="M282 487l-94 194h56l56 -107l90 107h60l-158 -194h-10zM250 -8q-88 0 -146 58.5t-58 147.5q0 96 64 160.5t160 64.5q102 0 159 -74l-50 -40q-39 54 -109 54q-69 0 -111.5 -47t-42.5 -119q0 -63 37 -104.5t97 -41.5q64 0 110 41l40 -45q-59 -55 -150 -55z" />
    <glyph glyph-name="Dcaron" unicode="&#x10e;" horiz-adv-x="660" 
d="M370 742l-94 194h56l56 -107l90 107h60l-158 -194h-10zM54 0l120 680h154q149 0 230.5 -82.5t81.5 -219.5q0 -171 -107 -274.5t-288 -103.5h-191zM136 62h105q159 0 242 87.5t83 230.5q0 109 -61.5 173.5t-184.5 64.5h-86z" />
    <glyph glyph-name="dcaron" unicode="&#x10f;" horiz-adv-x="639" 
d="M592 482l51 108q-29 13 -29 47q0 21 15.5 35.5t35.5 14.5q22 0 36.5 -14t14.5 -36t-18 -48l-69 -107h-37zM220 -8q-78 0 -126.5 55.5t-48.5 143.5q0 102 60.5 167t148.5 65q56 0 99 -32t58 -83l74 414h68l-112 -635q-6 -32 19 -32h38l-9 -55h-46q-43 0 -58 18.5t-11 54.5
l3 13q-25 -44 -67 -69t-90 -25zM238 51q67 0 111.5 47.5t44.5 121.5q1 62 -34.5 102.5t-93.5 40.5q-68 0 -109.5 -48.5t-41.5 -124.5q0 -62 33.5 -100.5t89.5 -38.5z" />
    <glyph glyph-name="Dcroat" unicode="&#x110;" horiz-adv-x="660" 
d="M96 243h-77l11 62h77l67 375h154q147 0 229.5 -83.5t82.5 -218.5q0 -171 -107 -274.5t-288 -103.5h-191zM178 305h181l-11 -62h-181l-31 -181h105q159 0 242 87.5t83 230.5q0 109 -61.5 173.5t-184.5 64.5h-86z" />
    <glyph glyph-name="dcroat" unicode="&#x111;" horiz-adv-x="541" 
d="M450 528h-141l10 58h141l25 136h68l-24 -136h75l-9 -58h-76l-78 -441q-6 -32 19 -32h38l-9 -55h-46q-43 0 -58 18.5t-11 54.5l3 13q-25 -44 -67 -69t-90 -25q-78 0 -126.5 55.5t-48.5 143.5q0 102 60.5 167t148.5 65q56 0 99 -32t58 -83zM238 51q67 0 111.5 47.5
t44.5 121.5q1 62 -34.5 102.5t-93.5 40.5q-68 0 -109.5 -48.5t-41.5 -124.5q0 -62 33.5 -100.5t89.5 -38.5z" />
    <glyph glyph-name="Emacron" unicode="&#x112;" horiz-adv-x="566" 
d="M287 774l9 54h209l-10 -54h-208zM54 0l120 680h405l-10 -62h-336l-56 -321h298l-11 -61h-298l-31 -174h349l-11 -62h-419z" />
    <glyph glyph-name="emacron" unicode="&#x113;" horiz-adv-x="499" 
d="M186 519l9 54h209l-10 -54h-208zM116 170q8 -55 46 -88t96 -33q79 0 129 52l43 -42q-65 -67 -172 -67q-94 0 -153 58.5t-59 147.5q0 96 62 160.5t153 64.5q93 0 143 -59.5t52 -157.5zM115 222l269 28q-5 50 -35.5 83.5t-88.5 33.5q-60 0 -99 -40t-46 -105z" />
    <glyph glyph-name="Edotaccent" unicode="&#x116;" horiz-adv-x="566" 
d="M392 771q-18 0 -32 13.5t-14 32.5t14 32.5t32 13.5t31.5 -13.5t13.5 -32.5t-13.5 -32.5t-31.5 -13.5zM54 0l120 680h405l-10 -62h-336l-56 -321h298l-11 -61h-298l-31 -174h349l-11 -62h-419z" />
    <glyph glyph-name="edotaccent" unicode="&#x117;" horiz-adv-x="499" 
d="M302 516q-18 0 -32 13.5t-14 32.5t14 32.5t32 13.5t31.5 -13.5t13.5 -32.5t-13.5 -32.5t-31.5 -13.5zM116 170q8 -55 46 -88t96 -33q79 0 129 52l43 -42q-65 -67 -172 -67q-94 0 -153 58.5t-59 147.5q0 96 62 160.5t153 64.5q93 0 143 -59.5t52 -157.5zM115 222l269 28
q-5 50 -35.5 83.5t-88.5 33.5q-60 0 -99 -40t-46 -105z" />
    <glyph glyph-name="Eogonek" unicode="&#x118;" horiz-adv-x="566" 
d="M374 0h-320l120 680h405l-10 -62h-336l-56 -321h298l-11 -61h-298l-31 -174h349l-11 -62h-48l-45 -53q-25 -30 -35 -49t-10 -42q0 -18 12 -29.5t30 -11.5q12 0 22 5.5t15.5 12t13.5 18.5l41 -25q-30 -58 -97 -58q-38 0 -65.5 22.5t-27.5 62.5q0 55 60 113z" />
    <glyph glyph-name="eogonek" unicode="&#x119;" horiz-adv-x="499" 
d="M260 -8l-38 -45q-25 -30 -35 -49t-10 -42q0 -18 12 -29.5t30 -11.5q12 0 22 5.5t15.5 12t13.5 18.5l41 -25q-30 -58 -97 -58q-38 0 -65.5 22.5t-27.5 62.5q0 55 60 113l31 30q-76 14 -121 69.5t-45 132.5q0 96 62 160.5t153 64.5q93 0 143 -59.5t52 -157.5l-340 -36
q8 -55 46 -88t96 -33q79 0 129 52l43 -42q-64 -66 -170 -67zM115 222l269 28q-5 50 -35.5 83.5t-88.5 33.5q-60 0 -99 -40t-46 -105z" />
    <glyph glyph-name="Ecaron" unicode="&#x11a;" horiz-adv-x="566" 
d="M373 742l-94 194h56l56 -107l90 107h60l-158 -194h-10zM54 0l120 680h405l-10 -62h-336l-56 -321h298l-11 -61h-298l-31 -174h349l-11 -62h-419z" />
    <glyph glyph-name="ecaron" unicode="&#x11b;" horiz-adv-x="499" 
d="M282 487l-94 194h56l56 -107l90 107h60l-158 -194h-10zM116 170q8 -55 46 -88t96 -33q79 0 129 52l43 -42q-65 -67 -172 -67q-94 0 -153 58.5t-59 147.5q0 96 62 160.5t153 64.5q93 0 143 -59.5t52 -157.5zM115 222l269 28q-5 50 -35.5 83.5t-88.5 33.5q-60 0 -99 -40
t-46 -105z" />
    <glyph glyph-name="Gcircumflex" unicode="&#x11c;" horiz-adv-x="735" 
d="M319 751l158 193h10l94 -193h-55l-56 106l-91 -106h-60zM409 -8q-149 0 -242 90.5t-93 236.5q0 160 106.5 264.5t256.5 104.5q160 0 244 -97l-52 -46q-67 80 -193 80q-123 0 -206 -87t-83 -217q0 -120 72 -193.5t190 -73.5q98 0 178 48l28 159h-198l11 62h264l-45 -259
q-100 -72 -238 -72z" />
    <glyph glyph-name="gcircumflex" unicode="&#x11d;" horiz-adv-x="533" 
d="M202 -223q-68 0 -119.5 31t-76.5 78l55 34q48 -83 141 -83q124 0 152 143l20 99q-56 -87 -152 -87q-78 0 -126.5 55.5t-48.5 143.5q0 102 61 167t149 65q57 0 100 -33t59 -89l16 113h68l-78 -442q-18 -98 -74.5 -146.5t-145.5 -48.5zM240 51q67 0 111.5 47.5t45.5 121.5
q0 62 -35.5 102.5t-93.5 40.5q-68 0 -109.5 -48.5t-41.5 -124.5q0 -62 33.5 -100.5t89.5 -38.5zM175 496l158 193h10l94 -193h-55l-56 106l-91 -106h-60z" />
    <glyph glyph-name="Gbreve" unicode="&#x11e;" horiz-adv-x="735" 
d="M449 744q-54 0 -86 33.5t-36 83.5l56 9q5 -34 19.5 -52.5t46.5 -18.5q61 0 79 71l56 -10q-11 -50 -46 -83t-89 -33zM409 -8q-149 0 -242 90.5t-93 236.5q0 160 106.5 264.5t256.5 104.5q160 0 244 -97l-52 -46q-67 80 -193 80q-123 0 -206 -87t-83 -217q0 -120 72 -193.5
t190 -73.5q98 0 178 48l28 159h-198l11 62h264l-45 -259q-100 -72 -238 -72z" />
    <glyph glyph-name="gbreve" unicode="&#x11f;" horiz-adv-x="533" 
d="M202 -223q-68 0 -119.5 31t-76.5 78l55 34q48 -83 141 -83q124 0 152 143l20 99q-56 -87 -152 -87q-78 0 -126.5 55.5t-48.5 143.5q0 102 61 167t149 65q57 0 100 -33t59 -89l16 113h68l-78 -442q-18 -98 -74.5 -146.5t-145.5 -48.5zM240 51q67 0 111.5 47.5t45.5 121.5
q0 62 -35.5 102.5t-93.5 40.5q-68 0 -109.5 -48.5t-41.5 -124.5q0 -62 33.5 -100.5t89.5 -38.5zM260 489q-54 0 -86 33.5t-36 83.5l56 9q5 -34 19.5 -52.5t46.5 -18.5q61 0 79 71l56 -10q-11 -50 -46 -83t-89 -33z" />
    <glyph glyph-name="Gcommaaccent" unicode="&#x122;" horiz-adv-x="735" 
d="M409 -8q-149 0 -242 90.5t-93 236.5q0 160 106.5 264.5t256.5 104.5q160 0 244 -97l-52 -46q-67 80 -193 80q-123 0 -206 -87t-83 -217q0 -120 72 -193.5t190 -73.5q98 0 178 48l28 159h-198l11 62h264l-45 -259q-100 -72 -238 -72zM276 -256l48 102q-29 10 -29 45
q0 21 15.5 35.5t35.5 14.5q21 0 35.5 -14t14.5 -35t-17 -48l-66 -100h-37z" />
    <glyph glyph-name="gcommaaccent" unicode="&#x123;" horiz-adv-x="532" 
d="M382 700l-48 -102q29 -10 29 -45q0 -21 -15.5 -35.5t-35.5 -14.5q-21 0 -35.5 14t-14.5 35t17 48l66 100h37zM202 -223q-68 0 -119.5 31t-76.5 78l55 34q48 -83 141 -83q124 0 152 143l20 99q-56 -87 -152 -87q-78 0 -126.5 55.5t-48.5 143.5q0 102 61 167t149 65
q57 0 100 -33t59 -89l16 113h68l-78 -442q-18 -98 -74.5 -146.5t-145.5 -48.5zM240 51q67 0 111.5 47.5t45.5 121.5q0 62 -35.5 102.5t-93.5 40.5q-68 0 -109.5 -48.5t-41.5 -124.5q0 -62 33.5 -100.5t89.5 -38.5z" />
    <glyph glyph-name="Hcircumflex" unicode="&#x124;" horiz-adv-x="677" 
d="M301 751l158 193h10l94 -193h-55l-56 106l-91 -106h-60zM532 297l68 383h71l-120 -680h-71l41 234h-355l-41 -234h-71l120 680h71l-68 -383h355z" />
    <glyph glyph-name="hcircumflex" unicode="&#x125;" horiz-adv-x="510" 
d="M196 757l158 193h10l94 -193h-55l-56 106l-91 -106h-60zM42 0l127 722h68l-68 -385q53 86 144 86q70 0 107.5 -50t23.5 -134l-27 -152q-6 -32 19 -32h38l-9 -55h-44q-87 0 -70 94l24 139q11 60 -11.5 94.5t-74.5 34.5q-115 0 -138 -129l-41 -233h-68z" />
    <glyph glyph-name="Imacron" unicode="&#x12a;" horiz-adv-x="260" 
d="M125 774l9 54h209l-10 -54h-208zM58 0l120 680h71l-120 -680h-71z" />
    <glyph glyph-name="imacron" unicode="&#x12b;" horiz-adv-x="225" 
d="M57 519l9 54h209l-10 -54h-208zM127 0q-45 0 -61 22t-8 70l56 322h68l-57 -327q-6 -32 19 -32h41l-10 -55h-48z" />
    <glyph glyph-name="Iogonek" unicode="&#x12e;" horiz-adv-x="260" 
d="M55 -16l123 696h71l-118 -670l-53 -63q-25 -30 -35 -49t-10 -42q0 -18 12 -29.5t30 -11.5q12 0 22 5.5t15.5 12t13.5 18.5l41 -25q-30 -58 -97 -58q-38 0 -65.5 22.5t-27.5 62.5q0 55 60 113z" />
    <glyph glyph-name="iogonek" unicode="&#x12f;" horiz-adv-x="233" 
d="M178 535q-19 0 -33.5 13.5t-14.5 34.5t14 35t34 14q19 0 33.5 -14t14.5 -35t-14 -34.5t-34 -13.5zM79 11q-32 19 -21 81l56 322h68l-57 -327q-6 -32 19 -32h41l-10 -55h-48h-9l-44 -53q-19 -23 -26.5 -33.5t-14.5 -26t-7 -32.5q0 -19 12.5 -30.5t30.5 -11.5q30 0 53 36
l41 -23q-30 -58 -97 -58q-38 0 -65.5 22.5t-27.5 62.5q0 55 60 113z" />
    <glyph glyph-name="Idotaccent" unicode="&#x130;" horiz-adv-x="260" 
d="M236 771q-18 0 -32 13.5t-14 32.5t14 32.5t32 13.5t31.5 -13.5t13.5 -32.5t-13.5 -32.5t-31.5 -13.5zM58 0l120 680h71l-120 -680h-71z" />
    <glyph glyph-name="dotlessi" unicode="&#x131;" horiz-adv-x="233" 
d="M127 0q-45 0 -61 22t-8 70l56 322h68l-57 -327q-6 -32 19 -32h41l-10 -55h-48z" />
    <glyph glyph-name="Jcircumflex" unicode="&#x134;" horiz-adv-x="455" 
d="M295 751l158 193h10l94 -193h-55l-56 106l-91 -106h-60zM176 -8q-62 0 -105.5 29.5t-63.5 74.5l61 34q39 -74 110 -74q95 0 114 108l91 516h71l-92 -526q-28 -162 -186 -162z" />
    <glyph glyph-name="jcircumflex" unicode="&#x135;" horiz-adv-x="225" 
d="M30 496l159 193h9l95 -193h-56l-56 108l-91 -108h-60zM-22 -222q-58 0 -94 40l43 40q20 -22 46 -22q22 0 34 13t17 44l92 521h68l-91 -521q-21 -115 -115 -115z" />
    <glyph glyph-name="Kcommaaccent" unicode="&#x136;" horiz-adv-x="592" 
d="M168 287q33 49 60 77l306 316h85l-311 -324l219 -356h-80l-191 311l-93 -92l-38 -219h-71l120 680h71l-54 -304q-4 -24 -23 -89zM186 -256l48 102q-29 10 -29 45q0 21 15.5 35.5t35.5 14.5q21 0 35.5 -14t14.5 -35t-17 -48l-66 -100h-37z" />
    <glyph glyph-name="kcommaaccent" unicode="&#x137;" horiz-adv-x="462" 
d="M132 130l-22 -130h-68l127 722h68l-82 -463q-5 -26 -15 -61l228 216h81l-185 -176l96 -162q13 -21 37 -21h26l-10 -55h-29q-30 0 -48 11t-34 39l-89 149zM127 -256l48 102q-29 10 -29 45q0 21 15.5 35.5t35.5 14.5q21 0 35.5 -14t14.5 -35t-17 -48l-66 -100h-37z" />
    <glyph glyph-name="Lacute" unicode="&#x139;" horiz-adv-x="514" 
d="M190 753l98 193h84l-127 -193h-55zM54 0l120 680h71l-109 -617h315l-11 -63h-386z" />
    <glyph glyph-name="lacute" unicode="&#x13a;" horiz-adv-x="236" 
d="M185 773l98 193h84l-127 -193h-55zM132 0q-45 0 -61 22t-8 70l112 630h68l-113 -635q-6 -32 19 -32h46l-10 -55h-53z" />
    <glyph glyph-name="Lcommaaccent" unicode="&#x13b;" horiz-adv-x="514" 
d="M54 0l120 680h71l-109 -617h315l-11 -63h-386zM166 -256l48 102q-29 10 -29 45q0 21 15.5 35.5t35.5 14.5q21 0 35.5 -14t14.5 -35t-17 -48l-66 -100h-37z" />
    <glyph glyph-name="lcommaaccent" unicode="&#x13c;" horiz-adv-x="236" 
d="M132 0q-45 0 -61 22t-8 70l112 630h68l-113 -635q-6 -32 19 -32h46l-10 -55h-53zM13 -256l48 102q-29 10 -29 45q0 21 15.5 35.5t35.5 14.5q21 0 35.5 -14t14.5 -35t-17 -48l-66 -100h-37z" />
    <glyph glyph-name="Lcaron" unicode="&#x13d;" horiz-adv-x="514" 
d="M362 482l51 108q-29 13 -29 47q0 21 15.5 35.5t35.5 14.5q22 0 36.5 -14t14.5 -36t-18 -48l-69 -107h-37zM54 0l120 680h71l-109 -617h315l-11 -63h-386z" />
    <glyph glyph-name="lcaron" unicode="&#x13e;" horiz-adv-x="318" 
d="M270 482l51 108q-29 13 -29 47q0 21 15.5 35.5t35.5 14.5q22 0 36.5 -14t14.5 -36t-18 -48l-69 -107h-37zM132 0q-45 0 -61 22t-8 70l112 630h68l-113 -635q-6 -32 19 -32h46l-10 -55h-53z" />
    <glyph glyph-name="Lslash" unicode="&#x141;" horiz-adv-x="520" 
d="M168 228l-29 -165h315l-11 -63h-386l35 199l-80 -30l11 66l81 31l73 414h71l-68 -385l201 76l-11 -67z" />
    <glyph glyph-name="lslash" unicode="&#x142;" horiz-adv-x="273" 
d="M180 280l-34 -193q-6 -32 19 -32h46l-10 -55h-53q-45 0 -61 22t-8 70l26 146l-89 -49l12 70l89 49l73 414h69l-66 -373l99 55l-12 -69z" />
    <glyph glyph-name="Nacute" unicode="&#x143;" horiz-adv-x="697" 
d="M405 753l98 193h84l-127 -193h-55zM558 -7l-312 481l-37 64q-1 -47 -7 -76l-81 -462h-67l121 687h11l313 -483l36 -64q2 42 7 76l82 464h67l-121 -687h-12z" />
    <glyph glyph-name="nacute" unicode="&#x144;" horiz-adv-x="501" 
d="M261 498l98 193h84l-127 -193h-55zM35 0l73 414h68l-17 -83q50 92 147 92q70 0 108 -50t23 -134l-27 -152q-6 -32 20 -32h38l-10 -55h-46q-45 0 -61 22t-8 70l25 141q11 60 -11.5 94.5t-74.5 34.5q-115 0 -138 -129l-41 -233h-68z" />
    <glyph glyph-name="Ncommaaccent" unicode="&#x145;" horiz-adv-x="697" 
d="M558 -7l-312 481l-37 64q-1 -47 -7 -76l-81 -462h-67l121 687h11l313 -483l36 -64q2 42 7 76l82 464h67l-121 -687h-12zM234 -256l48 102q-29 10 -29 45q0 21 15.5 35.5t35.5 14.5q21 0 35.5 -14t14.5 -35t-17 -48l-66 -100h-37z" />
    <glyph glyph-name="ncommaaccent" unicode="&#x146;" horiz-adv-x="501" 
d="M35 0l73 414h68l-17 -83q50 92 147 92q70 0 108 -50t23 -134l-27 -152q-6 -32 20 -32h38l-10 -55h-46q-45 0 -61 22t-8 70l25 141q11 60 -11.5 94.5t-74.5 34.5q-115 0 -138 -129l-41 -233h-68zM147 -256l48 102q-29 10 -29 45q0 21 15.5 35.5t35.5 14.5q21 0 35.5 -14
t14.5 -35t-17 -48l-66 -100h-37z" />
    <glyph glyph-name="Ncaron" unicode="&#x147;" horiz-adv-x="697" 
d="M430 742l-94 194h56l56 -107l90 107h60l-158 -194h-10zM558 -7l-312 481l-37 64q-1 -47 -7 -76l-81 -462h-67l121 687h11l313 -483l36 -64q2 42 7 76l82 464h67l-121 -687h-12z" />
    <glyph glyph-name="ncaron" unicode="&#x148;" horiz-adv-x="501" 
d="M284 487l-94 194h56l56 -107l90 107h60l-158 -194h-10zM35 0l73 414h68l-17 -83q50 92 147 92q70 0 108 -50t23 -134l-27 -152q-6 -32 20 -32h38l-10 -55h-46q-45 0 -61 22t-8 70l25 141q11 60 -11.5 94.5t-74.5 34.5q-115 0 -138 -129l-41 -233h-68z" />
    <glyph glyph-name="Omacron" unicode="&#x14c;" horiz-adv-x="784" 
d="M365 774l9 54h209l-10 -54h-208zM395 -8q-139 0 -230.5 91.5t-91.5 234.5q0 161 105 265.5t258 104.5q138 0 230.5 -91.5t92.5 -233.5q0 -161 -105.5 -266t-258.5 -105zM398 55q125 0 206.5 88t81.5 221q0 116 -69.5 188t-181.5 72q-125 0 -207 -87t-82 -219
q0 -116 69.5 -189.5t182.5 -73.5z" />
    <glyph glyph-name="omacron" unicode="&#x14d;" horiz-adv-x="521" 
d="M201 519l9 54h209l-10 -54h-208zM253 -8q-87 0 -147 59.5t-60 145.5q0 96 65 161t159 65q87 0 146.5 -60t59.5 -146q0 -96 -64.5 -160.5t-158.5 -64.5zM254 51q68 0 110 47t42 120q0 63 -38 104t-99 41q-67 0 -110 -47.5t-43 -119.5q0 -63 38.5 -104t99.5 -41z" />
    <glyph glyph-name="Ohungarumlaut" unicode="&#x150;" horiz-adv-x="784" 
d="M496 753l100 193h77l-122 -193h-55zM359 753l100 193h77l-122 -193h-55zM395 -8q-139 0 -230.5 91.5t-91.5 234.5q0 161 105 265.5t258 104.5q138 0 230.5 -91.5t92.5 -233.5q0 -161 -105.5 -266t-258.5 -105zM398 55q125 0 206.5 88t81.5 221q0 116 -69.5 188t-181.5 72
q-125 0 -207 -87t-82 -219q0 -116 69.5 -189.5t182.5 -73.5z" />
    <glyph glyph-name="ohungarumlaut" unicode="&#x151;" horiz-adv-x="521" 
d="M333 498l100 193h77l-122 -193h-55zM196 498l100 193h77l-122 -193h-55zM253 -8q-87 0 -147 59.5t-60 145.5q0 96 65 161t159 65q87 0 146.5 -60t59.5 -146q0 -96 -64.5 -160.5t-158.5 -64.5zM254 51q68 0 110 47t42 120q0 63 -38 104t-99 41q-67 0 -110 -47.5
t-43 -119.5q0 -63 38.5 -104t99.5 -41z" />
    <glyph glyph-name="OE" unicode="&#x152;" horiz-adv-x="980" 
d="M381 0q-148 0 -230.5 82.5t-82.5 219.5q0 172 107.5 275t288.5 103h529l-12 -63h-335l-56 -320h298l-10 -63h-299l-30 -171h348l-11 -63h-505zM388 62h90l98 556h-109q-159 0 -242 -87.5t-83 -230.5q0 -109 61.5 -173.5t184.5 -64.5z" />
    <glyph glyph-name="oe" unicode="&#x153;" horiz-adv-x="859" 
d="M438 103q-26 -52 -74 -81.5t-111 -29.5q-87 0 -147 59.5t-60 145.5q0 96 65.5 161t159.5 65q60 0 105 -30.5t68 -81.5q25 52 71.5 82t105.5 30q94 0 143.5 -59.5t51.5 -157.5l-340 -36q8 -55 46 -88t96 -33q79 0 129 52l43 -42q-65 -67 -172 -67q-64 0 -111 30t-69 81z
M475 222l269 28q-5 50 -35.5 83.5t-88.5 33.5q-60 0 -99 -40t-46 -105zM254 51q68 0 110 47t42 120q0 63 -38 104t-99 41q-67 0 -110 -47.5t-43 -119.5q0 -63 38.5 -104t99.5 -41z" />
    <glyph glyph-name="Racute" unicode="&#x154;" horiz-adv-x="577" 
d="M316 753l98 193h84l-127 -193h-55zM380 200l107 -200h-76l-97 184q-23 -4 -56 -4h-104l-32 -180h-71l120 680h135q118 0 183 -62.5t64 -164.5q-1 -91 -44.5 -158.5t-128.5 -94.5zM165 241h93q114 0 167.5 56.5t54.5 155.5q1 78 -44.5 121.5t-136.5 43.5h-68z" />
    <glyph glyph-name="racute" unicode="&#x155;" horiz-adv-x="330" 
d="M195 498l98 193h84l-127 -193h-55zM35 0l73 414h68l-20 -89q48 97 129 97q28 0 54 -13l-27 -61q-17 10 -41 10q-51 0 -84.5 -37t-45.5 -105l-38 -216h-68z" />
    <glyph glyph-name="Rcommaaccent" unicode="&#x156;" horiz-adv-x="577" 
d="M380 200l107 -200h-76l-97 184q-23 -4 -56 -4h-104l-32 -180h-71l120 680h135q118 0 183 -62.5t64 -164.5q-1 -91 -44.5 -158.5t-128.5 -94.5zM167 -256l48 102q-29 10 -29 45q0 21 15.5 35.5t35.5 14.5q21 0 35.5 -14t14.5 -35t-17 -48l-66 -100h-37zM165 241h93
q114 0 167.5 56.5t54.5 155.5q1 78 -44.5 121.5t-136.5 43.5h-68z" />
    <glyph glyph-name="rcommaaccent" unicode="&#x157;" horiz-adv-x="330" 
d="M35 0l73 414h68l-20 -89q48 97 129 97q28 0 54 -13l-27 -61q-17 10 -41 10q-51 0 -84.5 -37t-45.5 -105l-38 -216h-68zM-16 -256l48 102q-29 10 -29 45q0 21 15.5 35.5t35.5 14.5q21 0 35.5 -14t14.5 -35t-17 -48l-66 -100h-37z" />
    <glyph glyph-name="Rcaron" unicode="&#x158;" horiz-adv-x="577" 
d="M345 742l-94 194h56l56 -107l90 107h60l-158 -194h-10zM380 200l107 -200h-76l-97 184q-23 -4 -56 -4h-104l-32 -180h-71l120 680h135q118 0 183 -62.5t64 -164.5q-1 -91 -44.5 -158.5t-128.5 -94.5zM165 241h93q114 0 167.5 56.5t54.5 155.5q1 78 -44.5 121.5
t-136.5 43.5h-68z" />
    <glyph glyph-name="rcaron" unicode="&#x159;" horiz-adv-x="330" 
d="M223 487l-94 194h56l56 -107l90 107h60l-158 -194h-10zM35 0l73 414h68l-20 -89q48 97 129 97q28 0 54 -13l-27 -61q-17 10 -41 10q-51 0 -84.5 -37t-45.5 -105l-38 -216h-68z" />
    <glyph glyph-name="Sacute" unicode="&#x15a;" horiz-adv-x="525" 
d="M294 753l98 193h84l-127 -193h-55zM243 -8q-82 0 -141 39.5t-88 94.5l61 36q66 -108 168 -108q69 0 107 35.5t38 94.5q0 39 -21.5 65.5t-74.5 60.5l-47 30q-61 39 -90.5 81.5t-29.5 98.5q0 76 50 122t126 46q113 0 172 -92l-56 -39q-23 35 -50 52t-69 17q-45 0 -74 -27.5
t-29 -75.5q0 -38 19.5 -64.5t66.5 -55.5l47 -30q69 -44 100.5 -86t31.5 -104q0 -87 -59 -139t-158 -52z" />
    <glyph glyph-name="sacute" unicode="&#x15b;" horiz-adv-x="402" 
d="M200 498l98 193h84l-127 -193h-55zM186 -8q-60 0 -104 25t-66 66l52 33q42 -68 120 -68q84 0 84 62q0 24 -18 38.5t-73 42.5q-51 25 -76.5 52t-25.5 70q0 52 37.5 81t94.5 29q86 0 133 -63l-47 -38q-37 46 -87 46q-30 0 -48.5 -13t-18.5 -37q0 -23 17 -38.5t61 -36.5
q28 -13 44.5 -23t35.5 -26t28 -36.5t9 -45.5q0 -55 -39 -87.5t-113 -32.5z" />
    <glyph glyph-name="Scircumflex" unicode="&#x15c;" horiz-adv-x="525" 
d="M195 751l158 193h10l94 -193h-55l-56 106l-91 -106h-60zM243 -8q-82 0 -141 39.5t-88 94.5l61 36q66 -108 168 -108q69 0 107 35.5t38 94.5q0 39 -21.5 65.5t-74.5 60.5l-47 30q-61 39 -90.5 81.5t-29.5 98.5q0 76 50 122t126 46q113 0 172 -92l-56 -39q-23 35 -50 52
t-69 17q-45 0 -74 -27.5t-29 -75.5q0 -38 19.5 -64.5t66.5 -55.5l47 -30q69 -44 100.5 -86t31.5 -104q0 -87 -59 -139t-158 -52z" />
    <glyph glyph-name="scircumflex" unicode="&#x15d;" horiz-adv-x="402" 
d="M106 496l158 193h10l94 -193h-55l-56 106l-91 -106h-60zM186 -8q-60 0 -104 25t-66 66l52 33q42 -68 120 -68q84 0 84 62q0 24 -18 38.5t-73 42.5q-51 25 -76.5 52t-25.5 70q0 52 37.5 81t94.5 29q86 0 133 -63l-47 -38q-37 46 -87 46q-30 0 -48.5 -13t-18.5 -37
q0 -23 17 -38.5t61 -36.5q28 -13 44.5 -23t35.5 -26t28 -36.5t9 -45.5q0 -55 -39 -87.5t-113 -32.5z" />
    <glyph glyph-name="Scedilla" unicode="&#x15e;" horiz-adv-x="528" 
d="M227 -232q-38 0 -64.5 17t-37.5 43l44 24q17 -37 55 -37q21 0 34 12.5t13 33.5q0 20 -13 34t-38 14h-21l15 85q-72 7 -123 44.5t-77 87.5l61 36q66 -108 168 -108q69 0 107 35.5t38 94.5q0 39 -21.5 65.5t-74.5 60.5l-47 30q-61 39 -90.5 81.5t-29.5 98.5q0 76 50 122
t126 46q113 0 172 -92l-56 -39q-23 35 -50 52t-69 17q-45 0 -74 -27.5t-29 -75.5q0 -38 19.5 -64.5t66.5 -55.5l47 -30q69 -44 100.5 -86t31.5 -104q0 -83 -54 -134.5t-147 -55.5l-7 -46q30 -5 51 -28.5t21 -58.5q0 -42 -28.5 -67t-68.5 -25z" />
    <glyph glyph-name="scedilla" unicode="&#x15f;" horiz-adv-x="403" 
d="M167 -232q-38 0 -64.5 17t-37.5 43l44 24q17 -37 55 -37q21 0 34 12.5t13 33.5q0 20 -13 34t-38 14h-21l15 85q-97 13 -138 89l52 33q42 -68 120 -68q84 0 84 62q0 24 -18 38.5t-73 42.5q-51 25 -76.5 52t-25.5 70q0 52 37.5 81t94.5 29q86 0 133 -63l-47 -38
q-37 46 -87 46q-30 0 -48.5 -13t-18.5 -37q0 -23 17 -38.5t61 -36.5q28 -13 44.5 -23t35.5 -26t28 -36.5t9 -45.5q0 -52 -35.5 -84t-103.5 -35l-7 -46q30 -5 51 -28.5t21 -58.5q0 -42 -28.5 -67t-68.5 -25z" />
    <glyph glyph-name="Scaron" unicode="&#x160;" horiz-adv-x="528" 
d="M243 -8q-82 0 -141 39.5t-88 94.5l61 36q66 -108 168 -108q69 0 107 35.5t38 94.5q0 39 -21.5 65.5t-74.5 60.5l-47 30q-61 39 -90.5 81.5t-29.5 98.5q0 76 50 122t126 46q113 0 172 -92l-56 -39q-23 35 -50 52t-69 17q-45 0 -74 -27.5t-29 -75.5q0 -38 19.5 -64.5
t66.5 -55.5l47 -30q69 -44 100.5 -86t31.5 -104q0 -87 -59 -139t-158 -52zM322 742l-94 194h56l56 -107l90 107h60l-158 -194h-10z" />
    <glyph glyph-name="scaron" unicode="&#x161;" horiz-adv-x="403" 
d="M186 -8q-60 0 -104 25t-66 66l52 33q42 -68 120 -68q84 0 84 62q0 24 -18 38.5t-73 42.5q-51 25 -76.5 52t-25.5 70q0 52 37.5 81t94.5 29q86 0 133 -63l-47 -38q-37 46 -87 46q-30 0 -48.5 -13t-18.5 -37q0 -23 17 -38.5t61 -36.5q28 -13 44.5 -23t35.5 -26t28 -36.5
t9 -45.5q0 -55 -39 -87.5t-113 -32.5zM228 487l-94 194h56l56 -107l90 107h60l-158 -194h-10z" />
    <glyph glyph-name="Tcommaaccent" unicode="&#x162;" horiz-adv-x="542" 
d="M200 0l110 618h-206l11 62h481l-11 -62h-204l-109 -618h-72zM149 -256l48 102q-29 10 -29 45q0 21 15.5 35.5t35.5 14.5q21 0 35.5 -14t14.5 -35t-17 -48l-66 -100h-37z" />
    <glyph glyph-name="Tcommaaccent" unicode="&#x21a;" horiz-adv-x="542" 
d="M200 0l110 618h-206l11 62h481l-11 -62h-204l-109 -618h-72zM149 -256l48 102q-29 10 -29 45q0 21 15.5 35.5t35.5 14.5q21 0 35.5 -14t14.5 -35t-17 -48l-66 -100h-37z" />
    <glyph glyph-name="tcommaaccent" unicode="&#x163;" horiz-adv-x="328" 
d="M122 356h-62l10 58h62l39 216h67l-38 -216h112l-10 -58h-112l-41 -231q-13 -74 39 -74q28 0 54 22l32 -46q-39 -35 -94 -35q-54 0 -82.5 33.5t-15.5 102.5zM52 -256l48 102q-29 10 -29 45q0 21 15.5 35.5t35.5 14.5q21 0 35.5 -14t14.5 -35t-17 -48l-66 -100h-37z" />
    <glyph glyph-name="tcommaaccent" unicode="&#x21b;" horiz-adv-x="328" 
d="M122 356h-62l10 58h62l39 216h67l-38 -216h112l-10 -58h-112l-41 -231q-13 -74 39 -74q28 0 54 22l32 -46q-39 -35 -94 -35q-54 0 -82.5 33.5t-15.5 102.5zM52 -256l48 102q-29 10 -29 45q0 21 15.5 35.5t35.5 14.5q21 0 35.5 -14t14.5 -35t-17 -48l-66 -100h-37z" />
    <glyph glyph-name="Tcaron" unicode="&#x164;" horiz-adv-x="542" 
d="M356 742l-94 194h56l56 -107l90 107h60l-158 -194h-10zM200 0l110 618h-206l11 62h481l-11 -62h-204l-109 -618h-72z" />
    <glyph glyph-name="tcaron" unicode="&#x165;" horiz-adv-x="382" 
d="M334 482l51 108q-29 13 -29 47q0 21 15.5 35.5t35.5 14.5q22 0 36.5 -14t14.5 -36t-18 -48l-69 -107h-37zM122 356h-62l10 58h62l39 216h67l-38 -216h112l-10 -58h-112l-41 -231q-13 -74 39 -74q28 0 54 22l32 -46q-39 -35 -94 -35q-54 0 -82.5 33.5t-15.5 102.5z" />
    <glyph glyph-name="Umacron" unicode="&#x16a;" horiz-adv-x="647" 
d="M316 774l9 54h209l-10 -54h-208zM313 -8q-111 0 -176 69.5t-44 190.5l75 428h72l-75 -429q-17 -96 25 -146t126 -50q74 0 118.5 38t59.5 123l81 464h72l-84 -473q-37 -215 -250 -215z" />
    <glyph glyph-name="umacron" unicode="&#x16b;" horiz-adv-x="504" 
d="M194 519l9 54h209l-10 -54h-208zM193 -9q-70 0 -107.5 50t-23.5 134l42 239h68l-41 -233q-11 -60 11.5 -94.5t74.5 -34.5q114 0 137 129l42 233h68l-58 -327q-5 -32 20 -32h38l-10 -55h-45q-42 0 -58 21t-11 52l1 7q-54 -89 -148 -89z" />
    <glyph glyph-name="Ubreve" unicode="&#x16c;" horiz-adv-x="647" 
d="M417 744q-54 0 -86 33.5t-36 83.5l56 9q5 -34 19.5 -52.5t46.5 -18.5q61 0 79 71l56 -10q-11 -50 -46 -83t-89 -33zM313 -8q-111 0 -176 69.5t-44 190.5l75 428h72l-75 -429q-17 -96 25 -146t126 -50q74 0 118.5 38t59.5 123l81 464h72l-84 -473q-37 -215 -250 -215z" />
    <glyph glyph-name="ubreve" unicode="&#x16d;" horiz-adv-x="504" 
d="M297 489q-54 0 -86 33.5t-36 83.5l56 9q5 -34 19.5 -52.5t46.5 -18.5q61 0 79 71l56 -10q-11 -50 -46 -83t-89 -33zM193 -9q-70 0 -107.5 50t-23.5 134l42 239h68l-41 -233q-11 -60 11.5 -94.5t74.5 -34.5q114 0 137 129l42 233h68l-58 -327q-5 -32 20 -32h38l-10 -55
h-45q-42 0 -58 21t-11 52l1 7q-54 -89 -148 -89z" />
    <glyph glyph-name="Uring" unicode="&#x16e;" horiz-adv-x="647" 
d="M416 739q-43 0 -73.5 29.5t-30.5 70.5q0 42 30.5 71.5t73.5 29.5t73.5 -29.5t30.5 -71.5q0 -41 -30.5 -70.5t-73.5 -29.5zM313 -8q-111 0 -176 69.5t-44 190.5l75 428h72l-75 -429q-17 -96 25 -146t126 -50q74 0 118.5 38t59.5 123l81 464h72l-84 -473
q-37 -215 -250 -215zM416 783q23 0 37.5 15.5t14.5 40.5q0 26 -14.5 41t-37.5 15t-38 -15t-15 -41q0 -25 15 -40.5t38 -15.5z" />
    <glyph glyph-name="uring" unicode="&#x16f;" horiz-adv-x="504" 
d="M304 484q-43 0 -73.5 29.5t-30.5 70.5q0 42 30.5 71.5t73.5 29.5t73.5 -29.5t30.5 -71.5q0 -41 -30.5 -70.5t-73.5 -29.5zM193 -9q-70 0 -107.5 50t-23.5 134l42 239h68l-41 -233q-11 -60 11.5 -94.5t74.5 -34.5q114 0 137 129l42 233h68l-58 -327q-5 -32 20 -32h38
l-10 -55h-45q-42 0 -58 21t-11 52l1 7q-54 -89 -148 -89zM304 528q23 0 37.5 15.5t14.5 40.5q0 26 -14.5 41t-37.5 15t-38 -15t-15 -41q0 -25 15 -40.5t38 -15.5z" />
    <glyph glyph-name="Uhungarumlaut" unicode="&#x170;" horiz-adv-x="647" 
d="M449 753l100 193h77l-122 -193h-55zM312 753l100 193h77l-122 -193h-55zM313 -8q-111 0 -176 69.5t-44 190.5l75 428h72l-75 -429q-17 -96 25 -146t126 -50q74 0 118.5 38t59.5 123l81 464h72l-84 -473q-37 -215 -250 -215z" />
    <glyph glyph-name="uhungarumlaut" unicode="&#x171;" horiz-adv-x="504" 
d="M336 498l100 193h77l-122 -193h-55zM199 498l100 193h77l-122 -193h-55zM193 -9q-70 0 -107.5 50t-23.5 134l42 239h68l-41 -233q-11 -60 11.5 -94.5t74.5 -34.5q114 0 137 129l42 233h68l-58 -327q-5 -32 20 -32h38l-10 -55h-45q-42 0 -58 21t-11 52l1 7
q-54 -89 -148 -89z" />
    <glyph glyph-name="Uogonek" unicode="&#x172;" horiz-adv-x="647" 
d="M268 -5q-93 14 -143.5 81.5t-31.5 175.5l75 428h72l-75 -429q-17 -96 25 -146t126 -50q74 0 118.5 38t59.5 123l81 464h72l-84 -473q-38 -213 -246 -215l-38 -45q-25 -30 -35 -49t-10 -42q0 -18 12 -29.5t30 -11.5q12 0 22 5.5t15.5 12t13.5 18.5l41 -25q-30 -58 -97 -58
q-38 0 -65.5 22.5t-27.5 62.5q0 55 60 113z" />
    <glyph glyph-name="uogonek" unicode="&#x173;" horiz-adv-x="504" 
d="M356 15q-21 19 -16 58l1 7q-54 -89 -148 -89q-70 0 -107.5 50t-23.5 134l42 239h68l-41 -233q-11 -60 11.5 -94.5t74.5 -34.5q114 0 137 129l42 233h68l-58 -327q-5 -32 20 -32h38l-10 -55h-45q-12 0 -17 1l-46 -54q-26 -30 -36.5 -49t-10.5 -43q0 -19 12 -30.5t31 -11.5
q29 0 52 36l41 -23q-30 -58 -97 -58q-38 0 -65.5 22.5t-27.5 62.5q0 55 62 115z" />
    <glyph glyph-name="Ydieresis" unicode="&#x178;" horiz-adv-x="641" 
d="M496 772q-18 0 -31.5 13.5t-13.5 31.5q0 19 13.5 32.5t31.5 13.5t31.5 -13.5t13.5 -32.5t-13.5 -32t-31.5 -13zM326 772q-18 0 -31.5 13t-13.5 32t13.5 32.5t31.5 13.5t31.5 -13.5t13.5 -32.5q0 -18 -13.5 -31.5t-31.5 -13.5zM288 215l-170 465h75l123 -336
q4 -12 8.5 -30t6.5 -30l2 -12q19 44 38 72l240 336h79l-331 -466l-38 -214h-71z" />
    <glyph glyph-name="Zacute" unicode="&#x179;" horiz-adv-x="577" 
d="M353 753l98 193h84l-127 -193h-55zM9 0v11l469 608h-318l11 61h428v-11l-470 -608h372l-11 -61h-481z" />
    <glyph glyph-name="zacute" unicode="&#x17a;" horiz-adv-x="421" 
d="M243 498l98 193h84l-127 -193h-55zM10 0v10l294 347h-211l10 57h318v-11l-293 -347h230l-10 -56h-338z" />
    <glyph glyph-name="Zdotaccent" unicode="&#x17b;" horiz-adv-x="577" 
d="M387 771q-18 0 -32 13.5t-14 32.5t14 32.5t32 13.5t31.5 -13.5t13.5 -32.5t-13.5 -32.5t-31.5 -13.5zM9 0v11l469 608h-318l11 61h428v-11l-470 -608h372l-11 -61h-481z" />
    <glyph glyph-name="zdotaccent" unicode="&#x17c;" horiz-adv-x="421" 
d="M273 516q-18 0 -32 13.5t-14 32.5t14 32.5t32 13.5t31.5 -13.5t13.5 -32.5t-13.5 -32.5t-31.5 -13.5zM10 0v10l294 347h-211l10 57h318v-11l-293 -347h230l-10 -56h-338z" />
    <glyph glyph-name="Zcaron" unicode="&#x17d;" horiz-adv-x="577" 
d="M9 0v11l469 608h-318l11 61h428v-11l-470 -608h372l-11 -61h-481zM379 742l-94 194h56l56 -107l90 107h60l-158 -194h-10z" />
    <glyph glyph-name="zcaron" unicode="&#x17e;" horiz-adv-x="421" 
d="M10 0v10l294 347h-211l10 57h318v-11l-293 -347h230l-10 -56h-338zM263 487l-94 194h56l56 -107l90 107h60l-158 -194h-10z" />
    <glyph glyph-name="florin" unicode="&#x192;" horiz-adv-x="348" 
d="M115 207h-70l9 53h70l40 229q12 68 42 98.5t79 30.5q67 0 101 -55l-49 -37q-20 32 -51 32q-23 0 -35.5 -15t-19.5 -56l-40 -227h93l-9 -53h-93l-74 -419h-67z" />
    <glyph glyph-name="Scommaaccent" unicode="&#x218;" horiz-adv-x="525" 
d="M243 -8q-82 0 -141 39.5t-88 94.5l61 36q66 -108 168 -108q69 0 107 35.5t38 94.5q0 39 -21.5 65.5t-74.5 60.5l-47 30q-61 39 -90.5 81.5t-29.5 98.5q0 76 50 122t126 46q113 0 172 -92l-56 -39q-23 35 -50 52t-69 17q-45 0 -74 -27.5t-29 -75.5q0 -38 19.5 -64.5
t66.5 -55.5l47 -30q69 -44 100.5 -86t31.5 -104q0 -87 -59 -139t-158 -52zM128 -256l48 102q-29 10 -29 45q0 21 15.5 35.5t35.5 14.5q21 0 35.5 -14t14.5 -35t-17 -48l-66 -100h-37z" />
    <glyph glyph-name="scommaaccent" unicode="&#x219;" horiz-adv-x="402" 
d="M186 -8q-60 0 -104 25t-66 66l52 33q42 -68 120 -68q84 0 84 62q0 24 -18 38.5t-73 42.5q-51 25 -76.5 52t-25.5 70q0 52 37.5 81t94.5 29q86 0 133 -63l-47 -38q-37 46 -87 46q-30 0 -48.5 -13t-18.5 -37q0 -23 17 -38.5t61 -36.5q28 -13 44.5 -23t35.5 -26t28 -36.5
t9 -45.5q0 -55 -39 -87.5t-113 -32.5zM76 -256l48 102q-29 10 -29 45q0 21 15.5 35.5t35.5 14.5q21 0 35.5 -14t14.5 -35t-17 -48l-66 -100h-37z" />
    <glyph glyph-name="circumflex" unicode="&#x2c6;" horiz-adv-x="496" 
d="M168 496l158 193h10l94 -193h-55l-56 106l-91 -106h-60z" />
    <glyph glyph-name="caron" unicode="&#x2c7;" horiz-adv-x="496" 
d="M295 487l-94 194h56l56 -107l90 107h60l-158 -194h-10z" />
    <glyph glyph-name="breve" unicode="&#x2d8;" horiz-adv-x="497" 
d="M302 489q-54 0 -86 33.5t-36 83.5l56 9q5 -34 19.5 -52.5t46.5 -18.5q61 0 79 71l56 -10q-11 -50 -46 -83t-89 -33z" />
    <glyph glyph-name="dotaccent" unicode="&#x2d9;" horiz-adv-x="496" 
d="M312 516q-18 0 -32 13.5t-14 32.5t14 32.5t32 13.5t31.5 -13.5t13.5 -32.5t-13.5 -32.5t-31.5 -13.5z" />
    <glyph glyph-name="ring" unicode="&#x2da;" horiz-adv-x="497" 
d="M315 484q-43 0 -73.5 29.5t-30.5 70.5q0 42 30.5 71.5t73.5 29.5t73.5 -29.5t30.5 -71.5q0 -41 -30.5 -70.5t-73.5 -29.5zM315 528q23 0 37.5 15.5t14.5 40.5q0 26 -14.5 41t-37.5 15t-38 -15t-15 -41q0 -25 15 -40.5t38 -15.5z" />
    <glyph glyph-name="ogonek" unicode="&#x2db;" horiz-adv-x="497" 
d="M222 -232q-38 0 -65.5 22.5t-27.5 62.5q0 55 60 113l35 34h51l-45 -53q-25 -30 -35 -49t-10 -42q0 -18 12 -29.5t30 -11.5q12 0 22 5.5t15.5 12t13.5 18.5l41 -25q-30 -58 -97 -58z" />
    <glyph glyph-name="tilde" unicode="&#x2dc;" horiz-adv-x="490" 
d="M208 492l-51 6q19 110 93 110q29 0 64 -31q4 -3 11 -9.5t10 -9t8 -6t9 -4.5t8 -1q15 0 24 13t17 47l51 -6q-18 -110 -92 -110q-30 0 -65 31q-3 3 -9 8.5t-8.5 8t-7 5.5t-7 4.5t-6 2.5t-7.5 1q-28 0 -42 -60z" />
    <glyph glyph-name="hungarumlaut" unicode="&#x2dd;" horiz-adv-x="497" 
d="M320 498l100 193h77l-122 -193h-55zM183 498l100 193h77l-122 -193h-55z" />
    <glyph glyph-name="Delta" unicode="&#x394;" 
d="M107 189q-21 0 -37.5 16t-16.5 39t16 38.5t38 15.5t38 -15.5t16 -38.5t-16 -39t-38 -16z" />
    <glyph glyph-name="Delta" unicode="&#x2206;" 
d="M107 189q-21 0 -37.5 16t-16.5 39t16 38.5t38 15.5t38 -15.5t16 -38.5t-16 -39t-38 -16z" />
    <glyph glyph-name="Omega" unicode="&#x3a9;" 
d="M107 189q-21 0 -37.5 16t-16.5 39t16 38.5t38 15.5t38 -15.5t16 -38.5t-16 -39t-38 -16z" />
    <glyph glyph-name="Omega" unicode="&#x2126;" 
d="M107 189q-21 0 -37.5 16t-16.5 39t16 38.5t38 15.5t38 -15.5t16 -38.5t-16 -39t-38 -16z" />
    <glyph glyph-name="pi" unicode="&#x3c0;" 
d="M107 189q-21 0 -37.5 16t-16.5 39t16 38.5t38 15.5t38 -15.5t16 -38.5t-16 -39t-38 -16z" />
    <glyph glyph-name="endash" unicode="&#x2013;" horiz-adv-x="383" 
d="M27 164l11 60h314l-10 -60h-315z" />
    <glyph glyph-name="emdash" unicode="&#x2014;" horiz-adv-x="606" 
d="M27 164l11 60h537l-11 -60h-537z" />
    <glyph glyph-name="quoteleft" unicode="&#x2018;" horiz-adv-x="194" 
d="M153 475q-22 0 -36 14t-14 36q0 21 17 48l69 107h38l-52 -108q29 -12 29 -47q0 -21 -15.5 -35.5t-35.5 -14.5z" />
    <glyph glyph-name="quoteright" unicode="&#x2019;" horiz-adv-x="194" 
d="M100 482l51 108q-29 13 -29 47q0 21 15.5 35.5t35.5 14.5q22 0 36.5 -14t14.5 -36t-18 -48l-69 -107h-37z" />
    <glyph glyph-name="quotesinglbase" unicode="&#x201a;" horiz-adv-x="194" 
d="M2 -93l46 98q-29 13 -29 47q0 21 15.5 35.5t35.5 14.5q23 0 37 -14t14 -36q0 -21 -17 -48l-64 -97h-38z" />
    <glyph glyph-name="quotedblleft" unicode="&#x201c;" horiz-adv-x="351" 
d="M311 475q-22 0 -36.5 14t-14.5 36q0 21 17 48l70 107h37l-51 -108q29 -13 29 -47q0 -21 -15.5 -35.5t-35.5 -14.5zM153 475q-22 0 -36 14t-14 36q0 21 17 48l69 107h38l-52 -108q29 -12 29 -47q0 -21 -15.5 -35.5t-35.5 -14.5z" />
    <glyph glyph-name="quotedblright" unicode="&#x201d;" horiz-adv-x="351" 
d="M257 482l52 108q-29 12 -29 47q0 21 15.5 35.5t35.5 14.5q22 0 36 -14t14 -36q0 -21 -17 -48l-69 -107h-38zM100 482l51 108q-29 13 -29 47q0 21 15.5 35.5t35.5 14.5q22 0 36.5 -14t14.5 -36t-18 -48l-69 -107h-37z" />
    <glyph glyph-name="quotedblbase" unicode="&#x201e;" horiz-adv-x="352" 
d="M160 -93l46 98q-29 12 -29 47q0 21 15.5 35.5t35.5 14.5q22 0 36.5 -14t14.5 -36q0 -19 -18 -48l-64 -97h-37zM2 -93l46 98q-29 13 -29 47q0 21 15.5 35.5t35.5 14.5q23 0 37 -14t14 -36q0 -21 -17 -48l-64 -97h-38z" />
    <glyph glyph-name="dagger" unicode="&#x2020;" horiz-adv-x="335" 
d="M191 519h-93l10 57h93l19 104h63l-18 -104h93l-10 -57h-93l-42 -238h-64z" />
    <glyph glyph-name="daggerdbl" unicode="&#x2021;" horiz-adv-x="335" 
d="M192 523h-94l10 53h93l19 104h63l-19 -104h94l-10 -53h-93l-15 -85h93l-8 -53h-94l-19 -105h-63l19 105h-94l9 53h94z" />
    <glyph glyph-name="bullet" unicode="&#x2022;" horiz-adv-x="276" 
d="M147 160q-38 0 -66 27.5t-28 66.5q0 40 28 67.5t66 27.5t66 -27.5t28 -67.5q0 -39 -28 -66.5t-66 -27.5z" />
    <glyph glyph-name="ellipsis" unicode="&#x2026;" horiz-adv-x="594" 
d="M469 -7q-21 0 -37 15.5t-16 37.5q0 23 16 38.5t37 15.5t36.5 -15.5t15.5 -38.5q0 -22 -15.5 -37.5t-36.5 -15.5zM270 -7q-21 0 -37 15.5t-16 37.5q0 23 16 38.5t37 15.5t36.5 -15.5t15.5 -38.5q0 -22 -15.5 -37.5t-36.5 -15.5zM71 -7q-21 0 -37 15.5t-16 37.5
q0 23 16 38.5t37 15.5t36.5 -15.5t15.5 -38.5q0 -22 -15.5 -37.5t-36.5 -15.5z" />
    <glyph glyph-name="perthousand" unicode="&#x2030;" horiz-adv-x="1120" 
d="M194 218q-60 0 -101 39.5t-41 100.5q0 66 46 110t108 44q60 0 101 -39t41 -99q0 -68 -45.5 -112t-108.5 -44zM163 0l401 504h70l-401 -504h-70zM931 -8q-60 0 -101 39.5t-41 100.5q0 66 46 109.5t109 43.5q59 0 100 -39t41 -99q0 -68 -45.5 -111.5t-108.5 -43.5zM589 -8
q-60 0 -101 39.5t-41 100.5q0 66 46 109.5t108 43.5q60 0 101 -39t41 -99q0 -68 -45.5 -111.5t-108.5 -43.5zM194 271q40 0 66.5 28t26.5 74q0 40 -22 62.5t-59 22.5q-40 0 -66.5 -27.5t-26.5 -71.5q0 -41 22.5 -64.5t58.5 -23.5zM932 44q40 0 66.5 28.5t26.5 73.5
q0 40 -22.5 63t-58.5 23q-40 0 -67 -28t-27 -72q0 -41 22.5 -64.5t59.5 -23.5zM589 44q40 0 66.5 28.5t26.5 73.5q0 40 -22.5 63t-58.5 23q-40 0 -66.5 -28t-26.5 -72q0 -41 22.5 -64.5t58.5 -23.5z" />
    <glyph glyph-name="guilsinglleft" unicode="&#x2039;" horiz-adv-x="239" 
d="M100 37l-65 150v8l119 166h75l-126 -172l68 -152h-71z" />
    <glyph glyph-name="guilsinglright" unicode="&#x203a;" horiz-adv-x="238" 
d="M8 37l126 173l-68 151h71l65 -149v-8l-119 -167h-75z" />
    <glyph glyph-name="fraction" unicode="&#x2044;" horiz-adv-x="467" 
d="M-43 0l529 680h72l-529 -680h-72z" />
    <glyph glyph-name="fraction" unicode="&#x2215;" horiz-adv-x="467" 
d="M-43 0l529 680h72l-529 -680h-72z" />
    <glyph glyph-name="Euro" unicode="&#x20ac;" horiz-adv-x="603" 
d="M110 283h-62l9 53h65q28 80 97 128t151 48q131 0 196 -99l-53 -36q-47 74 -143 74q-58 0 -105 -30.5t-69 -84.5h226l-9 -53h-232q-3 -18 -3 -40q0 -18 1 -26h222l-9 -53h-202q17 -53 59 -82.5t102 -29.5q85 0 146 66l47 -38q-72 -88 -194 -88q-86 0 -148.5 46.5
t-84.5 125.5h-90l9 53h72q-1 8 -1 25q0 22 3 41z" />
    <glyph glyph-name="trademark" unicode="&#x2122;" horiz-adv-x="710" 
d="M370 383l54 302h8l112 -162l170 162h8l-53 -302h-53l33 187l-110 -111h-10l-72 112l-33 -188h-54zM210 635h-88l8 45h230l-9 -45h-87l-44 -252h-54z" />
    <glyph glyph-name="partialdiff" unicode="&#x2202;" 
d="M107 189q-21 0 -37.5 16t-16.5 39t16 38.5t38 15.5t38 -15.5t16 -38.5t-16 -39t-38 -16z" />
    <glyph glyph-name="product" unicode="&#x220f;" 
d="M107 189q-21 0 -37.5 16t-16.5 39t16 38.5t38 15.5t38 -15.5t16 -38.5t-16 -39t-38 -16z" />
    <glyph glyph-name="summation" unicode="&#x2211;" horiz-adv-x="573" 
d="M16 0v11l300 305l-188 353v11h465l-11 -64h-295l-56 3q17 -23 29 -45l135 -261v-9l-193 -197l-52 -46q34 3 65 3h284l-11 -64h-472z" />
    <glyph glyph-name="minus" unicode="&#x2212;" 
d="M107 189q-21 0 -37.5 16t-16.5 39t16 38.5t38 15.5t38 -15.5t16 -38.5t-16 -39t-38 -16z" />
    <glyph glyph-name="radical" unicode="&#x221a;" 
d="M107 189q-21 0 -37.5 16t-16.5 39t16 38.5t38 15.5t38 -15.5t16 -38.5t-16 -39t-38 -16z" />
    <glyph glyph-name="integral" unicode="&#x222b;" 
d="M107 189q-21 0 -37.5 16t-16.5 39t16 38.5t38 15.5t38 -15.5t16 -38.5t-16 -39t-38 -16z" />
    <glyph glyph-name="approxequal" unicode="&#x2248;" 
d="M107 189q-21 0 -37.5 16t-16.5 39t16 38.5t38 15.5t38 -15.5t16 -38.5t-16 -39t-38 -16z" />
    <glyph glyph-name="lessequal" unicode="&#x2264;" 
d="M107 189q-21 0 -37.5 16t-16.5 39t16 38.5t38 15.5t38 -15.5t16 -38.5t-16 -39t-38 -16z" />
    <glyph glyph-name="greaterequal" unicode="&#x2265;" 
d="M107 189q-21 0 -37.5 16t-16.5 39t16 38.5t38 15.5t38 -15.5t16 -38.5t-16 -39t-38 -16z" />
    <glyph glyph-name="lozenge" unicode="&#x25ca;" 
d="M107 189q-21 0 -37.5 16t-16.5 39t16 38.5t38 15.5t38 -15.5t16 -38.5t-16 -39t-38 -16z" />
    <glyph glyph-name="Lslashsmall" unicode="&#xf6f9;" horiz-adv-x="421" 
d="M148 170l-19 -110h231l-11 -60h-300l25 143l-59 -21l12 62l58 21l53 299h69l-48 -273l144 52l-12 -62z" />
    <glyph glyph-name="OEsmall" unicode="&#xf6fa;" horiz-adv-x="749" 
d="M285 0q-109 0 -172.5 62.5t-63.5 163.5q0 126 78.5 202t209.5 76h402l-10 -59h-243l-37 -210h215l-10 -57h-215l-21 -119h258l-10 -59h-381zM288 59h63l67 386h-80q-107 0 -163 -60.5t-56 -159.5q0 -76 42.5 -121t126.5 -45z" />
    <glyph glyph-name="Scaronsmall" unicode="&#xf6fd;" horiz-adv-x="422" 
d="M199 -8q-67 0 -116 31.5t-71 72.5l56 35q48 -80 132 -80q48 0 72.5 21.5t24.5 58.5q0 29 -18 50t-58 45l-32 20q-94 58 -94 137q0 57 39.5 93t101.5 36q92 0 138 -77l-52 -35q-33 54 -87 54q-31 0 -52 -18.5t-21 -49.5q0 -26 13 -44t46 -37l33 -20q56 -35 84 -70t28 -85
q0 -62 -46 -100t-121 -38zM242 561l-94 194h56l56 -107l90 107h60l-158 -194h-10z" />
    <glyph glyph-name="Zcaronsmall" unicode="&#xf6ff;" horiz-adv-x="459" 
d="M3 0v8l333 437h-228l11 59h335v-9l-333 -436h261l-10 -59h-369zM282 561l-94 194h56l56 -107l90 107h60l-158 -194h-10z" />
    <glyph glyph-name="Asmall" unicode="&#xf761;" horiz-adv-x="503" 
d="M112 76l-44 -76h-70l299 510h9l127 -510h-69l-18 76h-234zM335 128l-40 173q-4 16 -6.5 38t-3.5 36l-1 14q-20 -50 -39 -84l-103 -177h193z" />
    <glyph glyph-name="Bsmall" unicode="&#xf762;" horiz-adv-x="468" 
d="M37 0l89 504h165q60 0 94 -33t34 -84q0 -87 -84 -114q38 -10 61 -39.5t23 -72.5q0 -72 -47 -116.5t-128 -44.5h-207zM159 301h110q41 0 62 22.5t21 59.5q0 27 -17.5 45t-51.5 18h-99zM116 58h124q54 0 81.5 28t27.5 77q0 39 -21 61.5t-62 22.5h-117z" />
    <glyph glyph-name="Csmall" unicode="&#xf763;" horiz-adv-x="551" 
d="M293 -8q-104 0 -173 70.5t-69 176.5q0 117 78.5 195t192.5 78q133 0 198 -102l-55 -38q-51 80 -145 80q-84 0 -140.5 -62t-56.5 -152q0 -82 48 -134t125 -52q92 0 151 72l51 -41q-81 -91 -205 -91z" />
    <glyph glyph-name="Dsmall" unicode="&#xf764;" horiz-adv-x="515" 
d="M37 0l89 504h124q109 0 171 -62.5t62 -164.5q0 -126 -78 -201.5t-211 -75.5h-157zM117 60h76q107 0 163 60.5t56 158.5q0 76 -42 120.5t-127 44.5h-59z" />
    <glyph glyph-name="Esmall" unicode="&#xf765;" horiz-adv-x="447" 
d="M37 0l89 504h311l-11 -59h-243l-36 -210h215l-11 -57h-214l-21 -119h258l-10 -59h-327z" />
    <glyph glyph-name="Fsmall" unicode="&#xf766;" horiz-adv-x="427" 
d="M37 0l89 504h306l-11 -60h-237l-37 -214h215l-10 -59h-215l-31 -171h-69z" />
    <glyph glyph-name="Gsmall" unicode="&#xf767;" horiz-adv-x="564" 
d="M305 -8q-112 0 -183 68.5t-71 177.5q0 119 80 196.5t191 77.5q115 0 183 -76l-49 -44q-52 59 -137 59q-83 0 -140 -60.5t-57 -151.5q0 -85 50 -136.5t134 -51.5q63 0 120 32l18 105h-139l10 58h202l-35 -201q-75 -53 -177 -53z" />
    <glyph glyph-name="Hsmall" unicode="&#xf768;" horiz-adv-x="532" 
d="M394 231l48 273h69l-88 -504h-69l30 171h-248l-30 -171h-69l89 504h69l-48 -273h247z" />
    <glyph glyph-name="Ismall" unicode="&#xf769;" horiz-adv-x="224" 
d="M41 0l89 504h69l-89 -504h-69z" />
    <glyph glyph-name="Jsmall" unicode="&#xf76a;" horiz-adv-x="372" 
d="M141 -8q-48 0 -82.5 25t-50.5 61l58 31q28 -56 77 -56q64 0 77 75l66 376h69l-68 -385q-20 -127 -146 -127z" />
    <glyph glyph-name="Ksmall" unicode="&#xf76b;" horiz-adv-x="481" 
d="M134 205q30 49 61 80l208 219h80l-221 -231l161 -273h-78l-133 227l-80 -80l-26 -147h-69l89 504h69l-37 -208q-6 -33 -24 -91z" />
    <glyph glyph-name="Lsmall" unicode="&#xf76c;" horiz-adv-x="409" 
d="M37 0l89 504h69l-78 -444h231l-11 -60h-300z" />
    <glyph glyph-name="Msmall" unicode="&#xf76d;" horiz-adv-x="627" 
d="M37 0l90 510h9l179 -290l283 290h9l-90 -510h-66l48 274l19 89q-21 -39 -53 -71l-157 -160h-8l-100 155q-8 13 -17.5 33.5t-14.5 35.5l-6 14q-4 -63 -10 -96l-48 -274h-67z" />
    <glyph glyph-name="Nsmall" unicode="&#xf76e;" horiz-adv-x="537" 
d="M417 -6l-217 314l-41 68q0 -41 -6 -74l-53 -302h-63l90 509h9l218 -313q9 -13 19 -30.5t15 -28.5l6 -11q1 46 7 81l52 297h63l-90 -510h-9z" />
    <glyph glyph-name="Osmall" unicode="&#xf76f;" horiz-adv-x="605" 
d="M297 -8q-104 0 -175 69.5t-71 176.5q0 119 80 196.5t194 77.5q104 0 175 -69t71 -176q0 -119 -80 -197t-194 -78zM300 53q86 0 143.5 62t57.5 154q0 80 -50 131t-128 51q-86 0 -143.5 -61t-57.5 -153q0 -81 50 -132.5t128 -51.5z" />
    <glyph glyph-name="Psmall" unicode="&#xf770;" horiz-adv-x="463" 
d="M127 121l-21 -121h-69l89 504h126q89 0 139 -49t50 -126q0 -96 -61 -152t-168 -56h-85zM137 180h76q80 0 118.5 40t38.5 109q1 53 -30 84t-94 31h-62z" />
    <glyph glyph-name="Qsmall" unicode="&#xf771;" horiz-adv-x="607" 
d="M477 57l59 -79l-47 -34l-60 81q-63 -33 -131 -33q-104 0 -175 69.5t-71 176.5q0 119 80 196.5t194 77.5q104 0 175 -69t71 -176q0 -128 -95 -210zM394 72l-68 91l47 33l67 -91q62 62 62 164q0 80 -50 131t-128 51q-86 0 -143.5 -61t-57.5 -153q0 -81 50 -133.5t128 -52.5
q53 0 93 21z" />
    <glyph glyph-name="Rsmall" unicode="&#xf772;" horiz-adv-x="466" 
d="M313 151l83 -151h-73l-73 134q-24 -2 -40 -2h-81l-23 -132h-69l89 504h117q90 0 140 -47t50 -126q-1 -63 -31.5 -111.5t-88.5 -68.5zM139 189h73q75 0 112.5 38t37.5 104q0 54 -31 83.5t-93 29.5h-54z" />
    <glyph glyph-name="Ssmall" unicode="&#xf773;" horiz-adv-x="422" 
d="M197 -8q-67 0 -116 31.5t-71 72.5l56 35q48 -80 132 -80q48 0 72.5 21.5t24.5 58.5q0 29 -18 50t-58 45l-32 20q-94 58 -94 137q0 57 39.5 93t101.5 36q92 0 138 -77l-52 -35q-33 54 -87 54q-31 0 -52 -18.5t-21 -49.5q0 -26 13 -44t46 -37l33 -20q56 -35 84 -70t28 -85
q0 -62 -46 -100t-121 -38z" />
    <glyph glyph-name="Tsmall" unicode="&#xf774;" horiz-adv-x="430" 
d="M144 0l79 444h-150l10 60h369l-10 -60h-150l-78 -444h-70z" />
    <glyph glyph-name="Usmall" unicode="&#xf775;" horiz-adv-x="511" 
d="M238 -7q-86 0 -136 54t-34 145l55 312h69l-56 -316q-12 -65 17.5 -99.5t87.5 -34.5q106 0 125 114l58 336h69l-60 -346q-29 -165 -195 -165z" />
    <glyph glyph-name="Vsmall" unicode="&#xf776;" horiz-adv-x="502" 
d="M214 -6l-128 510h72l67 -288q4 -18 7.5 -43.5t4.5 -42.5l1 -16q20 58 43 97l167 293h73l-297 -510h-10z" />
    <glyph glyph-name="Wsmall" unicode="&#xf777;" horiz-adv-x="715" 
d="M167 -6l-82 510h71l41 -272l7 -98q17 52 40 93l162 282h9l63 -285q4 -16 6.5 -39t3.5 -39v-15q16 56 34 92l142 281h71l-260 -510h-9l-64 297l-12 86q-16 -45 -37 -81l-177 -302h-9z" />
    <glyph glyph-name="Xsmall" unicode="&#xf778;" horiz-adv-x="496" 
d="M1 0l219 275l-101 229h75l50 -119q7 -15 12.5 -34t7.5 -30l3 -11q19 40 44 74l93 120h78l-182 -229l122 -275h-75l-70 164q-6 15 -11.5 33t-7.5 29l-3 11q-17 -37 -44 -71l-132 -166h-78z" />
    <glyph glyph-name="Ysmall" unicode="&#xf779;" horiz-adv-x="504" 
d="M211 162l-125 342h73l75 -211q5 -15 10 -36t7 -34l2 -13q20 46 43 79l152 215h75l-242 -343l-28 -161h-70z" />
    <glyph glyph-name="Zsmall" unicode="&#xf77a;" horiz-adv-x="459" 
d="M5 0v8l333 437h-228l11 59h335v-9l-333 -436h261l-10 -59h-369z" />
    <glyph glyph-name="Agravesmall" unicode="&#xf7e0;" horiz-adv-x="503" 
d="M112 76l-44 -76h-70l299 510h9l127 -510h-69l-18 76h-234zM335 128l-40 173q-4 16 -6.5 38t-3.5 36l-1 14q-20 -50 -39 -84l-103 -177h193zM271 572l-87 193h80l61 -193h-54z" />
    <glyph glyph-name="Aacutesmall" unicode="&#xf7e1;" horiz-adv-x="503" 
d="M112 76l-44 -76h-70l299 510h9l127 -510h-69l-18 76h-234zM335 128l-40 173q-4 16 -6.5 38t-3.5 36l-1 14q-20 -50 -39 -84l-103 -177h193zM280 572l98 193h84l-127 -193h-55z" />
    <glyph glyph-name="Acircumflexsmall" unicode="&#xf7e2;" horiz-adv-x="503" 
d="M112 76l-44 -76h-70l299 510h9l127 -510h-69l-18 76h-234zM335 128l-40 173q-4 16 -6.5 38t-3.5 36l-1 14q-20 -50 -39 -84l-103 -177h193zM174 570l158 193h10l94 -193h-55l-56 106l-91 -106h-60z" />
    <glyph glyph-name="Atildesmall" unicode="&#xf7e3;" horiz-adv-x="503" 
d="M112 76l-44 -76h-70l299 510h9l127 -510h-69l-18 76h-234zM335 128l-40 173q-4 16 -6.5 38t-3.5 36l-1 14q-20 -50 -39 -84l-103 -177h193zM212 566l-51 6q19 110 93 110q29 0 64 -31q4 -3 11 -9.5t10 -9t8 -6t9 -4.5t8 -1q15 0 24 13t17 47l51 -6q-18 -110 -92 -110
q-30 0 -65 31q-3 3 -9 8.5t-8.5 8t-7 5.5t-7 4.5t-6 2.5t-7.5 1q-28 0 -42 -60z" />
    <glyph glyph-name="Adieresissmall" unicode="&#xf7e4;" horiz-adv-x="503" 
d="M112 76l-44 -76h-70l299 510h9l127 -510h-69l-18 76h-234zM335 128l-40 173q-4 16 -6.5 38t-3.5 36l-1 14q-20 -50 -39 -84l-103 -177h193zM400 591q-18 0 -31.5 13.5t-13.5 31.5q0 19 13.5 32.5t31.5 13.5t31.5 -13.5t13.5 -32.5t-13.5 -32t-31.5 -13zM230 591
q-18 0 -31.5 13t-13.5 32t13.5 32.5t31.5 13.5t31.5 -13.5t13.5 -32.5q0 -18 -13.5 -31.5t-31.5 -13.5z" />
    <glyph glyph-name="Aringsmall" unicode="&#xf7e5;" horiz-adv-x="503" 
d="M112 76l-44 -76h-70l299 510h9l127 -510h-69l-18 76h-234zM335 128l-40 173q-4 16 -6.5 38t-3.5 36l-1 14q-20 -50 -39 -84l-103 -177h193zM318 558q-43 0 -73.5 29.5t-30.5 70.5q0 42 30.5 71.5t73.5 29.5t73.5 -29.5t30.5 -71.5q0 -41 -30.5 -70.5t-73.5 -29.5z
M318 602q23 0 37.5 15.5t14.5 40.5q0 26 -14.5 41t-37.5 15t-38 -15t-15 -41q0 -25 15 -40.5t38 -15.5z" />
    <glyph glyph-name="AEsmall" unicode="&#xf7e6;" horiz-adv-x="720" 
d="M130 78l-66 -78h-78l429 504h299l-10 -59h-243l-37 -210h215l-10 -57h-215l-21 -119h259l-11 -59h-326l14 78h-199zM338 132l32 180l27 102q-38 -62 -63 -92l-160 -190h164z" />
    <glyph glyph-name="Ccedillasmall" unicode="&#xf7e7;" horiz-adv-x="551" 
d="M238 -2q-83 18 -135 84t-52 157q0 117 78.5 195t192.5 78q133 0 198 -102l-55 -38q-51 80 -145 80q-84 0 -140.5 -62t-56.5 -152q0 -82 48 -134t125 -52q92 0 151 72l51 -41q-81 -91 -205 -91h-10l-8 -45q30 -5 51 -28.5t21 -58.5q0 -42 -28.5 -67t-68.5 -25
q-38 0 -64.5 17t-37.5 43l44 24q17 -37 55 -37q21 0 34 12.5t13 33.5q0 20 -13 34t-38 14h-21z" />
    <glyph glyph-name="Egravesmall" unicode="&#xf7e8;" horiz-adv-x="447" 
d="M37 0l89 504h311l-11 -59h-243l-36 -210h215l-11 -57h-214l-21 -119h258l-10 -59h-327zM259 572l-87 193h80l61 -193h-54z" />
    <glyph glyph-name="Eacutesmall" unicode="&#xf7e9;" horiz-adv-x="447" 
d="M37 0l89 504h311l-11 -59h-243l-36 -210h215l-11 -57h-214l-21 -119h258l-10 -59h-327zM259 572l98 193h84l-127 -193h-55z" />
    <glyph glyph-name="Ecircumflexsmall" unicode="&#xf7ea;" horiz-adv-x="447" 
d="M37 0l89 504h311l-11 -59h-243l-36 -210h215l-11 -57h-214l-21 -119h258l-10 -59h-327zM157 570l158 193h10l94 -193h-55l-56 106l-91 -106h-60z" />
    <glyph glyph-name="Edieresissmall" unicode="&#xf7eb;" horiz-adv-x="447" 
d="M37 0l89 504h311l-11 -59h-243l-36 -210h215l-11 -57h-214l-21 -119h258l-10 -59h-327zM381 591q-18 0 -31.5 13.5t-13.5 31.5q0 19 13.5 32.5t31.5 13.5t31.5 -13.5t13.5 -32.5t-13.5 -32t-31.5 -13zM211 591q-18 0 -31.5 13t-13.5 32t13.5 32.5t31.5 13.5t31.5 -13.5
t13.5 -32.5q0 -18 -13.5 -31.5t-31.5 -13.5z" />
    <glyph glyph-name="Igravesmall" unicode="&#xf7ec;" horiz-adv-x="224" 
d="M41 0l89 504h69l-89 -504h-69zM141 572l-87 193h80l61 -193h-54z" />
    <glyph glyph-name="Iacutesmall" unicode="&#xf7ed;" horiz-adv-x="224" 
d="M41 0l89 504h69l-89 -504h-69zM145 572l98 193h84l-127 -193h-55z" />
    <glyph glyph-name="Icircumflexsmall" unicode="&#xf7ee;" horiz-adv-x="224" 
d="M41 0l89 504h69l-89 -504h-69zM43 570l158 193h10l94 -193h-55l-56 106l-91 -106h-60z" />
    <glyph glyph-name="Idieresissmall" unicode="&#xf7ef;" horiz-adv-x="224" 
d="M41 0l89 504h69l-89 -504h-69zM268 591q-18 0 -31.5 13.5t-13.5 31.5q0 19 13.5 32.5t31.5 13.5t31.5 -13.5t13.5 -32.5t-13.5 -32t-31.5 -13zM98 591q-18 0 -31.5 13t-13.5 32t13.5 32.5t31.5 13.5t31.5 -13.5t13.5 -32.5q0 -18 -13.5 -31.5t-31.5 -13.5z" />
    <glyph glyph-name="Ethsmall" unicode="&#xf7f0;" horiz-adv-x="516" 
d="M70 180h-55l11 58h54l47 266h124q109 0 171 -62.5t62 -164.5q0 -126 -78 -201.5t-211 -75.5h-157zM148 238h124l-10 -58h-124l-21 -120h77q107 0 163 60.5t56 158.5q0 76 -42.5 120.5t-127.5 44.5h-58z" />
    <glyph glyph-name="Ntildesmall" unicode="&#xf7f1;" horiz-adv-x="537" 
d="M417 -6l-217 314l-41 68q0 -41 -6 -74l-53 -302h-63l90 509h9l218 -313q9 -13 19 -30.5t15 -28.5l6 -11q1 46 7 81l52 297h63l-90 -510h-9zM235 566l-51 6q19 110 93 110q29 0 64 -31q4 -3 11 -9.5t10 -9t8 -6t9 -4.5t8 -1q15 0 24 13t17 47l51 -6q-18 -110 -92 -110
q-30 0 -65 31q-3 3 -9 8.5t-8.5 8t-7 5.5t-7 4.5t-6 2.5t-7.5 1q-28 0 -42 -60z" />
    <glyph glyph-name="Ogravesmall" unicode="&#xf7f2;" horiz-adv-x="605" 
d="M297 -8q-104 0 -175 69.5t-71 176.5q0 119 80 196.5t194 77.5q104 0 175 -69t71 -176q0 -119 -80 -197t-194 -78zM300 53q86 0 143.5 62t57.5 154q0 80 -50 131t-128 51q-86 0 -143.5 -61t-57.5 -153q0 -81 50 -132.5t128 -51.5zM304 572l-87 193h80l61 -193h-54z" />
    <glyph glyph-name="Oacutesmall" unicode="&#xf7f3;" horiz-adv-x="605" 
d="M297 -8q-104 0 -175 69.5t-71 176.5q0 119 80 196.5t194 77.5q104 0 175 -69t71 -176q0 -119 -80 -197t-194 -78zM300 53q86 0 143.5 62t57.5 154q0 80 -50 131t-128 51q-86 0 -143.5 -61t-57.5 -153q0 -81 50 -132.5t128 -51.5zM312 572l98 193h84l-127 -193h-55z" />
    <glyph glyph-name="Ocircumflexsmall" unicode="&#xf7f4;" horiz-adv-x="605" 
d="M297 -8q-104 0 -175 69.5t-71 176.5q0 119 80 196.5t194 77.5q104 0 175 -69t71 -176q0 -119 -80 -197t-194 -78zM300 53q86 0 143.5 62t57.5 154q0 80 -50 131t-128 51q-86 0 -143.5 -61t-57.5 -153q0 -81 50 -132.5t128 -51.5zM210 570l158 193h10l94 -193h-55l-56 106
l-91 -106h-60z" />
    <glyph glyph-name="Otildesmall" unicode="&#xf7f5;" horiz-adv-x="605" 
d="M297 -8q-104 0 -175 69.5t-71 176.5q0 119 80 196.5t194 77.5q104 0 175 -69t71 -176q0 -119 -80 -197t-194 -78zM300 53q86 0 143.5 62t57.5 154q0 80 -50 131t-128 51q-86 0 -143.5 -61t-57.5 -153q0 -81 50 -132.5t128 -51.5zM252 566l-51 6q19 110 93 110
q29 0 64 -31q4 -3 11 -9.5t10 -9t8 -6t9 -4.5t8 -1q15 0 24 13t17 47l51 -6q-18 -110 -92 -110q-30 0 -65 31q-3 3 -9 8.5t-8.5 8t-7 5.5t-7 4.5t-6 2.5t-7.5 1q-28 0 -42 -60z" />
    <glyph glyph-name="Odieresissmall" unicode="&#xf7f6;" horiz-adv-x="605" 
d="M297 -8q-104 0 -175 69.5t-71 176.5q0 119 80 196.5t194 77.5q104 0 175 -69t71 -176q0 -119 -80 -197t-194 -78zM300 53q86 0 143.5 62t57.5 154q0 80 -50 131t-128 51q-86 0 -143.5 -61t-57.5 -153q0 -81 50 -132.5t128 -51.5zM442 591q-18 0 -31.5 13.5t-13.5 31.5
q0 19 13.5 32.5t31.5 13.5t31.5 -13.5t13.5 -32.5t-13.5 -32t-31.5 -13zM272 591q-18 0 -31.5 13t-13.5 32t13.5 32.5t31.5 13.5t31.5 -13.5t13.5 -32.5q0 -18 -13.5 -31.5t-31.5 -13.5z" />
    <glyph glyph-name="Oslashsmall" unicode="&#xf7f8;" horiz-adv-x="605" 
d="M524 415q47 -61 47 -148q0 -119 -80 -197t-194 -78q-94 0 -163 58l-63 -59l-35 38l63 59q-48 64 -48 150q0 119 80 196.5t194 77.5q97 0 164 -59l63 58l34 -38zM147 133l296 277q-47 42 -120 42q-87 0 -144.5 -61t-57.5 -154q0 -60 26 -104zM476 370l-295 -277
q47 -41 119 -41q86 0 143.5 62t57.5 155q0 57 -25 101z" />
    <glyph glyph-name="Ugravesmall" unicode="&#xf7f9;" horiz-adv-x="511" 
d="M238 -7q-86 0 -136 54t-34 145l55 312h69l-56 -316q-12 -65 17.5 -99.5t87.5 -34.5q106 0 125 114l58 336h69l-60 -346q-29 -165 -195 -165zM284 572l-87 193h80l61 -193h-54z" />
    <glyph glyph-name="Uacutesmall" unicode="&#xf7fa;" horiz-adv-x="511" 
d="M238 -7q-86 0 -136 54t-34 145l55 312h69l-56 -316q-12 -65 17.5 -99.5t87.5 -34.5q106 0 125 114l58 336h69l-60 -346q-29 -165 -195 -165zM283 572l98 193h84l-127 -193h-55z" />
    <glyph glyph-name="Ucircumflexsmall" unicode="&#xf7fb;" horiz-adv-x="511" 
d="M238 -7q-86 0 -136 54t-34 145l55 312h69l-56 -316q-12 -65 17.5 -99.5t87.5 -34.5q106 0 125 114l58 336h69l-60 -346q-29 -165 -195 -165zM182 570l158 193h10l94 -193h-55l-56 106l-91 -106h-60z" />
    <glyph glyph-name="Udieresissmall" unicode="&#xf7fc;" horiz-adv-x="511" 
d="M238 -7q-86 0 -136 54t-34 145l55 312h69l-56 -316q-12 -65 17.5 -99.5t87.5 -34.5q106 0 125 114l58 336h69l-60 -346q-29 -165 -195 -165zM410 591q-18 0 -31.5 13.5t-13.5 31.5q0 19 13.5 32.5t31.5 13.5t31.5 -13.5t13.5 -32.5t-13.5 -32t-31.5 -13zM240 591
q-18 0 -31.5 13t-13.5 32t13.5 32.5t31.5 13.5t31.5 -13.5t13.5 -32.5q0 -18 -13.5 -31.5t-31.5 -13.5z" />
    <glyph glyph-name="Yacutesmall" unicode="&#xf7fd;" horiz-adv-x="504" 
d="M211 162l-125 342h73l75 -211q5 -15 10 -36t7 -34l2 -13q20 46 43 79l152 215h75l-242 -343l-28 -161h-70zM280 572l98 193h84l-127 -193h-55z" />
    <glyph glyph-name="Thornsmall" unicode="&#xf7fe;" horiz-adv-x="462" 
d="M185 447h57q88 0 138 -49t50 -126q0 -96 -60.5 -152t-167.5 -56h-85l-11 -64h-69l89 504h69zM128 123h75q80 0 118 40t39 109q0 53 -30.5 84t-93.5 31h-62z" />
    <glyph glyph-name="Ydieresissmall" unicode="&#xf7ff;" horiz-adv-x="504" 
d="M211 162l-125 342h73l75 -211q5 -15 10 -36t7 -34l2 -13q20 46 43 79l152 215h75l-242 -343l-28 -161h-70zM403 591q-18 0 -31.5 13.5t-13.5 31.5q0 19 13.5 32.5t31.5 13.5t31.5 -13.5t13.5 -32.5t-13.5 -32t-31.5 -13zM233 591q-18 0 -31.5 13t-13.5 32t13.5 32.5
t31.5 13.5t31.5 -13.5t13.5 -32.5q0 -18 -13.5 -31.5t-31.5 -13.5z" />
    <glyph glyph-name="Q.alt1" horiz-adv-x="783" 
d="M426 -3q28 -22 43 -32.5t44 -21.5t59 -11q59 0 100 45l48 -43q-56 -67 -148 -67q-37 0 -75 15t-57 27.5t-54 40.5q-5 4 -8 6q-28 21 -46 32.5t-46 22.5t-55 11q-72 0 -121 -73l-49 40q45 66 117 84q-106 90 -106 245q0 161 105 265.5t258 104.5q138 0 230.5 -91.5
t92.5 -233.5q0 -152 -94 -253.5t-238 -112.5zM397 55q125 0 206.5 88t81.5 221q0 116 -69.5 188t-181.5 72q-125 0 -207 -87t-82 -219q0 -116 69.5 -189.5t182.5 -73.5z" />
    <glyph glyph-name="apple" 
d="M107 189q-21 0 -37.5 16t-16.5 39t16 38.5t38 15.5t38 -15.5t16 -38.5t-16 -39t-38 -16z" />
    <glyph glyph-name="G.alt" horiz-adv-x="776" 
d="M399 -8q-144 0 -234.5 91.5t-90.5 235.5q0 160 106.5 264.5t257.5 104.5q189 0 268 -133l-57 -38q-65 107 -213 107q-123 0 -206 -87t-83 -217q0 -117 70.5 -191t184.5 -74q108 0 178.5 58.5t87.5 144.5h-234l11 62h302q-11 -149 -103.5 -238.5t-244.5 -89.5z" />
    <glyph glyph-name="M.alt" horiz-adv-x="810" 
d="M14 0l200 688h9l166 -395l23 -70q22 40 45 70l299 395h10l-43 -688h-70l23 408l13 103q-24 -49 -54 -90l-235 -307h-8l-128 312l-34 92q-10 -59 -23 -104l-122 -414h-71z" />
    <glyph glyph-name="Q.alt" horiz-adv-x="784" 
d="M404 -8l-27 -153h-67l27 158q-116 18 -190 106t-74 215q0 161 105 265.5t258 104.5q138 0 230.5 -91.5t92.5 -233.5q0 -158 -102.5 -262.5t-252.5 -108.5zM348 58l25 142h67l-25 -146q118 7 194.5 94.5t76.5 215.5q0 116 -69.5 188t-181.5 72q-125 0 -207 -87t-82 -219
q0 -102 55 -173t147 -87z" />
    <glyph glyph-name="e.alt" horiz-adv-x="508" 
d="M115 186q3 -60 41.5 -98.5t101.5 -38.5q80 0 130 52l42 -42q-65 -67 -173 -67q-92 0 -151 57.5t-59 147.5q0 97 65 161.5t159 64.5q98 0 149.5 -67t39.5 -170h-345zM119 237h276q0 58 -32.5 94t-93.5 36q-58 0 -98.5 -35.5t-51.5 -94.5z" />
    <glyph glyph-name="u.alt" horiz-adv-x="489" 
d="M224 -8q-85 0 -130 50.5t-29 142.5l40 229h69l-42 -234q-12 -68 14.5 -98.5t78.5 -30.5q53 0 82.5 28t40.5 93l43 242h68l-44 -252q-30 -170 -191 -170z" />
    <glyph glyph-name="eacute.alt" horiz-adv-x="508" 
d="M115 186q3 -60 41.5 -98.5t101.5 -38.5q80 0 130 52l42 -42q-65 -67 -173 -67q-92 0 -151 57.5t-59 147.5q0 97 65 161.5t159 64.5q98 0 149.5 -67t39.5 -170h-345zM119 237h276q0 58 -32.5 94t-93.5 36q-58 0 -98.5 -35.5t-51.5 -94.5zM262 498l98 193h84l-127 -193h-55
z" />
    <glyph glyph-name="egrave.alt" horiz-adv-x="508" 
d="M115 186q3 -60 41.5 -98.5t101.5 -38.5q80 0 130 52l42 -42q-65 -67 -173 -67q-92 0 -151 57.5t-59 147.5q0 97 65 161.5t159 64.5q98 0 149.5 -67t39.5 -170h-345zM119 237h276q0 58 -32.5 94t-93.5 36q-58 0 -98.5 -35.5t-51.5 -94.5zM248 498l-87 193h80l61 -193h-54z
" />
    <glyph glyph-name="ecircumflex.alt" horiz-adv-x="508" 
d="M115 186q3 -60 41.5 -98.5t101.5 -38.5q80 0 130 52l42 -42q-65 -67 -173 -67q-92 0 -151 57.5t-59 147.5q0 97 65 161.5t159 64.5q98 0 149.5 -67t39.5 -170h-345zM119 237h276q0 58 -32.5 94t-93.5 36q-58 0 -98.5 -35.5t-51.5 -94.5zM155 496l158 193h10l94 -193h-55
l-56 106l-91 -106h-60z" />
    <glyph glyph-name="edieresis.alt" horiz-adv-x="508" 
d="M115 186q3 -60 41.5 -98.5t101.5 -38.5q80 0 130 52l42 -42q-65 -67 -173 -67q-92 0 -151 57.5t-59 147.5q0 97 65 161.5t159 64.5q98 0 149.5 -67t39.5 -170h-345zM119 237h276q0 58 -32.5 94t-93.5 36q-58 0 -98.5 -35.5t-51.5 -94.5zM385 517q-18 0 -31.5 13.5
t-13.5 31.5q0 19 13.5 32.5t31.5 13.5t31.5 -13.5t13.5 -32.5t-13.5 -32t-31.5 -13zM215 517q-18 0 -31.5 13t-13.5 32t13.5 32.5t31.5 13.5t31.5 -13.5t13.5 -32.5q0 -18 -13.5 -31.5t-31.5 -13.5z" />
    <glyph glyph-name="uacute.alt" horiz-adv-x="489" 
d="M224 -8q-85 0 -130 50.5t-29 142.5l40 229h69l-42 -234q-12 -68 14.5 -98.5t78.5 -30.5q53 0 82.5 28t40.5 93l43 242h68l-44 -252q-30 -170 -191 -170zM259 498l98 193h84l-127 -193h-55z" />
    <glyph glyph-name="ugrave.alt" horiz-adv-x="489" 
d="M224 -8q-85 0 -130 50.5t-29 142.5l40 229h69l-42 -234q-12 -68 14.5 -98.5t78.5 -30.5q53 0 82.5 28t40.5 93l43 242h68l-44 -252q-30 -170 -191 -170zM255 498l-87 193h80l61 -193h-54z" />
    <glyph glyph-name="ucircumflex.alt" horiz-adv-x="489" 
d="M224 -8q-85 0 -130 50.5t-29 142.5l40 229h69l-42 -234q-12 -68 14.5 -98.5t78.5 -30.5q53 0 82.5 28t40.5 93l43 242h68l-44 -252q-30 -170 -191 -170zM155 496l158 193h10l94 -193h-55l-56 106l-91 -106h-60z" />
    <glyph glyph-name="udieresis.alt" horiz-adv-x="489" 
d="M224 -8q-85 0 -130 50.5t-29 142.5l40 229h69l-42 -234q-12 -68 14.5 -98.5t78.5 -30.5q53 0 82.5 28t40.5 93l43 242h68l-44 -252q-30 -170 -191 -170zM381 517q-18 0 -31.5 13.5t-13.5 31.5q0 19 13.5 32.5t31.5 13.5t31.5 -13.5t13.5 -32.5t-13.5 -32t-31.5 -13z
M211 517q-18 0 -31.5 13t-13.5 32t13.5 32.5t31.5 13.5t31.5 -13.5t13.5 -32.5q0 -18 -13.5 -31.5t-31.5 -13.5z" />
    <glyph glyph-name="zerolining" horiz-adv-x="697" 
d="M347 -8q-127 0 -205.5 86.5t-78.5 225.5q0 169 96.5 276.5t237.5 107.5q127 0 206 -86.5t79 -225.5q0 -169 -97 -276.5t-238 -107.5zM351 56q112 0 185 90t73 229q0 115 -58 182t-156 67q-113 0 -186 -90.5t-73 -228.5q0 -115 58 -182t157 -67z" />
    <glyph glyph-name="onelining" horiz-adv-x="299" 
d="M96 0l108 617h-105l11 63h176l-120 -680h-70z" />
    <glyph glyph-name="twolining" horiz-adv-x="519" 
d="M-14 0v7l319 292q67 62 100.5 110.5t33.5 100.5t-31.5 83t-88.5 31q-55 0 -96 -33.5t-61 -96.5l-67 15q22 84 83 131.5t143 47.5q87 0 138 -50t51 -130q0 -65 -40 -122.5t-114 -125.5l-172 -156q-11 -10 -26.5 -21.5l-25.5 -18.5l-11 -7q41 5 69 5h246l-12 -62h-438z" />
    <glyph glyph-name="threelining" horiz-adv-x="530" 
d="M244 -8q-84 0 -145 39.5t-86 97.5l61 31q53 -104 168 -104q82 0 131 47t49 125q0 72 -45 119t-123 47q-34 0 -66 -10l-5 7l181 191l48 41q-35 -5 -59 -5h-224l11 62h390v-7l-182 -194q-9 -9 -20 -18t-18 -13l-7 -5q87 -9 139 -67t52 -149q0 -106 -71 -170.5t-179 -64.5z
" />
    <glyph glyph-name="fourlining" horiz-adv-x="574" 
d="M461 185h74l-10 -59h-74l-22 -126h-71l22 126h-363l7 37l521 533h6zM390 185l49 278l18 76q-25 -39 -51 -65l-225 -240q-11 -11 -27 -24.5t-27 -21.5l-11 -8q43 5 72 5h202z" />
    <glyph glyph-name="fivelining" horiz-adv-x="531" 
d="M251 -8q-77 0 -138 37.5t-90 96.5l62 33q23 -46 65.5 -74.5t100.5 -28.5q80 0 126.5 50t46.5 129q0 72 -42.5 119.5t-120.5 47.5q-77 0 -151 -53l-7 4l58 327h346l-10 -62h-285l-32 -177q40 21 97 21q99 0 159 -65t60 -162q0 -108 -67.5 -175.5t-177.5 -67.5z" />
    <glyph glyph-name="sixlining" horiz-adv-x="547" 
d="M270 -8q-98 0 -161.5 63t-63.5 158q0 91 72 177l248 290h82l-175 -206q-10 -12 -25.5 -26t-26.5 -22l-11 -8q46 30 97 30q87 0 145.5 -60.5t58.5 -151.5q0 -105 -67.5 -174.5t-172.5 -69.5zM272 54q73 0 119.5 52t46.5 130q0 69 -41 112t-110 43q-76 0 -123.5 -52
t-47.5 -126q0 -69 42.5 -114t113.5 -45z" />
    <glyph glyph-name="sevenlining" horiz-adv-x="533" 
d="M69 0l400 617h-366l11 63h472v-7l-436 -673h-81z" />
    <glyph glyph-name="eightlining" horiz-adv-x="553" 
d="M218 392q-73 43 -73 127q0 74 56.5 121.5t138.5 47.5q77 0 126 -45t49 -112q0 -57 -33.5 -96t-86.5 -56q56 -22 88.5 -67t32.5 -106q0 -96 -68.5 -155t-177.5 -59q-101 0 -166.5 57t-65.5 145q0 79 49.5 130.5t130.5 67.5zM322 412q54 0 88.5 33t34.5 84q0 43 -29 71
t-78 28q-56 0 -89.5 -32t-33.5 -81q0 -45 28.5 -74t78.5 -29zM271 54q78 0 125.5 43.5t47.5 111.5q0 65 -43.5 105.5t-115.5 40.5q-76 0 -125.5 -44t-49.5 -112q0 -65 45 -105t116 -40z" />
    <glyph glyph-name="ninelining" horiz-adv-x="554" 
d="M163 0l164 197q10 12 26 27.5t27 24.5l11 9q-46 -32 -98 -32q-89 0 -148.5 63t-59.5 155q0 103 70 173.5t175 70.5q99 0 162.5 -63t63.5 -158q0 -96 -78 -189l-232 -278h-83zM313 284q73 0 122.5 54t49.5 127q0 69 -42.5 114.5t-114.5 45.5q-77 0 -124 -53t-47 -127
q0 -70 41.5 -115.5t114.5 -45.5z" />
    <glyph glyph-name="minuslining" 
d="M107 189q-21 0 -37.5 16t-16.5 39t16 38.5t38 15.5t38 -15.5t16 -38.5t-16 -39t-38 -16z" />
    <glyph glyph-name="multiplylining" 
d="M107 189q-21 0 -37.5 16t-16.5 39t16 38.5t38 15.5t38 -15.5t16 -38.5t-16 -39t-38 -16z" />
    <glyph glyph-name="spacelining" horiz-adv-x="232" 
 />
    <glyph glyph-name="numbersignlining" horiz-adv-x="434" 
d="M169 516h-79l10 55h83l27 109h58l-27 -109h97l28 109h57l-27 -109h68l-9 -55h-73l-27 -110h80l-10 -54h-84l-27 -108h-58l27 108h-97l-27 -108h-58l27 108h-67l10 54h71zM324 516h-97l-27 -110h97z" />
    <glyph glyph-name="dollarlining" horiz-adv-x="525" 
d="M193 -5q-119 18 -186 130l59 37q53 -92 137 -106l49 278l-5 4q-126 73 -125 181q0 76 53 122.5t131 46.5h8l15 85h50l-16 -91q76 -18 124 -92l-55 -38q-33 52 -80 67l-41 -236l15 -9q70 -41 103 -84.5t33 -105.5q0 -87 -60 -138.5t-160 -53.5l-19 -108h-50zM303 626
q-48 0 -80 -28t-32 -75q0 -35 17 -60.5t57 -52.5zM253 54q65 4 101.5 38.5t36.5 91.5q0 39 -21.5 66t-72.5 58z" />
    <glyph glyph-name="percentlining" horiz-adv-x="802" 
d="M234 353q-66 0 -111 45.5t-45 114.5q0 75 50.5 125t119.5 50q66 0 112 -46t46 -114q0 -75 -51 -125t-121 -50zM125 0l528 680h72l-528 -680h-72zM600 -8q-66 0 -111 45t-45 114q0 75 51 125t120 50q66 0 111.5 -45.5t45.5 -113.5q0 -76 -51 -125.5t-121 -49.5zM235 409
q46 0 77 32.5t31 86.5q0 46 -26.5 75t-69.5 29q-45 0 -75.5 -32.5t-30.5 -86.5q0 -47 25.5 -75.5t68.5 -28.5zM602 47q45 0 76 32.5t31 87.5q0 47 -26.5 75.5t-69.5 28.5q-45 0 -75.5 -33t-30.5 -87q0 -47 26 -75.5t69 -28.5z" />
    <glyph glyph-name="parenleftlining" horiz-adv-x="277" 
d="M147 -135q-107 140 -107 338q0 295 256 515l36 -39q-220 -205 -220 -474q0 -178 82 -308z" />
    <glyph glyph-name="parenrightlining" horiz-adv-x="275" 
d="M11 -135l-36 39q220 207 220 477q0 174 -82 306l46 31q107 -138 107 -335q0 -299 -255 -518z" />
    <glyph glyph-name="pluslining" horiz-adv-x="400" 
d="M246 293l-25 -145h-62l25 145h-131l11 60h131l25 145h62l-25 -145h131l-11 -60h-131z" />
    <glyph glyph-name="commalining" horiz-adv-x="196" 
d="M-8 -112l55 112q-29 14 -29 48q0 22 16 37.5t37 15.5q23 0 37.5 -15t14.5 -38q0 -20 -18 -46l-75 -114h-38z" />
    <glyph glyph-name="periodlining" horiz-adv-x="196" 
d="M71 -7q-21 0 -37 15.5t-16 37.5q0 23 16 38.5t37 15.5t36.5 -15.5t15.5 -38.5q0 -22 -15.5 -37.5t-36.5 -15.5z" />
    <glyph glyph-name="colonlining" horiz-adv-x="205" 
d="M114 218q-21 0 -36.5 15t-15.5 38t15.5 38.5t36.5 15.5q22 0 37.5 -15.5t15.5 -38.5t-15.5 -38t-37.5 -15zM75 -7q-21 0 -36.5 15.5t-15.5 37.5q0 23 15.5 38.5t36.5 15.5q22 0 37.5 -15.5t15.5 -38.5q0 -22 -15.5 -37.5t-37.5 -15.5z" />
    <glyph glyph-name="semicolonlining" horiz-adv-x="205" 
d="M114 218q-21 0 -36.5 15t-15.5 38t15.5 38.5t36.5 15.5q22 0 37.5 -15.5t15.5 -38.5t-15.5 -38t-37.5 -15zM-3 -112l55 112q-29 13 -29 48q0 22 15.5 37.5t36.5 15.5q23 0 38 -15t15 -38q0 -20 -18 -46l-75 -114h-38z" />
    <glyph glyph-name="lesslining" horiz-adv-x="380" 
d="M325 149l-266 167v10l326 164l-12 -70l-215 -102l177 -107z" />
    <glyph glyph-name="equallining" horiz-adv-x="399" 
d="M67 353l11 60h317l-11 -60h-317zM41 207l10 61h318l-11 -61h-317z" />
    <glyph glyph-name="greaterlining" horiz-adv-x="380" 
d="M36 149l12 69l215 103l-177 107l10 62l266 -167v-11z" />
    <glyph glyph-name="bracketleftlining" horiz-adv-x="299" 
d="M14 -128l150 850h191l-10 -59h-122l-129 -732h122l-11 -59h-191z" />
    <glyph glyph-name="bracketrightlining" horiz-adv-x="300" 
d="M-24 -128l11 59h122l129 732h-122l10 59h192l-150 -850h-192z" />
    <glyph glyph-name="braceleftlining" horiz-adv-x="361" 
d="M217 -128q-61 0 -94 34.5t-18 116.5l25 147q7 40 -3.5 54t-38.5 14h-59l10 59h56q30 0 47 16t24 58l39 217q14 78 50 106t91 28h71l-10 -59h-55q-34 0 -51.5 -16.5t-26.5 -63.5l-40 -227q-8 -44 -28 -63.5t-54 -25.5q63 -16 48 -99l-26 -151q-9 -49 4.5 -67.5t48.5 -18.5
h51l-11 -59h-50z" />
    <glyph glyph-name="bracerightlining" horiz-adv-x="362" 
d="M-25 -128l10 59h56q33 0 51 16.5t26 63.5l29 167q8 45 28 64.5t55 25.5q-62 14 -49 98l38 211q9 49 -4.5 67.5t-48.5 18.5h-51l10 59h51q60 0 93.5 -35t18.5 -116l-37 -207q-7 -39 3.5 -53.5t38.5 -14.5h60l-11 -58h-55q-30 0 -47 -16.5t-25 -58.5l-28 -157
q-14 -78 -50.5 -106t-90.5 -28h-71z" />
    <glyph glyph-name="degreelining" horiz-adv-x="357" 
d="M238 423q-54 0 -92 38t-38 92q0 57 39.5 96t94.5 39q54 0 92.5 -37.5t38.5 -91.5q0 -58 -39.5 -97t-95.5 -39zM239 472q36 0 58 24.5t22 62.5q0 35 -21.5 57.5t-55.5 22.5q-36 0 -58 -24.5t-22 -62.5q0 -35 21.5 -57.5t55.5 -22.5z" />
    <glyph glyph-name="centlining" horiz-adv-x="455" 
d="M188 1q-64 19 -103 72.5t-39 124.5q0 93 61.5 157.5t154.5 67.5l19 106h50l-19 -109q72 -12 117 -71l-50 -40q-31 41 -77 52l-55 -311h3q61 0 110 41l40 -44q-59 -55 -150 -55h-13l-19 -108h-50zM252 363q-62 -6 -99.5 -51.5t-37.5 -114.5q0 -47 22.5 -84.5t60.5 -52.5z
" />
    <glyph glyph-name="sterlinglining" horiz-adv-x="585" 
d="M196 277h-99l10 55h79q-15 83 -15 139q0 97 57.5 157t156.5 60q142 0 193 -122l-58 -31q-21 47 -52.5 69.5t-83.5 22.5q-67 0 -104 -40.5t-37 -116.5q0 -53 13 -138h187l-10 -55h-169q8 -56 8 -107q0 -28 -7 -60q24 -19 38.5 -28.5t39.5 -19t50 -9.5q35 0 57.5 13
t44.5 41l46 -40q-31 -40 -64.5 -57.5t-83.5 -17.5q-72 0 -151 65q-43 -65 -124 -65q-43 0 -74 26t-31 66q0 45 30.5 70.5t75.5 25.5q44 0 88 -27v14q0 42 -11 110zM196 97q-45 34 -76 34q-23 0 -37 -12.5t-14 -33.5q0 -19 13 -31t36 -12q55 0 78 55z" />
    <glyph glyph-name="sectionlining" horiz-adv-x="538" 
d="M167 430q-17 36 -17 80q0 76 52.5 127t133.5 51q116 0 166 -101l-58 -33q-38 72 -108 72q-52 0 -82.5 -32.5t-30.5 -80.5q0 -72 72 -111l98 -55q58 -33 83.5 -69.5t25.5 -83.5q0 -94 -113 -132q20 -35 20 -79q0 -74 -51 -118.5t-136 -44.5q-67 0 -119 30.5t-79 81.5
l58 36q51 -85 138 -85q55 0 85.5 28t30.5 73q0 36 -19 57.5t-64 46.5l-94 53q-57 32 -81 66.5t-24 81.5q0 101 113 141zM357 101q75 26 75 87q0 31 -17.5 54t-59.5 46l-98 55q-40 23 -63 49q-70 -30 -70 -92q0 -32 16 -54t58 -46l93 -52q38 -20 66 -47z" />
    <glyph glyph-name="yenlining" horiz-adv-x="601" 
d="M378 273l-41 -61l-5 -29h203l-9 -55h-204l-23 -128h-70l22 128h-202l9 55h203l6 32l-18 58h-175l10 55h147l-113 352h73l103 -340l16 -84q20 54 40 84l225 340h76l-236 -352h147l-10 -55h-174z" />
    <glyph glyph-name="florinlining" horiz-adv-x="348" 
d="M124 258h-77l10 55h77l43 246q24 129 121 129q66 0 101 -55l-46 -38q-22 33 -52 33q-23 0 -37 -16t-20 -55l-43 -244h98l-10 -55h-98l-82 -470h-67z" />
    <glyph glyph-name="dividelining" 
d="M107 189q-21 0 -37.5 16t-16.5 39t16 38.5t38 15.5t38 -15.5t16 -38.5t-16 -39t-38 -16z" />
    <glyph glyph-name="perthousandlining" horiz-adv-x="1186" 
d="M234 353q-66 0 -111 45.5t-45 114.5q0 75 50.5 125t119.5 50q66 0 112 -46t46 -114q0 -75 -51 -125t-121 -50zM125 0l528 680h72l-528 -680h-72zM984 -8q-66 0 -111 45t-45 114q0 75 50.5 125t119.5 50q66 0 112 -45.5t46 -113.5q0 -76 -51 -125.5t-121 -49.5zM600 -8
q-66 0 -111 45t-45 114q0 75 51 125t120 50q66 0 111.5 -45.5t45.5 -113.5q0 -76 -51 -125.5t-121 -49.5zM235 409q46 0 77 32.5t31 86.5q0 46 -26.5 75t-69.5 29q-45 0 -75.5 -32.5t-30.5 -86.5q0 -47 25.5 -75.5t68.5 -28.5zM985 47q46 0 77 32.5t31 87.5q0 46 -26.5 75
t-69.5 29q-45 0 -75.5 -33t-30.5 -87q0 -47 25.5 -75.5t68.5 -28.5zM602 47q45 0 76 32.5t31 87.5q0 47 -26.5 75.5t-69.5 28.5q-45 0 -75.5 -33t-30.5 -87q0 -47 26 -75.5t69 -28.5z" />
    <glyph glyph-name="fl.alt" horiz-adv-x="498" 
d="M394 0q-45 0 -61 22t-7 70l111 630h69l-114 -635q-5 -32 20 -32h45l-9 -55h-54zM128 356h-66l10 58h66l34 194q23 127 123 127q56 0 89 -40l-40 -44q-21 23 -45 23t-38.5 -15t-21.5 -55l-33 -190h100l-10 -58h-100l-80 -454q-12 -67 -40 -90.5t-82 -23.5h-42l10 55h30
q22 0 36 13.5t21 52.5z" />
    <glyph glyph-name="ffl.alt" horiz-adv-x="743" 
d="M640 0q-45 0 -61 22t-8 70l111 630h69l-113 -635q-6 -32 19 -32h45l-9 -55h-53zM372 356h-176l-80 -454q-11 -67 -39.5 -90.5t-82.5 -23.5h-42l10 55h30q22 0 36 13.5t21 52.5l79 447h-66l10 58h66l31 176q21 125 125 125q60 0 92 -44l-44 -42q-19 25 -46 25
q-24 0 -38.5 -15t-21.5 -53l-30 -172h176l35 194q23 127 123 127q56 0 89 -40l-40 -44q-21 23 -45 23t-38.5 -15t-21.5 -55l-33 -190h100l-10 -58h-100l-76 -432q-12 -67 -40.5 -90.5t-82.5 -23.5h-39l10 55h28q21 0 35 13.5t21 51.5z" />
    <glyph glyph-name="Eurolining" horiz-adv-x="721" 
d="M140 366h-79l9 55h80q30 121 115.5 194t199.5 73q167 0 234 -136l-58 -31q-54 104 -177 104q-88 0 -151.5 -55.5t-87.5 -148.5h302l-9 -55h-304q-3 -27 -3 -57q0 -20 1 -29h290l-9 -55h-273q19 -81 73 -126t132 -45q124 0 198 105l53 -39q-93 -128 -253 -128
q-104 0 -179.5 62.5t-98.5 170.5h-108l9 55h92q-1 9 -1 28q0 30 3 58z" />
    <glyph glyph-name="minussmall" 
d="M107 189q-21 0 -37.5 16t-16.5 39t16 38.5t38 15.5t38 -15.5t16 -38.5t-16 -39t-38 -16z" />
    <glyph glyph-name="multiplysmall" 
d="M107 189q-21 0 -37.5 16t-16.5 39t16 38.5t38 15.5t38 -15.5t16 -38.5t-16 -39t-38 -16z" />
    <glyph glyph-name="spacesmall" horiz-adv-x="228" 
 />
    <glyph glyph-name="numbersignsmall" horiz-adv-x="429" 
d="M155 449h-79l10 55h83l27 109h57l-27 -109h98l27 109h58l-27 -109h68l-10 -55h-72l-28 -110h81l-10 -55h-84l-27 -107h-58l27 107h-98l-27 -107h-57l27 107h-68l10 55h71zM310 449h-98l-28 -110h98z" />
    <glyph glyph-name="dollarsmall" horiz-adv-x="427" 
d="M148 -4q-56 10 -95 40.5t-56 69.5l57 28q32 -68 103 -84l33 190q-119 46 -119 140q0 62 46 97t118 35h3l18 101h50l-19 -107q75 -18 110 -85l-51 -32q-23 49 -68 63l-30 -168l6 -2q67 -26 98.5 -60.5t31.5 -86.5q0 -68 -51.5 -105t-135.5 -38l-19 -108h-50zM228 458
q-92 -3 -92 -75q0 -52 65 -79zM206 46q53 2 82 25t29 63q0 29 -18.5 49.5t-61.5 36.5z" />
    <glyph glyph-name="percentsmall" horiz-adv-x="778" 
d="M194 218q-60 0 -101 39.5t-41 100.5q0 66 46 110t108 44q60 0 101 -39t41 -99q0 -68 -45.5 -112t-108.5 -44zM163 0l401 504h70l-401 -504h-70zM589 -8q-60 0 -101 39.5t-41 100.5q0 66 46 109.5t108 43.5q60 0 101 -39t41 -99q0 -68 -45.5 -111.5t-108.5 -43.5zM194 271
q40 0 66.5 28t26.5 74q0 40 -22 62.5t-59 22.5q-40 0 -66.5 -27.5t-26.5 -71.5q0 -41 22.5 -64.5t58.5 -23.5zM589 44q40 0 66.5 28.5t26.5 73.5q0 40 -22.5 63t-58.5 23q-40 0 -66.5 -28t-26.5 -72q0 -41 22.5 -64.5t58.5 -23.5z" />
    <glyph glyph-name="parenleftsmall" horiz-adv-x="281" 
d="M168 -60q-117 148 -117 328q0 84 23 159t64 133t80.5 98.5t89.5 79.5l34 -39q-219 -186 -219 -432q0 -150 91 -297z" />
    <glyph glyph-name="parenrightsmall" horiz-adv-x="280" 
d="M21 -60l-34 40q218 184 218 431q0 64 -15.5 124.5t-32 95t-42.5 77.5l46 30q116 -150 116 -328q0 -270 -256 -470z" />
    <glyph glyph-name="plussmall" horiz-adv-x="371" 
d="M219 223l-22 -125h-62l22 125h-115l11 59h114l23 126h62l-23 -126h116l-11 -59h-115z" />
    <glyph glyph-name="commasmall" horiz-adv-x="196" 
d="M-8 -112l55 112q-29 14 -29 48q0 22 16 37.5t37 15.5q23 0 37.5 -15t14.5 -38q0 -20 -18 -46l-75 -114h-38z" />
    <glyph glyph-name="periodsmall" horiz-adv-x="196" 
d="M71 -7q-21 0 -37 15.5t-16 37.5q0 23 16 38.5t37 15.5t36.5 -15.5t15.5 -38.5q0 -22 -15.5 -37.5t-36.5 -15.5z" />
    <glyph glyph-name="slashsmall" horiz-adv-x="416" 
d="M-38 -128l445 850h72l-445 -850h-72z" />
    <glyph glyph-name="zerosmall" horiz-adv-x="551" 
d="M267 -8q-95 0 -156.5 67t-61.5 172q0 123 73 202t178 79q95 0 157 -67.5t62 -172.5q0 -123 -73.5 -201.5t-178.5 -78.5zM269 53q77 0 128 62t51 158q0 81 -41.5 129.5t-109.5 48.5q-76 0 -127.5 -62.5t-51.5 -158.5q0 -80 41.5 -128.5t109.5 -48.5z" />
    <glyph glyph-name="onesmall" horiz-adv-x="264" 
d="M86 0l79 443h-95l11 61h163l-89 -504h-69z" />
    <glyph glyph-name="twosmall" horiz-adv-x="417" 
d="M-9 0v9l243 214q52 46 73.5 78.5t21.5 69.5q0 34 -22.5 56t-60.5 22q-79 0 -113 -94l-66 19q21 68 68.5 103t112.5 35q67 0 109 -39.5t42 -99.5q0 -50 -28 -92.5t-84 -91.5l-104 -91q-10 -8 -26 -19l-27 -18l-11 -7q43 6 63 6h178l-10 -60h-359z" />
    <glyph glyph-name="threesmall" horiz-adv-x="424" 
d="M192 -8q-70 0 -117.5 32.5t-67.5 79.5l60 28q39 -79 124 -79q56 0 87.5 32t31.5 84q0 50 -31.5 81.5t-88.5 31.5q-35 0 -55 -9l-4 7l122 130q9 10 20.5 19.5t18.5 14.5l6 4q-38 -4 -61 -4h-147l10 60h308v-9l-122 -129q-9 -10 -20 -19t-17 -13l-6 -5q58 -5 97 -50
t39 -111q0 -79 -51.5 -127.5t-135.5 -48.5z" />
    <glyph glyph-name="foursmall" horiz-adv-x="472" 
d="M271 0l15 87h-275l8 46l401 376h10l-65 -366h60l-10 -56h-60l-15 -87h-69zM96 139q26 3 56 3h145l30 167l16 65q-22 -26 -46 -50l-152 -148q-12 -11 -24 -20t-19 -13z" />
    <glyph glyph-name="fivesmall" horiz-adv-x="420" 
d="M188 -8q-63 0 -109.5 28.5t-68.5 72.5l60 33q38 -73 118 -73q54 0 87 32.5t33 85.5q0 51 -31 82t-84 31q-60 0 -116 -35l-5 4l44 251h270l-10 -60h-211l-21 -118q33 12 69 12q73 0 119 -46.5t46 -119.5q0 -81 -53 -130.5t-137 -49.5z" />
    <glyph glyph-name="sixsmall" horiz-adv-x="451" 
d="M218 -8q-77 0 -129 49.5t-52 122.5q0 75 58 142l170 198h79l-108 -129q-11 -12 -28.5 -27.5t-29.5 -24.5l-12 -9q41 25 82 25q66 0 114 -47t48 -117q0 -81 -54.5 -132t-137.5 -51zM218 52q54 0 88 34t34 88q0 49 -31 80.5t-80 31.5q-55 0 -89.5 -36t-34.5 -86
q0 -49 31.5 -80.5t81.5 -31.5z" />
    <glyph glyph-name="sevensmall" horiz-adv-x="428" 
d="M50 0l287 443h-261l11 61h359v-9l-319 -495h-77z" />
    <glyph glyph-name="eightsmall" horiz-adv-x="444" 
d="M166 293q-60 34 -60 95q0 55 44.5 89.5t107.5 34.5q59 0 100 -35t41 -86q0 -82 -93 -109q44 -18 70.5 -51t26.5 -76q0 -72 -53 -117.5t-137 -45.5q-79 0 -131.5 45t-52.5 109q0 59 37.5 97t99.5 50zM248 310q37 0 61.5 20.5t24.5 53.5q0 31 -22.5 51.5t-55.5 20.5
q-38 0 -62 -21t-24 -53t22 -52t56 -20zM213 52q55 0 87.5 29.5t32.5 76.5q0 43 -32.5 71.5t-81.5 28.5q-52 0 -86 -29.5t-34 -76.5q0 -45 32 -72.5t82 -27.5z" />
    <glyph glyph-name="ninesmall" horiz-adv-x="452" 
d="M127 0l108 125q12 15 30 31.5t29 25.5l12 9q-44 -27 -84 -27q-66 0 -114 47.5t-48 116.5q0 80 55 132t136 52q80 0 130.5 -49t50.5 -123q0 -82 -64 -154l-162 -186h-79zM242 216q53 0 87.5 36t34.5 88q0 48 -30.5 80t-82.5 32q-56 0 -89 -36t-33 -87q0 -49 31 -81t82 -32
z" />
    <glyph glyph-name="colonsmall" horiz-adv-x="205" 
d="M114 218q-21 0 -36.5 15t-15.5 38t15.5 38.5t36.5 15.5q22 0 37.5 -15.5t15.5 -38.5t-15.5 -38t-37.5 -15zM75 -7q-21 0 -36.5 15.5t-15.5 37.5q0 23 15.5 38.5t36.5 15.5q22 0 37.5 -15.5t15.5 -38.5q0 -22 -15.5 -37.5t-37.5 -15.5z" />
    <glyph glyph-name="semicolonsmall" horiz-adv-x="205" 
d="M114 218q-21 0 -36.5 15t-15.5 38t15.5 38.5t36.5 15.5q22 0 37.5 -15.5t15.5 -38.5t-15.5 -38t-37.5 -15zM-3 -112l55 112q-29 13 -29 48q0 22 15.5 37.5t36.5 15.5q23 0 38 -15t15 -38q0 -20 -18 -46l-75 -114h-38z" />
    <glyph glyph-name="lesssmall" horiz-adv-x="354" 
d="M281 94l-242 144v11l294 143l-12 -67l-183 -84l153 -86z" />
    <glyph glyph-name="equalsmall" horiz-adv-x="369" 
d="M55 282l11 61h285l-11 -61h-285zM33 152l10 62h285l-11 -62h-284z" />
    <glyph glyph-name="greatersmall" horiz-adv-x="354" 
d="M25 94l12 67l184 84l-154 86l10 61l242 -144v-11z" />
    <glyph glyph-name="bracketleftsmall" horiz-adv-x="299" 
d="M27 -55l139 787h191l-10 -59h-122l-118 -670h122l-10 -58h-192z" />
    <glyph glyph-name="bracketrightsmall" horiz-adv-x="300" 
d="M-11 -55l11 58h122l118 670h-122l10 59h192l-139 -787h-192z" />
    <glyph glyph-name="Q.alt1small" horiz-adv-x="599" 
d="M327 -1q53 -45 94 -45q39 0 68 33l47 -40q-43 -54 -116 -54q-16 0 -32.5 4t-27 8t-27.5 15.5t-22.5 15.5t-24 19t-20.5 17q-47 38 -69 44q-13 4 -25 4q-48 0 -85 -54l-48 40q27 43 79 61q-67 67 -67 171q0 119 79 196t192 77q103 0 173 -69t70 -176q0 -110 -67 -183
t-171 -84zM297 54q85 0 140.5 60.5t55.5 153.5q0 80 -48.5 130.5t-124.5 50.5q-86 0 -142 -60t-56 -152q0 -81 49.5 -132t125.5 -51z" />
    <glyph glyph-name="braceleftsmall" horiz-adv-x="362" 
d="M229 -55q-60 0 -93.5 35t-18.5 116l15 81q6 40 -4 54t-39 14h-59l10 59h56q30 0 47 16t24 58l39 220q14 78 50 106t91 28h71l-10 -59h-56q-33 0 -50.5 -16.5t-25.5 -63.5l-41 -230q-8 -44 -28 -63.5t-54 -25.5q63 -16 48 -98l-15 -86q-9 -49 4.5 -68t48.5 -19h51l-10 -58
h-51z" />
    <glyph glyph-name="bracerightsmall" horiz-adv-x="362" 
d="M-10 -55l11 58h55q34 0 51.5 17t25.5 64l18 102q8 44 28 63.5t54 25.5q-63 15 -48 98l38 214q9 49 -4.5 67.5t-48.5 18.5h-51l10 59h51q60 0 93.5 -35t18.5 -116l-38 -210q-7 -39 3.5 -53t39.5 -14h59l-10 -59h-56q-30 0 -47 -16.5t-25 -57.5l-16 -92q-14 -78 -50.5 -106
t-90.5 -28h-71z" />
    <glyph glyph-name="degreesmall" horiz-adv-x="323" 
d="M187 286q-47 0 -79.5 31.5t-32.5 77.5q0 50 35 83.5t85 33.5q47 0 79 -31.5t32 -77.5q0 -50 -35 -83.5t-84 -33.5zM187 330q30 0 48.5 21t18.5 53q0 29 -16 46t-44 17q-30 0 -49 -20.5t-19 -52.5q0 -29 16.5 -46.5t44.5 -17.5z" />
    <glyph glyph-name="centsmall" horiz-adv-x="376" 
d="M152 1q-53 16 -85.5 60.5t-32.5 103.5q0 77 51 129t129 55l17 97h50l-18 -102q58 -13 92 -58l-49 -37q-21 29 -53 39l-42 -239q45 2 81 33l39 -42q-51 -47 -126 -47h-4l-18 -102h-50zM204 292q-46 -5 -74.5 -40t-28.5 -87q0 -37 16.5 -65.5t44.5 -41.5z" />
    <glyph glyph-name="sterlingsmall" horiz-adv-x="468" 
d="M147 213h-78l10 55h57q-8 50 -8 79q0 74 43.5 119.5t119.5 45.5q105 0 151 -91l-56 -32q-34 63 -95 63q-44 0 -68.5 -27t-24.5 -79q0 -24 6 -78h138l-10 -55h-120q6 -50 6 -78q0 -21 -5 -46q48 -37 89 -37q48 0 84 42l44 -41q-47 -61 -126 -61q-56 0 -113 49
q-36 -49 -99 -49q-38 0 -63.5 22t-25.5 55q0 36 26 57.5t64 21.5q30 0 64 -18v1q0 37 -10 82zM149 79q-32 25 -55 25q-18 0 -29 -9.5t-11 -24.5t10.5 -24.5t27.5 -9.5q41 0 57 43z" />
    <glyph glyph-name="sectionsmall" horiz-adv-x="431" 
d="M127 317q-14 26 -14 62q0 58 40.5 95.5t101.5 37.5q91 0 134 -75l-54 -34q-29 50 -78 50q-35 0 -55 -20t-20 -53q0 -48 47 -74l79 -42q80 -43 80 -115t-86 -99q17 -27 17 -64q0 -55 -40 -89t-107 -34q-52 0 -95 23.5t-63 60.5l55 37q40 -63 103 -63q37 0 57 18.5t20 48.5
q0 23 -12 37.5t-41 30.5l-80 45q-77 44 -77 110q0 41 25 67.5t63 38.5zM272 85q50 14 50 55q0 22 -11 37.5t-40 30.5l-80 44q-25 13 -40 31q-45 -18 -45 -62q0 -40 48 -66l77 -42q27 -15 41 -28z" />
    <glyph glyph-name="yensmall" horiz-adv-x="486" 
d="M293 195l-23 -35l-4 -20h149l-9 -55h-150l-15 -85h-69l15 85h-148l9 55h149l3 18l-12 37h-130l10 55h102l-81 254h74l65 -210q5 -17 9 -40.5t5 -38.5l2 -15q22 56 46 93l137 211h74l-171 -254h105l-10 -55h-132z" />
    <glyph glyph-name="florinsmall" horiz-adv-x="335" 
d="M110 220h-73l9 55h74l19 108q22 129 121 129q65 0 99 -54l-46 -37q-20 31 -51 31q-24 0 -36.5 -15t-19.5 -56l-19 -106h87l-9 -55h-88l-56 -314h-67z" />
    <glyph glyph-name="Eurosmall" horiz-adv-x="549" 
d="M101 274h-60l10 55h61q25 84 87.5 133.5t144.5 49.5q123 0 179 -105l-58 -33q-41 77 -123 77q-56 0 -97.5 -32.5t-61.5 -89.5h205l-10 -55h-208q-2 -26 -2 -41v-19h199l-10 -55h-179q15 -51 51.5 -79t88.5 -28q83 0 135 73l52 -37q-69 -96 -189 -96q-77 0 -133 45.5
t-75 121.5h-87l10 55h68v18q0 14 2 42z" />
    <glyph glyph-name="perthousandsmall" horiz-adv-x="1120" 
d="M194 218q-60 0 -101 39.5t-41 100.5q0 66 46 110t108 44q60 0 101 -39t41 -99q0 -68 -45.5 -112t-108.5 -44zM163 0l401 504h70l-401 -504h-70zM931 -8q-60 0 -101 39.5t-41 100.5q0 66 46 109.5t109 43.5q59 0 100 -39t41 -99q0 -68 -45.5 -111.5t-108.5 -43.5zM589 -8
q-60 0 -101 39.5t-41 100.5q0 66 46 109.5t108 43.5q60 0 101 -39t41 -99q0 -68 -45.5 -111.5t-108.5 -43.5zM194 271q40 0 66.5 28t26.5 74q0 40 -22 62.5t-59 22.5q-40 0 -66.5 -27.5t-26.5 -71.5q0 -41 22.5 -64.5t58.5 -23.5zM932 44q40 0 66.5 28.5t26.5 73.5
q0 40 -22.5 63t-58.5 23q-40 0 -67 -28t-27 -72q0 -41 22.5 -64.5t59.5 -23.5zM589 44q40 0 66.5 28.5t26.5 73.5q0 40 -22.5 63t-58.5 23q-40 0 -66.5 -28t-26.5 -72q0 -41 22.5 -64.5t58.5 -23.5z" />
    <glyph glyph-name="dotlessi.001" horiz-adv-x="224" 
d="M41 0l89 504h69l-89 -504h-69z" />
    <glyph glyph-name="G.altsmall" horiz-adv-x="594" 
d="M298 -8q-108 0 -177.5 69.5t-69.5 176.5q0 117 78.5 195.5t192.5 78.5q137 0 202 -101l-57 -38q-50 77 -148 77q-85 0 -141 -60.5t-56 -152.5q0 -83 49.5 -134t128.5 -51q73 0 121 39t61 98h-164l9 57h231q-7 -114 -75.5 -184t-184.5 -70z" />
    <glyph glyph-name="M.altsmall" horiz-adv-x="628" 
d="M24 0l139 510h8l117 -266l22 -64q17 35 39 62l210 268h9l-36 -510h-67l19 261l12 96q-22 -51 -47 -81l-149 -193h-9l-82 188q-6 13 -13 35t-11 37l-4 15q-9 -57 -19 -94l-72 -264h-66z" />
    <glyph glyph-name="Q.altsmall" horiz-adv-x="605" 
d="M307 -8l-19 -108h-64l20 113q-85 18 -139 83t-54 158q0 119 80 196.5t194 77.5q104 0 175 -69t71 -176q0 -116 -77 -193.5t-187 -81.5zM254 56l18 102h64l-19 -106q80 7 132 68t52 149q0 80 -50 131t-128 51q-86 0 -143.5 -61t-57.5 -153q0 -69 36 -118t96 -63z" />
    <glyph glyph-name="minustab" horiz-adv-x="520" 
d="M90 223l10 59h347l-10 -59h-347z" />
    <glyph glyph-name="multiplytab" horiz-adv-x="520" 
d="M310 248l99 -123l-46 -39l-99 122l-140 -122l-38 44l141 124l-99 123l46 39l99 -122l140 122l38 -44z" />
    <glyph glyph-name="spacetab" horiz-adv-x="200" 
 />
    <glyph glyph-name="numbersigntab" horiz-adv-x="520" 
d="M197 449h-88l10 55h92l27 109h57l-27 -109h105l27 109h57l-27 -109h77l-10 -55h-81l-27 -110h89l-10 -55h-93l-26 -107h-59l27 107h-104l-27 -107h-57l27 107h-76l10 55h79zM358 449h-104l-28 -110h105z" />
    <glyph glyph-name="dollartab" horiz-adv-x="520" 
d="M194 -4q-57 11 -96.5 42t-56.5 70l57 29q31 -70 105 -87l33 190q-65 26 -95 59t-30 81q0 62 47 97t120 35h6l18 101h50l-19 -108q79 -19 113 -87l-51 -31q-23 49 -71 64l-30 -167l7 -2q69 -27 101.5 -61.5t32.5 -85.5q0 -69 -52 -106t-140 -37l-19 -108h-50zM274 458
q-97 -2 -97 -75q0 -27 16 -45t54 -34zM252 46q57 1 86.5 24t29.5 64q0 29 -19.5 48.5t-65.5 37.5z" />
    <glyph glyph-name="percenttab" horiz-adv-x="750" 
d="M188 218q-59 0 -98 39t-39 99q0 66 46.5 111t106.5 45q58 0 96.5 -39t38.5 -98q0 -68 -45 -112.5t-106 -44.5zM149 0l403 504h68l-403 -504h-68zM564 -8q-59 0 -98 38.5t-39 98.5q0 66 46.5 111t106.5 45q58 0 96.5 -38.5t38.5 -97.5q0 -68 -45 -112.5t-106 -44.5z
M188 270q40 0 66 30t26 76q0 39 -21 61t-57 22q-39 0 -66 -29t-27 -74q0 -40 21.5 -63t57.5 -23zM564 44q40 0 66.5 29.5t26.5 75.5q0 39 -21.5 61.5t-57.5 22.5q-39 0 -65.5 -29.5t-26.5 -74.5q0 -40 21 -62.5t57 -22.5z" />
    <glyph glyph-name="parenlefttab" horiz-adv-x="300" 
d="M157 -133q-104 143 -104 338q0 294 249 513l37 -38q-214 -206 -214 -473q0 -173 78 -311z" />
    <glyph glyph-name="parenrighttab" horiz-adv-x="300" 
d="M29 -133l-37 38q214 206 214 475q0 171 -78 309l45 29q105 -142 105 -336q0 -90 -21.5 -170.5t-60 -144t-78 -109.5t-89.5 -91z" />
    <glyph glyph-name="plustab" horiz-adv-x="520" 
d="M293 223l-27 -152h-61l27 152h-141l10 59h141l27 153h62l-27 -153h142l-11 -59h-142z" />
    <glyph glyph-name="commatab" horiz-adv-x="200" 
d="M-7 -112l55 112q-29 14 -29 48q0 22 16 37.5t37 15.5q23 0 37.5 -15t14.5 -38q0 -20 -18 -46l-75 -114h-38z" />
    <glyph glyph-name="periodtab" horiz-adv-x="200" 
d="M72 -7q-21 0 -37 15.5t-16 37.5q0 23 16 38.5t37 15.5t36.5 -15.5t15.5 -38.5q0 -22 -15.5 -37.5t-36.5 -15.5z" />
    <glyph glyph-name="zerotab" horiz-adv-x="520" 
d="M245 -8q-90 0 -142.5 62t-52.5 161q0 134 67.5 215.5t173.5 81.5q91 0 142.5 -62t51.5 -161q0 -134 -67 -215.5t-173 -81.5zM247 53q76 0 121.5 65t45.5 172q0 74 -33 117t-93 43q-75 0 -120.5 -65.5t-45.5 -171.5q0 -74 32.5 -117t92.5 -43z" />
    <glyph glyph-name="onetab" horiz-adv-x="520" 
d="M212 58l68 388h-123l10 58h193l-78 -446h128l-10 -58h-335l10 58h137z" />
    <glyph glyph-name="twotab" horiz-adv-x="520" 
d="M24 0v9l218 177q73 58 105.5 97t32.5 82q0 41 -25 63t-65 22q-89 0 -127 -96l-63 19q24 69 74 104t118 35q69 0 113.5 -39.5t44.5 -102.5q0 -57 -38 -105.5t-114 -109.5l-87 -71l-47 -29q33 4 52 4h206l-11 -59h-387z" />
    <glyph glyph-name="threetab" horiz-adv-x="520" 
d="M223 -103q-75 0 -129.5 34.5t-81.5 91.5l60 31q46 -96 150 -96q66 0 108.5 38.5t42.5 111.5q0 63 -36.5 99.5t-100.5 36.5q-45 0 -85 -19l-7 10l180 179q7 8 17.5 17t17.5 13l7 5q-35 -3 -57 -3h-192l10 58h360v-7l-172 -172l-40 -32q74 -5 122 -56t48 -133
q0 -92 -62 -149.5t-160 -57.5z" />
    <glyph glyph-name="fourtab" horiz-adv-x="520" 
d="M390 76h72l-11 -55h-71l-20 -115h-68l20 115h-309l6 34l448 459h10zM322 76l41 228l17 65q-25 -34 -45 -54l-191 -202q-9 -9 -20.5 -19t-18.5 -15l-7 -5q28 2 54 2h170z" />
    <glyph glyph-name="fivetab" horiz-adv-x="520" 
d="M216 -103q-71 0 -120.5 32t-72.5 81l60 29q41 -81 132 -81q69 0 111 42t42 111q0 61 -35.5 97.5t-101.5 36.5q-73 0 -138 -48l-6 4l52 303h317l-10 -58h-256l-27 -160q34 17 87 17q85 0 138.5 -54.5t53.5 -137.5q0 -94 -63.5 -154t-162.5 -60z" />
    <glyph glyph-name="sixtab" horiz-adv-x="520" 
d="M250 -8q-88 0 -143.5 55.5t-55.5 137.5q0 84 77 170l225 256h80l-182 -206q-7 -8 -22.5 -20.5t-27.5 -20.5l-12 -9q50 31 95 31q80 0 132 -52.5t52 -133.5q0 -91 -62.5 -149.5t-155.5 -58.5zM250 52q66 0 107 41.5t41 106.5q0 60 -34.5 95.5t-95.5 35.5q-68 0 -107.5 -42
t-39.5 -106q0 -58 35 -94.5t94 -36.5z" />
    <glyph glyph-name="seventab" horiz-adv-x="520" 
d="M56 -94l343 540h-309l10 58h403v-9l-372 -589h-75z" />
    <glyph glyph-name="eighttab" horiz-adv-x="520" 
d="M210 352q-64 38 -64 111q0 66 47.5 110.5t121.5 44.5q69 0 114.5 -41t45.5 -102q0 -53 -31 -88.5t-80 -49.5q105 -46 105 -153q0 -87 -60.5 -139.5t-157.5 -52.5q-92 0 -149 52t-57 130q0 74 45 120t120 58zM306 371q47 0 74 27.5t27 73.5q0 40 -24.5 64t-68.5 24
q-46 0 -73.5 -27.5t-27.5 -71.5q0 -41 24 -65.5t69 -24.5zM251 53q66 0 106 38t40 100q0 58 -35.5 91t-98.5 33q-67 0 -106 -38t-39 -100q0 -55 35.5 -89.5t97.5 -34.5z" />
    <glyph glyph-name="ninetab" horiz-adv-x="520" 
d="M97 -94l173 182q11 12 28.5 25.5t29.5 21.5l11 8q-44 -28 -92 -28q-80 0 -132.5 53t-52.5 134q0 91 62.5 150.5t154.5 59.5q89 0 144.5 -56t55.5 -139q0 -93 -89 -188l-210 -223h-83zM260 170q69 0 109 43t40 107q0 58 -35 95t-95 37q-66 0 -106.5 -42t-40.5 -108
q0 -60 34 -96t94 -36z" />
    <glyph glyph-name="colontab" horiz-adv-x="200" 
d="M111 218q-21 0 -36.5 15t-15.5 38t15.5 38.5t36.5 15.5q22 0 37.5 -15.5t15.5 -38.5t-15.5 -38t-37.5 -15zM72 -7q-21 0 -36.5 15.5t-15.5 37.5q0 23 15.5 38.5t36.5 15.5q22 0 37.5 -15.5t15.5 -38.5q0 -22 -15.5 -37.5t-37.5 -15.5z" />
    <glyph glyph-name="semicolontab" horiz-adv-x="200" 
d="M111 218q-21 0 -36.5 15t-15.5 38t15.5 38.5t36.5 15.5q22 0 37.5 -15.5t15.5 -38.5t-15.5 -38t-37.5 -15zM-7 -112l55 112q-29 14 -29 48q0 22 16 37.5t37 15.5q23 0 37.5 -15t14.5 -38q0 -20 -18 -46l-75 -114h-38z" />
    <glyph glyph-name="lesstab" horiz-adv-x="520" 
d="M385 79l-292 159v10l351 170l-12 -68l-233 -109l196 -104z" />
    <glyph glyph-name="equaltab" horiz-adv-x="520" 
d="M107 282l10 61h334l-11 -61h-333zM84 152l11 61h333l-11 -61h-333z" />
    <glyph glyph-name="greatertab" horiz-adv-x="520" 
d="M93 79l12 68l233 108l-196 105l10 58l293 -159v-10z" />
    <glyph glyph-name="bracketlefttab" horiz-adv-x="300" 
d="M14 -128l150 850h191l-10 -59h-122l-129 -732h122l-11 -59h-191z" />
    <glyph glyph-name="bracketrighttab" horiz-adv-x="300" 
d="M-24 -128l10 59h122l130 732h-122l10 59h191l-150 -850h-191z" />
    <glyph glyph-name="bracelefttab" horiz-adv-x="300" 
d="M164 -128q-60 0 -93.5 35t-18.5 116l26 147q6 40 -4 54t-39 14h-26l10 59h23q31 0 47.5 16t23.5 58l40 217q14 78 50 106t91 28h61l-10 -59h-46q-33 0 -51 -16.5t-26 -63.5l-41 -227q-8 -44 -28 -63.5t-54 -25.5q62 -16 49 -99l-27 -151q-9 -49 4.5 -67.5t48.5 -18.5h42
l-11 -59h-41z" />
    <glyph glyph-name="bracerighttab" horiz-adv-x="300" 
d="M-24 -128l10 59h47q34 0 51.5 16.5t25.5 63.5l30 167q8 45 28 64.5t54 25.5q-63 15 -48 98l37 211q9 49 -4.5 67.5t-48.5 18.5h-42l10 59h42q61 0 94 -34.5t18 -116.5l-37 -207q-7 -39 4 -53.5t39 -14.5h27l-10 -58h-24q-30 0 -47 -16.5t-24 -58.5l-28 -157
q-14 -78 -51 -106t-91 -28h-62z" />
    <glyph glyph-name="degreetab" horiz-adv-x="350" 
d="M206 286q-47 0 -79.5 31.5t-32.5 77.5q0 50 35 83.5t84 33.5q47 0 79.5 -31.5t32.5 -77.5q0 -50 -35 -83.5t-84 -33.5zM206 330q30 0 48.5 21t18.5 53q0 29 -16.5 46t-44.5 17q-30 0 -48.5 -20.5t-18.5 -52.5q0 -29 16.5 -46.5t44.5 -17.5z" />
    <glyph glyph-name="centtab" horiz-adv-x="520" 
d="M220 1q-64 19 -103 72.5t-39 124.5q0 93 61.5 157.5t154.5 67.5l19 106h50l-19 -109q72 -12 117 -71l-50 -40q-31 41 -77 52l-55 -311h3q61 0 110 41l40 -44q-59 -55 -150 -55h-13l-19 -108h-50zM284 363q-62 -6 -99.5 -51.5t-37.5 -114.5q0 -47 22.5 -84.5t60.5 -52.5z
" />
    <glyph glyph-name="sterlingtab" horiz-adv-x="520" 
d="M178 260h-97l10 55h79q-11 72 -11 113q0 89 51 139.5t136 50.5q116 0 169 -104l-55 -34q-39 77 -115 77q-54 0 -85 -33.5t-31 -100.5q0 -34 8 -108h154l-10 -55h-138q5 -52 5 -99q0 -35 -9 -63q56 -47 101 -47q31 0 51 10.5t41 33.5l41 -42q-52 -61 -133 -61
q-60 0 -126 58q-44 -58 -114 -58q-45 0 -71.5 25t-26.5 63q0 42 28 66t72 24q42 0 86 -30v11q0 35 -10 109zM174 86q-43 38 -72 38q-21 0 -33.5 -12t-12.5 -32q0 -19 12 -30.5t33 -11.5q48 0 73 48z" />
    <glyph glyph-name="sectiontab" horiz-adv-x="520" 
d="M162 413q-12 27 -12 61q0 63 44 103.5t112 40.5q114 0 152 -95l-56 -27q-26 65 -95 65q-43 0 -66 -24t-23 -62q0 -57 58 -83l89 -42q108 -48 108 -136q0 -84 -96 -117q15 -27 15 -64q0 -61 -44 -98.5t-120 -37.5q-68 0 -115 31t-64 77l57 26q33 -77 120 -77q44 0 70 21.5
t26 57.5q0 29 -16.5 47t-53.5 35l-80 37q-58 27 -83.5 59t-25.5 82q0 44 27.5 75.5t71.5 44.5zM348 133q59 18 59 75q0 26 -15.5 46t-54.5 37l-86 41q-42 19 -66 45q-56 -20 -56 -77q0 -31 16 -50t53 -37l80 -36q46 -21 70 -44z" />
    <glyph glyph-name="yentab" horiz-adv-x="520" 
d="M171 292l-79 212h72l80 -228q4 -14 8 -33.5t6 -32.5l1 -12q15 45 37 77l162 229h74l-153 -212h99l-9 -55h-130l-50 -70h168l-9 -55h-170l-20 -112h-69l20 112h-169l9 55h168l-26 70h-130l9 55h101z" />
    <glyph glyph-name="florintab" horiz-adv-x="520" 
d="M201 207h-99l9 53h99l36 203q27 155 149 155q84 0 124 -73l-49 -34q-13 24 -28.5 35.5t-43.5 11.5q-67 0 -83 -94l-36 -204h139l-9 -53h-139l-74 -419h-69z" />
    <glyph glyph-name="dividetab" horiz-adv-x="520" 
d="M296 359q-20 0 -35 14.5t-15 35.5q0 22 15 36.5t35 14.5q21 0 35.5 -14.5t14.5 -36.5q0 -21 -14.5 -35.5t-35.5 -14.5zM91 223l10 59h345l-11 -59h-344zM241 45q-21 0 -35.5 14.5t-14.5 36.5q0 21 14.5 35.5t35.5 14.5t35.5 -14.5t14.5 -35.5q0 -22 -14.5 -36.5
t-35.5 -14.5z" />
    <glyph glyph-name="Eurotab" horiz-adv-x="520" 
d="M84 283h-59l9 53h62q26 81 89 128.5t139 47.5q116 0 181 -99l-51 -36q-24 39 -53.5 56.5t-75.5 17.5q-53 0 -95 -30.5t-62 -84.5h197l-9 -53h-201q-3 -19 -3 -41q0 -17 1 -25h191l-9 -53h-174q30 -112 138 -112q83 0 136 71l49 -37q-67 -94 -186 -94q-77 0 -133 46.5
t-75 125.5h-86l9 53h69q-1 8 -1 24q0 23 3 42z" />
    <glyph glyph-name="perthousandtab" horiz-adv-x="1100" 
d="M196 218q-59 0 -97.5 39t-38.5 99q0 66 46 111t106 45q59 0 97.5 -39t38.5 -98q0 -68 -45.5 -112.5t-106.5 -44.5zM158 0l403 504h68l-403 -504h-68zM905 -8q-59 0 -97.5 38.5t-38.5 98.5q0 66 46 111t106 45q58 0 97 -38.5t39 -97.5q0 -68 -45.5 -112.5t-106.5 -44.5z
M574 -8q-59 0 -98 38.5t-39 98.5q0 66 46.5 111t106.5 45q58 0 96.5 -38.5t38.5 -97.5q0 -68 -45 -112.5t-106 -44.5zM197 270q39 0 65.5 30t26.5 76q0 39 -21 61t-57 22q-39 0 -66 -29t-27 -74q0 -40 21.5 -63t57.5 -23zM906 44q39 0 65.5 29.5t26.5 75.5q0 39 -21.5 61.5
t-56.5 22.5q-40 0 -66.5 -29.5t-26.5 -74.5q0 -40 21.5 -62.5t57.5 -22.5zM574 44q40 0 66 29.5t26 75.5q0 39 -21.5 61.5t-56.5 22.5q-39 0 -66 -29.5t-27 -74.5q0 -40 21.5 -62.5t57.5 -22.5z" />
    <glyph glyph-name="minustablining" horiz-adv-x="580" 
d="M118 293l11 60h373l-11 -60h-373z" />
    <glyph glyph-name="multiplytablining" horiz-adv-x="539" 
d="M330 316l100 -123l-45 -39l-99 123l-141 -123l-38 43l142 124l-100 124l46 38l99 -123l140 123l39 -43z" />
    <glyph glyph-name="spacetablining" horiz-adv-x="200" 
 />
    <glyph glyph-name="numbersigntablining" horiz-adv-x="580" 
d="M237 516h-98l10 55h102l27 109h58l-27 -109h108l27 109h57l-27 -109h90l-10 -55h-93l-30 -116h99l-10 -55h-102l-27 -109h-59l27 109h-107l-27 -109h-58l27 109h-88l9 55h93zM403 516h-108l-29 -116h107z" />
    <glyph glyph-name="dollartablining" horiz-adv-x="580" 
d="M220 -5q-122 17 -189 130l58 38q56 -94 142 -107l49 279l-5 3q-128 74 -128 183q0 76 54 121.5t132 45.5h9l15 85h50l-16 -91q80 -19 126 -92l-55 -38q-33 52 -82 67l-41 -236l15 -9q70 -41 104 -86t34 -107q0 -86 -59.5 -136.5t-162.5 -52.5l-19 -108h-50zM331 626
q-49 0 -81.5 -27t-32.5 -74q0 -36 18 -62t58 -52zM281 54q67 4 103.5 38t36.5 89q0 40 -22.5 68t-73.5 59z" />
    <glyph glyph-name="percenttablining" horiz-adv-x="800" 
d="M241 353q-63 0 -105.5 44.5t-42.5 111.5q0 75 49 127t117 52q63 0 106 -44.5t43 -111.5q0 -76 -49.5 -127.5t-117.5 -51.5zM124 0l528 680h72l-529 -680h-71zM587 -8q-63 0 -105.5 44t-42.5 112q0 75 49 126.5t117 51.5q64 0 107 -44.5t43 -111.5q0 -76 -49.5 -127
t-118.5 -51zM243 408q44 0 74 35t30 90q0 44 -24.5 72t-65.5 28q-44 0 -73.5 -35t-29.5 -90q0 -44 24 -72t65 -28zM590 47q44 0 73.5 34.5t29.5 89.5q0 44 -24 72t-65 28q-44 0 -73.5 -34.5t-29.5 -89.5q0 -44 24 -72t65 -28z" />
    <glyph glyph-name="parenlefttablining" horiz-adv-x="300" 
d="M157 -133q-104 143 -104 338q0 294 249 513l37 -38q-214 -206 -214 -473q0 -173 78 -311z" />
    <glyph glyph-name="parenrighttablining" horiz-adv-x="300" 
d="M29 -133l-37 38q214 206 214 475q0 171 -78 309l45 29q105 -142 105 -336q0 -90 -21.5 -170.5t-60 -144t-78 -109.5t-89.5 -91z" />
    <glyph glyph-name="plustablining" horiz-adv-x="580" 
d="M336 293l-29 -165h-62l29 165h-156l11 60h156l29 165h62l-29 -165h155l-11 -60h-155z" />
    <glyph glyph-name="commatablining" horiz-adv-x="200" 
d="M-7 -112l55 112q-29 14 -29 48q0 22 16 37.5t37 15.5q23 0 37.5 -15t14.5 -38q0 -20 -18 -46l-75 -114h-38z" />
    <glyph glyph-name="periodtablining" horiz-adv-x="200" 
d="M72 -7q-21 0 -37 15.5t-16 37.5q0 23 16 38.5t37 15.5t36.5 -15.5t15.5 -38.5q0 -22 -15.5 -37.5t-36.5 -15.5z" />
    <glyph glyph-name="zerotablining" horiz-adv-x="580" 
d="M272 -8q-96 0 -149.5 70t-53.5 195q1 186 80 308.5t207 122.5q96 0 149.5 -70t53.5 -195q0 -185 -79.5 -308t-207.5 -123zM274 55q64 0 113 53.5t73.5 137.5t24.5 183q0 195 -132 195q-95 0 -153 -110.5t-57 -262.5q0 -196 131 -196z" />
    <glyph glyph-name="onetablining" horiz-adv-x="580" 
d="M240 0l109 617h-161l11 63h231l-120 -680h-70z" />
    <glyph glyph-name="twotablining" horiz-adv-x="580" 
d="M12 0v7l319 292q67 62 100.5 110.5t33.5 100.5t-31.5 83t-88.5 31q-55 0 -96 -33.5t-61 -96.5l-67 15q22 84 83 131.5t143 47.5q87 0 138 -50t51 -130q0 -65 -40 -122.5t-114 -125.5l-172 -156q-11 -10 -26.5 -21.5l-25.5 -18.5l-11 -7q41 5 69 5h246l-12 -62h-438z" />
    <glyph glyph-name="threetablining" horiz-adv-x="580" 
d="M270 -8q-83 0 -143 39.5t-85 97.5l61 31q53 -104 165 -104q82 0 129.5 46.5t47.5 125.5q0 72 -42.5 119t-119.5 47q-34 0 -66 -10l-5 7l181 191l48 41q-35 -5 -59 -5h-224l11 62h390v-7l-182 -194q-9 -9 -20 -18t-18 -13l-7 -5q86 -9 135.5 -66.5t49.5 -149.5
q0 -106 -69.5 -170.5t-177.5 -64.5z" />
    <glyph glyph-name="fourtablining" horiz-adv-x="580" 
d="M456 185h71l-11 -59h-71l-22 -126h-70l22 126h-345l6 37l504 533h6zM385 185l49 277l19 76q-24 -41 -49 -68l-215 -234q-11 -12 -27.5 -26t-27.5 -22l-12 -9q46 6 76 6h187z" />
    <glyph glyph-name="fivetablining" horiz-adv-x="580" 
d="M275 -8q-76 0 -135.5 37.5t-88.5 96.5l62 33q23 -46 64.5 -74.5t97.5 -28.5q79 0 124 50t45 129q0 72 -41.5 119.5t-117.5 47.5t-146 -50l-7 4l57 324h339l-10 -62h-278l-32 -175q37 19 93 19q96 0 155.5 -65t59.5 -162q0 -108 -66.5 -175.5t-174.5 -67.5z" />
    <glyph glyph-name="sixtablining" horiz-adv-x="580" 
d="M286 -8q-96 0 -158.5 62.5t-62.5 156.5q0 92 71 174l251 295h82l-179 -211q-10 -12 -25.5 -26t-26.5 -22l-11 -8q45 31 94 31q87 0 144 -60t57 -151q0 -104 -66 -172.5t-170 -68.5zM288 54q73 0 118 51t45 128q0 70 -40 112t-108 42q-75 0 -121 -51t-46 -125
q0 -69 41 -113t111 -44z" />
    <glyph glyph-name="seventablining" horiz-adv-x="580" 
d="M88 0l398 617h-350l11 63h453v-7l-433 -673h-79z" />
    <glyph glyph-name="eighttablining" horiz-adv-x="580" 
d="M235 392q-73 42 -73 127q0 74 54.5 121.5t134.5 47.5q76 0 124 -45t48 -112q0 -58 -33.5 -96.5t-85.5 -55.5q55 -22 87.5 -67t32.5 -106q0 -96 -67 -155t-170 -59q-101 0 -166 56.5t-65 145.5q0 79 49.5 130.5t129.5 67.5zM334 412q53 0 86 33t33 84q0 43 -27.5 71
t-75.5 28q-54 0 -86 -31.5t-32 -81.5q0 -45 27.5 -74t74.5 -29zM288 54q73 0 118 44t45 111q0 65 -41.5 105.5t-110.5 40.5q-74 0 -122.5 -44t-48.5 -112q0 -66 44.5 -105.5t115.5 -39.5z" />
    <glyph glyph-name="ninetablining" horiz-adv-x="580" 
d="M169 0l168 202q10 12 26.5 27t27.5 24l11 9q-43 -31 -96 -31q-88 0 -146 62t-58 153q0 103 68.5 172.5t172.5 69.5q98 0 160 -62.5t62 -156.5t-77 -187l-236 -282h-83zM326 288q72 0 120.5 53.5t48.5 125.5q0 69 -41.5 113.5t-112.5 44.5q-76 0 -122 -51.5t-46 -125.5
q0 -70 41 -115t112 -45z" />
    <glyph glyph-name="colontablining" horiz-adv-x="200" 
d="M111 218q-21 0 -36.5 15t-15.5 38t15.5 38.5t36.5 15.5q22 0 37.5 -15.5t15.5 -38.5t-15.5 -38t-37.5 -15zM72 -7q-21 0 -36.5 15.5t-15.5 37.5q0 23 15.5 38.5t36.5 15.5q22 0 37.5 -15.5t15.5 -38.5q0 -22 -15.5 -37.5t-37.5 -15.5z" />
    <glyph glyph-name="semicolontablining" horiz-adv-x="200" 
d="M111 218q-21 0 -36.5 15t-15.5 38t15.5 38.5t36.5 15.5q22 0 37.5 -15.5t15.5 -38.5t-15.5 -38t-37.5 -15zM-7 -112l55 112q-29 14 -29 48q0 22 16 37.5t37 15.5q23 0 37.5 -15t14.5 -38q0 -20 -18 -46l-75 -114h-38z" />
    <glyph glyph-name="lesstablining" horiz-adv-x="580" 
d="M428 132l-328 183v10l396 191l-12 -69l-280 -128l234 -130z" />
    <glyph glyph-name="equaltablining" horiz-adv-x="580" 
d="M128 354l11 59h376l-12 -59h-375zM104 207l10 59h376l-11 -59h-375z" />
    <glyph glyph-name="greatertablining" horiz-adv-x="580" 
d="M84 132l12 69l280 128l-234 130l10 57l328 -183v-10z" />
    <glyph glyph-name="bracketlefttablining" horiz-adv-x="300" 
d="M14 -128l150 850h191l-10 -59h-122l-129 -732h122l-11 -59h-191z" />
    <glyph glyph-name="bracketrighttablining" horiz-adv-x="300" 
d="M-24 -128l10 59h122l130 732h-122l10 59h191l-150 -850h-191z" />
    <glyph glyph-name="bracelefttablining" horiz-adv-x="300" 
d="M164 -128q-60 0 -93.5 35t-18.5 116l26 147q6 40 -4 54t-39 14h-26l10 59h23q31 0 47.5 16t23.5 58l40 217q14 78 50 106t91 28h61l-10 -59h-46q-33 0 -51 -16.5t-26 -63.5l-41 -227q-8 -44 -28 -63.5t-54 -25.5q62 -16 49 -99l-27 -151q-9 -49 4.5 -67.5t48.5 -18.5h42
l-11 -59h-41z" />
    <glyph glyph-name="bracerighttablining" horiz-adv-x="300" 
d="M-24 -128l10 59h47q34 0 51.5 16.5t25.5 63.5l30 167q8 45 28 64.5t54 25.5q-63 15 -48 98l37 211q9 49 -4.5 67.5t-48.5 18.5h-42l10 59h42q61 0 94 -34.5t18 -116.5l-37 -207q-7 -39 4 -53.5t39 -14.5h27l-10 -58h-24q-30 0 -47 -16.5t-24 -58.5l-28 -157
q-14 -78 -51 -106t-91 -28h-62z" />
    <glyph glyph-name="degreetablining" horiz-adv-x="376" 
d="M247 423q-53 0 -91.5 38t-38.5 92q0 57 39.5 96t95.5 39q54 0 92 -37.5t38 -91.5q0 -58 -39.5 -97t-95.5 -39zM248 472q36 0 58 24.5t22 62.5q0 35 -21.5 57.5t-55.5 22.5q-35 0 -57.5 -24.5t-22.5 -62.5q0 -35 21.5 -57.5t55.5 -22.5z" />
    <glyph glyph-name="centtablining" horiz-adv-x="580" 
d="M250 1q-64 19 -103 72.5t-39 124.5q0 93 61.5 157.5t154.5 67.5l19 106h50l-19 -109q72 -12 117 -71l-50 -40q-31 41 -77 52l-55 -311h3q61 0 110 41l40 -44q-59 -55 -150 -55h-13l-19 -108h-50zM314 363q-62 -6 -99.5 -51.5t-37.5 -114.5q0 -47 22.5 -84.5t60.5 -52.5z
" />
    <glyph glyph-name="sterlingtablining" horiz-adv-x="580" 
d="M196 277h-101l10 55h80q-17 85 -17 140q0 98 56 157t156 59q141 0 192 -122l-58 -31q-21 47 -52 69.5t-82 22.5q-67 0 -103 -40t-36 -115q0 -46 14 -140h180l-10 -55h-162q9 -63 9 -107q0 -35 -7 -60q67 -57 125 -57q34 0 55.5 13t43.5 41l47 -40q-32 -40 -64.5 -57.5
t-80.5 -17.5q-70 0 -148 66q-42 -66 -122 -66q-42 0 -73 25.5t-31 65.5q0 46 30 71.5t76 25.5q43 0 86 -26v13q0 41 -13 110zM198 97q-41 34 -74 34q-24 0 -39 -12.5t-15 -33.5q0 -19 14 -31.5t36 -12.5q56 0 78 56z" />
    <glyph glyph-name="sectiontablining" horiz-adv-x="580" 
d="M181 435q-19 35 -19 77q0 77 53 126.5t135 49.5q59 0 103 -28.5t69 -74.5l-58 -34q-40 75 -115 75q-53 0 -83.5 -30.5t-30.5 -80.5q0 -37 20.5 -63.5t59.5 -50.5l99 -58q58 -34 83 -71.5t25 -85.5q0 -92 -110 -127q18 -33 18 -76q0 -74 -53 -118.5t-141 -44.5
q-67 0 -120 31t-84 83l58 36q51 -87 144 -87q58 0 90 28t32 73q0 36 -18.5 57.5t-64.5 46.5l-100 56q-57 32 -81.5 68.5t-24.5 84.5q0 101 114 138zM380 99q73 20 73 83q0 31 -18 54.5t-60 48.5l-97 58q-41 24 -70 54q-72 -29 -72 -91q0 -33 16 -56.5t58 -45.5l102 -56
q43 -24 68 -49z" />
    <glyph glyph-name="yentablining" horiz-adv-x="580" 
d="M363 273l-36 -57l-7 -33h197l-9 -55h-197l-23 -128h-69l22 128h-195l9 55h196l7 37l-15 53h-173l10 55h147l-101 352h74l89 -326q4 -14 7.5 -37t4.5 -39l1 -15q18 55 38 86l207 331h74l-223 -352h144l-10 -55h-169z" />
    <glyph glyph-name="florintablining" horiz-adv-x="539" 
d="M214 258h-101l10 55h101l39 220q26 155 149 155q86 0 124 -73l-49 -34q-13 24 -28.5 35.5t-43.5 11.5q-68 0 -84 -94l-39 -221h138l-10 -55h-138l-82 -470h-69z" />
    <glyph glyph-name="dividetablining" horiz-adv-x="539" 
d="M319 429q-21 0 -36 15t-15 37t15 36.5t36 14.5t36 -14.5t15 -36.5t-15 -37t-36 -15zM98 293l11 60h373l-11 -60h-373zM263 114q-21 0 -36 15t-15 36q0 22 15 36.5t36 14.5t35.5 -14.5t14.5 -36.5q0 -21 -14.5 -36t-35.5 -15z" />
    <glyph glyph-name="Eurotablining" horiz-adv-x="580" 
d="M101 366h-58l9 55h60q33 121 106.5 194t170.5 73q139 0 187 -141l-62 -23q-22 52 -50 77t-80 25q-68 0 -119.5 -57t-78.5 -148h225l-9 -55h-228q-9 -49 -10 -86h221l-9 -55h-211q7 -81 44 -126t101 -45q54 0 91.5 27t72.5 85l58 -30q-80 -144 -224 -144q-93 0 -150 61.5
t-65 171.5h-75l9 55h65q1 44 9 86z" />
    <glyph glyph-name="perthousandtablining" horiz-adv-x="1160" 
d="M238 353q-63 0 -105.5 44.5t-42.5 111.5q0 75 49 127t117 52q63 0 106 -44.5t43 -111.5q0 -76 -49 -127.5t-118 -51.5zM121 0l528 680h72l-528 -680h-72zM950 -8q-63 0 -105.5 44t-42.5 112q0 75 49 126.5t117 51.5q63 0 106 -44.5t43 -111.5q0 -76 -49 -127t-118 -51z
M585 -8q-64 0 -106 44t-42 112q0 75 49 126.5t117 51.5q63 0 106 -44.5t43 -111.5q0 -75 -49.5 -126.5t-117.5 -51.5zM240 408q45 0 74.5 35t29.5 90q0 44 -24.5 72t-65.5 28q-44 0 -73 -35t-29 -90q0 -44 23.5 -72t64.5 -28zM952 47q45 0 74.5 34.5t29.5 89.5
q0 44 -24.5 72t-65.5 28q-44 0 -73 -34.5t-29 -89.5q0 -44 23.5 -72t64.5 -28zM587 47q44 0 74 34.5t30 89.5q0 44 -24.5 72t-65.5 28q-44 0 -73.5 -34.5t-29.5 -89.5q0 -44 24 -72t65 -28z" />
    <glyph glyph-name="minustabsmall" horiz-adv-x="500" 
d="M80 223l10 59h347l-10 -59h-347z" />
    <glyph glyph-name="multiplytabsmall" horiz-adv-x="500" 
d="M300 248l99 -123l-46 -39l-99 122l-140 -122l-38 44l141 124l-99 123l46 39l99 -122l140 122l38 -44z" />
    <glyph glyph-name="spacetabsmall" horiz-adv-x="200" 
 />
    <glyph glyph-name="numbersigntabsmall" horiz-adv-x="500" 
d="M190 449h-79l10 55h83l27 109h57l-27 -109h98l28 109h57l-27 -109h68l-10 -55h-72l-27 -110h80l-10 -55h-84l-27 -107h-58l27 107h-98l-26 -107h-58l27 107h-67l9 55h71zM345 449h-98l-27 -110h98z" />
    <glyph glyph-name="dollartabsmall" horiz-adv-x="500" 
d="M184 -4q-56 10 -95 40.5t-56 69.5l57 28q32 -68 103 -84l33 190q-119 46 -119 140q0 62 46 97t118 35h3l18 101h50l-19 -107q75 -18 110 -85l-51 -32q-23 49 -68 63l-30 -168l6 -2q67 -26 98.5 -60.5t31.5 -86.5q0 -68 -51.5 -105t-135.5 -38l-19 -108h-50zM264 458
q-92 -3 -92 -75q0 -52 65 -79zM242 46q53 2 82 25t29 63q0 29 -18.5 49.5t-61.5 36.5z" />
    <glyph glyph-name="percenttabsmall" horiz-adv-x="750" 
d="M188 218q-59 0 -98 39t-39 99q0 66 46.5 111t106.5 45q58 0 96.5 -39t38.5 -98q0 -68 -45 -112.5t-106 -44.5zM149 0l403 504h68l-403 -504h-68zM564 -8q-59 0 -98 38.5t-39 98.5q0 66 46.5 111t106.5 45q58 0 96.5 -38.5t38.5 -97.5q0 -68 -45 -112.5t-106 -44.5z
M188 270q40 0 66 30t26 76q0 39 -21 61t-57 22q-39 0 -66 -29t-27 -74q0 -40 21.5 -63t57.5 -23zM564 44q40 0 66.5 29.5t26.5 75.5q0 39 -21.5 61.5t-57.5 22.5q-39 0 -65.5 -29.5t-26.5 -74.5q0 -40 21 -62.5t57 -22.5z" />
    <glyph glyph-name="parenlefttabsmall" horiz-adv-x="300" 
d="M175 -60q-113 154 -113 328q0 269 251 470l35 -38q-214 -186 -214 -433q0 -63 14.5 -123t30.5 -94t42 -81z" />
    <glyph glyph-name="parenrighttabsmall" horiz-adv-x="300" 
d="M35 -60l-34 39q214 188 214 433q0 63 -14.5 122.5t-30.5 94t-42 80.5l46 29q112 -151 112 -327q0 -84 -22.5 -159t-62.5 -133.5t-78.5 -98.5t-87.5 -80z" />
    <glyph glyph-name="plustabsmall" horiz-adv-x="500" 
d="M283 223l-27 -152h-61l27 152h-141l10 59h141l27 153h62l-27 -153h142l-11 -59h-142z" />
    <glyph glyph-name="commatabsmall" horiz-adv-x="200" 
d="M-7 -112l55 112q-29 14 -29 48q0 22 16 37.5t37 15.5q23 0 37.5 -15t14.5 -38q0 -20 -18 -46l-75 -114h-38z" />
    <glyph glyph-name="periodtabsmall" horiz-adv-x="200" 
d="M72 -7q-21 0 -37 15.5t-16 37.5q0 23 16 38.5t37 15.5t36.5 -15.5t15.5 -38.5q0 -22 -15.5 -37.5t-36.5 -15.5z" />
    <glyph glyph-name="zerotabsmall" horiz-adv-x="500" 
d="M232 -8q-85 0 -134.5 59t-49.5 152q0 136 67.5 222.5t171.5 86.5q85 0 133 -59t48 -153q0 -136 -66 -222t-170 -86zM235 53q72 0 117 70t45 177q0 71 -29 111t-84 40q-73 0 -119 -70t-46 -176q0 -72 30 -112t86 -40z" />
    <glyph glyph-name="onetabsmall" horiz-adv-x="500" 
d="M195 57l68 388h-122l11 59h191l-78 -447h124l-10 -57h-318l10 57h124z" />
    <glyph glyph-name="twotabsmall" horiz-adv-x="500" 
d="M26 0v9l243 214q52 46 73.5 78.5t21.5 69.5q0 34 -22.5 56t-60.5 22q-79 0 -113 -94l-66 19q21 68 68.5 103t112.5 35q67 0 109 -39.5t42 -99.5q0 -50 -28 -92.5t-84 -91.5l-104 -91q-10 -8 -26 -19l-27 -18l-11 -7q43 6 63 6h178l-10 -60h-359z" />
    <glyph glyph-name="threetabsmall" horiz-adv-x="500" 
d="M227 -8q-70 0 -117.5 32.5t-67.5 79.5l60 28q39 -79 124 -79q56 0 87.5 32t31.5 84q0 50 -31.5 81.5t-88.5 31.5q-35 0 -55 -9l-4 7l122 130q9 10 20.5 19.5l17.5 14.5l7 4q-38 -4 -61 -4h-147l10 60h308v-9l-122 -129q-9 -10 -20 -19t-17 -13l-6 -5q58 -5 97 -50
t39 -111q0 -79 -51.5 -127.5t-135.5 -48.5z" />
    <glyph glyph-name="fourtabsmall" horiz-adv-x="500" 
d="M379 142h59l-10 -55h-59l-15 -87h-68l15 87h-273l9 46l397 376h10zM311 142l29 162l22 77q-30 -41 -56 -65l-133 -131q-12 -11 -28 -23.5t-26 -19.5l-10 -6q43 6 74 6h128z" />
    <glyph glyph-name="fivetabsmall" horiz-adv-x="500" 
d="M226 -8q-63 0 -109.5 28.5t-68.5 72.5l60 33q38 -73 118 -73q54 0 87 32.5t33 85.5q0 51 -31 82t-84 31q-60 0 -116 -35l-5 4l44 251h270l-10 -60h-211l-21 -118q33 12 69 12q73 0 119 -46.5t46 -119.5q0 -81 -53 -130.5t-137 -49.5z" />
    <glyph glyph-name="sixtabsmall" horiz-adv-x="500" 
d="M240 -8q-77 0 -129 49.5t-52 122.5q0 75 58 142l170 198h79l-108 -129q-11 -12 -28.5 -27.5t-29.5 -24.5l-12 -9q41 25 82 25q66 0 114 -47t48 -117q0 -81 -54.5 -132t-137.5 -51zM240 52q54 0 88 34t34 88q0 49 -31 80.5t-80 31.5q-55 0 -89.5 -36t-34.5 -86
q0 -49 31.5 -80.5t81.5 -31.5z" />
    <glyph glyph-name="seventabsmall" horiz-adv-x="500" 
d="M86 0l286 443h-273l10 61h373v-9l-319 -495h-77z" />
    <glyph glyph-name="eighttabsmall" horiz-adv-x="500" 
d="M191 293q-60 34 -60 95q0 55 44 89.5t107 34.5q59 0 99 -35t40 -86q0 -82 -91 -109q43 -18 69.5 -51t26.5 -76q0 -72 -52.5 -117.5t-136.5 -45.5q-78 0 -130 45t-52 109q0 59 37.5 97t98.5 50zM272 310q37 0 61.5 20.5t24.5 53.5q0 31 -22.5 51.5t-55.5 20.5
q-37 0 -61.5 -21t-24.5 -53t22 -52t56 -20zM237 52q55 0 87 29.5t32 76.5q0 43 -32 71.5t-81 28.5q-52 0 -85.5 -29.5t-33.5 -76.5q0 -45 32 -72.5t81 -27.5z" />
    <glyph glyph-name="ninetabsmall" horiz-adv-x="500" 
d="M148 0l108 125q12 15 30 31.5t30 25.5l11 9q-44 -27 -84 -27q-66 0 -114 47.5t-48 116.5q0 80 55 132t136 52q80 0 130.5 -49t50.5 -123q0 -82 -64 -154l-162 -186h-79zM263 216q53 0 87.5 36t34.5 88q0 48 -30.5 80t-82.5 32q-56 0 -89 -36t-33 -87q0 -49 31 -81t82 -32
z" />
    <glyph glyph-name="colontabsmall" horiz-adv-x="200" 
d="M111 218q-21 0 -36.5 15t-15.5 38t15.5 38.5t36.5 15.5q22 0 37.5 -15.5t15.5 -38.5t-15.5 -38t-37.5 -15zM72 -7q-21 0 -36.5 15.5t-15.5 37.5q0 23 15.5 38.5t36.5 15.5q22 0 37.5 -15.5t15.5 -38.5q0 -22 -15.5 -37.5t-37.5 -15.5z" />
    <glyph glyph-name="semicolontabsmall" horiz-adv-x="200" 
d="M111 218q-21 0 -36.5 15t-15.5 38t15.5 38.5t36.5 15.5q22 0 37.5 -15.5t15.5 -38.5t-15.5 -38t-37.5 -15zM-7 -112l55 112q-29 14 -29 48q0 22 16 37.5t37 15.5q23 0 37.5 -15t14.5 -38q0 -20 -18 -46l-75 -114h-38z" />
    <glyph glyph-name="lesstabsmall" horiz-adv-x="500" 
d="M375 79l-292 159v10l351 170l-12 -68l-233 -109l196 -104z" />
    <glyph glyph-name="equaltabsmall" horiz-adv-x="500" 
d="M97 282l10 61h334l-11 -61h-333zM74 152l11 61h333l-11 -61h-333z" />
    <glyph glyph-name="greatertabsmall" horiz-adv-x="500" 
d="M83 79l12 68l233 108l-196 105l10 58l293 -159v-10z" />
    <glyph glyph-name="bracketlefttabsmall" horiz-adv-x="300" 
d="M28 -55l138 787h190l-10 -59h-121l-118 -670h121l-11 -58h-189z" />
    <glyph glyph-name="bracketrighttabsmall" horiz-adv-x="300" 
d="M-9 -55l11 58h120l118 670h-120l10 59h189l-139 -787h-189z" />
    <glyph glyph-name="bracelefttabsmall" horiz-adv-x="300" 
d="M188 -55q-60 0 -93.5 35t-18.5 116l15 81q6 40 -3.5 54t-37.5 14h-40l10 59h35q30 0 47 16t24 58l39 220q14 78 50 106t91 28h49l-10 -59h-34q-33 0 -50.5 -16.5t-25.5 -63.5l-41 -230q-8 -44 -28 -63.5t-54 -25.5q63 -16 48 -98l-15 -86q-9 -49 4.5 -68t48.5 -19h30
l-11 -58h-29z" />
    <glyph glyph-name="bracerighttabsmall" horiz-adv-x="300" 
d="M-9 -55l11 58h34q33 0 50.5 17t26.5 64l18 102q7 44 27 63.5t54 25.5q-63 15 -48 98l38 214q8 49 -6 67.5t-48 18.5h-28l10 59h29q61 0 94 -34.5t18 -116.5l-37 -210q-7 -39 3.5 -53t38.5 -14h39l-11 -59h-35q-30 0 -47 -16.5t-24 -57.5l-16 -92q-14 -78 -50.5 -106
t-90.5 -28h-50z" />
    <glyph glyph-name="degreetabsmall" horiz-adv-x="325" 
d="M194 286q-48 0 -80.5 31.5t-32.5 77.5q0 50 35.5 83.5t84.5 33.5q47 0 79 -31.5t32 -77.5q0 -50 -34.5 -83.5t-83.5 -33.5zM194 330q30 0 48.5 21t18.5 53q0 29 -16.5 46t-44.5 17q-30 0 -48.5 -20.5t-18.5 -52.5q0 -29 16.5 -46.5t44.5 -17.5z" />
    <glyph glyph-name="centtabsmall" horiz-adv-x="500" 
d="M213 1q-53 16 -85.5 60.5t-32.5 103.5q0 77 51 129t129 55l17 97h50l-18 -102q58 -13 92 -58l-49 -37q-21 29 -53 39l-42 -239q45 2 81 33l39 -42q-51 -47 -126 -47h-4l-18 -102h-50zM265 292q-46 -5 -74.5 -40t-28.5 -87q0 -37 16.5 -65.5t44.5 -41.5z" />
    <glyph glyph-name="sterlingtabsmall" horiz-adv-x="500" 
d="M166 213h-80l9 55h59q-8 50 -8 79q0 74 42 119.5t117 45.5q101 0 149 -91l-56 -32q-16 33 -37.5 48t-54.5 15q-43 0 -67 -27t-24 -79q0 -31 7 -78h136l-9 -55h-120q6 -50 6 -78q0 -22 -5 -45q45 -38 87 -38q46 0 81 42l44 -41q-47 -61 -123 -61q-56 0 -110 50
q-35 -50 -97 -50q-37 0 -61.5 22t-24.5 55q0 36 25 57.5t63 21.5q34 0 63 -18q0 34 -11 83zM170 79q-29 27 -55 27q-19 0 -30 -10t-11 -26t10.5 -26t27.5 -10q43 0 58 45z" />
    <glyph glyph-name="sectiontabsmall" horiz-adv-x="500" 
d="M159 320q-15 30 -15 62q0 56 41.5 93t100.5 37q96 0 141 -80l-54 -33q-29 54 -86 54q-32 0 -53 -19t-21 -51q0 -44 54 -76l79 -48q81 -49 81 -116q0 -36 -23.5 -61.5t-60.5 -35.5q15 -27 15 -60q0 -54 -41.5 -88.5t-108.5 -34.5q-55 0 -98.5 25t-64.5 63l55 36
q38 -66 107 -66q37 0 58.5 18.5t21.5 47.5q0 24 -12 39t-41 31l-87 49q-77 44 -77 111q0 41 26 67.5t63 35.5zM312 82q48 12 48 51q0 40 -52 71l-78 48q-26 14 -47 36q-46 -14 -46 -61q0 -41 49 -67l83 -48q29 -17 43 -30z" />
    <glyph glyph-name="yentabsmall" horiz-adv-x="500" 
d="M301 195l-25 -36l-3 -19h151l-10 -55h-151l-15 -85h-69l15 85h-151l10 55h151l3 19l-12 36h-133l10 55h105l-85 254h73l68 -212q5 -17 9 -41t6 -39l1 -16q19 51 44 91l146 217h74l-174 -254h105l-10 -55h-133z" />
    <glyph glyph-name="florintabsmall" horiz-adv-x="506" 
d="M176 216h-93l10 55h93l15 86q28 155 149 155q81 0 123 -73l-49 -34q-27 47 -71 47q-66 0 -83 -94l-15 -87h125l-10 -55h-125l-55 -310h-69z" />
    <glyph glyph-name="dividetabsmall" horiz-adv-x="500" 
d="M286 359q-20 0 -35 14.5t-15 35.5q0 22 15 36.5t35 14.5q21 0 35.5 -14.5t14.5 -36.5q0 -21 -14.5 -35.5t-35.5 -14.5zM81 223l10 59h345l-11 -59h-344zM231 45q-21 0 -35.5 14.5t-14.5 36.5q0 21 14.5 35.5t35.5 14.5t35.5 -14.5t14.5 -35.5q0 -22 -14.5 -36.5
t-35.5 -14.5z" />
    <glyph glyph-name="Eurotabsmall" horiz-adv-x="500" 
d="M84 274h-54l10 55h58q27 83 88 133t139 50q116 0 164 -102l-55 -29q-36 72 -111 72q-53 0 -93 -33.5t-61 -90.5h193l-10 -55h-198q-5 -32 -5 -60h192l-10 -55h-177q21 -108 126 -108q79 0 128 73l51 -33q-61 -99 -182 -99q-75 0 -126.5 44.5t-65.5 122.5h-76l10 55h61v1
q0 21 4 59z" />
    <glyph glyph-name="perthousandtabsmall" horiz-adv-x="1100" 
d="M196 218q-59 0 -97.5 39t-38.5 99q0 66 46 111t106 45q59 0 97.5 -39t38.5 -98q0 -68 -45.5 -112.5t-106.5 -44.5zM158 0l403 504h68l-403 -504h-68zM905 -8q-59 0 -97.5 38.5t-38.5 98.5q0 66 46 111t106 45q58 0 97 -38.5t39 -97.5q0 -68 -45.5 -112.5t-106.5 -44.5z
M574 -8q-59 0 -98 38.5t-39 98.5q0 66 46.5 111t106.5 45q58 0 96.5 -38.5t38.5 -97.5q0 -68 -45 -112.5t-106 -44.5zM197 270q39 0 65.5 30t26.5 76q0 39 -21 61t-57 22q-39 0 -66 -29t-27 -74q0 -40 21.5 -63t57.5 -23zM906 44q39 0 65.5 29.5t26.5 75.5q0 39 -21.5 61.5
t-56.5 22.5q-40 0 -66.5 -29.5t-26.5 -74.5q0 -40 21.5 -62.5t57.5 -22.5zM574 44q40 0 66 29.5t26 75.5q0 39 -21.5 61.5t-56.5 22.5q-39 0 -66 -29.5t-27 -74.5q0 -40 21.5 -62.5t57.5 -22.5z" />
    <glyph glyph-name="at.up" horiz-adv-x="872" 
d="M438 -105q-168 0 -272.5 106t-104.5 270q0 181 119.5 299t292.5 118q166 0 268.5 -100.5t102.5 -258.5q0 -115 -49 -173.5t-121 -58.5q-47 0 -76.5 22.5t-38.5 61.5q-49 -88 -138 -88q-74 0 -120.5 51t-46.5 129q0 89 53.5 147.5t130.5 58.5q50 0 85.5 -27.5t50.5 -73.5
l13 91h67l-40 -227q-16 -93 62 -93q45 0 76 47t31 136q0 133 -84 217.5t-225 84.5q-150 0 -249.5 -103.5t-99.5 -258.5q0 -141 85 -231.5t228 -90.5q92 0 169 36l22 -48q-81 -43 -191 -43zM435 150q52 0 88.5 43.5t36.5 102.5q0 53 -31.5 89.5t-79.5 36.5q-55 0 -90 -41
t-35 -108q0 -56 30.5 -89.5t80.5 -33.5z" />
    <glyph glyph-name="fb.alt" horiz-adv-x="807" 
d="M557 -8q-59 0 -103 33.5t-60 90.5l-16 -116h-68l126 722h68l-68 -387q56 88 151 88q79 0 127.5 -55t48.5 -144q0 -100 -60 -166t-146 -66zM128 356h-66l10 58h66l34 194q23 127 123 127q56 0 89 -40l-40 -44q-21 23 -45 23t-38.5 -15t-21.5 -55l-33 -190h100l-10 -58
h-100l-80 -454q-12 -67 -40 -90.5t-82 -23.5h-42l10 55h30q22 0 36 13.5t21 52.5zM541 51q68 0 110 49t42 124q0 62 -33.5 100.5t-89.5 38.5q-67 0 -111.5 -48t-44.5 -121q0 -63 34.5 -103t92.5 -40z" />
    <glyph glyph-name="fh.alt" horiz-adv-x="777" 
d="M309 0l127 722h68l-68 -385q53 86 144 86q70 0 108 -50t23 -134l-27 -152q-5 -32 20 -32h38l-10 -55h-43q-88 0 -71 94l24 139q11 60 -11.5 94.5t-74.5 34.5q-115 0 -138 -129l-41 -233h-68zM128 356h-66l10 58h66l34 194q23 127 123 127q56 0 89 -40l-40 -44
q-21 23 -45 23t-38.5 -15t-21.5 -55l-33 -190h100l-10 -58h-100l-80 -454q-12 -67 -40 -90.5t-82 -23.5h-42l10 55h30q22 0 36 13.5t21 52.5z" />
    <glyph glyph-name="fk.alt" horiz-adv-x="730" 
d="M399 130l-22 -130h-68l127 722h68l-82 -463q-5 -26 -15 -61l228 216h81l-185 -176l96 -162q13 -21 37 -21h26l-10 -55h-29q-29 0 -47 11t-35 39l-89 149zM128 356h-66l10 58h66l34 194q23 127 123 127q56 0 89 -40l-40 -44q-21 23 -45 23t-38.5 -15t-21.5 -55l-33 -190
h100l-10 -58h-100l-80 -454q-12 -67 -40 -90.5t-82 -23.5h-42l10 55h30q22 0 36 13.5t21 52.5z" />
    <glyph glyph-name="ffb.alt" horiz-adv-x="1053" 
d="M802 -8q-59 0 -103 33.5t-59 90.5l-17 -116h-68l127 722h68l-69 -387q56 88 152 88q78 0 127 -55.5t49 -143.5q0 -100 -60.5 -166t-146.5 -66zM128 356h-66l10 58h66l31 176q21 125 125 125q60 0 92 -44l-44 -42q-19 25 -46 25q-24 0 -38.5 -15t-21.5 -53l-30 -172h176
l35 194q23 127 123 127q56 0 89 -40l-40 -44q-21 23 -45 23t-38.5 -15t-21.5 -55l-33 -190h100l-10 -58h-100l-76 -432q-12 -67 -40.5 -90.5t-82.5 -23.5h-39l10 55h28q21 0 35 13.5t21 51.5l75 426h-176l-80 -454q-11 -67 -39.5 -90.5t-82.5 -23.5h-42l10 55h30
q22 0 36 13.5t21 52.5zM787 51q68 0 110 49t42 124q0 62 -34 100.5t-90 38.5q-67 0 -111.5 -48t-44.5 -121q0 -63 35 -103t93 -40z" />
    <glyph glyph-name="ffh.alt" horiz-adv-x="1022" 
d="M554 0l127 722h68l-67 -385q52 86 143 86q70 0 108 -50t23 -134l-27 -152q-5 -32 20 -32h38l-10 -55h-43q-88 0 -71 94l24 139q11 60 -11.5 94.5t-74.5 34.5q-115 0 -138 -129l-41 -233h-68zM128 356h-66l10 58h66l31 176q21 125 125 125q60 0 92 -44l-44 -42
q-19 25 -46 25q-24 0 -38.5 -15t-21.5 -53l-30 -172h176l35 194q23 127 123 127q56 0 89 -40l-40 -44q-21 23 -45 23t-38.5 -15t-21.5 -55l-33 -190h100l-10 -58h-100l-76 -432q-12 -67 -40.5 -90.5t-82.5 -23.5h-39l10 55h28q21 0 35 13.5t21 51.5l75 426h-176l-80 -454
q-11 -67 -39.5 -90.5t-82.5 -23.5h-42l10 55h30q22 0 36 13.5t21 52.5z" />
    <glyph glyph-name="ffk.alt" horiz-adv-x="975" 
d="M776 238l96 -162q13 -21 37 -21h26l-10 -55h-29q-29 0 -47 11t-35 39l-89 149l-81 -70l-22 -129h-68l127 722h68l-82 -463q-5 -26 -15 -61l228 216h81zM196 356l-80 -454q-11 -67 -39.5 -90.5t-82.5 -23.5h-42l10 55h30q22 0 36 13.5t21 52.5l79 447h-66l10 58h66l31 176
q21 125 125 125q60 0 92 -44l-44 -42q-19 25 -46 25q-24 0 -38.5 -15t-21.5 -53l-30 -172h176l35 194q23 127 123 127q56 0 89 -40l-40 -44q-21 23 -45 23t-38.5 -15t-21.5 -55l-33 -190h100l-10 -58h-100l-76 -432q-12 -67 -40.5 -90.5t-82.5 -23.5h-39l10 55h28
q21 0 35 13.5t21 51.5l75 426h-176z" />
    <glyph glyph-name="fffl.alt" horiz-adv-x="988" 
d="M884 0q-45 0 -61 22t-7 70l111 630h68l-113 -635q-5 -32 20 -32h45l-9 -55h-54zM617 356h-176l-78 -444q-12 -67 -40.5 -90.5t-81.5 -23.5h-42l10 55h30q22 0 36 13.5t21 52.5l77 437h-177l-80 -454q-12 -67 -40 -90.5t-82 -23.5h-42l10 55h30q22 0 36 13.5t21 52.5
l79 447h-66l10 58h66l31 176q21 125 125 125q60 0 92 -44l-44 -42q-19 25 -46 25q-24 0 -38.5 -15t-21.5 -53l-30 -172h177l33 186q21 125 125 125q60 0 92 -44l-44 -42q-19 25 -46 25q-24 0 -38.5 -15t-21.5 -53l-32 -182h176l35 194q23 127 123 127q56 0 89 -40l-40 -44
q-21 23 -45 23t-38.5 -15t-21.5 -55l-34 -190h101l-11 -58h-100l-76 -432q-12 -67 -40.5 -90.5t-81.5 -23.5h-39l10 55h27q22 0 36 13.5t21 51.5z" />
    <glyph glyph-name="space.up" horiz-adv-x="232" 
 />
    <glyph glyph-name="nbspace.up" horiz-adv-x="232" 
 />
    <glyph glyph-name="hyphen.up" horiz-adv-x="296" 
d="M50 236l11 61h207l-11 -61h-207z" />
    <glyph glyph-name="guillemotleft.up" horiz-adv-x="390" 
d="M261 84l-66 150l1 8l118 166h75l-125 -172l67 -152h-70zM110 84l-66 150l1 8l119 166h74l-125 -172l67 -152h-70z" />
    <glyph glyph-name="guillemotright.up" horiz-adv-x="390" 
d="M167 84l126 172l-68 152h70l66 -151l-1 -8l-118 -165h-75zM16 84l126 172l-68 152h71l66 -151l-2 -8l-118 -165h-75z" />
    <glyph glyph-name="endash.up" horiz-adv-x="436" 
d="M44 236l11 61h358l-10 -61h-359z" />
    <glyph glyph-name="emdash.up" horiz-adv-x="683" 
d="M44 236l11 61h606l-11 -61h-606z" />
    <glyph glyph-name="guilsinglleft.up" horiz-adv-x="239" 
d="M109 84l-66 150v8l119 166h75l-125 -172l67 -152h-70z" />
    <glyph glyph-name="guilsinglright.up" horiz-adv-x="238" 
d="M16 84l126 172l-68 152h71l65 -150v-8l-119 -166h-75z" />
    <glyph glyph-name="umacron.alt" horiz-adv-x="487" 
d="M192 519l9 54h209l-10 -54h-208zM224 -8q-85 0 -130 50.5t-29 142.5l40 229h69l-42 -234q-12 -68 14.5 -98.5t78.5 -30.5q53 0 82.5 28t40.5 93l43 242h68l-44 -252q-30 -170 -191 -170z" />
    <glyph glyph-name="uring.alt" horiz-adv-x="487" 
d="M297 484q-43 0 -73.5 29.5t-30.5 70.5q0 42 30.5 71.5t73.5 29.5t73.5 -29.5t30.5 -71.5q0 -41 -30.5 -70.5t-73.5 -29.5zM224 -8q-85 0 -130 50.5t-29 142.5l40 229h69l-42 -234q-12 -68 14.5 -98.5t78.5 -30.5q53 0 82.5 28t40.5 93l43 242h68l-44 -252
q-30 -170 -191 -170zM297 528q23 0 37.5 15.5t14.5 40.5q0 26 -14.5 41t-37.5 15t-38 -15t-15 -41q0 -25 15 -40.5t38 -15.5z" />
    <glyph glyph-name="uhungarumlaut.alt" horiz-adv-x="487" 
d="M328 498l100 193h77l-122 -193h-55zM191 498l100 193h77l-122 -193h-55zM224 -8q-85 0 -130 50.5t-29 142.5l40 229h69l-42 -234q-12 -68 14.5 -98.5t78.5 -30.5q53 0 82.5 28t40.5 93l43 242h68l-44 -252q-30 -170 -191 -170z" />
    <glyph glyph-name="uogonek.alt" horiz-adv-x="487" 
d="M191 -6q-71 10 -106 59.5t-20 131.5l40 229h69l-42 -234q-12 -68 14.5 -98.5t78.5 -30.5q53 0 82.5 28t40.5 93l43 242h68l-44 -252q-29 -161 -173 -169l-39 -46q-25 -30 -35 -49t-10 -42q0 -18 12 -29.5t30 -11.5q12 0 22 5.5t15.5 12t13.5 18.5l41 -25q-30 -58 -97 -58
q-38 0 -65.5 22.5t-27.5 62.5q0 55 60 113z" />
    <glyph glyph-name="Gcommaaccent.alt" horiz-adv-x="777" 
d="M399 -8q-144 0 -234.5 91.5t-90.5 235.5q0 160 106.5 264.5t257.5 104.5q189 0 268 -133l-57 -38q-65 107 -213 107q-123 0 -206 -87t-83 -217q0 -117 70.5 -191t184.5 -74q108 0 178.5 58.5t87.5 144.5h-234l11 62h302q-11 -149 -103.5 -238.5t-244.5 -89.5zM278 -256
l48 102q-29 10 -29 45q0 21 15.5 35.5t35.5 14.5q21 0 35.5 -14t14.5 -35t-17 -48l-66 -100h-37z" />
    <glyph glyph-name="Gbreve.alt" horiz-adv-x="777" 
d="M452 744q-54 0 -86 33.5t-36 83.5l56 9q5 -34 19.5 -52.5t46.5 -18.5q61 0 79 71l56 -10q-11 -50 -46 -83t-89 -33zM399 -8q-144 0 -234.5 91.5t-90.5 235.5q0 160 106.5 264.5t257.5 104.5q189 0 268 -133l-57 -38q-65 107 -213 107q-123 0 -206 -87t-83 -217
q0 -117 70.5 -191t184.5 -74q108 0 178.5 58.5t87.5 144.5h-234l11 62h302q-11 -149 -103.5 -238.5t-244.5 -89.5z" />
    <glyph glyph-name="Gcircumflex.alt" horiz-adv-x="777" 
d="M331 751l158 193h10l94 -193h-55l-56 106l-91 -106h-60zM399 -8q-144 0 -234.5 91.5t-90.5 235.5q0 160 106.5 264.5t257.5 104.5q189 0 268 -133l-57 -38q-65 107 -213 107q-123 0 -206 -87t-83 -217q0 -117 70.5 -191t184.5 -74q108 0 178.5 58.5t87.5 144.5h-234
l11 62h302q-11 -149 -103.5 -238.5t-244.5 -89.5z" />
    <glyph glyph-name="emacron.alt" horiz-adv-x="508" 
d="M189 519l9 54h209l-10 -54h-208zM115 186q3 -60 41.5 -98.5t101.5 -38.5q80 0 130 52l42 -42q-65 -67 -173 -67q-92 0 -151 57.5t-59 147.5q0 97 65 161.5t159 64.5q98 0 149.5 -67t39.5 -170h-345zM119 237h276q0 58 -32.5 94t-93.5 36q-58 0 -98.5 -35.5t-51.5 -94.5z
" />
    <glyph glyph-name="edotaccent.alt" horiz-adv-x="508" 
d="M303 516q-18 0 -32 13.5t-14 32.5t14 32.5t32 13.5t31.5 -13.5t13.5 -32.5t-13.5 -32.5t-31.5 -13.5zM115 186q3 -60 41.5 -98.5t101.5 -38.5q80 0 130 52l42 -42q-65 -67 -173 -67q-92 0 -151 57.5t-59 147.5q0 97 65 161.5t159 64.5q98 0 149.5 -67t39.5 -170h-345z
M119 237h276q0 58 -32.5 94t-93.5 36q-58 0 -98.5 -35.5t-51.5 -94.5z" />
    <glyph glyph-name="ecaron.alt" horiz-adv-x="508" 
d="M285 487l-94 194h56l56 -107l90 107h60l-158 -194h-10zM115 186q3 -60 41.5 -98.5t101.5 -38.5q80 0 130 52l42 -42q-65 -67 -173 -67q-92 0 -151 57.5t-59 147.5q0 97 65 161.5t159 64.5q98 0 149.5 -67t39.5 -170h-345zM119 237h276q0 58 -32.5 94t-93.5 36
q-58 0 -98.5 -35.5t-51.5 -94.5z" />
    <glyph glyph-name="eogonek.alt" horiz-adv-x="508" 
d="M264 -8l-38 -45q-25 -30 -35 -49t-10 -42q0 -18 12 -29.5t30 -11.5q12 0 22 5.5t15.5 12t13.5 18.5l41 -25q-30 -58 -97 -58q-38 0 -65.5 22.5t-27.5 62.5q0 55 60 113l30 29q-75 13 -121.5 68t-46.5 134q0 97 65 161.5t159 64.5q98 0 149.5 -67t39.5 -170h-345
q3 -60 41.5 -98.5t101.5 -38.5q80 0 130 52l42 -42q-63 -64 -166 -67zM119 237h276q0 58 -32.5 94t-93.5 36q-58 0 -98.5 -35.5t-51.5 -94.5z" />
    <glyph glyph-name="ubreve.alt" horiz-adv-x="487" 
d="M293 489q-54 0 -86 33.5t-36 83.5l56 9q5 -34 19.5 -52.5t46.5 -18.5q61 0 79 71l56 -10q-11 -50 -46 -83t-89 -33zM224 -8q-85 0 -130 50.5t-29 142.5l40 229h69l-42 -234q-12 -68 14.5 -98.5t78.5 -30.5q53 0 82.5 28t40.5 93l43 242h68l-44 -252q-30 -170 -191 -170z
" />
    <glyph glyph-name="Amacronsmall" horiz-adv-x="503" 
d="M202 593l9 54h209l-10 -54h-208zM112 76l-44 -76h-70l299 510h9l127 -510h-69l-18 76h-234zM335 128l-40 173q-4 16 -6.5 38t-3.5 36l-1 14q-20 -50 -39 -84l-103 -177h193z" />
    <glyph glyph-name="Aogoneksmall" horiz-adv-x="503" 
d="M431 7l-50 -60q-45 -54 -45 -91q0 -18 12 -29.5t30 -11.5q12 0 22 5.5t15.5 12t13.5 18.5l41 -25q-30 -58 -97 -58q-38 0 -65.5 22.5t-27.5 62.5q0 55 60 113l26 25l-20 85h-234l-44 -76h-70l299 510h9zM335 128l-40 173q-4 16 -6.5 38t-3.5 36l-1 14q-20 -50 -39 -84
l-103 -177h193z" />
    <glyph glyph-name="Ccaronsmall" horiz-adv-x="551" 
d="M329 561l-94 194h56l56 -107l90 107h60l-158 -194h-10zM293 -8q-104 0 -173 70.5t-69 176.5q0 117 78.5 195t192.5 78q133 0 198 -102l-55 -38q-51 80 -145 80q-84 0 -140.5 -62t-56.5 -152q0 -82 48 -134t125 -52q92 0 151 72l51 -41q-81 -91 -205 -91z" />
    <glyph glyph-name="Cacutesmall" horiz-adv-x="551" 
d="M306 572l98 193h84l-127 -193h-55zM293 -8q-104 0 -173 70.5t-69 176.5q0 117 78.5 195t192.5 78q133 0 198 -102l-55 -38q-51 80 -145 80q-84 0 -140.5 -62t-56.5 -152q0 -82 48 -134t125 -52q92 0 151 72l51 -41q-81 -91 -205 -91z" />
    <glyph glyph-name="Zacutesmall" horiz-adv-x="460" 
d="M263 572l98 193h84l-127 -193h-55zM5 0v8l333 437h-228l11 59h335v-9l-333 -436h261l-10 -59h-369z" />
    <glyph glyph-name="Dcaronsmall" horiz-adv-x="516" 
d="M292 561l-94 194h56l56 -107l90 107h60l-158 -194h-10zM37 0l89 504h124q109 0 171 -62.5t62 -164.5q0 -126 -78 -201.5t-211 -75.5h-157zM117 60h76q107 0 163 60.5t56 158.5q0 76 -42 120.5t-127 44.5h-59z" />
    <glyph glyph-name="Emacronsmall" horiz-adv-x="447" 
d="M188 593l9 54h209l-10 -54h-208zM37 0l89 504h311l-11 -59h-243l-36 -210h215l-11 -57h-214l-21 -119h258l-10 -59h-327z" />
    <glyph glyph-name="Edotaccentsmall" horiz-adv-x="447" 
d="M300 590q-18 0 -32 13.5t-14 32.5t14 32.5t32 13.5t31.5 -13.5t13.5 -32.5t-13.5 -32.5t-31.5 -13.5zM37 0l89 504h311l-11 -59h-243l-36 -210h215l-11 -57h-214l-21 -119h258l-10 -59h-327z" />
    <glyph glyph-name="Ecaronsmall" horiz-adv-x="447" 
d="M281 561l-94 194h56l56 -107l90 107h60l-158 -194h-10zM37 0l89 504h311l-11 -59h-243l-36 -210h215l-11 -57h-214l-21 -119h258l-10 -59h-327z" />
    <glyph glyph-name="Eogoneksmall" horiz-adv-x="447" 
d="M264 0h-227l89 504h311l-11 -59h-243l-36 -210h215l-11 -57h-214l-21 -119h258l-10 -59h-49l-45 -53q-25 -30 -35 -49t-10 -42q0 -18 12 -29.5t30 -11.5q12 0 22 5.5t15.5 12t13.5 18.5l41 -25q-30 -58 -97 -58q-38 0 -65.5 22.5t-27.5 62.5q0 55 60 113z" />
    <glyph glyph-name="Gcommaaccentsmall" horiz-adv-x="565" 
d="M305 -8q-112 0 -183 68.5t-71 177.5q0 119 80 196.5t191 77.5q115 0 183 -76l-49 -44q-52 59 -137 59q-83 0 -140 -60.5t-57 -151.5q0 -85 50 -136.5t134 -51.5q63 0 120 32l18 105h-139l10 58h202l-35 -201q-75 -53 -177 -53zM164 -256l48 102q-29 10 -29 45
q0 21 15.5 35.5t35.5 14.5q21 0 35.5 -14t14.5 -35t-17 -48l-66 -100h-37z" />
    <glyph glyph-name="Iogoneksmall" horiz-adv-x="224" 
d="M39 -13l91 517h69l-87 -493l-54 -64q-25 -30 -35 -49t-10 -42q0 -18 12 -29.5t30 -11.5q12 0 22 5.5t15.5 12t13.5 18.5l41 -25q-30 -58 -97 -58q-38 0 -65.5 22.5t-27.5 62.5q0 55 60 113z" />
    <glyph glyph-name="Imacronsmall" horiz-adv-x="224" 
d="M76 593l9 54h209l-10 -54h-208zM41 0l89 504h69l-89 -504h-69z" />
    <glyph glyph-name="Lcommaaccentsmall" horiz-adv-x="408" 
d="M37 0l89 504h69l-78 -444h231l-11 -60h-300zM103 -256l48 102q-29 10 -29 45q0 21 15.5 35.5t35.5 14.5q21 0 35.5 -14t14.5 -35t-17 -48l-66 -100h-37z" />
    <glyph glyph-name="Lcaronsmall" horiz-adv-x="408" 
d="M271 307l51 108q-29 13 -29 47q0 21 15.5 35.5t35.5 14.5q22 0 36.5 -14t14.5 -36t-18 -48l-69 -107h-37zM37 0l89 504h69l-78 -444h231l-11 -60h-300z" />
    <glyph glyph-name="Lacutesmall" horiz-adv-x="408" 
d="M147 572l98 193h84l-127 -193h-55zM37 0l89 504h69l-78 -444h231l-11 -60h-300z" />
    <glyph glyph-name="Ncommaaccentsmall" horiz-adv-x="536" 
d="M417 -6l-217 314l-41 68q0 -41 -6 -74l-53 -302h-63l90 509h9l218 -313q9 -13 19 -30.5t15 -28.5l6 -11q1 46 7 81l52 297h63l-90 -510h-9zM156 -256l48 102q-29 10 -29 45q0 21 15.5 35.5t35.5 14.5q21 0 35.5 -14t14.5 -35t-17 -48l-66 -100h-37z" />
    <glyph glyph-name="Abrevesmall" horiz-adv-x="503" 
d="M308 563q-54 0 -86 33.5t-36 83.5l56 9q5 -34 19.5 -52.5t46.5 -18.5q61 0 79 71l56 -10q-11 -50 -46 -83t-89 -33zM112 76l-44 -76h-70l299 510h9l127 -510h-69l-18 76h-234zM335 128l-40 173q-4 16 -6.5 38t-3.5 36l-1 14q-20 -50 -39 -84l-103 -177h193z" />
    <glyph glyph-name="Nacutesmall" horiz-adv-x="536" 
d="M295 572l98 193h84l-127 -193h-55zM417 -6l-217 314l-41 68q0 -41 -6 -74l-53 -302h-63l90 509h9l218 -313q9 -13 19 -30.5t15 -28.5l6 -11q1 46 7 81l52 297h63l-90 -510h-9z" />
    <glyph glyph-name="Ncaronsmall" horiz-adv-x="536" 
d="M317 561l-94 194h56l56 -107l90 107h60l-158 -194h-10zM417 -6l-217 314l-41 68q0 -41 -6 -74l-53 -302h-63l90 509h9l218 -313q9 -13 19 -30.5t15 -28.5l6 -11q1 46 7 81l52 297h63l-90 -510h-9z" />
    <glyph glyph-name="Ohungarumlautsmall" horiz-adv-x="606" 
d="M375 572l100 193h77l-122 -193h-55zM238 572l100 193h77l-122 -193h-55zM297 -8q-104 0 -175 69.5t-71 176.5q0 119 80 196.5t194 77.5q104 0 175 -69t71 -176q0 -119 -80 -197t-194 -78zM300 53q86 0 143.5 62t57.5 154q0 80 -50 131t-128 51q-86 0 -143.5 -61
t-57.5 -153q0 -81 50 -132.5t128 -51.5z" />
    <glyph glyph-name="Omacronsmall" horiz-adv-x="606" 
d="M249 593l9 54h209l-10 -54h-208zM297 -8q-104 0 -175 69.5t-71 176.5q0 119 80 196.5t194 77.5q104 0 175 -69t71 -176q0 -119 -80 -197t-194 -78zM300 53q86 0 143.5 62t57.5 154q0 80 -50 131t-128 51q-86 0 -143.5 -61t-57.5 -153q0 -81 50 -132.5t128 -51.5z" />
    <glyph glyph-name="Racutesmall" horiz-adv-x="465" 
d="M240 572l98 193h84l-127 -193h-55zM313 151l83 -151h-73l-73 134q-24 -2 -40 -2h-81l-23 -132h-69l89 504h117q90 0 140 -47t50 -126q-1 -63 -31.5 -111.5t-88.5 -68.5zM139 189h73q75 0 112.5 38t37.5 104q0 54 -31 83.5t-93 29.5h-54z" />
    <glyph glyph-name="Rcaronsmall" horiz-adv-x="465" 
d="M269 561l-94 194h56l56 -107l90 107h60l-158 -194h-10zM313 151l83 -151h-73l-73 134q-24 -2 -40 -2h-81l-23 -132h-69l89 504h117q90 0 140 -47t50 -126q-1 -63 -31.5 -111.5t-88.5 -68.5zM139 189h73q75 0 112.5 38t37.5 104q0 54 -31 83.5t-93 29.5h-54z" />
    <glyph glyph-name="Rcommaaccentsmall" horiz-adv-x="465" 
d="M313 151l83 -151h-73l-73 134q-24 -2 -40 -2h-81l-23 -132h-69l89 504h117q90 0 140 -47t50 -126q-1 -63 -31.5 -111.5t-88.5 -68.5zM120 -256l48 102q-29 10 -29 45q0 21 15.5 35.5t35.5 14.5q21 0 35.5 -14t14.5 -35t-17 -48l-66 -100h-37zM139 189h73q75 0 112.5 38
t37.5 104q0 54 -31 83.5t-93 29.5h-54z" />
    <glyph glyph-name="Sacutesmall" horiz-adv-x="418" 
d="M223 572l98 193h84l-127 -193h-55zM197 -8q-67 0 -116 31.5t-71 72.5l56 35q48 -80 132 -80q48 0 72.5 21.5t24.5 58.5q0 29 -18 50t-58 45l-32 20q-94 58 -94 137q0 57 39.5 93t101.5 36q92 0 138 -77l-52 -35q-33 54 -87 54q-31 0 -52 -18.5t-21 -49.5q0 -26 13 -44
t46 -37l33 -20q56 -35 84 -70t28 -85q0 -62 -46 -100t-121 -38z" />
    <glyph glyph-name="Tcaronsmall" horiz-adv-x="431" 
d="M262 561l-94 194h56l56 -107l90 107h60l-158 -194h-10zM144 0l79 444h-150l10 60h369l-10 -60h-150l-78 -444h-70z" />
    <glyph glyph-name="Umacronsmall" horiz-adv-x="511" 
d="M216 593l9 54h209l-10 -54h-208zM238 -7q-86 0 -136 54t-34 145l55 312h69l-56 -316q-12 -65 17.5 -99.5t87.5 -34.5q106 0 125 114l58 336h69l-60 -346q-29 -165 -195 -165z" />
    <glyph glyph-name="Uringsmall" horiz-adv-x="511" 
d="M322 558q-43 0 -73.5 29.5t-30.5 70.5q0 42 30.5 71.5t73.5 29.5t73.5 -29.5t30.5 -71.5q0 -41 -30.5 -70.5t-73.5 -29.5zM238 -7q-86 0 -136 54t-34 145l55 312h69l-56 -316q-12 -65 17.5 -99.5t87.5 -34.5q106 0 125 114l58 336h69l-60 -346q-29 -165 -195 -165z
M322 602q23 0 37.5 15.5t14.5 40.5q0 26 -14.5 41t-37.5 15t-38 -15t-15 -41q0 -25 15 -40.5t38 -15.5z" />
    <glyph glyph-name="Uhungarumlautsmall" horiz-adv-x="511" 
d="M352 572l100 193h77l-122 -193h-55zM215 572l100 193h77l-122 -193h-55zM238 -7q-86 0 -136 54t-34 145l55 312h69l-56 -316q-12 -65 17.5 -99.5t87.5 -34.5q106 0 125 114l58 336h69l-60 -346q-29 -165 -195 -165z" />
    <glyph glyph-name="Uogoneksmall" horiz-adv-x="511" 
d="M203 -4q-72 11 -110.5 63t-24.5 133l55 312h69l-56 -316q-12 -65 17.5 -99.5t87.5 -34.5q106 0 125 114l58 336h69l-60 -346q-27 -157 -180 -165l-39 -46q-25 -30 -35 -49t-10 -42q0 -18 12 -29.5t30 -11.5q12 0 22 5.5t15.5 12t13.5 18.5l41 -25q-30 -58 -97 -58
q-38 0 -65.5 22.5t-27.5 62.5q0 55 60 113z" />
    <glyph glyph-name="Kcommaaccentsmall" horiz-adv-x="481" 
d="M134 205q30 49 61 80l208 219h80l-221 -231l161 -273h-78l-133 227l-80 -80l-26 -147h-69l89 504h69l-37 -208q-6 -33 -24 -91zM128 -256l48 102q-29 10 -29 45q0 21 15.5 35.5t35.5 14.5q21 0 35.5 -14t14.5 -35t-17 -48l-66 -100h-37z" />
    <glyph glyph-name="Zdotaccentsmall" horiz-adv-x="460" 
d="M301 590q-18 0 -32 13.5t-14 32.5t14 32.5t32 13.5t31.5 -13.5t13.5 -32.5t-13.5 -32.5t-31.5 -13.5zM5 0v8l333 437h-228l11 59h335v-9l-333 -436h261l-10 -59h-369z" />
    <glyph glyph-name="Idotaccentsmall" horiz-adv-x="224" 
d="M186 590q-18 0 -32 13.5t-14 32.5t14 32.5t32 13.5t31.5 -13.5t13.5 -32.5t-13.5 -32.5t-31.5 -13.5zM41 0l89 504h69l-89 -504h-69z" />
    <glyph glyph-name="Gbrevesmall" horiz-adv-x="565" 
d="M334 563q-54 0 -86 33.5t-36 83.5l56 9q5 -34 19.5 -52.5t46.5 -18.5q61 0 79 71l56 -10q-11 -50 -46 -83t-89 -33zM305 -8q-112 0 -183 68.5t-71 177.5q0 119 80 196.5t191 77.5q115 0 183 -76l-49 -44q-52 59 -137 59q-83 0 -140 -60.5t-57 -151.5q0 -85 50 -136.5
t134 -51.5q63 0 120 32l18 105h-139l10 58h202l-35 -201q-75 -53 -177 -53z" />
    </font>
</defs>
</svg>
