<?xml version="1.0" standalone="no"?>
<!DOCTYPE svg PUBLIC "-//W3C//DTD SVG 1.1//EN" "http://www.w3.org/Graphics/SVG/1.1/DTD/svg11.dtd" >
<svg>
<metadata>
Created by FontForge 20090622 at Tue Apr 12 23:37:01 2016
 By deploy user
(C)2004 House Industries/Brand Design Co., Inc. All Rights Reserved.
</metadata>
<defs>
<font id="NeutrafaceText-BoldItalic" horiz-adv-x="244" >
  <font-face 
    font-family="Neutraface Text Bold Italic"
    font-weight="700"
    font-style="italic"
    font-stretch="normal"
    units-per-em="1000"
    panose-1="2 0 8 0 5 0 0 9 0 4"
    ascent="780"
    descent="-220"
    x-height="426"
    cap-height="680"
    bbox="-137 -283 1329 984"
    underline-thickness="20"
    underline-position="-113"
    slope="-12"
    unicode-range="U+000D-U+FB04"
  />
<missing-glyph horiz-adv-x="206" 
 />
    <glyph glyph-name="ff" unicode="ff" horiz-adv-x="645" 
d="M393 317h-141l-73 -414q-13 -73 -43.5 -94t-103.5 -21h-69l19 99h40q12 0 18 5t9 20l71 405h-70l19 109h70l24 132q14 78 53 117.5t111 39.5q61 0 98 -33l-57 -99q-17 14 -35 14q-31 0 -39 -42l-23 -129h141l27 152q28 157 169 157q79 0 125 -54l-77 -87q-16 23 -42 23
q-36 0 -44 -42l-26 -149h110l-19 -109h-110l-69 -389q-13 -73 -43.5 -94t-103.5 -21h-61l19 99h32q12 0 18 5t9 20z" />
    <glyph glyph-name="fi" unicode="fi" horiz-adv-x="577" 
d="M506 504q-32 0 -55 22t-23 56t22.5 55.5t54.5 21.5q33 0 56 -21.5t23 -55.5q0 -35 -22.5 -56.5t-55.5 -21.5zM252 317l-73 -414q-13 -73 -43.5 -94t-103.5 -21h-69l19 99h40q12 0 18 5t9 20l71 405h-70l19 109h70l27 152q14 78 53 117.5t113 39.5q68 0 117 -46l-77 -87
q-16 15 -34 15q-17 0 -27 -9.5t-14 -32.5l-26 -149h273l-53 -302q-4 -25 18 -25h30l-17 -99h-50q-75 0 -100.5 25t-12.5 98l34 194h-141z" />
    <glyph glyph-name="fl" unicode="fl" horiz-adv-x="577" 
d="M120 317h-70l19 109h70l22 126q16 91 68.5 137t148.5 46q102 0 151.5 -56.5t31.5 -157.5l-70 -397q-4 -25 18 -25h38l-17 -99h-58q-75 0 -100.5 25t-12.5 98l71 404q17 95 -60 95q-37 0 -54 -19.5t-25 -65.5l-20 -111h93l-19 -109h-93l-73 -414q-13 -73 -43.5 -94
t-103.5 -21h-69l19 99h40q12 0 18 5t9 20z" />
    <glyph glyph-name="ffi" unicode="ffi" horiz-adv-x="850" 
d="M779 504q-32 0 -55 22t-23 56t22.5 55.5t54.5 21.5q33 0 56 -21.5t23 -55.5q0 -35 -22.5 -56.5t-55.5 -21.5zM525 317l-69 -389q-13 -73 -43.5 -94t-103.5 -21h-61l19 99h32q12 0 18 5t9 20l67 380h-141l-73 -414q-13 -73 -43.5 -94t-103.5 -21h-69l19 99h40q12 0 18 5
t9 20l71 405h-70l19 109h70l24 132q14 78 53 117.5t111 39.5q61 0 98 -33l-57 -99q-17 14 -35 14q-31 0 -39 -42l-23 -129h141l27 152q14 78 53.5 117.5t112.5 39.5q68 0 117 -46l-77 -87q-17 15 -34 15t-27 -9.5t-14 -32.5l-27 -149h274l-53 -302q-4 -25 18 -25h30l-17 -99
h-50q-75 0 -100.5 25t-12.5 98l34 194h-141z" />
    <glyph glyph-name="ffl" unicode="ffl" horiz-adv-x="850" 
d="M393 317h-141l-73 -414q-13 -73 -43.5 -94t-103.5 -21h-69l19 99h40q12 0 18 5t9 20l71 405h-70l19 109h70l24 132q14 78 53 117.5t111 39.5q65 0 103 -35l-62 -97q-17 14 -35 14q-31 0 -39 -42l-23 -129h141l22 126q16 91 68.5 137t148.5 46q102 0 151.5 -56.5
t31.5 -157.5l-70 -397q-4 -25 18 -25h38l-17 -99h-58q-75 0 -100.5 25t-12.5 98l71 404q17 95 -60 95q-37 0 -54 -19.5t-25 -65.5l-20 -111h93l-19 -109h-93l-69 -389q-13 -73 -43.5 -94t-103.5 -21h-61l19 99h32q12 0 18 5t9 20z" />
    <glyph glyph-name="fj" unicode="fj" horiz-adv-x="577" 
d="M506 504q-32 0 -55 22t-23 56t22.5 55.5t54.5 21.5q33 0 56 -21.5t23 -55.5q0 -35 -22.5 -56.5t-55.5 -21.5zM252 317l-73 -414q-13 -73 -43.5 -94t-103.5 -21h-69l19 99h40q12 0 18 5t9 20l71 405h-70l19 109h70l27 152q14 78 53 117.5t113 39.5q68 0 117 -46l-77 -87
q-16 15 -34 15q-17 0 -27 -9.5t-14 -32.5l-26 -149h273l-87 -494q-27 -154 -152 -154q-71 0 -109 38l64 86q14 -12 30 -12q28 0 34 37l69 390h-141z" />
    <glyph glyph-name="ft" unicode="ft" horiz-adv-x="643" 
d="M393 317h-141l-73 -414q-13 -73 -43.5 -94t-103.5 -21h-69l19 99h40q12 0 18 5t9 20l71 405h-70l19 109h70l27 152q14 78 53 117.5t113 39.5q68 0 117 -46l-77 -87q-16 15 -34 15q-17 0 -27 -9.5t-14 -32.5l-26 -149h141l39 222h131l-39 -222h103l-19 -109h-103l-28 -161
q-10 -53 25 -53q21 0 46 15l42 -93q-46 -34 -111 -34q-72 0 -110.5 39t-22.5 130z" />
    <glyph glyph-name="fb" unicode="fb" horiz-adv-x="857" 
d="M120 317h-70l19 109h70l22 126q16 91 68.5 137t148.5 46q102 0 151.5 -56.5t31.5 -157.5l-27 -152q49 66 121 66q74 0 123 -56t49 -148q0 -107 -59.5 -173.5t-142.5 -66.5q-102 0 -146 88l-10 -79h-132l93 527q17 95 -60 95q-37 0 -54 -19.5t-25 -65.5l-20 -111h93
l-19 -109h-93l-73 -414q-13 -73 -43.5 -94t-103.5 -21h-69l19 99h40q12 0 18 5t9 20zM590 105q46 0 72.5 32.5t26.5 86.5q0 45 -23 70.5t-64 25.5q-44 0 -71.5 -32.5t-27.5 -83.5q0 -45 23 -72t64 -27z" />
    <glyph glyph-name="fh" unicode="fh" horiz-adv-x="846" 
d="M120 317h-70l19 109h70l22 126q16 91 68.5 137t148.5 46q102 0 151.5 -56.5t31.5 -157.5l-30 -168q53 82 135 82q71 0 107.5 -55t20.5 -144l-20 -112q-4 -25 18 -25h30l-17 -99h-43q-72 0 -101.5 29t-17.5 99l18 104q15 86 -60 86q-40 0 -61.5 -20.5t-29.5 -66.5
l-41 -231h-132l93 527q17 95 -60 95q-37 0 -54 -19.5t-25 -65.5l-20 -111h93l-19 -109h-93l-73 -414q-13 -73 -43.5 -94t-103.5 -21h-69l19 99h40q12 0 18 5t9 20z" />
    <glyph glyph-name="fk" unicode="fk" horiz-adv-x="812" 
d="M271 426h93l-19 -109h-93l-73 -414q-13 -73 -43.5 -94t-103.5 -21h-69l19 99h40q12 0 18 5t9 20l71 405h-70l19 109h70l22 126q16 91 68.5 137t148.5 46q102 0 152 -56.5t31 -157.5l-30 -167q-8 -46 -24 -97l161 169h150l-173 -177l62 -125q8 -16 14.5 -20.5t19.5 -4.5
h31l-17 -99h-48q-53 0 -76 18t-47 67l-42 85l-51 -45l-22 -125h-132l93 527q17 95 -60 95q-37 0 -54 -19.5t-25 -65.5z" />
    <glyph glyph-name="fff" unicode="fff" horiz-adv-x="917" 
d="M665 317h-141l-71 -404q-13 -73 -43.5 -94t-103.5 -21h-69l19 99h40q12 0 18 5t9 20l70 395h-141l-73 -414q-13 -73 -43.5 -94t-103.5 -21h-69l19 99h40q12 0 18 5t9 20l71 405h-70l19 109h70l24 132q14 78 53 117.5t111 39.5q61 0 98 -33l-57 -99q-17 14 -35 14
q-31 0 -39 -42l-23 -129h141l25 142q14 78 53 117.5t111 39.5q61 0 98 -33l-57 -99q-17 14 -35 14q-31 0 -39 -42l-25 -139h141l27 152q28 157 169 157q79 0 125 -54l-77 -87q-16 23 -42 23q-36 0 -44 -42l-26 -149h110l-19 -109h-110l-69 -389q-13 -73 -43.5 -94
t-103.5 -21h-61l19 99h32q12 0 18 5t9 20z" />
    <glyph glyph-name="ffj" unicode="ffj" horiz-adv-x="850" 
d="M779 504q-32 0 -55 22t-23 56t22.5 55.5t54.5 21.5q33 0 56 -21.5t23 -55.5q0 -35 -22.5 -56.5t-55.5 -21.5zM525 317l-69 -389q-13 -73 -43.5 -94t-103.5 -21h-61l19 99h32q12 0 18 5t9 20l67 380h-141l-73 -414q-13 -73 -43.5 -94t-103.5 -21h-69l19 99h40q12 0 18 5
t9 20l71 405h-70l19 109h70l24 132q14 78 53 117.5t111 39.5q61 0 98 -33l-57 -99q-17 14 -35 14q-31 0 -39 -42l-23 -129h141l27 152q14 78 53.5 117.5t112.5 39.5q68 0 117 -46l-77 -87q-17 15 -34 15t-27 -9.5t-14 -32.5l-27 -149h274l-87 -494q-27 -154 -152 -154
q-71 0 -109 38l64 86q13 -12 30 -12q28 0 34 37l69 390h-141z" />
    <glyph glyph-name="fft" unicode="fft" horiz-adv-x="917" 
d="M666 317h-141l-69 -389q-13 -73 -43.5 -94t-103.5 -21h-61l19 99h32q12 0 18 5t9 20l67 380h-141l-73 -414q-13 -73 -43.5 -94t-103.5 -21h-69l19 99h40q12 0 18 5t9 20l71 405h-70l19 109h70l24 132q14 78 53 117.5t111 39.5q61 0 98 -33l-57 -99q-17 14 -35 14
q-31 0 -39 -42l-23 -129h141l27 152q14 78 53.5 117.5t112.5 39.5q68 0 117 -46l-77 -87q-17 15 -34 15t-27 -9.5t-14 -32.5l-26 -149h142l39 222h131l-39 -222h103l-19 -109h-103l-28 -161q-10 -53 25 -53q21 0 46 15l42 -93q-46 -34 -111 -34q-72 0 -110.5 39t-22.5 130z
" />
    <glyph glyph-name="ffb" unicode="ffb" horiz-adv-x="1130" 
d="M120 317h-70l19 109h70l24 132q14 78 53 117.5t111 39.5q65 0 103 -35l-62 -97q-17 14 -35 14q-31 0 -39 -42l-23 -129h141l22 126q16 91 68.5 137t148.5 46q102 0 151.5 -56.5t31.5 -157.5l-27 -152q49 66 121 66q74 0 123 -56t49 -148q0 -107 -59.5 -173.5
t-142.5 -66.5q-102 0 -146 88l-10 -79h-132l93 527q17 95 -60 95q-37 0 -54 -19.5t-25 -65.5l-20 -111h93l-19 -109h-93l-69 -389q-13 -73 -43.5 -94t-103.5 -21h-61l19 99h32q12 0 18 5t9 20l67 380h-141l-73 -414q-13 -73 -43.5 -94t-103.5 -21h-69l19 99h40q12 0 18 5
t9 20zM863 105q46 0 72.5 32.5t26.5 86.5q0 45 -23 70.5t-64 25.5q-44 0 -71.5 -32.5t-27.5 -83.5q0 -45 23 -72t64 -27z" />
    <glyph glyph-name="ffh" unicode="ffh" horiz-adv-x="1119" 
d="M393 317h-141l-73 -414q-13 -73 -43.5 -94t-103.5 -21h-69l19 99h40q12 0 18 5t9 20l71 405h-70l19 109h70l24 132q14 78 53 117.5t111 39.5q65 0 103 -35l-62 -97q-17 14 -35 14q-31 0 -39 -42l-23 -129h141l22 126q16 91 68.5 137t148.5 46q102 0 151.5 -56.5
t31.5 -157.5l-30 -168q53 82 135 82q71 0 107.5 -55t20.5 -144l-20 -112q-4 -25 18 -25h30l-17 -99h-43q-72 0 -101.5 29t-17.5 99l18 104q15 86 -60 86q-40 0 -61.5 -20.5t-29.5 -66.5l-41 -231h-132l93 527q17 95 -60 95q-37 0 -54 -19.5t-25 -65.5l-20 -111h93l-19 -109
h-93l-69 -389q-13 -73 -43.5 -94t-103.5 -21h-61l19 99h32q12 0 18 5t9 20z" />
    <glyph glyph-name="ffk" unicode="ffk" horiz-adv-x="1085" 
d="M544 426h93l-19 -109h-93l-69 -389q-13 -73 -43.5 -94t-103.5 -21h-61l19 99h32q12 0 18 5t9 20l67 380h-141l-73 -414q-13 -73 -43.5 -94t-103.5 -21h-69l19 99h40q12 0 18 5t9 20l71 405h-70l19 109h70l24 132q14 78 53 117.5t111 39.5q65 0 103 -35l-62 -97
q-17 14 -35 14q-31 0 -39 -42l-23 -129h141l22 126q16 91 68.5 137t148.5 46q102 0 152 -56.5t31 -157.5l-30 -167q-8 -46 -24 -97l161 169h150l-173 -177l62 -125q8 -16 14.5 -20.5t19.5 -4.5h31l-17 -99h-48q-53 0 -76 18t-47 67l-42 85l-51 -45l-22 -125h-132l93 527
q17 95 -60 95q-37 0 -54 -19.5t-25 -65.5z" />
    <glyph glyph-name="fiacute" unicode="f&#xed;" horiz-adv-x="577" 
d="M430 500l80 188h158l-136 -188h-102zM252 317l-73 -414q-13 -73 -43.5 -94t-103.5 -21h-69l19 99h40q12 0 18 5t9 20l71 405h-70l19 109h70l27 152q14 78 53 117.5t113 39.5q68 0 117 -46l-77 -87q-16 15 -34 15q-17 0 -27 -9.5t-14 -32.5l-26 -149h273l-53 -302
q-4 -25 18 -25h30l-17 -99h-50q-75 0 -100.5 25t-12.5 98l34 194h-141z" />
    <glyph glyph-name="ficircumflex" unicode="f&#xee;" horiz-adv-x="577" 
d="M345 500l193 216h11l117 -216h-102l-43 72l-67 -72h-109zM252 317l-73 -414q-13 -73 -43.5 -94t-103.5 -21h-69l19 99h40q12 0 18 5t9 20l71 405h-70l19 109h70l27 152q14 78 53 117.5t113 39.5q68 0 117 -46l-77 -87q-16 15 -34 15q-17 0 -27 -9.5t-14 -32.5l-26 -149
h273l-53 -302q-4 -25 18 -25h30l-17 -99h-50q-75 0 -100.5 25t-12.5 98l34 194h-141z" />
    <glyph glyph-name="fidieresis" unicode="f&#xef;" horiz-adv-x="577" 
d="M602 484q-29 0 -50.5 20.5t-21.5 48.5t21.5 48.5t50.5 20.5q27 0 48 -20.5t21 -48.5t-21 -48.5t-48 -20.5zM426 484q-27 0 -48 20.5t-21 48.5t21 48.5t48 20.5q29 0 50.5 -20.5t21.5 -48.5t-21.5 -48.5t-50.5 -20.5zM252 317l-73 -414q-13 -73 -43.5 -94t-103.5 -21h-69
l19 99h40q12 0 18 5t9 20l71 405h-70l19 109h70l27 152q14 79 51 118t108 39q58 0 96 -30l-70 -93q-7 5 -19 5q-15 0 -23 -9t-12 -33l-26 -149h273l-53 -302q-4 -25 18 -25h30l-17 -99h-50q-75 0 -100.5 25t-12.5 98l34 194h-141z" />
    <glyph glyph-name="ffiacute" unicode="ff&#xed;" horiz-adv-x="850" 
d="M703 500l80 188h158l-136 -188h-102zM525 317l-69 -389q-13 -73 -43.5 -94t-103.5 -21h-61l19 99h32q12 0 18 5t9 20l67 380h-141l-73 -414q-13 -73 -43.5 -94t-103.5 -21h-69l19 99h40q12 0 18 5t9 20l71 405h-70l19 109h70l24 132q14 78 53 117.5t111 39.5q61 0 98 -33
l-57 -99q-17 14 -35 14q-31 0 -39 -42l-23 -129h141l27 152q14 78 53.5 117.5t112.5 39.5q68 0 117 -46l-77 -87q-17 15 -34 15t-27 -9.5t-14 -32.5l-27 -149h274l-53 -302q-4 -25 18 -25h30l-17 -99h-50q-75 0 -100.5 25t-12.5 98l34 194h-141z" />
    <glyph glyph-name="fficircumflex" unicode="ff&#xee;" horiz-adv-x="850" 
d="M618 500l193 216h11l117 -216h-102l-43 72l-67 -72h-109zM525 317l-69 -389q-13 -73 -43.5 -94t-103.5 -21h-61l19 99h32q12 0 18 5t9 20l67 380h-141l-73 -414q-13 -73 -43.5 -94t-103.5 -21h-69l19 99h40q12 0 18 5t9 20l71 405h-70l19 109h70l24 132q14 78 53 117.5
t111 39.5q61 0 98 -33l-57 -99q-17 14 -35 14q-31 0 -39 -42l-23 -129h141l27 152q14 78 53.5 117.5t112.5 39.5q68 0 117 -46l-77 -87q-17 15 -34 15t-27 -9.5t-14 -32.5l-27 -149h274l-53 -302q-4 -25 18 -25h30l-17 -99h-50q-75 0 -100.5 25t-12.5 98l34 194h-141z" />
    <glyph glyph-name="ffidieresis" unicode="ff&#xef;" horiz-adv-x="850" 
d="M875 484q-29 0 -50.5 20.5t-21.5 48.5t21.5 48.5t50.5 20.5q27 0 48 -20.5t21 -48.5t-21 -48.5t-48 -20.5zM699 484q-27 0 -48 20.5t-21 48.5t21 48.5t48 20.5q29 0 50.5 -20.5t21.5 -48.5t-21.5 -48.5t-50.5 -20.5zM525 317l-69 -389q-13 -73 -43.5 -94t-103.5 -21h-61
l19 99h32q12 0 18 5t9 20l67 380h-141l-73 -414q-13 -73 -43.5 -94t-103.5 -21h-69l19 99h40q12 0 18 5t9 20l71 405h-70l19 109h70l24 132q14 78 53 117.5t111 39.5q61 0 98 -33l-57 -99q-17 14 -35 14q-31 0 -39 -42l-23 -129h141l27 152q14 79 51 118t108 39q58 0 96 -30
l-70 -93q-8 5 -19 5q-15 0 -23 -9t-12 -33l-27 -149h274l-53 -302q-4 -25 18 -25h30l-17 -99h-50q-75 0 -100.5 25t-12.5 98l34 194h-141z" />
    <glyph glyph-name="tt" unicode="tt" horiz-adv-x="657" 
d="M407 317h-164l-28 -161q-10 -53 25 -53q21 0 46 15l42 -93q-46 -34 -111 -34q-72 0 -110.5 39t-22.5 130l28 157h-62l19 109h62l39 222h131l-39 -222h164l39 222h131l-39 -222h103l-19 -109h-103l-28 -161q-10 -53 25 -53q21 0 46 15l42 -93q-46 -34 -111 -34
q-72 0 -110.5 39t-22.5 130z" />
    <glyph glyph-name="fffi" unicode="fffi" horiz-adv-x="1121" 
d="M1051 504q-32 0 -55 22t-23 56t22.5 55.5t54.5 21.5q33 0 56 -21.5t23 -55.5q0 -35 -22.5 -56.5t-55.5 -21.5zM797 317l-69 -389q-13 -73 -43.5 -94t-103.5 -21h-61l19 99h32q12 0 18 5t9 20l67 380h-141l-71 -404q-13 -73 -43.5 -94t-103.5 -21h-69l19 99h40q12 0 18 5
t9 20l70 395h-141l-73 -414q-13 -73 -43.5 -94t-103.5 -21h-69l19 99h40q12 0 18 5t9 20l71 405h-70l19 109h70l24 132q14 78 53 117.5t111 39.5q61 0 98 -33l-57 -99q-17 14 -35 14q-31 0 -39 -42l-23 -129h141l25 142q14 78 53 117.5t111 39.5q61 0 98 -33l-57 -99
q-17 14 -35 14q-31 0 -39 -42l-25 -139h141l27 152q14 78 53.5 117.5t112.5 39.5q68 0 117 -46l-77 -87q-16 15 -34 15q-17 0 -27 -9.5t-14 -32.5l-26 -149h273l-53 -302q-4 -25 18 -25h30l-17 -99h-50q-75 0 -100.5 25t-12.5 98l34 194h-141z" />
    <glyph glyph-name="fffl" unicode="fffl" horiz-adv-x="1122" 
d="M665 317h-141l-71 -404q-13 -73 -43.5 -94t-103.5 -21h-69l19 99h40q12 0 18 5t9 20l69 395h-140l-73 -414q-13 -73 -43.5 -94t-103.5 -21h-69l19 99h40q12 0 18 5t9 20l71 405h-70l19 109h70l24 132q14 78 53 117.5t111 39.5q61 0 98 -33l-57 -99q-17 14 -35 14
q-31 0 -39 -42l-23 -129h141l25 142q14 78 53 117.5t111 39.5q61 0 98 -33l-57 -99q-17 14 -35 14q-31 0 -39 -42l-25 -139h141l22 126q16 91 68.5 137t148.5 46q102 0 151.5 -56.5t31.5 -157.5l-70 -397q-4 -25 18 -25h38l-17 -99h-58q-75 0 -100.5 25t-12.5 98l71 404
q17 95 -60 95q-37 0 -54 -19.5t-25 -65.5l-20 -111h93l-19 -109h-93l-69 -389q-13 -73 -43.5 -94t-103.5 -21h-61l19 99h32q12 0 18 5t9 20z" />
    <glyph glyph-name=".notdef" horiz-adv-x="206" 
 />
    <glyph glyph-name=".null" horiz-adv-x="0" 
 />
    <glyph glyph-name="nonmarkingreturn" horiz-adv-x="333" 
 />
    <glyph glyph-name="CR" unicode="&#xd;" horiz-adv-x="206" 
 />
    <glyph glyph-name="space" unicode=" " horiz-adv-x="206" 
 />
    <glyph glyph-name="exclam" unicode="!" horiz-adv-x="269" 
d="M82 231l63 449h148l-109 -449h-102zM112 -6q-34 0 -57.5 23.5t-23.5 59.5q0 35 23.5 59t57.5 24t58 -24t24 -59q0 -36 -24 -59.5t-58 -23.5z" />
    <glyph glyph-name="quotedbl" unicode="&#x22;" horiz-adv-x="400" 
d="M278 433l28 247h143l-63 -247h-108zM90 433l29 247h141l-62 -247h-108z" />
    <glyph glyph-name="numbersign" unicode="#" horiz-adv-x="475" 
d="M139 421h-68l18 101h75l25 97h103l-25 -97h71l25 97h103l-25 -97h58l-18 -101h-65l-19 -77h70l-18 -101h-77l-25 -101h-103l25 101h-71l-25 -101h-103l25 101h-56l18 101h63zM313 421h-71l-19 -77h71z" />
    <glyph glyph-name="dollar" unicode="$" horiz-adv-x="476" 
d="M161 -3q-120 22 -169 125l103 52q28 -58 84 -75l20 116q-80 27 -113.5 67t-33.5 98q0 71 52.5 111t136.5 40h13l18 100h65l-19 -109q82 -21 126 -86l-91 -63q-19 34 -53 48l-18 -102q81 -26 121 -66.5t40 -102.5q0 -81 -60 -120t-158 -39l-19 -107h-65zM237 433
q-64 -3 -64 -45q0 -33 48 -50zM242 92q76 6 76 49q0 19 -12.5 31.5t-44.5 23.5z" />
    <glyph glyph-name="percent" unicode="%" horiz-adv-x="876" 
d="M213 217q-69 0 -113.5 44.5t-44.5 108.5q0 71 47.5 116t115.5 45q70 0 114 -43t44 -107q0 -71 -47.5 -117.5t-115.5 -46.5zM175 0l419 522h127l-419 -522h-127zM678 -9q-69 0 -113.5 44.5t-44.5 108.5q0 71 47.5 116t115.5 45q70 0 114 -43t44 -107q0 -71 -47.5 -117.5
t-115.5 -46.5zM214 314q22 0 37.5 18t15.5 45q0 28 -14 42.5t-35 14.5q-23 0 -38 -17t-15 -46q0 -26 14.5 -41.5t34.5 -15.5zM679 88q22 0 37.5 18t15.5 45q0 28 -14 42.5t-35 14.5q-23 0 -38 -17t-15 -46q0 -26 14.5 -41.5t34.5 -15.5z" />
    <glyph glyph-name="ampersand" unicode="&#x26;" horiz-adv-x="681" 
d="M386 366l85 -135q31 56 40 130h121q-18 -140 -93 -236q12 -13 34 -13h58l-20 -112h-55q-74 0 -114 39q-79 -48 -167 -48q-116 0 -179.5 54t-63.5 137q0 71 44.5 121t134.5 91q-32 62 -32 128q0 74 51 120t137 46q71 0 117.5 -42t46.5 -107q0 -107 -145 -173zM337 443
q76 35 76 89q0 22 -13 37.5t-34 15.5q-25 0 -40.5 -17.5t-15.5 -44.5q0 -38 23 -74zM374 133l-114 180q-83 -45 -83 -121q0 -36 26 -59.5t71 -23.5q55 0 100 24z" />
    <glyph glyph-name="quotesingle" unicode="'" horiz-adv-x="211" 
d="M90 433l29 247h141l-62 -247h-108z" />
    <glyph glyph-name="parenleft" unicode="(" horiz-adv-x="337" 
d="M174 -133q-51 66 -85.5 155.5t-34.5 189.5q0 97 23.5 179.5t67 144.5t83 102.5t92.5 80.5l62 -71q-191 -174 -191 -438q0 -160 71 -289z" />
    <glyph glyph-name="parenright" unicode=")" horiz-adv-x="337" 
d="M50 -133l-64 71q191 174 191 438q0 160 -71 289l88 54q51 -66 85.5 -155.5t34.5 -189.5q0 -97 -23.5 -179.5t-66.5 -144.5t-82.5 -102.5t-91.5 -80.5z" />
    <glyph glyph-name="asterisk" unicode="*" horiz-adv-x="414" 
d="M190 358l42 114l-90 -72l-46 103l114 20l-109 42l66 92l74 -89l-20 112h117l-42 -114l88 76l46 -105l-115 -20l110 -42l-66 -91l-72 86l20 -112h-117z" />
    <glyph glyph-name="plus" unicode="+" horiz-adv-x="403" 
d="M261 213l-20 -112h-114l20 112h-107l20 110h106l20 112h114l-20 -112h106l-20 -110h-105z" />
    <glyph glyph-name="comma" unicode="," horiz-adv-x="240" 
d="M-1 -114l62 119q-44 24 -44 74q0 34 23.5 57.5t57.5 23.5t57.5 -24t23.5 -59q0 -36 -35 -83l-79 -108h-66z" />
    <glyph glyph-name="hyphen" unicode="-" horiz-adv-x="292" 
d="M29 184l21 116h226l-21 -116h-226z" />
    <glyph glyph-name="hyphen" unicode="&#xad;" horiz-adv-x="292" 
d="M29 184l21 116h226l-21 -116h-226z" />
    <glyph glyph-name="period" unicode="." horiz-adv-x="240" 
d="M98 -6q-34 0 -57.5 23.5t-23.5 59.5q0 35 23.5 59t57.5 24t57.5 -24t23.5 -59q0 -36 -23.5 -59.5t-57.5 -23.5z" />
    <glyph glyph-name="slash" unicode="/" horiz-adv-x="396" 
d="M-73 -128l422 850h131l-422 -850h-131z" />
    <glyph glyph-name="zero" unicode="0" horiz-adv-x="612" 
d="M307 -9q-111 0 -187.5 74.5t-76.5 188.5q0 126 85.5 201.5t196.5 75.5t187.5 -74.5t76.5 -188.5q0 -126 -85.5 -201.5t-196.5 -75.5zM310 108q60 0 99.5 42t39.5 118q0 67 -35 106.5t-92 39.5q-59 0 -99 -42.5t-40 -117.5q0 -67 35 -106.5t92 -39.5z" />
    <glyph glyph-name="one" unicode="1" horiz-adv-x="321" 
d="M84 0l73 413h-96l19 109h230l-92 -522h-134z" />
    <glyph glyph-name="two" unicode="2" horiz-adv-x="475" 
d="M-7 0v12l221 208q57 53 77.5 80.5t20.5 57.5q0 24 -14 39.5t-42 15.5q-55 0 -84 -71l-122 31q26 83 82.5 120.5t130.5 37.5q91 0 138 -46.5t47 -112.5q0 -54 -27 -96.5t-91 -102.5l-36 -34q-8 -8 -21 -16.5t-22 -12.5l-9 -5q37 5 57 5h129l-19 -110h-416z" />
    <glyph glyph-name="three" unicode="3" horiz-adv-x="509" 
d="M219 -103q-91 0 -150.5 39.5t-85.5 99.5l119 59q34 -81 114 -81q44 0 74.5 26.5t30.5 77.5q0 45 -31 74.5t-82 29.5q-44 0 -84 -19l-8 12l137 158q10 11 22 22.5t19 17.5l8 6q-38 -5 -66 -5h-145l19 108h399v-11l-145 -168q-8 -9 -19 -18.5l-17 -14.5l-7 -5
q55 -13 98 -61.5t43 -127.5q0 -94 -64.5 -156.5t-178.5 -62.5z" />
    <glyph glyph-name="four" unicode="4" horiz-adv-x="543" 
d="M422 100h69l-18 -100h-69l-16 -94h-133l17 94h-284l16 92l480 436h14zM290 100l16 92l20 66q-26 -30 -47 -49l-84 -76q-10 -9 -22 -18t-19 -13l-7 -5q27 3 55 3h88z" />
    <glyph glyph-name="five" unicode="5" horiz-adv-x="485" 
d="M203 -103q-86 0 -142 38.5t-78 96.5l121 54q27 -72 94 -72q49 0 73 26.5t24 70.5q0 41 -27.5 68.5t-78.5 27.5q-58 0 -117 -39l-8 5l61 349h336l-19 -108h-222l-18 -104q20 5 40 5q88 0 142 -58t54 -141q0 -94 -62.5 -156.5t-172.5 -62.5z" />
    <glyph glyph-name="six" unicode="6" horiz-adv-x="523" 
d="M255 -9q-96 0 -158.5 59t-62.5 152q0 95 101 208l178 199h155l-151 -168q-10 -11 -31.5 -26t-37.5 -24l-16 -9q34 15 76 15q74 0 127.5 -54t53.5 -138q0 -99 -66.5 -156.5t-167.5 -57.5zM259 107q42 0 67.5 28t25.5 70q0 39 -24 65.5t-64 26.5q-43 0 -68.5 -27.5
t-25.5 -69.5q0 -39 24.5 -66t64.5 -27z" />
    <glyph glyph-name="seven" unicode="7" horiz-adv-x="480" 
d="M13 -94l299 508h-245l19 108h425v-11l-355 -605h-143z" />
    <glyph glyph-name="eight" unicode="8" horiz-adv-x="529" 
d="M183 359q-57 38 -56 105q0 62 51 108t135 46q80 0 131.5 -44.5t51.5 -108.5q0 -89 -101 -126q98 -50 97 -154q0 -87 -63 -140.5t-169 -53.5q-99 0 -164 56.5t-65 138.5q0 70 41 113.5t111 59.5zM310 397q23 0 39 16.5t16 41.5q0 24 -14.5 39.5t-39.5 15.5
q-24 0 -40 -15.5t-16 -40.5q0 -24 15 -40.5t40 -16.5zM260 106q43 0 68.5 28t25.5 70q0 39 -24.5 65.5t-64.5 26.5q-42 0 -68 -29t-26 -71q0 -39 24.5 -64.5t64.5 -25.5z" />
    <glyph glyph-name="nine" unicode="9" horiz-adv-x="523" 
d="M72 -94l156 171q13 15 34.5 31.5t36.5 25.5l15 9q-33 -18 -77 -18q-75 0 -129 53t-54 137q0 99 66.5 157.5t165.5 58.5q97 0 160 -58t63 -153q0 -100 -111 -224l-169 -190h-157zM279 225q43 0 68.5 28t25.5 70q0 41 -24 66.5t-65 25.5q-43 0 -68 -28t-25 -70
q0 -41 24 -66.5t64 -25.5z" />
    <glyph glyph-name="colon" unicode=":" horiz-adv-x="246" 
d="M141 226q-34 0 -57.5 23.5t-23.5 59.5q0 35 24 59t57 24t57 -24t24 -59q0 -36 -23.5 -59.5t-57.5 -23.5zM101 -6q-34 0 -57.5 23.5t-23.5 59.5q0 35 24 59t57 24t57 -24t24 -59q0 -36 -23.5 -59.5t-57.5 -23.5z" />
    <glyph glyph-name="semicolon" unicode=";" horiz-adv-x="246" 
d="M141 226q-34 0 -57.5 23.5t-23.5 59.5q0 35 24 59t57 24t57 -24t24 -59q0 -36 -23.5 -59.5t-57.5 -23.5zM2 -114l62 119q-44 24 -44 74q0 34 23.5 57.5t57.5 23.5q33 0 57 -24t24 -59q0 -36 -35 -83l-79 -108h-66z" />
    <glyph glyph-name="semicolon" unicode="&#x37e;" horiz-adv-x="246" 
d="M141 226q-34 0 -57.5 23.5t-23.5 59.5q0 35 24 59t57 24t57 -24t24 -59q0 -36 -23.5 -59.5t-57.5 -23.5zM2 -114l62 119q-44 24 -44 74q0 34 23.5 57.5t57.5 23.5q33 0 57 -24t24 -59q0 -36 -35 -83l-79 -108h-66z" />
    <glyph glyph-name="less" unicode="&#x3c;" horiz-adv-x="351" 
d="M292 72l-261 166v11l321 165l-21 -120l-124 -56l104 -56z" />
    <glyph glyph-name="equal" unicode="=" horiz-adv-x="397" 
d="M48 279l20 115h327l-20 -115h-327zM19 115l21 115h327l-21 -115h-327z" />
    <glyph glyph-name="greater" unicode="&#x3e;" horiz-adv-x="351" 
d="M13 72l21 120l124 56l-104 56l19 110l261 -166v-11z" />
    <glyph glyph-name="question" unicode="?" horiz-adv-x="503" 
d="M201 231l28 159h35q58 0 87 27.5t29 70.5q0 37 -21.5 60t-58.5 23q-61 0 -103 -65l-102 60q27 53 82.5 87.5t124.5 34.5q100 0 155.5 -57t55.5 -144q0 -80 -50.5 -132t-127.5 -62l-11 -62h-123zM238 -6q-34 0 -57.5 23.5t-23.5 59.5q0 35 23.5 59t57.5 24t58 -24t24 -59
q0 -36 -24 -59.5t-58 -23.5z" />
    <glyph glyph-name="at" unicode="@" horiz-adv-x="896" 
d="M448 -207q-190 0 -301.5 109.5t-111.5 279.5q0 127 60 225.5t158 149.5t214 51q181 0 289 -104t108 -258q0 -125 -54.5 -187.5t-147.5 -62.5q-51 0 -85 22.5t-47 56.5q-40 -84 -124 -84q-75 0 -122 53t-47 137q0 94 52 152t125 58q85 0 119 -78l9 68h126l-39 -219
q-14 -73 39 -73q36 0 60.5 38.5t24.5 121.5q0 123 -79.5 191.5t-206.5 68.5q-136 0 -224.5 -91t-88.5 -237q0 -131 77.5 -210t218.5 -79q80 0 153 24l35 -91q-75 -32 -190 -32zM443 97q31 0 51 28.5t20 70.5q0 36 -19 61.5t-47 25.5q-34 0 -54.5 -26t-20.5 -74
q0 -41 19 -63.5t51 -22.5z" />
    <glyph glyph-name="A" unicode="A" horiz-adv-x="651" 
d="M169 79l-47 -79h-137l414 686h11l184 -686h-139l-20 79h-266zM407 188l-31 123q-6 24 -10.5 52t-5.5 44l-1 16q-20 -57 -52 -111l-73 -124h173z" />
    <glyph glyph-name="B" unicode="B" horiz-adv-x="598" 
d="M32 0l120 680h224q87 0 135 -47.5t48 -122.5q0 -50 -27.5 -88.5t-82.5 -55.5q51 -17 81 -56t30 -92q0 -98 -66 -158t-175 -60h-287zM244 427h100q36 0 57 19t21 54q0 27 -17 44t-46 17h-91zM190 119h123q50 0 78 27.5t28 76.5q0 42 -23 65.5t-68 23.5h-104z" />
    <glyph glyph-name="C" unicode="C" horiz-adv-x="707" 
d="M393 -9q-139 0 -232 96.5t-93 238.5q0 155 106 258.5t253 103.5q97 0 159.5 -34t111.5 -106l-112 -73q-57 91 -163 91q-93 0 -152.5 -69.5t-59.5 -171.5q0 -93 53.5 -152.5t133.5 -59.5q105 0 167 78l103 -79q-103 -121 -275 -121z" />
    <glyph glyph-name="D" unicode="D" horiz-adv-x="667" 
d="M32 0l120 680h178q149 0 234 -85t85 -229q0 -170 -106.5 -268t-278.5 -98h-232zM190 120h77q117 0 178.5 69.5t61.5 182.5q0 89 -48 138.5t-146 49.5h-45z" />
    <glyph glyph-name="E" unicode="E" horiz-adv-x="576" 
d="M32 0l120 680h441l-21 -120h-305l-39 -220h267l-21 -118h-267l-18 -102h319l-22 -120h-454z" />
    <glyph glyph-name="F" unicode="F" horiz-adv-x="542" 
d="M32 0l120 680h429l-21 -120h-292l-40 -228h265l-22 -122h-265l-37 -210h-137z" />
    <glyph glyph-name="G" unicode="G" horiz-adv-x="747" 
d="M421 -9q-162 0 -255.5 92.5t-93.5 243.5q0 161 107 261t257 100q91 0 148 -22.5t102 -66.5l-96 -93q-62 60 -157 60t-157.5 -64.5t-62.5 -173.5q0 -100 55 -158t155 -58q71 0 127 26l19 107h-161l21 119h286l-53 -303q-102 -70 -241 -70z" />
    <glyph glyph-name="H" unicode="H" horiz-adv-x="695" 
d="M512 332l62 348h137l-120 -680h-137l37 211h-285l-37 -211h-137l120 680h137l-61 -348h284z" />
    <glyph glyph-name="I" unicode="I" horiz-adv-x="281" 
d="M36 0l120 680h137l-120 -680h-137z" />
    <glyph glyph-name="J" unicode="J" horiz-adv-x="486" 
d="M198 -9q-76 0 -126.5 37t-72.5 92l119 65q16 -34 34 -52.5t49 -18.5q35 0 54.5 19t28.5 71l84 476h137l-87 -493q-18 -105 -72 -150.5t-148 -45.5z" />
    <glyph glyph-name="K" unicode="K" horiz-adv-x="636" 
d="M208 313q59 96 95 136l207 231h159l-281 -312l197 -368h-152l-147 277l-83 -84l-34 -193h-137l120 680h137l-39 -220q-8 -49 -42 -147z" />
    <glyph glyph-name="L" unicode="L" horiz-adv-x="544" 
d="M32 0l120 680h137l-99 -560h302l-21 -120h-439z" />
    <glyph glyph-name="M" unicode="M" horiz-adv-x="810" 
d="M32 0l121 687h10l255 -370l396 370h12l-121 -687h-131l45 255l27 124q-46 -63 -86 -101l-159 -151h-11l-106 151q-12 17 -27 42l-25 42l-9 17q-7 -78 -15 -124l-45 -255h-131z" />
    <glyph glyph-name="N" unicode="N" horiz-adv-x="683" 
d="M565 -6l-276 331q-14 17 -29.5 41.5t-24.5 40.5l-9 16q-4 -77 -13 -125l-53 -298h-128l121 686h13l277 -332q14 -16 29.5 -40.5t24.5 -41.5l9 -16q3 72 12 125l53 299h128l-121 -686h-13z" />
    <glyph glyph-name="O" unicode="O" horiz-adv-x="780" 
d="M398 -9q-141 0 -235.5 95t-94.5 242q0 161 105 260.5t256 99.5q141 0 236 -95t95 -242q0 -161 -105.5 -260.5t-256.5 -99.5zM403 113q98 0 157 65.5t59 175.5q0 96 -54 154t-140 58q-98 0 -157 -65.5t-59 -175.5q0 -96 54 -154t140 -58z" />
    <glyph glyph-name="P" unicode="P" horiz-adv-x="583" 
d="M196 155l-27 -155h-137l120 680h164q128 0 200 -66.5t72 -178.5q0 -132 -87 -206t-235 -74h-70zM217 274h53q177 0 177 161q0 126 -143 126h-36z" />
    <glyph glyph-name="Q" unicode="Q" horiz-adv-x="780" 
d="M649 89l75 -98l-102 -79l-82 107q-60 -28 -142 -28q-141 0 -235.5 95t-94.5 242q0 161 105 260.5t256 99.5q141 0 236 -95t95 -242q0 -156 -111 -262zM465 117l-69 91l102 79l76 -100q45 60 45 167q0 96 -54 154t-140 58q-98 0 -157 -65.5t-59 -175.5q0 -96 54 -155.5
t140 -59.5q35 0 62 7z" />
    <glyph glyph-name="R" unicode="R" horiz-adv-x="602" 
d="M426 204l108 -204h-144l-90 170q-10 -1 -31 -1h-70l-30 -169h-137l120 680h151q131 0 204.5 -63.5t73.5 -178.5q0 -80 -39 -143t-116 -91zM219 287h52q169 0 169 151q0 123 -151 123h-22z" />
    <glyph glyph-name="S" unicode="S" horiz-adv-x="526" 
d="M251 -9q-89 0 -155.5 41.5t-94.5 96.5l108 73q56 -91 142 -91q43 0 70 19.5t27 52.5q0 27 -17.5 45t-67.5 51l-32 21q-67 44 -97.5 89.5t-30.5 110.5q0 81 55 134.5t157 53.5q118 0 185 -85l-98 -84q-41 51 -94 51q-34 0 -52 -18.5t-18 -45.5q0 -25 15.5 -43.5
t54.5 -43.5l33 -21q77 -49 112 -93t35 -112q0 -98 -66 -150t-171 -52z" />
    <glyph glyph-name="T" unicode="T" horiz-adv-x="575" 
d="M184 0l99 560h-191l21 120h518l-21 -120h-189l-99 -560h-138z" />
    <glyph glyph-name="U" unicode="U" horiz-adv-x="669" 
d="M323 -9q-125 0 -196.5 77.5t-49.5 201.5l72 410h138l-74 -420q-13 -72 17.5 -109.5t99.5 -37.5q63 0 97 32.5t46 100.5l77 434h138l-81 -456q-21 -115 -94.5 -174t-189.5 -59z" />
    <glyph glyph-name="V" unicode="V" horiz-adv-x="647" 
d="M297 -6l-194 686h139l69 -255q8 -28 15.5 -71t11.5 -72l3 -29q43 104 78 165l151 262h142l-401 -686h-14z" />
    <glyph glyph-name="W" unicode="W" horiz-adv-x="934" 
d="M231 -6l-128 686h142l45 -264l15 -137q32 78 64 128l177 279h14l74 -271q6 -22 13 -56t11 -57l4 -23q27 79 53 128l144 273h140l-366 -686h-13l-88 320q-5 20 -10.5 49.5t-7.5 48.5l-3 20q-31 -69 -57 -110l-210 -328h-13z" />
    <glyph glyph-name="X" unicode="X" horiz-adv-x="642" 
d="M-13 0l284 374l-127 306h148l44 -110q7 -18 14.5 -45t11.5 -45l4 -19q30 64 58 102l87 117h149l-232 -307l155 -373h-148l-70 175q-7 17 -15 45t-12 47l-4 19q-33 -67 -62 -105l-136 -181h-149z" />
    <glyph glyph-name="Y" unicode="Y" horiz-adv-x="664" 
d="M272 217l-170 463h145l78 -219q8 -23 16 -57t12 -56l4 -22q37 85 72 135l152 219h149l-320 -457l-39 -223h-137z" />
    <glyph glyph-name="Z" unicode="Z" horiz-adv-x="595" 
d="M2 0v12l389 549h-253l21 119h462v-12l-390 -549h291l-21 -119h-499z" />
    <glyph glyph-name="bracketleft" unicode="[" horiz-adv-x="330" 
d="M0 -128l150 850h242l-19 -111h-110l-111 -628h110l-20 -111h-242z" />
    <glyph glyph-name="backslash" unicode="\" horiz-adv-x="396" 
d="M227 -128l-129 850h124l129 -850h-124z" />
    <glyph glyph-name="bracketright" unicode="]" horiz-adv-x="330" 
d="M-30 -128l20 111h110l111 628h-110l19 111h242l-150 -850h-242z" />
    <glyph glyph-name="asciicircum" unicode="^" horiz-adv-x="430" 
d="M96 447l199 240h10l115 -240h-102l-45 76l-69 -76h-108z" />
    <glyph glyph-name="underscore" unicode="_" horiz-adv-x="277" 
d="M-61 -128l21 117h281l-21 -117h-281z" />
    <glyph glyph-name="grave" unicode="`" horiz-adv-x="490" 
d="M226 500l-91 188h152l39 -188h-100z" />
    <glyph glyph-name="a" unicode="a" horiz-adv-x="532" 
d="M200 -9q-71 0 -119 56t-48 148q0 111 58.5 175.5t143.5 64.5q96 0 137 -77l9 68h132l-53 -302q-4 -25 18 -25h30l-17 -99h-50q-66 0 -88 14.5t-28 44.5l-1 5q-26 -39 -53.5 -56t-70.5 -17zM253 105q42 0 68 32.5t26 83.5q0 46 -21.5 72.5t-60.5 26.5q-43 0 -68.5 -32.5
t-25.5 -86.5q0 -45 21.5 -70.5t60.5 -25.5z" />
    <glyph glyph-name="b" unicode="b" horiz-adv-x="536" 
d="M304 -9q-102 0 -146 88l-10 -79h-132l127 722h132l-62 -353q49 66 121 66q74 0 123 -56t49 -148q0 -107 -59.5 -173.5t-142.5 -66.5zM269 105q46 0 72.5 32.5t26.5 86.5q0 45 -23 70.5t-64 25.5q-44 0 -71.5 -32.5t-27.5 -83.5q0 -45 23 -72t64 -27z" />
    <glyph glyph-name="c" unicode="c" horiz-adv-x="455" 
d="M259 -9q-99 0 -161.5 59.5t-62.5 158.5q0 100 67 163t168 63q118 0 179 -85l-97 -76q-29 46 -83 46q-44 0 -70.5 -31t-26.5 -80t22 -76.5t65 -27.5t81 32l76 -87q-59 -59 -157 -59z" />
    <glyph glyph-name="d" unicode="d" horiz-adv-x="542" 
d="M205 -9q-73 0 -122.5 56t-49.5 148q0 111 60 175.5t147 64.5q97 0 140 -72l63 359h132l-105 -598q-4 -25 18 -25h30l-17 -99h-50q-66 0 -89 15t-27 46l-1 7q-43 -77 -129 -77zM258 105q44 0 71.5 32.5t27.5 83.5q0 45 -23 72t-64 27q-46 0 -72.5 -32.5t-26.5 -86.5
q0 -45 23 -70.5t64 -25.5z" />
    <glyph glyph-name="e" unicode="e" horiz-adv-x="515" 
d="M173 162q22 -63 105 -63q55 0 101 36l80 -84q-73 -60 -182 -60q-113 0 -177 61t-64 158q0 100 65.5 162.5t163.5 62.5q109 0 163.5 -64t60.5 -175zM168 236l177 19q-2 35 -22.5 55t-56.5 20q-88 0 -98 -94z" />
    <glyph glyph-name="f" unicode="f" horiz-adv-x="372" 
d="M120 317h-70l19 109h70l27 152q28 157 169 157q79 0 125 -54l-77 -87q-16 23 -42 23q-36 0 -44 -42l-26 -149h110l-19 -109h-110l-73 -414q-13 -73 -43.5 -94t-103.5 -21h-69l19 99h40q12 0 18 5t9 20z" />
    <glyph glyph-name="g" unicode="g" horiz-adv-x="535" 
d="M198 -222q-71 0 -125 24.5t-82 57.5l88 85q48 -55 120 -55q98 0 118 111l10 56q-47 -66 -121 -66q-73 0 -122.5 56t-49.5 148q0 111 60 175.5t147 64.5q101 0 142 -77l9 68h132l-78 -444q-35 -204 -248 -204zM259 105q44 0 71.5 32.5t27.5 83.5q0 45 -23 72t-64 27
q-46 0 -72.5 -32.5t-26.5 -86.5q0 -45 23 -70.5t64 -25.5z" />
    <glyph glyph-name="h" unicode="h" horiz-adv-x="525" 
d="M16 0l127 722h132l-65 -369q53 82 135 82q71 0 107.5 -55t20.5 -144l-20 -112q-4 -25 18 -25h30l-17 -99h-43q-72 0 -101.5 29t-17.5 99l18 104q15 86 -60 86q-40 0 -61.5 -20.5t-29.5 -66.5l-41 -231h-132z" />
    <glyph glyph-name="i" unicode="i" horiz-adv-x="260" 
d="M190 500q-34 0 -58 23t-24 59q0 35 23.5 58t57.5 23t58.5 -23t24.5 -58q0 -36 -24 -59t-58 -23zM156 0q-75 0 -100.5 25t-12.5 98l53 303h132l-53 -302q-4 -25 18 -25h30l-17 -99h-50z" />
    <glyph glyph-name="j" unicode="j" horiz-adv-x="257" 
d="M190 500q-34 0 -58 23t-24 59q0 35 23.5 58t57.5 23t58.5 -23t24.5 -58q0 -36 -24 -59t-58 -23zM-17 -222q-77 0 -120 48l68 82q16 -18 41 -18q30 0 36 37l88 499h132l-87 -494q-27 -154 -158 -154z" />
    <glyph glyph-name="k" unicode="k" horiz-adv-x="491" 
d="M170 125l-22 -125h-132l127 722h132l-65 -368q-8 -46 -24 -97l161 169h150l-173 -177l62 -125q8 -16 14.5 -20.5t19.5 -4.5h31l-17 -99h-48q-53 0 -76 18t-47 67l-42 85z" />
    <glyph glyph-name="l" unicode="l" horiz-adv-x="260" 
d="M156 0q-75 0 -100.5 25t-12.5 98l105 599h132l-105 -598q-4 -25 18 -25h38l-17 -99h-58z" />
    <glyph glyph-name="m" unicode="m" horiz-adv-x="774" 
d="M16 0l75 426h132l-15 -69q50 78 131 78q83 0 112 -80q53 80 147 80q71 0 105.5 -54.5t18.5 -144.5l-20 -112q-4 -25 18 -25h30l-17 -99h-50q-75 0 -100.5 25t-12.5 98l19 109q15 86 -49 86q-37 0 -56.5 -20.5t-27.5 -66.5l-41 -231h-132l41 232q15 86 -50 86
q-38 0 -57.5 -20.5t-27.5 -66.5l-41 -231h-132z" />
    <glyph glyph-name="n" unicode="n" horiz-adv-x="525" 
d="M16 0l75 426h132l-16 -77q52 86 138 86q71 0 107.5 -55t20.5 -144l-20 -112q-4 -25 18 -25h30l-17 -99h-50q-75 0 -100.5 25t-12.5 98l19 109q15 86 -60 86q-40 0 -61.5 -20.5t-29.5 -66.5l-41 -231h-132z" />
    <glyph glyph-name="o" unicode="o" horiz-adv-x="530" 
d="M260 -9q-95 0 -160 61.5t-65 154.5q0 102 68 165t169 63q96 0 160.5 -61t64.5 -156q0 -101 -68 -164t-169 -63zM264 103q45 0 71 32t26 84q0 47 -25 74.5t-68 27.5q-45 0 -71 -32t-26 -84q0 -47 25 -74.5t68 -27.5z" />
    <glyph glyph-name="p" unicode="p" horiz-adv-x="536" 
d="M-21 -212l112 638h132l-14 -62q52 71 125 71q74 0 123 -56t49 -148q0 -107 -59.5 -173.5t-142.5 -66.5q-99 0 -143 83l-50 -286h-132zM269 105q46 0 72.5 32.5t26.5 86.5q0 45 -23 70.5t-64 25.5q-44 0 -71.5 -32.5t-27.5 -83.5q0 -45 23 -72t64 -27z" />
    <glyph glyph-name="q" unicode="q" horiz-adv-x="539" 
d="M413 -212q-75 0 -100.5 25t-12.5 98l26 146q-47 -66 -121 -66q-73 0 -122.5 56t-49.5 148q0 111 60 175.5t147 64.5q101 0 142 -77l9 68h132l-91 -514q-4 -25 18 -25h30l-17 -99h-50zM258 105q44 0 71.5 32.5t27.5 83.5q0 45 -23 72t-64 27q-46 0 -72.5 -32.5
t-26.5 -86.5q0 -45 23 -70.5t64 -25.5z" />
    <glyph glyph-name="r" unicode="r" horiz-adv-x="379" 
d="M16 0l75 426h132l-17 -82q52 91 131 91q34 0 64 -17l-50 -121q-22 14 -55 14q-47 0 -75 -26.5t-40 -95.5l-33 -189h-132z" />
    <glyph glyph-name="s" unicode="s" horiz-adv-x="413" 
d="M186 -9q-126 0 -182 88l91 64q35 -49 94 -49q51 0 51 26q0 4 -1 7t-4 5.5t-6.5 5t-11 6l-14 6.5t-19.5 8.5l-24 10.5q-48 22 -72.5 52t-24.5 77q0 65 44.5 101t115.5 36q95 0 149 -63l-86 -72q-27 34 -63 34q-39 0 -39 -26q0 -11 12 -19t49 -24q63 -27 91.5 -55.5
t28.5 -84.5q0 -61 -46 -97.5t-133 -36.5z" />
    <glyph glyph-name="t" unicode="t" horiz-adv-x="362" 
d="M112 317h-62l19 109h62l39 222h131l-39 -222h103l-19 -109h-103l-28 -161q-10 -53 25 -53q21 0 46 15l42 -93q-46 -34 -111 -34q-72 0 -110.5 39t-22.5 130z" />
    <glyph glyph-name="u" unicode="u" horiz-adv-x="528" 
d="M176 -9q-71 0 -107.5 55t-20.5 144l41 236h133l-41 -232q-15 -86 60 -86q40 0 61.5 20.5t29.5 66.5l41 231h132l-53 -302q-4 -25 18 -25h30l-17 -99h-50q-66 0 -89 15t-27 46l-1 7q-54 -77 -140 -77z" />
    <glyph glyph-name="v" unicode="v" horiz-adv-x="479" 
d="M220 -9l-173 435h138l44 -124q7 -18 13 -44t9 -42l3 -17q24 63 47 103l70 124h138l-276 -435h-13z" />
    <glyph glyph-name="w" unicode="w" horiz-adv-x="675" 
d="M188 -11l-140 437h138l36 -122l20 -91q24 56 46 91l84 133h10l55 -133q7 -16 13.5 -38.5t9.5 -37.5l3 -15q24 57 42 91l64 122h136l-248 -437h-11l-68 170q-5 13 -10.5 34.5t-8.5 36.5l-3 14q-18 -49 -38 -78l-119 -177h-11z" />
    <glyph glyph-name="x" unicode="x" horiz-adv-x="500" 
d="M-20 0l194 223l-105 203h145l23 -53l23 -73q20 50 38 72l44 54h150l-167 -192l122 -234h-146l-33 70q-7 14 -14.5 35.5t-11.5 36.5l-5 15q-24 -57 -47 -84l-61 -73h-149z" />
    <glyph glyph-name="y" unicode="y" horiz-adv-x="518" 
d="M182 -222q-127 0 -193 82l87 84q42 -55 110 -55q91 0 110 102l12 66q-52 -66 -132 -66q-71 0 -107.5 55t-20.5 144l41 236h133l-41 -232q-15 -86 60 -86q40 0 61.5 20.5t29.5 66.5l41 231h132l-79 -450q-35 -198 -244 -198z" />
    <glyph glyph-name="z" unicode="z" horiz-adv-x="437" 
d="M-1 0v11l224 307h-160l19 108h362v-11l-224 -307h164l-19 -108h-366z" />
    <glyph glyph-name="braceleft" unicode="{" horiz-adv-x="406" 
d="M241 -128q-67 0 -108 37.5t-27 117.5l23 133q6 35 -2.5 48t-36.5 13h-62l20 111h59q31 0 44 13.5t21 57.5l32 180q25 139 152 139h111l-19 -111h-71q-34 0 -40 -37l-35 -201q-9 -54 -35.5 -74.5t-74.5 -26.5q89 -13 72 -111l-25 -142q-3 -18 2.5 -27t26.5 -9h69l-20 -111
h-76z" />
    <glyph glyph-name="bar" unicode="|" horiz-adv-x="272" 
d="M13 -128l150 850h127l-150 -850h-127z" />
    <glyph glyph-name="braceright" unicode="}" horiz-adv-x="406" 
d="M-33 -128l19 111h71q34 0 40 37l28 159q9 54 35.5 74.5t74.5 26.5q-89 13 -72 111l32 184q3 18 -2.5 27t-26.5 9h-69l20 111h76q67 0 108 -37.5t27 -117.5l-31 -175q-7 -35 2.5 -48t37.5 -13h62l-20 -111h-59q-31 0 -44.5 -13.5t-21.5 -57.5l-24 -138q-24 -139 -152 -139
h-111z" />
    <glyph glyph-name="asciitilde" unicode="~" horiz-adv-x="369" 
d="M115 207l-87 9q9 68 40 104t74 36q34 0 63 -20q5 -4 13.5 -10t12.5 -8.5t9 -4.5t10 -2q24 0 31 45l87 -9q-7 -68 -38.5 -104t-75.5 -36q-34 0 -63 20l-14 9.5t-11.5 8.5t-9 5t-10.5 2q-24 0 -31 -45z" />
    <glyph glyph-name="nbspace" unicode="&#xa0;" horiz-adv-x="206" 
 />
    <glyph glyph-name="exclamdown" unicode="&#xa1;" horiz-adv-x="269" 
d="M205 520q-34 0 -58 24t-24 59q0 36 24 59.5t58 23.5t57.5 -23.5t23.5 -59.5q0 -35 -24 -59t-57 -24zM24 0l109 449h102l-63 -449h-148z" />
    <glyph glyph-name="cent" unicode="&#xa2;" horiz-adv-x="455" 
d="M189 0q-71 20 -112.5 75.5t-41.5 133.5q0 99 65.5 161.5t165.5 64.5l19 106h65l-20 -112q75 -15 120 -79l-98 -74q-14 24 -42 39l-38 -213q31 3 68 33l76 -85q-59 -59 -157 -59h-6l-19 -107h-65zM246 322q-36 -7 -56.5 -36.5t-20.5 -76.5q0 -68 40 -95z" />
    <glyph glyph-name="sterling" unicode="&#xa3;" horiz-adv-x="567" 
d="M185 248h-102l17 99h66q-9 52 -9 83q0 86 57 137t154 51q130 0 188 -110l-106 -65q-17 30 -35.5 44t-47.5 14q-34 0 -55 -22t-21 -58q0 -32 5 -74h138l-17 -99h-109q2 -32 2 -50q0 -39 -11 -75q39 -21 71 -21q46 0 86 42l74 -80q-60 -73 -162 -73q-63 0 -122 46
q-49 -46 -122 -46q-58 0 -90.5 30.5t-32.5 74.5q0 51 34.5 79t85.5 28q37 0 71 -16q-1 18 -7 61zM178 99q-31 26 -54 26q-14 0 -23 -7.5t-9 -19.5q0 -29 34 -29q35 0 52 30z" />
    <glyph glyph-name="yen" unicode="&#xa5;" horiz-adv-x="561" 
d="M207 182l-22 59h-131l14 83h85l-73 198h140l49 -156q6 -20 11.5 -48t7.5 -46l3 -18q22 63 53 109l107 159h142l-145 -198h86l-14 -83h-132l-43 -59h164l-14 -83h-167l-17 -99h-134l18 99h-166l14 83h164z" />
    <glyph glyph-name="brokenbar" unicode="&#xa6;" 
d="M131 173q-34 0 -58.5 24t-24.5 61q0 36 24.5 60t58.5 24t58.5 -24t24.5 -60q0 -37 -24.5 -61t-58.5 -24z" />
    <glyph glyph-name="section" unicode="&#xa7;" horiz-adv-x="515" 
d="M147 388q-18 33 -18 79q0 67 50.5 109t122.5 42q127 0 169 -99l-106 -52q-18 46 -60 46q-26 0 -38.5 -12t-12.5 -31q0 -30 32 -45l97 -44q59 -26 85 -60.5t26 -83.5q0 -91 -105 -125q15 -28 15 -69q0 -69 -48.5 -107.5t-139.5 -38.5q-72 0 -122.5 30.5t-66.5 76.5l107 52
q21 -53 79 -53q57 0 57 35q0 25 -34 40l-88 38q-59 25 -85 60t-26 85q0 54 31 85.5t79 41.5zM335 168q36 12 36 47q0 38 -43 57l-95 43q-20 8 -37 21q-38 -14 -38 -51t42 -55l90 -39q29 -13 45 -23z" />
    <glyph glyph-name="dieresis" unicode="&#xa8;" horiz-adv-x="490" 
d="M417 508q-28 0 -50.5 22t-22.5 52t22.5 52t50.5 22q29 0 50.5 -22t21.5 -52t-21.5 -52t-50.5 -22zM207 508q-28 0 -50 22t-22 52t22 52t50 22q29 0 51 -22t22 -52t-22 -52t-51 -22z" />
    <glyph glyph-name="copyright" unicode="&#xa9;" horiz-adv-x="595" 
d="M309 -5q-110 0 -190 77t-80 191t80 191t190 77q109 0 187.5 -77t78.5 -191t-78.5 -191t-187.5 -77zM309 54q86 0 145 58t59 151t-59 151t-145 58q-88 0 -148 -58t-60 -151t60 -151t148 -58zM316 116q-70 0 -112.5 40t-42.5 105q0 68 43.5 109.5t109.5 41.5q76 0 124 -54
l-73 -64q-17 22 -45 22q-23 0 -35.5 -15t-12.5 -40q0 -23 12.5 -37t33.5 -14q27 0 43 18l68 -61q-43 -51 -113 -51z" />
    <glyph glyph-name="ordfeminine" unicode="&#xaa;" horiz-adv-x="490" 
d="M205 155q-60 0 -102.5 48t-42.5 125q0 94 51 148t124 54q79 0 113 -65l8 57h118l-44 -248q-4 -22 16 -22h25l-15 -90h-49q-55 0 -74 12t-24 38l-1 5q-21 -32 -44 -47t-59 -15zM250 254q34 0 55.5 27.5t21.5 68.5q0 37 -17 58t-49 21q-35 0 -56 -26t-21 -70
q0 -36 17.5 -57.5t48.5 -21.5z" />
    <glyph glyph-name="guillemotleft" unicode="&#xab;" horiz-adv-x="500" 
d="M313 32l-72 164v8l123 169h133l-128 -175l73 -166h-129zM103 32l-72 164v8l123 169h133l-128 -175l73 -166h-129z" />
    <glyph glyph-name="logicalnot" unicode="&#xac;" 
d="M131 173q-34 0 -58.5 24t-24.5 61q0 36 24.5 60t58.5 24t58.5 -24t24.5 -60q0 -37 -24.5 -61t-58.5 -24z" />
    <glyph glyph-name="registered" unicode="&#xae;" horiz-adv-x="505" 
d="M298 253q-91 0 -153.5 61.5t-62.5 156.5t62.5 156.5t153.5 61.5t154.5 -61.5t63.5 -156.5t-63.5 -156.5t-154.5 -61.5zM298 300q74 0 120.5 45.5t46.5 125.5t-46.5 125.5t-120.5 45.5q-73 0 -119 -45.5t-46 -125.5t46 -125.5t119 -45.5zM356 429l26 -65h-65l-21 55h-27
l-10 -55h-64l38 217h80q42 0 64.5 -23.5t22.5 -56.5q0 -52 -44 -72zM277 469h33q26 0 26 29q0 28 -24 28h-25z" />
    <glyph glyph-name="macron" unicode="&#xaf;" horiz-adv-x="490" 
d="M184 529l17 96h240l-17 -96h-240z" />
    <glyph glyph-name="macron" unicode="&#x2c9;" horiz-adv-x="490" 
d="M184 529l17 96h240l-17 -96h-240z" />
    <glyph glyph-name="degree" unicode="&#xb0;" horiz-adv-x="325" 
d="M196 268q-56 0 -96 37.5t-40 92.5q0 58 41 95.5t99 37.5q56 0 95.5 -36t39.5 -91q0 -58 -40.5 -97t-98.5 -39zM197 346q22 0 36.5 16t14.5 41q0 24 -13.5 37t-35.5 13t-36.5 -15.5t-14.5 -40.5q0 -24 13.5 -37.5t35.5 -13.5z" />
    <glyph glyph-name="twosuperior" unicode="&#xb2;" 
d="M131 173q-34 0 -58.5 24t-24.5 61q0 36 24.5 60t58.5 24t58.5 -24t24.5 -60q0 -37 -24.5 -61t-58.5 -24z" />
    <glyph glyph-name="threesuperior" unicode="&#xb3;" 
d="M131 173q-34 0 -58.5 24t-24.5 61q0 36 24.5 60t58.5 24t58.5 -24t24.5 -60q0 -37 -24.5 -61t-58.5 -24z" />
    <glyph glyph-name="acute" unicode="&#xb4;" horiz-adv-x="490" 
d="M230 500l80 188h158l-136 -188h-102z" />
    <glyph glyph-name="mu" unicode="&#xb5;" 
d="M131 173q-34 0 -58.5 24t-24.5 61q0 36 24.5 60t58.5 24t58.5 -24t24.5 -60q0 -37 -24.5 -61t-58.5 -24z" />
    <glyph glyph-name="mu" unicode="&#x3bc;" 
d="M131 173q-34 0 -58.5 24t-24.5 61q0 36 24.5 60t58.5 24t58.5 -24t24.5 -60q0 -37 -24.5 -61t-58.5 -24z" />
    <glyph glyph-name="paragraph" unicode="&#xb6;" horiz-adv-x="694" 
d="M306 243h-8q-104 0 -163 57.5t-59 144.5q0 99 67.5 167t185.5 68h379l-120 -680h-130l100 566h-65l-100 -566h-130zM326 357l37 209h-41q-43 0 -72.5 -29.5t-29.5 -84.5q0 -48 24.5 -71.5t62.5 -23.5h19z" />
    <glyph glyph-name="periodcentered" unicode="&#xb7;" 
d="M131 173q-34 0 -58.5 24t-24.5 61q0 36 24.5 60t58.5 24t58.5 -24t24.5 -60q0 -37 -24.5 -61t-58.5 -24z" />
    <glyph glyph-name="periodcentered" unicode="&#x2219;" 
d="M131 173q-34 0 -58.5 24t-24.5 61q0 36 24.5 60t58.5 24t58.5 -24t24.5 -60q0 -37 -24.5 -61t-58.5 -24z" />
    <glyph glyph-name="cedilla" unicode="&#xb8;" horiz-adv-x="490" 
d="M200 -240q-86 0 -117 62l65 36q16 -28 44 -28q38 0 38 36q0 37 -42 37h-35l17 97h71l-7 -41q30 -5 52.5 -30t22.5 -64q0 -49 -32 -77t-77 -28z" />
    <glyph glyph-name="onesuperior" unicode="&#xb9;" 
d="M131 173q-34 0 -58.5 24t-24.5 61q0 36 24.5 60t58.5 24t58.5 -24t24.5 -60q0 -37 -24.5 -61t-58.5 -24z" />
    <glyph glyph-name="ordmasculine" unicode="&#xba;" horiz-adv-x="468" 
d="M249 152q-81 0 -134.5 53t-53.5 132q0 84 60 139t146 55q81 0 134.5 -53.5t53.5 -132.5q0 -84 -60 -138.5t-146 -54.5zM253 253q34 0 55.5 27t21.5 69q0 35 -18 57.5t-49 22.5q-36 0 -56.5 -26.5t-20.5 -69.5q0 -37 17.5 -58.5t49.5 -21.5z" />
    <glyph glyph-name="guillemotright" unicode="&#xbb;" horiz-adv-x="500" 
d="M213 32l128 175l-73 166h129l72 -164v-8l-123 -169h-133zM3 32l128 175l-73 166h129l72 -164v-8l-123 -169h-133z" />
    <glyph glyph-name="onequarter" unicode="&#xbc;" 
d="M131 173q-34 0 -58.5 24t-24.5 61q0 36 24.5 60t58.5 24t58.5 -24t24.5 -60q0 -37 -24.5 -61t-58.5 -24z" />
    <glyph glyph-name="onehalf" unicode="&#xbd;" 
d="M131 173q-34 0 -58.5 24t-24.5 61q0 36 24.5 60t58.5 24t58.5 -24t24.5 -60q0 -37 -24.5 -61t-58.5 -24z" />
    <glyph glyph-name="threequarters" unicode="&#xbe;" 
d="M131 173q-34 0 -58.5 24t-24.5 61q0 36 24.5 60t58.5 24t58.5 -24t24.5 -60q0 -37 -24.5 -61t-58.5 -24z" />
    <glyph glyph-name="questiondown" unicode="&#xbf;" horiz-adv-x="503" 
d="M313 522q-34 0 -58 24t-24 59q0 36 24 59.5t58 23.5t57.5 -23.5t23.5 -59.5q0 -35 -24 -59t-57 -24zM249 -6q-100 0 -155.5 57t-55.5 144q0 80 50.5 132t127.5 62l11 62h123l-28 -159h-35q-58 0 -87 -27.5t-29 -70.5q0 -37 21.5 -60t58.5 -23q61 0 103 65l102 -60
q-27 -53 -82.5 -87.5t-124.5 -34.5z" />
    <glyph glyph-name="Agrave" unicode="&#xc0;" horiz-adv-x="651" 
d="M351 748l-91 188h152l39 -188h-100zM169 79l-47 -79h-137l414 686h11l184 -686h-139l-20 79h-266zM407 188l-31 123q-6 24 -10.5 52t-5.5 44l-1 16q-20 -57 -52 -111l-73 -124h173z" />
    <glyph glyph-name="Aacute" unicode="&#xc1;" horiz-adv-x="651" 
d="M358 748l80 188h158l-136 -188h-102zM169 79l-47 -79h-137l414 686h11l184 -686h-139l-20 79h-266zM407 188l-31 123q-6 24 -10.5 52t-5.5 44l-1 16q-20 -57 -52 -111l-73 -124h173z" />
    <glyph glyph-name="Acircumflex" unicode="&#xc2;" horiz-adv-x="651" 
d="M234 748l193 216h11l117 -216h-102l-43 72l-67 -72h-109zM169 79l-47 -79h-137l414 686h11l184 -686h-139l-20 79h-266zM407 188l-31 123q-6 24 -10.5 52t-5.5 44l-1 16q-20 -57 -52 -111l-73 -124h173z" />
    <glyph glyph-name="Atilde" unicode="&#xc3;" horiz-adv-x="651" 
d="M322 748l-87 9q9 68 40 104t74 36q34 0 63 -20q5 -4 13.5 -10t12.5 -8.5t9 -4.5t10 -2q23 0 31 45l87 -9q-7 -68 -38.5 -104t-75.5 -36q-34 0 -63 20l-14 9.5t-11.5 8.5t-9 5t-10.5 2q-23 0 -31 -45zM169 79l-47 -79h-137l414 686h11l184 -686h-139l-20 79h-266zM407 188
l-31 123q-6 24 -10.5 52t-5.5 44l-1 16q-20 -57 -52 -111l-73 -124h173z" />
    <glyph glyph-name="Adieresis" unicode="&#xc4;" horiz-adv-x="651" 
d="M522 756q-28 0 -50.5 22t-22.5 52t22.5 52t50.5 22q29 0 50.5 -22t21.5 -52t-21.5 -52t-50.5 -22zM312 756q-28 0 -50 22t-22 52t22 52t50 22q29 0 51 -22t22 -52t-22 -52t-51 -22zM169 79l-47 -79h-137l414 686h11l184 -686h-139l-20 79h-266zM407 188l-31 123
q-6 24 -10.5 52t-5.5 44l-1 16q-20 -57 -52 -111l-73 -124h173z" />
    <glyph glyph-name="Aring" unicode="&#xc5;" horiz-adv-x="651" 
d="M415 722q-53 0 -89 35t-36 84t36 84t89 35t89 -35t36 -84t-36 -84t-89 -35zM169 79l-47 -79h-137l414 686h11l184 -686h-139l-20 79h-266zM415 795q18 0 30 12.5t12 33.5t-12 33.5t-30 12.5t-30 -12.5t-12 -33.5t12 -33.5t30 -12.5zM407 188l-31 123q-6 24 -10.5 52
t-5.5 44l-1 16q-20 -57 -52 -111l-73 -124h173z" />
    <glyph glyph-name="AE" unicode="&#xc6;" horiz-adv-x="967" 
d="M196 77l-64 -77h-152l577 680h428l-21 -120h-305l-39 -220h267l-21 -118h-267l-18 -102h319l-22 -120h-455l14 77h-241zM457 190l33 189q3 18 11 46t14 47l6 18q-41 -70 -67 -102l-164 -198h167z" />
    <glyph glyph-name="Ccedilla" unicode="&#xc7;" horiz-adv-x="707" 
d="M330 -3q-116 21 -189 113t-73 216q0 155 106 258.5t253 103.5q97 0 159.5 -34t111.5 -106l-112 -73q-57 91 -163 91q-93 0 -152.5 -69.5t-59.5 -171.5q0 -93 53.5 -152.5t133.5 -59.5q105 0 167 78l103 -79q-100 -118 -268 -121l-5 -32q30 -5 52.5 -30t22.5 -64
q0 -49 -32 -77t-77 -28q-86 0 -117 62l65 36q16 -28 44 -28q38 0 38 36q0 37 -42 37h-35z" />
    <glyph glyph-name="Egrave" unicode="&#xc8;" horiz-adv-x="576" 
d="M328 748l-91 188h152l39 -188h-100zM32 0l120 680h441l-21 -120h-305l-39 -220h267l-21 -118h-267l-18 -102h319l-22 -120h-454z" />
    <glyph glyph-name="Eacute" unicode="&#xc9;" horiz-adv-x="576" 
d="M326 748l80 188h158l-136 -188h-102zM32 0l120 680h441l-21 -120h-305l-39 -220h267l-21 -118h-267l-18 -102h319l-22 -120h-454z" />
    <glyph glyph-name="Ecircumflex" unicode="&#xca;" horiz-adv-x="576" 
d="M221 748l193 216h11l117 -216h-102l-43 72l-67 -72h-109zM32 0l120 680h441l-21 -120h-305l-39 -220h267l-21 -118h-267l-18 -102h319l-22 -120h-454z" />
    <glyph glyph-name="Edieresis" unicode="&#xcb;" horiz-adv-x="576" 
d="M490 756q-28 0 -50.5 22t-22.5 52t22.5 52t50.5 22q29 0 50.5 -22t21.5 -52t-21.5 -52t-50.5 -22zM280 756q-28 0 -50 22t-22 52t22 52t50 22q29 0 51 -22t22 -52t-22 -52t-51 -22zM32 0l120 680h441l-21 -120h-305l-39 -220h267l-21 -118h-267l-18 -102h319l-22 -120
h-454z" />
    <glyph glyph-name="Igrave" unicode="&#xcc;" horiz-adv-x="281" 
d="M192 748l-91 188h152l39 -188h-100zM36 0l120 680h137l-120 -680h-137z" />
    <glyph glyph-name="Iacute" unicode="&#xcd;" horiz-adv-x="281" 
d="M170 748l80 188h158l-136 -188h-102zM36 0l120 680h137l-120 -680h-137z" />
    <glyph glyph-name="Icircumflex" unicode="&#xce;" horiz-adv-x="281" 
d="M71 748l193 216h11l117 -216h-102l-43 72l-67 -72h-109zM36 0l120 680h137l-120 -680h-137z" />
    <glyph glyph-name="Idieresis" unicode="&#xcf;" horiz-adv-x="281" 
d="M355 756q-28 0 -50.5 22t-22.5 52t22.5 52t50.5 22q29 0 50.5 -22t21.5 -52t-21.5 -52t-50.5 -22zM145 756q-28 0 -50 22t-22 52t22 52t50 22q29 0 51 -22t22 -52t-22 -52t-51 -22zM36 0l120 680h137l-120 -680h-137z" />
    <glyph glyph-name="Eth" unicode="&#xd0;" horiz-adv-x="667" 
d="M74 240h-56l21 119h56l57 321h178q149 0 234 -85t85 -229q0 -170 -106.5 -268t-278.5 -98h-232zM232 359h150l-21 -119h-150l-21 -120h77q117 0 178.5 69.5t61.5 182.5q0 89 -48 138.5t-146 49.5h-45z" />
    <glyph glyph-name="Ntilde" unicode="&#xd1;" horiz-adv-x="683" 
d="M346 748l-87 9q9 68 40 104t74 36q34 0 63 -20q5 -4 13.5 -10t12.5 -8.5t9 -4.5t10 -2q23 0 31 45l87 -9q-7 -68 -38.5 -104t-75.5 -36q-34 0 -63 20l-14 9.5t-11.5 8.5t-9 5t-10.5 2q-23 0 -31 -45zM565 -6l-276 331q-14 17 -29.5 41.5t-24.5 40.5l-9 16
q-4 -77 -13 -125l-53 -298h-128l121 686h13l277 -332q14 -16 29.5 -40.5t24.5 -41.5l9 -16q3 72 12 125l53 299h128l-121 -686h-13z" />
    <glyph glyph-name="Ograve" unicode="&#xd2;" horiz-adv-x="780" 
d="M395 748l-91 188h152l39 -188h-100zM398 -9q-141 0 -235.5 95t-94.5 242q0 161 105 260.5t256 99.5q141 0 236 -95t95 -242q0 -161 -105.5 -260.5t-256.5 -99.5zM403 113q98 0 157 65.5t59 175.5q0 96 -54 154t-140 58q-98 0 -157 -65.5t-59 -175.5q0 -96 54 -154
t140 -58z" />
    <glyph glyph-name="Oacute" unicode="&#xd3;" horiz-adv-x="780" 
d="M393 748l80 188h158l-136 -188h-102zM398 -9q-141 0 -235.5 95t-94.5 242q0 161 105 260.5t256 99.5q141 0 236 -95t95 -242q0 -161 -105.5 -260.5t-256.5 -99.5zM403 113q98 0 157 65.5t59 175.5q0 96 -54 154t-140 58q-98 0 -157 -65.5t-59 -175.5q0 -96 54 -154
t140 -58z" />
    <glyph glyph-name="Ocircumflex" unicode="&#xd4;" horiz-adv-x="780" 
d="M291 748l193 216h11l117 -216h-102l-43 72l-67 -72h-109zM398 -9q-141 0 -235.5 95t-94.5 242q0 161 105 260.5t256 99.5q141 0 236 -95t95 -242q0 -161 -105.5 -260.5t-256.5 -99.5zM403 113q98 0 157 65.5t59 175.5q0 96 -54 154t-140 58q-98 0 -157 -65.5t-59 -175.5
q0 -96 54 -154t140 -58z" />
    <glyph glyph-name="Otilde" unicode="&#xd5;" horiz-adv-x="780" 
d="M377 748l-87 9q9 68 40 104t74 36q34 0 63 -20q5 -4 13.5 -10t12.5 -8.5t9 -4.5t10 -2q24 0 31 45l87 -9q-7 -68 -38.5 -104t-75.5 -36q-34 0 -63 20l-14 9.5t-11.5 8.5t-9 5t-10.5 2q-24 0 -31 -45zM398 -9q-141 0 -235.5 95t-94.5 242q0 161 105 260.5t256 99.5
q141 0 236 -95t95 -242q0 -161 -105.5 -260.5t-256.5 -99.5zM403 113q98 0 157 65.5t59 175.5q0 96 -54 154t-140 58q-98 0 -157 -65.5t-59 -175.5q0 -96 54 -154t140 -58z" />
    <glyph glyph-name="Odieresis" unicode="&#xd6;" horiz-adv-x="780" 
d="M567 756q-28 0 -50.5 22t-22.5 52t22.5 52t50.5 22q29 0 50.5 -22t21.5 -52t-21.5 -52t-50.5 -22zM357 756q-28 0 -50 22t-22 52t22 52t50 22q29 0 51 -22t22 -52t-22 -52t-51 -22zM398 -9q-141 0 -235.5 95t-94.5 242q0 161 105 260.5t256 99.5q141 0 236 -95t95 -242
q0 -161 -105.5 -260.5t-256.5 -99.5zM403 113q98 0 157 65.5t59 175.5q0 96 -54 154t-140 58q-98 0 -157 -65.5t-59 -175.5q0 -96 54 -154t140 -58z" />
    <glyph glyph-name="multiply" unicode="&#xd7;" 
d="M131 173q-34 0 -58.5 24t-24.5 61q0 36 24.5 60t58.5 24t58.5 -24t24.5 -60q0 -37 -24.5 -61t-58.5 -24z" />
    <glyph glyph-name="Oslash" unicode="&#xd8;" horiz-adv-x="780" 
d="M709 538q51 -84 51 -187q0 -161 -104.5 -260.5t-252.5 -99.5q-126 0 -214 72l-80 -73l-71 77l81 74q-51 82 -51 187q0 161 104 260.5t252 99.5q125 0 214 -72l80 73l72 -77zM223 237l319 292q-48 37 -120 37q-94 0 -153.5 -66t-59.5 -175q0 -48 14 -88zM605 443
l-320 -292q49 -38 121 -38q95 0 154 66t59 175q0 47 -14 89z" />
    <glyph glyph-name="Ugrave" unicode="&#xd9;" horiz-adv-x="669" 
d="M367 748l-91 188h152l39 -188h-100zM323 -9q-125 0 -196.5 77.5t-49.5 201.5l72 410h138l-74 -420q-13 -72 17.5 -109.5t99.5 -37.5q63 0 97 32.5t46 100.5l77 434h138l-81 -456q-21 -115 -94.5 -174t-189.5 -59z" />
    <glyph glyph-name="Uacute" unicode="&#xda;" horiz-adv-x="669" 
d="M367 748l80 188h158l-136 -188h-102zM323 -9q-125 0 -196.5 77.5t-49.5 201.5l72 410h138l-74 -420q-13 -72 17.5 -109.5t99.5 -37.5q63 0 97 32.5t46 100.5l77 434h138l-81 -456q-21 -115 -94.5 -174t-189.5 -59z" />
    <glyph glyph-name="Ucircumflex" unicode="&#xdb;" horiz-adv-x="669" 
d="M263 748l193 216h11l117 -216h-102l-43 72l-67 -72h-109zM323 -9q-125 0 -196.5 77.5t-49.5 201.5l72 410h138l-74 -420q-13 -72 17.5 -109.5t99.5 -37.5q63 0 97 32.5t46 100.5l77 434h138l-81 -456q-21 -115 -94.5 -174t-189.5 -59z" />
    <glyph glyph-name="Udieresis" unicode="&#xdc;" horiz-adv-x="669" 
d="M537 756q-28 0 -50.5 22t-22.5 52t22.5 52t50.5 22q29 0 50.5 -22t21.5 -52t-21.5 -52t-50.5 -22zM327 756q-28 0 -50 22t-22 52t22 52t50 22q29 0 51 -22t22 -52t-22 -52t-51 -22zM323 -9q-125 0 -196.5 77.5t-49.5 201.5l72 410h138l-74 -420q-13 -72 17.5 -109.5
t99.5 -37.5q63 0 97 32.5t46 100.5l77 434h138l-81 -456q-21 -115 -94.5 -174t-189.5 -59z" />
    <glyph glyph-name="Yacute" unicode="&#xdd;" horiz-adv-x="664" 
d="M368 748l80 188h158l-136 -188h-102zM272 217l-170 463h145l78 -219q8 -23 16 -57t12 -56l4 -22q37 85 72 135l152 219h149l-320 -457l-39 -223h-137z" />
    <glyph glyph-name="Thorn" unicode="&#xde;" horiz-adv-x="583" 
d="M276 607h24q128 0 201.5 -67t73.5 -178q0 -135 -85 -207.5t-234 -72.5h-73l-14 -82h-137l120 680h137zM204 201h56q90 0 132 39.5t42 121.5q0 126 -143 126h-36z" />
    <glyph glyph-name="germandbls" unicode="&#xdf;" horiz-adv-x="565" 
d="M423 388q110 -44 110 -168q0 -105 -61.5 -165.5t-166.5 -60.5q-66 0 -96 17l28 104q25 -10 55 -10q49 0 78 29.5t29 88.5q0 108 -120 111l18 102q104 7 104 117q0 36 -19.5 55t-51.5 19q-37 0 -58.5 -24t-30.5 -77l-110 -623q-13 -73 -43.5 -94t-103.5 -21h-69l19 99h40
q12 0 18 5t9 20l110 621q17 99 73.5 150.5t148.5 51.5q88 0 141 -49t53 -130q0 -115 -104 -168z" />
    <glyph glyph-name="agrave" unicode="&#xe0;" horiz-adv-x="532" 
d="M248 500l-91 188h152l39 -188h-100zM200 -9q-71 0 -119 56t-48 148q0 111 58.5 175.5t143.5 64.5q96 0 137 -77l9 68h132l-53 -302q-4 -25 18 -25h30l-17 -99h-50q-66 0 -88 14.5t-28 44.5l-1 5q-26 -39 -53.5 -56t-70.5 -17zM253 105q42 0 68 32.5t26 83.5
q0 46 -21.5 72.5t-60.5 26.5q-43 0 -68.5 -32.5t-25.5 -86.5q0 -45 21.5 -70.5t60.5 -25.5z" />
    <glyph glyph-name="aacute" unicode="&#xe1;" horiz-adv-x="532" 
d="M241 500l80 188h158l-136 -188h-102zM200 -9q-71 0 -119 56t-48 148q0 111 58.5 175.5t143.5 64.5q96 0 137 -77l9 68h132l-53 -302q-4 -25 18 -25h30l-17 -99h-50q-66 0 -88 14.5t-28 44.5l-1 5q-26 -39 -53.5 -56t-70.5 -17zM253 105q42 0 68 32.5t26 83.5
q0 46 -21.5 72.5t-60.5 26.5q-43 0 -68.5 -32.5t-25.5 -86.5q0 -45 21.5 -70.5t60.5 -25.5z" />
    <glyph glyph-name="acircumflex" unicode="&#xe2;" horiz-adv-x="532" 
d="M149 500l193 216h11l117 -216h-102l-43 72l-67 -72h-109zM200 -9q-71 0 -119 56t-48 148q0 111 58.5 175.5t143.5 64.5q96 0 137 -77l9 68h132l-53 -302q-4 -25 18 -25h30l-17 -99h-50q-66 0 -88 14.5t-28 44.5l-1 5q-26 -39 -53.5 -56t-70.5 -17zM253 105q42 0 68 32.5
t26 83.5q0 46 -21.5 72.5t-60.5 26.5q-43 0 -68.5 -32.5t-25.5 -86.5q0 -45 21.5 -70.5t60.5 -25.5z" />
    <glyph glyph-name="atilde" unicode="&#xe3;" horiz-adv-x="532" 
d="M243 500l-87 9q9 68 40 104t74 36q34 0 63 -20q5 -4 13.5 -10t12.5 -8.5t9 -4.5t10 -2q24 0 31 45l87 -9q-7 -68 -38.5 -104t-75.5 -36q-34 0 -63 20l-14 9.5t-11.5 8.5t-9 5t-10.5 2q-24 0 -31 -45zM200 -9q-71 0 -119 56t-48 148q0 111 58.5 175.5t143.5 64.5
q96 0 137 -77l9 68h132l-53 -302q-4 -25 18 -25h30l-17 -99h-50q-66 0 -88 14.5t-28 44.5l-1 5q-26 -39 -53.5 -56t-70.5 -17zM253 105q42 0 68 32.5t26 83.5q0 46 -21.5 72.5t-60.5 26.5q-43 0 -68.5 -32.5t-25.5 -86.5q0 -45 21.5 -70.5t60.5 -25.5z" />
    <glyph glyph-name="adieresis" unicode="&#xe4;" horiz-adv-x="532" 
d="M436 508q-28 0 -50.5 22t-22.5 52t22.5 52t50.5 22q29 0 50.5 -22t21.5 -52t-21.5 -52t-50.5 -22zM226 508q-28 0 -50 22t-22 52t22 52t50 22q29 0 51 -22t22 -52t-22 -52t-51 -22zM200 -9q-71 0 -119 56t-48 148q0 111 58.5 175.5t143.5 64.5q96 0 137 -77l9 68h132
l-53 -302q-4 -25 18 -25h30l-17 -99h-50q-66 0 -88 14.5t-28 44.5l-1 5q-26 -39 -53.5 -56t-70.5 -17zM253 105q42 0 68 32.5t26 83.5q0 46 -21.5 72.5t-60.5 26.5q-43 0 -68.5 -32.5t-25.5 -86.5q0 -45 21.5 -70.5t60.5 -25.5z" />
    <glyph glyph-name="aring" unicode="&#xe5;" horiz-adv-x="532" 
d="M322 474q-53 0 -89 35t-36 84t36 84t89 35t89 -35t36 -84t-36 -84t-89 -35zM200 -9q-71 0 -119 56t-48 148q0 111 58.5 175.5t143.5 64.5q96 0 137 -77l9 68h132l-53 -302q-4 -25 18 -25h30l-17 -99h-50q-66 0 -88 14.5t-28 44.5l-1 5q-26 -39 -53.5 -56t-70.5 -17z
M322 547q18 0 30 12.5t12 33.5t-12 33.5t-30 12.5t-30 -12.5t-12 -33.5t12 -33.5t30 -12.5zM253 105q42 0 68 32.5t26 83.5q0 46 -21.5 72.5t-60.5 26.5q-43 0 -68.5 -32.5t-25.5 -86.5q0 -45 21.5 -70.5t60.5 -25.5z" />
    <glyph glyph-name="ae" unicode="&#xe6;" horiz-adv-x="772" 
d="M379 379q54 56 143 56q109 0 163.5 -64t60.5 -175l-316 -34q22 -63 105 -63q55 0 101 36l80 -84q-73 -60 -182 -60q-120 0 -175 77q-49 -77 -169 -77q-79 0 -127 33t-48 94q0 132 184 132h106q7 80 -69 80q-58 0 -98 -34l-70 82q64 57 174 57q92 0 137 -56zM425 236
l177 19q-2 35 -22.5 55t-56.5 20q-88 0 -98 -94zM292 174h-95q-50 0 -50 -40q0 -41 58 -41q74 0 83 56z" />
    <glyph glyph-name="ccedilla" unicode="&#xe7;" horiz-adv-x="455" 
d="M180 2q-67 21 -106 75.5t-39 131.5q0 100 67 163t168 63q118 0 179 -85l-97 -76q-29 46 -83 46q-44 0 -70.5 -31t-26.5 -80t22 -76.5t65 -27.5t81 32l76 -87q-59 -59 -157 -59h-10l-5 -32q30 -5 52.5 -30t22.5 -64q0 -49 -32 -77t-77 -28q-86 0 -117 62l65 36
q16 -28 44 -28q38 0 38 36q0 37 -42 37h-35z" />
    <glyph glyph-name="egrave" unicode="&#xe8;" horiz-adv-x="515" 
d="M234 500l-91 188h152l39 -188h-100zM173 162q22 -63 105 -63q55 0 101 36l80 -84q-73 -60 -182 -60q-113 0 -177 61t-64 158q0 100 65.5 162.5t163.5 62.5q109 0 163.5 -64t60.5 -175zM168 236l177 19q-2 35 -22.5 55t-56.5 20q-88 0 -98 -94z" />
    <glyph glyph-name="eacute" unicode="&#xe9;" horiz-adv-x="515" 
d="M243 500l80 188h158l-136 -188h-102zM173 162q22 -63 105 -63q55 0 101 36l80 -84q-73 -60 -182 -60q-113 0 -177 61t-64 158q0 100 65.5 162.5t163.5 62.5q109 0 163.5 -64t60.5 -175zM168 236l177 19q-2 35 -22.5 55t-56.5 20q-88 0 -98 -94z" />
    <glyph glyph-name="ecircumflex" unicode="&#xea;" horiz-adv-x="515" 
d="M131 500l193 216h11l117 -216h-102l-43 72l-67 -72h-109zM173 162q22 -63 105 -63q55 0 101 36l80 -84q-73 -60 -182 -60q-113 0 -177 61t-64 158q0 100 65.5 162.5t163.5 62.5q109 0 163.5 -64t60.5 -175zM168 236l177 19q-2 35 -22.5 55t-56.5 20q-88 0 -98 -94z" />
    <glyph glyph-name="edieresis" unicode="&#xeb;" horiz-adv-x="515" 
d="M421 508q-28 0 -50.5 22t-22.5 52t22.5 52t50.5 22q29 0 50.5 -22t21.5 -52t-21.5 -52t-50.5 -22zM211 508q-28 0 -50 22t-22 52t22 52t50 22q29 0 51 -22t22 -52t-22 -52t-51 -22zM173 162q22 -63 105 -63q55 0 101 36l80 -84q-73 -60 -182 -60q-113 0 -177 61t-64 158
q0 100 65.5 162.5t163.5 62.5q109 0 163.5 -64t60.5 -175zM168 236l177 19q-2 35 -22.5 55t-56.5 20q-88 0 -98 -94z" />
    <glyph glyph-name="igrave" unicode="&#xec;" horiz-adv-x="260" 
d="M136 500l-91 188h152l39 -188h-100zM156 0q-75 0 -100.5 25t-12.5 98l53 303h132l-53 -302q-4 -25 18 -25h30l-17 -99h-50z" />
    <glyph glyph-name="iacute" unicode="&#xed;" horiz-adv-x="260" 
d="M114 500l80 188h158l-136 -188h-102zM156 0q-75 0 -100.5 25t-12.5 98l53 303h132l-53 -302q-4 -25 18 -25h30l-17 -99h-50z" />
    <glyph glyph-name="icircumflex" unicode="&#xee;" horiz-adv-x="260" 
d="M16 500l193 216h11l117 -216h-102l-43 72l-67 -72h-109zM156 0q-75 0 -100.5 25t-12.5 98l53 303h132l-53 -302q-4 -25 18 -25h30l-17 -99h-50z" />
    <glyph glyph-name="idieresis" unicode="&#xef;" horiz-adv-x="260" 
d="M299 508q-28 0 -50.5 22t-22.5 52t22.5 52t50.5 22q29 0 50.5 -22t21.5 -52t-21.5 -52t-50.5 -22zM89 508q-28 0 -50 22t-22 52t22 52t50 22q29 0 51 -22t22 -52t-22 -52t-51 -22zM156 0q-75 0 -100.5 25t-12.5 98l53 303h132l-53 -302q-4 -25 18 -25h30l-17 -99h-50z
" />
    <glyph glyph-name="eth" unicode="&#xf0;" horiz-adv-x="526" 
d="M300 526l-60 -47l-49 65l63 50q-18 24 -56 70l83 74q37 -34 68 -69l66 52l50 -65l-66 -52q102 -151 102 -343q0 -128 -64 -199t-177 -71q-95 0 -159 62.5t-64 160.5q0 99 64 160t143 61q69 0 107 -35q-15 64 -51 126zM264 102q46 0 72.5 33.5t26.5 86.5q0 46 -24.5 74
t-65.5 28q-47 0 -73.5 -31t-26.5 -83q0 -49 24.5 -78.5t66.5 -29.5z" />
    <glyph glyph-name="ntilde" unicode="&#xf1;" horiz-adv-x="525" 
d="M224 500l-87 9q9 68 40 104t74 36q34 0 63 -20q5 -4 13.5 -10t12.5 -8.5t9 -4.5t10 -2q23 0 31 45l87 -9q-7 -68 -38.5 -104t-75.5 -36q-34 0 -63 20l-14 9.5t-11.5 8.5t-9 5t-10.5 2q-23 0 -31 -45zM16 0l75 426h132l-16 -77q52 86 138 86q71 0 107.5 -55t20.5 -144
l-20 -112q-4 -25 18 -25h30l-17 -99h-50q-75 0 -100.5 25t-12.5 98l19 109q15 86 -60 86q-40 0 -61.5 -20.5t-29.5 -66.5l-41 -231h-132z" />
    <glyph glyph-name="ograve" unicode="&#xf2;" horiz-adv-x="530" 
d="M251 500l-91 188h152l39 -188h-100zM260 -9q-95 0 -160 61.5t-65 154.5q0 102 68 165t169 63q96 0 160.5 -61t64.5 -156q0 -101 -68 -164t-169 -63zM264 103q45 0 71 32t26 84q0 47 -25 74.5t-68 27.5q-45 0 -71 -32t-26 -84q0 -47 25 -74.5t68 -27.5z" />
    <glyph glyph-name="oacute" unicode="&#xf3;" horiz-adv-x="530" 
d="M236 500l80 188h158l-136 -188h-102zM260 -9q-95 0 -160 61.5t-65 154.5q0 102 68 165t169 63q96 0 160.5 -61t64.5 -156q0 -101 -68 -164t-169 -63zM264 103q45 0 71 32t26 84q0 47 -25 74.5t-68 27.5q-45 0 -71 -32t-26 -84q0 -47 25 -74.5t68 -27.5z" />
    <glyph glyph-name="ocircumflex" unicode="&#xf4;" horiz-adv-x="530" 
d="M142 500l193 216h11l117 -216h-102l-43 72l-67 -72h-109zM260 -9q-95 0 -160 61.5t-65 154.5q0 102 68 165t169 63q96 0 160.5 -61t64.5 -156q0 -101 -68 -164t-169 -63zM264 103q45 0 71 32t26 84q0 47 -25 74.5t-68 27.5q-45 0 -71 -32t-26 -84q0 -47 25 -74.5
t68 -27.5z" />
    <glyph glyph-name="otilde" unicode="&#xf5;" horiz-adv-x="530" 
d="M218 500l-87 9q9 68 40 104t74 36q34 0 63 -20q5 -4 13.5 -10t12.5 -8.5t9 -4.5t10 -2q23 0 31 45l87 -9q-7 -68 -38.5 -104t-75.5 -36q-34 0 -63 20l-14 9.5t-11.5 8.5t-9 5t-10.5 2q-23 0 -31 -45zM260 -9q-95 0 -160 61.5t-65 154.5q0 102 68 165t169 63
q96 0 160.5 -61t64.5 -156q0 -101 -68 -164t-169 -63zM264 103q45 0 71 32t26 84q0 47 -25 74.5t-68 27.5q-45 0 -71 -32t-26 -84q0 -47 25 -74.5t68 -27.5z" />
    <glyph glyph-name="odieresis" unicode="&#xf6;" horiz-adv-x="530" 
d="M424 508q-28 0 -50.5 22t-22.5 52t22.5 52t50.5 22q29 0 50.5 -22t21.5 -52t-21.5 -52t-50.5 -22zM214 508q-28 0 -50 22t-22 52t22 52t50 22q29 0 51 -22t22 -52t-22 -52t-51 -22zM260 -9q-95 0 -160 61.5t-65 154.5q0 102 68 165t169 63q96 0 160.5 -61t64.5 -156
q0 -101 -68 -164t-169 -63zM264 103q45 0 71 32t26 84q0 47 -25 74.5t-68 27.5q-45 0 -71 -32t-26 -84q0 -47 25 -74.5t68 -27.5z" />
    <glyph glyph-name="divide" unicode="&#xf7;" 
d="M131 173q-34 0 -58.5 24t-24.5 61q0 36 24.5 60t58.5 24t58.5 -24t24.5 -60q0 -37 -24.5 -61t-58.5 -24z" />
    <glyph glyph-name="oslash" unicode="&#xf8;" horiz-adv-x="530" 
d="M469 327q28 -48 28 -109q0 -101 -68 -164t-169 -63q-84 0 -146 49l-66 -54l-48 63l63 50q-28 48 -28 108q0 102 68 165t169 63q84 0 146 -49l66 54l46 -63zM166 183l160 129q-25 17 -58 17q-48 0 -76 -34.5t-28 -89.5q0 -8 2 -22zM366 244l-162 -131q24 -18 60 -18
q48 0 76 34.5t28 89.5q0 9 -2 25z" />
    <glyph glyph-name="ugrave" unicode="&#xf9;" horiz-adv-x="528" 
d="M261 500l-91 188h152l39 -188h-100zM176 -9q-71 0 -107.5 55t-20.5 144l41 236h133l-41 -232q-15 -86 60 -86q40 0 61.5 20.5t29.5 66.5l41 231h132l-53 -302q-4 -25 18 -25h30l-17 -99h-50q-66 0 -89 15t-27 46l-1 7q-54 -77 -140 -77z" />
    <glyph glyph-name="uacute" unicode="&#xfa;" horiz-adv-x="528" 
d="M251 500l80 188h158l-136 -188h-102zM176 -9q-71 0 -107.5 55t-20.5 144l41 236h133l-41 -232q-15 -86 60 -86q40 0 61.5 20.5t29.5 66.5l41 231h132l-53 -302q-4 -25 18 -25h30l-17 -99h-50q-66 0 -89 15t-27 46l-1 7q-54 -77 -140 -77z" />
    <glyph glyph-name="ucircumflex" unicode="&#xfb;" horiz-adv-x="528" 
d="M147 500l193 216h11l117 -216h-102l-43 72l-67 -72h-109zM176 -9q-71 0 -107.5 55t-20.5 144l41 236h133l-41 -232q-15 -86 60 -86q40 0 61.5 20.5t29.5 66.5l41 231h132l-53 -302q-4 -25 18 -25h30l-17 -99h-50q-66 0 -89 15t-27 46l-1 7q-54 -77 -140 -77z" />
    <glyph glyph-name="udieresis" unicode="&#xfc;" horiz-adv-x="528" 
d="M421 508q-28 0 -50.5 22t-22.5 52t22.5 52t50.5 22q29 0 50.5 -22t21.5 -52t-21.5 -52t-50.5 -22zM211 508q-28 0 -50 22t-22 52t22 52t50 22q29 0 51 -22t22 -52t-22 -52t-51 -22zM176 -9q-71 0 -107.5 55t-20.5 144l41 236h133l-41 -232q-15 -86 60 -86q40 0 61.5 20.5
t29.5 66.5l41 231h132l-53 -302q-4 -25 18 -25h30l-17 -99h-50q-66 0 -89 15t-27 46l-1 7q-54 -77 -140 -77z" />
    <glyph glyph-name="yacute" unicode="&#xfd;" horiz-adv-x="518" 
d="M254 500l80 188h158l-136 -188h-102zM182 -222q-127 0 -193 82l87 84q42 -55 110 -55q91 0 110 102l12 66q-52 -66 -132 -66q-71 0 -107.5 55t-20.5 144l41 236h133l-41 -232q-15 -86 60 -86q40 0 61.5 20.5t29.5 66.5l41 231h132l-79 -450q-35 -198 -244 -198z" />
    <glyph glyph-name="thorn" unicode="&#xfe;" horiz-adv-x="536" 
d="M-21 -212l164 934h132l-63 -358q44 71 122 71q74 0 123 -56t49 -148q0 -107 -59.5 -173.5t-142.5 -66.5q-99 0 -143 83l-50 -286h-132zM269 105q46 0 72.5 32.5t26.5 86.5q0 45 -23 70.5t-64 25.5q-44 0 -71.5 -32.5t-27.5 -83.5q0 -45 23 -72t64 -27z" />
    <glyph glyph-name="ydieresis" unicode="&#xff;" horiz-adv-x="518" 
d="M417 508q-28 0 -50.5 22t-22.5 52t22.5 52t50.5 22q29 0 50.5 -22t21.5 -52t-21.5 -52t-50.5 -22zM207 508q-28 0 -50 22t-22 52t22 52t50 22q29 0 51 -22t22 -52t-22 -52t-51 -22zM182 -222q-127 0 -193 82l87 84q42 -55 110 -55q91 0 110 102l12 66q-52 -66 -132 -66
q-71 0 -107.5 55t-20.5 144l41 236h133l-41 -232q-15 -86 60 -86q40 0 61.5 20.5t29.5 66.5l41 231h132l-79 -450q-35 -198 -244 -198z" />
    <glyph glyph-name="Amacron" unicode="&#x100;" horiz-adv-x="651" 
d="M293 777l17 96h240l-17 -96h-240zM169 79l-47 -79h-137l414 686h11l184 -686h-139l-20 79h-266zM407 188l-31 123q-6 24 -10.5 52t-5.5 44l-1 16q-20 -57 -52 -111l-73 -124h173z" />
    <glyph glyph-name="amacron" unicode="&#x101;" horiz-adv-x="532" 
d="M203 529l17 96h240l-17 -96h-240zM200 -9q-71 0 -119 56t-48 148q0 111 58.5 175.5t143.5 64.5q96 0 137 -77l9 68h132l-53 -302q-4 -25 18 -25h30l-17 -99h-50q-66 0 -88 14.5t-28 44.5l-1 5q-26 -39 -53.5 -56t-70.5 -17zM253 105q42 0 68 32.5t26 83.5
q0 46 -21.5 72.5t-60.5 26.5q-43 0 -68.5 -32.5t-25.5 -86.5q0 -45 21.5 -70.5t60.5 -25.5z" />
    <glyph glyph-name="Abreve" unicode="&#x102;" horiz-adv-x="651" 
d="M415 748q-69 0 -110 39t-44 101l101 15q5 -57 54 -57q48 0 60 57l99 -15q-9 -62 -51 -101t-109 -39zM169 79l-47 -79h-137l414 686h11l184 -686h-139l-20 79h-266zM407 188l-31 123q-6 24 -10.5 52t-5.5 44l-1 16q-20 -57 -52 -111l-73 -124h173z" />
    <glyph glyph-name="abreve" unicode="&#x103;" horiz-adv-x="532" 
d="M309 500q-69 0 -110 39t-44 101l101 15q5 -57 54 -57q48 0 60 57l99 -15q-9 -62 -51 -101t-109 -39zM200 -9q-71 0 -119 56t-48 148q0 111 58.5 175.5t143.5 64.5q96 0 137 -77l9 68h132l-53 -302q-4 -25 18 -25h30l-17 -99h-50q-66 0 -88 14.5t-28 44.5l-1 5
q-26 -39 -53.5 -56t-70.5 -17zM253 105q42 0 68 32.5t26 83.5q0 46 -21.5 72.5t-60.5 26.5q-43 0 -68.5 -32.5t-25.5 -86.5q0 -45 21.5 -70.5t60.5 -25.5z" />
    <glyph glyph-name="Aogonek" unicode="&#x104;" horiz-adv-x="651" 
d="M589 20l-71 -90q-32 -40 -32 -70q0 -29 28 -29q19 0 40 28l65 -38q-35 -61 -111 -61q-45 0 -76.5 24.5t-31.5 69.5q0 59 53 107l43 39h-41l-20 79h-266l-47 -79h-137l414 686h11zM407 188l-31 123q-6 24 -10.5 52t-5.5 44l-1 16q-20 -57 -52 -111l-73 -124h173z" />
    <glyph glyph-name="aogonek" unicode="&#x105;" horiz-adv-x="532" 
d="M414 1l-14 -17l-27 -36l-14 -18q-32 -41 -32 -70t28 -29q19 0 40 28l65 -38q-35 -61 -111 -61q-45 0 -76.5 24.5t-31.5 69.5q0 59 58 112l54 49q-21 11 -28 44l-1 5q-26 -39 -53.5 -56t-70.5 -17q-71 0 -119 56t-48 148q0 111 58.5 175.5t143.5 64.5q96 0 137 -77l9 68
h132l-53 -302q-4 -25 18 -25h30l-17 -99h-50q-18 0 -27 1zM253 105q42 0 68 32.5t26 83.5q0 46 -21.5 72.5t-60.5 26.5q-43 0 -68.5 -32.5t-25.5 -86.5q0 -45 21.5 -70.5t60.5 -25.5z" />
    <glyph glyph-name="Cacute" unicode="&#x106;" horiz-adv-x="707" 
d="M381 748l80 188h158l-136 -188h-102zM393 -9q-139 0 -232 96.5t-93 238.5q0 155 106 258.5t253 103.5q97 0 159.5 -34t111.5 -106l-112 -73q-57 91 -163 91q-93 0 -152.5 -69.5t-59.5 -171.5q0 -93 53.5 -152.5t133.5 -59.5q105 0 167 78l103 -79q-103 -121 -275 -121z
" />
    <glyph glyph-name="cacute" unicode="&#x107;" horiz-adv-x="455" 
d="M227 500l80 188h158l-136 -188h-102zM259 -9q-99 0 -161.5 59.5t-62.5 158.5q0 100 67 163t168 63q118 0 179 -85l-97 -76q-29 46 -83 46q-44 0 -70.5 -31t-26.5 -80t22 -76.5t65 -27.5t81 32l76 -87q-59 -59 -157 -59z" />
    <glyph glyph-name="Ccircumflex" unicode="&#x108;" horiz-adv-x="707" 
d="M285 748l193 216h11l117 -216h-102l-43 72l-67 -72h-109zM393 -9q-139 0 -232 96.5t-93 238.5q0 155 106 258.5t253 103.5q97 0 159.5 -34t111.5 -106l-112 -73q-57 91 -163 91q-93 0 -152.5 -69.5t-59.5 -171.5q0 -93 53.5 -152.5t133.5 -59.5q105 0 167 78l103 -79
q-103 -121 -275 -121z" />
    <glyph glyph-name="ccircumflex" unicode="&#x109;" horiz-adv-x="455" 
d="M119 500l193 216h11l117 -216h-102l-43 72l-67 -72h-109zM259 -9q-99 0 -161.5 59.5t-62.5 158.5q0 100 67 163t168 63q118 0 179 -85l-97 -76q-29 46 -83 46q-44 0 -70.5 -31t-26.5 -80t22 -76.5t65 -27.5t81 32l76 -87q-59 -59 -157 -59z" />
    <glyph glyph-name="Ccaron" unicode="&#x10c;" horiz-adv-x="707" 
d="M428 728l-117 217h102l43 -73l67 73h109l-193 -217h-11zM393 -9q-139 0 -232 96.5t-93 238.5q0 155 106 258.5t253 103.5q97 0 159.5 -34t111.5 -106l-112 -73q-57 91 -163 91q-93 0 -152.5 -69.5t-59.5 -171.5q0 -93 53.5 -152.5t133.5 -59.5q105 0 167 78l103 -79
q-103 -121 -275 -121z" />
    <glyph glyph-name="ccaron" unicode="&#x10d;" horiz-adv-x="455" 
d="M280 480l-117 217h102l43 -73l67 73h109l-193 -217h-11zM259 -9q-99 0 -161.5 59.5t-62.5 158.5q0 100 67 163t168 63q118 0 179 -85l-97 -76q-29 46 -83 46q-44 0 -70.5 -31t-26.5 -80t22 -76.5t65 -27.5t81 32l76 -87q-59 -59 -157 -59z" />
    <glyph glyph-name="Dcaron" unicode="&#x10e;" horiz-adv-x="667" 
d="M361 728l-117 217h102l43 -73l67 73h109l-193 -217h-11zM32 0l120 680h178q149 0 234 -85t85 -229q0 -170 -106.5 -268t-278.5 -98h-232zM190 120h77q117 0 178.5 69.5t61.5 182.5q0 89 -48 138.5t-146 49.5h-45z" />
    <glyph glyph-name="dcaron" unicode="&#x10f;" horiz-adv-x="674" 
d="M590 420l59 120q-42 24 -42 71q0 33 22.5 55t54.5 22t54.5 -22.5t22.5 -56.5q0 -36 -33 -83l-74 -106h-64zM205 -9q-73 0 -122.5 56t-49.5 148q0 111 60 175.5t147 64.5q97 0 140 -72l63 359h132l-105 -598q-4 -25 18 -25h30l-17 -99h-50q-66 0 -89 15t-27 46l-1 7
q-43 -77 -129 -77zM258 105q44 0 71.5 32.5t27.5 83.5q0 45 -23 72t-64 27q-46 0 -72.5 -32.5t-26.5 -86.5q0 -45 23 -70.5t64 -25.5z" />
    <glyph glyph-name="Dcroat" unicode="&#x110;" horiz-adv-x="667" 
d="M74 240h-56l21 119h56l57 321h178q149 0 234 -85t85 -229q0 -170 -106.5 -268t-278.5 -98h-232zM232 359h150l-21 -119h-150l-21 -120h77q117 0 178.5 69.5t61.5 182.5q0 89 -48 138.5t-146 49.5h-45z" />
    <glyph glyph-name="dcroat" unicode="&#x111;" horiz-adv-x="542" 
d="M402 490h-123l20 109h122l22 123h132l-22 -123h65l-20 -109h-64l-64 -366q-4 -25 18 -25h30l-17 -99h-50q-66 0 -89 15t-27 46l-1 7q-43 -77 -129 -77q-73 0 -122.5 56t-49.5 148q0 111 60 175.5t147 64.5q97 0 140 -72zM258 105q44 0 71.5 32.5t27.5 83.5q0 45 -23 72
t-64 27q-46 0 -72.5 -32.5t-26.5 -86.5q0 -45 23 -70.5t64 -25.5z" />
    <glyph glyph-name="Emacron" unicode="&#x112;" horiz-adv-x="576" 
d="M268 777l17 96h240l-17 -96h-240zM32 0l120 680h441l-21 -120h-305l-39 -220h267l-21 -118h-267l-18 -102h319l-22 -120h-454z" />
    <glyph glyph-name="emacron" unicode="&#x113;" horiz-adv-x="515" 
d="M173 529l17 96h240l-17 -96h-240zM173 162q22 -63 105 -63q55 0 101 36l80 -84q-73 -60 -182 -60q-113 0 -177 61t-64 158q0 100 65.5 162.5t163.5 62.5q109 0 163.5 -64t60.5 -175zM168 236l177 19q-2 35 -22.5 55t-56.5 20q-88 0 -98 -94z" />
    <glyph glyph-name="Edotaccent" unicode="&#x116;" horiz-adv-x="576" 
d="M386 756q-28 0 -50 22t-22 52t22 52t50 22q29 0 51 -22t22 -52t-22 -52t-51 -22zM32 0l120 680h441l-21 -120h-305l-39 -220h267l-21 -118h-267l-18 -102h319l-22 -120h-454z" />
    <glyph glyph-name="edotaccent" unicode="&#x117;" horiz-adv-x="515" 
d="M314 508q-28 0 -50 22t-22 52t22 52t50 22q29 0 51 -22t22 -52t-22 -52t-51 -22zM173 162q22 -63 105 -63q55 0 101 36l80 -84q-73 -60 -182 -60q-113 0 -177 61t-64 158q0 100 65.5 162.5t163.5 62.5q109 0 163.5 -64t60.5 -175zM168 236l177 19q-2 35 -22.5 55
t-56.5 20q-88 0 -98 -94z" />
    <glyph glyph-name="Eogonek" unicode="&#x118;" horiz-adv-x="576" 
d="M352 0h-320l120 680h441l-21 -120h-305l-39 -220h267l-21 -118h-267l-18 -102h319l-22 -120h-57l-55 -70q-32 -41 -32 -70t28 -29q19 0 40 28l65 -38q-35 -61 -111 -61q-45 0 -76.5 24.5t-31.5 69.5q0 59 53 107z" />
    <glyph glyph-name="eogonek" unicode="&#x119;" horiz-adv-x="515" 
d="M284 -9l-48 -61q-32 -41 -32 -70t28 -29q19 0 40 28l65 -38q-35 -61 -111 -61q-45 0 -76.5 24.5t-31.5 69.5q0 59 53 107l40 36q-83 17 -129 74.5t-46 138.5q0 100 65.5 162.5t163.5 62.5q109 0 163.5 -64t60.5 -175l-316 -34q22 -63 105 -63q55 0 101 36l80 -84
q-71 -59 -175 -60zM168 236l177 19q-2 35 -22.5 55t-56.5 20q-88 0 -98 -94z" />
    <glyph glyph-name="Ecaron" unicode="&#x11a;" horiz-adv-x="576" 
d="M370 728l-117 217h102l43 -73l67 73h109l-193 -217h-11zM32 0l120 680h441l-21 -120h-305l-39 -220h267l-21 -118h-267l-18 -102h319l-22 -120h-454z" />
    <glyph glyph-name="ecaron" unicode="&#x11b;" horiz-adv-x="515" 
d="M286 480l-117 217h102l43 -73l67 73h109l-193 -217h-11zM173 162q22 -63 105 -63q55 0 101 36l80 -84q-73 -60 -182 -60q-113 0 -177 61t-64 158q0 100 65.5 162.5t163.5 62.5q109 0 163.5 -64t60.5 -175zM168 236l177 19q-2 35 -22.5 55t-56.5 20q-88 0 -98 -94z" />
    <glyph glyph-name="Gcircumflex" unicode="&#x11c;" horiz-adv-x="747" 
d="M294 748l193 216h11l117 -216h-102l-43 72l-67 -72h-109zM421 -9q-162 0 -255.5 92.5t-93.5 243.5q0 161 107 261t257 100q91 0 148 -22.5t102 -66.5l-96 -93q-62 60 -157 60t-157.5 -64.5t-62.5 -173.5q0 -100 55 -158t155 -58q71 0 127 26l19 107h-161l21 119h286
l-53 -303q-102 -70 -241 -70z" />
    <glyph glyph-name="gcircumflex" unicode="&#x11d;" horiz-adv-x="535" 
d="M198 -222q-71 0 -125 24.5t-82 57.5l88 85q48 -55 120 -55q98 0 118 111l10 56q-47 -66 -121 -66q-73 0 -122.5 56t-49.5 148q0 111 60 175.5t147 64.5q101 0 142 -77l9 68h132l-78 -444q-35 -204 -248 -204zM259 105q44 0 71.5 32.5t27.5 83.5q0 45 -23 72t-64 27
q-46 0 -72.5 -32.5t-26.5 -86.5q0 -45 23 -70.5t64 -25.5zM150 500l193 216h11l117 -216h-102l-43 72l-67 -72h-109z" />
    <glyph glyph-name="Gbreve" unicode="&#x11e;" horiz-adv-x="747" 
d="M450 748q-69 0 -110 39t-44 101l101 15q5 -57 54 -57q48 0 60 57l99 -15q-9 -62 -51 -101t-109 -39zM421 -9q-162 0 -255.5 92.5t-93.5 243.5q0 161 107 261t257 100q91 0 148 -22.5t102 -66.5l-96 -93q-62 60 -157 60t-157.5 -64.5t-62.5 -173.5q0 -100 55 -158t155 -58
q71 0 127 26l19 107h-161l21 119h286l-53 -303q-102 -70 -241 -70z" />
    <glyph glyph-name="gbreve" unicode="&#x11f;" horiz-adv-x="535" 
d="M198 -222q-71 0 -125 24.5t-82 57.5l88 85q48 -55 120 -55q98 0 118 111l10 56q-47 -66 -121 -66q-73 0 -122.5 56t-49.5 148q0 111 60 175.5t147 64.5q101 0 142 -77l9 68h132l-78 -444q-35 -204 -248 -204zM259 105q44 0 71.5 32.5t27.5 83.5q0 45 -23 72t-64 27
q-46 0 -72.5 -32.5t-26.5 -86.5q0 -45 23 -70.5t64 -25.5zM265 500q-69 0 -110 39t-44 101l101 15q5 -57 54 -57q48 0 60 57l99 -15q-9 -62 -51 -101t-109 -39z" />
    <glyph glyph-name="Gcommaaccent" unicode="&#x122;" horiz-adv-x="747" 
d="M421 -9q-162 0 -255.5 92.5t-93.5 243.5q0 161 107 261t257 100q91 0 148 -22.5t102 -66.5l-96 -93q-62 60 -157 60t-157.5 -64.5t-62.5 -173.5q0 -100 55 -158t155 -58q71 0 127 26l19 107h-161l21 119h286l-53 -303q-102 -70 -241 -70zM262 -283l48 99q-40 21 -40 68
q0 31 22.5 52.5t52.5 21.5q31 0 53.5 -21t22.5 -52q0 -39 -33 -85l-62 -83h-64z" />
    <glyph glyph-name="gcommaaccent" unicode="&#x123;" horiz-adv-x="535" 
d="M398 741l-48 -99q40 -21 40 -68q0 -31 -22.5 -52.5t-52.5 -21.5q-31 0 -53.5 21t-22.5 52q0 39 33 85l62 83h64zM198 -222q-71 0 -125 24.5t-82 57.5l88 85q48 -55 120 -55q98 0 118 111l10 56q-47 -66 -121 -66q-73 0 -122.5 56t-49.5 148q0 111 60 175.5t147 64.5
q101 0 142 -77l9 68h132l-78 -444q-35 -204 -248 -204zM259 105q44 0 71.5 32.5t27.5 83.5q0 45 -23 72t-64 27q-46 0 -72.5 -32.5t-26.5 -86.5q0 -45 23 -70.5t64 -25.5z" />
    <glyph glyph-name="Hcircumflex" unicode="&#x124;" horiz-adv-x="695" 
d="M277 748l193 216h11l117 -216h-102l-43 72l-67 -72h-109zM512 332l62 348h137l-120 -680h-137l37 211h-285l-37 -211h-137l120 680h137l-61 -348h284z" />
    <glyph glyph-name="hcircumflex" unicode="&#x125;" horiz-adv-x="525" 
d="M175 768l193 216h11l117 -216h-102l-43 72l-67 -72h-109zM16 0l127 722h132l-65 -369q53 82 135 82q71 0 107.5 -55t20.5 -144l-20 -112q-4 -25 18 -25h30l-17 -99h-43q-72 0 -101.5 29t-17.5 99l18 104q15 86 -60 86q-40 0 -61.5 -20.5t-29.5 -66.5l-41 -231h-132z" />
    <glyph glyph-name="Imacron" unicode="&#x12a;" horiz-adv-x="281" 
d="M121 777l17 96h240l-17 -96h-240zM36 0l120 680h137l-120 -680h-137z" />
    <glyph glyph-name="imacron" unicode="&#x12b;" horiz-adv-x="260" 
d="M59 529l17 96h240l-17 -96h-240zM156 0q-75 0 -100.5 25t-12.5 98l53 303h132l-53 -302q-4 -25 18 -25h30l-17 -99h-50z" />
    <glyph glyph-name="Iogonek" unicode="&#x12e;" horiz-adv-x="281" 
d="M76 0h-40l120 680h137l-114 -647l-81 -103q-32 -41 -32 -70t28 -29q19 0 40 28l65 -38q-35 -61 -111 -61q-45 0 -76.5 24.5t-31.5 69.5q0 59 53 107z" />
    <glyph glyph-name="iogonek" unicode="&#x12f;" horiz-adv-x="260" 
d="M190 500q-34 0 -58 23t-24 59q0 35 23.5 58t57.5 23t58.5 -23t24.5 -58q0 -36 -24 -59t-58 -23zM78 10q-52 20 -35 113l53 303h132l-53 -302q-4 -25 18 -25h30l-17 -99h-50h-12l-55 -70q-32 -41 -32 -70t28 -29q19 0 40 28l65 -38q-35 -61 -111 -61q-45 0 -76.5 24.5
t-31.5 69.5q0 59 53 107z" />
    <glyph glyph-name="Idotaccent" unicode="&#x130;" horiz-adv-x="281" 
d="M245 756q-28 0 -50 22t-22 52t22 52t50 22q29 0 51 -22t22 -52t-22 -52t-51 -22zM36 0l120 680h137l-120 -680h-137z" />
    <glyph glyph-name="dotlessi" unicode="&#x131;" horiz-adv-x="260" 
d="M156 0q-75 0 -100.5 25t-12.5 98l53 303h132l-53 -302q-4 -25 18 -25h30l-17 -99h-50z" />
    <glyph glyph-name="Jcircumflex" unicode="&#x134;" horiz-adv-x="486" 
d="M279 748l193 216h11l117 -216h-102l-43 72l-67 -72h-109zM198 -9q-76 0 -126.5 37t-72.5 92l119 65q16 -34 34 -52.5t49 -18.5q35 0 54.5 19t28.5 71l84 476h137l-87 -493q-18 -105 -72 -150.5t-148 -45.5z" />
    <glyph glyph-name="jcircumflex" unicode="&#x135;" horiz-adv-x="257" 
d="M12 500l193 216h11l117 -216h-102l-43 72l-67 -72h-109zM-17 -222q-77 0 -120 48l68 82q16 -18 41 -18q30 0 36 37l88 499h132l-87 -494q-27 -154 -158 -154z" />
    <glyph glyph-name="Kcommaaccent" unicode="&#x136;" horiz-adv-x="636" 
d="M208 313q59 96 95 136l207 231h159l-281 -312l197 -368h-152l-147 277l-83 -84l-34 -193h-137l120 680h137l-39 -220q-8 -49 -42 -147zM199 -283l48 99q-40 21 -40 68q0 31 22.5 52.5t52.5 21.5q31 0 53.5 -21t22.5 -52q0 -39 -33 -85l-62 -83h-64z" />
    <glyph glyph-name="kcommaaccent" unicode="&#x137;" horiz-adv-x="491" 
d="M170 125l-22 -125h-132l127 722h132l-65 -368q-8 -46 -24 -97l161 169h150l-173 -177l62 -125q8 -16 14.5 -20.5t19.5 -4.5h31l-17 -99h-48q-53 0 -76 18t-47 67l-42 85zM134 -283l48 99q-40 21 -40 68q0 31 22.5 52.5t52.5 21.5q31 0 53.5 -21t22.5 -52q0 -39 -33 -85
l-62 -83h-64z" />
    <glyph glyph-name="Lacute" unicode="&#x139;" horiz-adv-x="544" 
d="M169 748l80 188h158l-136 -188h-102zM32 0l120 680h137l-99 -560h302l-21 -120h-439z" />
    <glyph glyph-name="lacute" unicode="&#x13a;" horiz-adv-x="260" 
d="M160 768l80 188h158l-136 -188h-102zM156 0q-75 0 -100.5 25t-12.5 98l105 599h132l-105 -598q-4 -25 18 -25h38l-17 -99h-58z" />
    <glyph glyph-name="Lcommaaccent" unicode="&#x13b;" horiz-adv-x="544" 
d="M32 0l120 680h137l-99 -560h302l-21 -120h-439zM155 -283l48 99q-40 21 -40 68q0 31 22.5 52.5t52.5 21.5q31 0 53.5 -21t22.5 -52q0 -39 -33 -85l-62 -83h-64z" />
    <glyph glyph-name="lcommaaccent" unicode="&#x13c;" horiz-adv-x="260" 
d="M156 0q-75 0 -100.5 25t-12.5 98l105 599h132l-105 -598q-4 -25 18 -25h38l-17 -99h-58zM4 -283l48 99q-40 21 -40 68q0 31 22.5 52.5t52.5 21.5q31 0 53.5 -21t22.5 -52q0 -39 -33 -85l-62 -83h-64z" />
    <glyph glyph-name="Lcaron" unicode="&#x13d;" horiz-adv-x="544" 
d="M371 420l59 120q-42 24 -42 71q0 33 22.5 55t54.5 22t54.5 -22.5t22.5 -56.5q0 -36 -33 -83l-74 -106h-64zM32 0l120 680h137l-99 -560h302l-21 -120h-439z" />
    <glyph glyph-name="lcaron" unicode="&#x13e;" horiz-adv-x="379" 
d="M295 420l59 120q-42 24 -42 71q0 33 22.5 55t54.5 22t54.5 -22.5t22.5 -56.5q0 -36 -33 -83l-74 -106h-64zM156 0q-75 0 -100.5 25t-12.5 98l105 599h132l-105 -598q-4 -25 18 -25h38l-17 -99h-58z" />
    <glyph glyph-name="Lslash" unicode="&#x141;" horiz-adv-x="554" 
d="M219 226l-19 -106h302l-21 -120h-439l31 177l-75 -25l21 120l75 25l68 383h137l-59 -334l189 64l-21 -120z" />
    <glyph glyph-name="lslash" unicode="&#x142;" horiz-adv-x="291" 
d="M216 263l-24 -139q-4 -25 18 -25h38l-17 -99h-58q-75 0 -100.5 25t-12.5 98l11 64l-73 -38l23 129l73 38l71 406h132l-58 -330l78 41l-22 -129z" />
    <glyph glyph-name="Nacute" unicode="&#x143;" horiz-adv-x="683" 
d="M356 748l80 188h158l-136 -188h-102zM565 -6l-276 331q-14 17 -29.5 41.5t-24.5 40.5l-9 16q-4 -77 -13 -125l-53 -298h-128l121 686h13l277 -332q14 -16 29.5 -40.5t24.5 -41.5l9 -16q3 72 12 125l53 299h128l-121 -686h-13z" />
    <glyph glyph-name="nacute" unicode="&#x144;" horiz-adv-x="525" 
d="M246 500l80 188h158l-136 -188h-102zM16 0l75 426h132l-16 -77q52 86 138 86q71 0 107.5 -55t20.5 -144l-20 -112q-4 -25 18 -25h30l-17 -99h-50q-75 0 -100.5 25t-12.5 98l19 109q15 86 -60 86q-40 0 -61.5 -20.5t-29.5 -66.5l-41 -231h-132z" />
    <glyph glyph-name="Ncommaaccent" unicode="&#x145;" horiz-adv-x="683" 
d="M565 -6l-276 331q-14 17 -29.5 41.5t-24.5 40.5l-9 16q-4 -77 -13 -125l-53 -298h-128l121 686h13l277 -332q14 -16 29.5 -40.5t24.5 -41.5l9 -16q3 72 12 125l53 299h128l-121 -686h-13zM232 -283l48 99q-40 21 -40 68q0 31 22.5 52.5t52.5 21.5q31 0 53.5 -21t22.5 -52
q0 -39 -33 -85l-62 -83h-64z" />
    <glyph glyph-name="ncommaaccent" unicode="&#x146;" horiz-adv-x="525" 
d="M16 0l75 426h132l-16 -77q52 86 138 86q71 0 107.5 -55t20.5 -144l-20 -112q-4 -25 18 -25h30l-17 -99h-50q-75 0 -100.5 25t-12.5 98l19 109q15 86 -60 86q-40 0 -61.5 -20.5t-29.5 -66.5l-41 -231h-132zM149 -283l48 99q-40 21 -40 68q0 31 22.5 52.5t52.5 21.5
q31 0 53.5 -21t22.5 -52q0 -39 -33 -85l-62 -83h-64z" />
    <glyph glyph-name="Ncaron" unicode="&#x147;" horiz-adv-x="683" 
d="M412 728l-117 217h102l43 -73l67 73h109l-193 -217h-11zM565 -6l-276 331q-14 17 -29.5 41.5t-24.5 40.5l-9 16q-4 -77 -13 -125l-53 -298h-128l121 686h13l277 -332q14 -16 29.5 -40.5t24.5 -41.5l9 -16q3 72 12 125l53 299h128l-121 -686h-13z" />
    <glyph glyph-name="ncaron" unicode="&#x148;" horiz-adv-x="525" 
d="M292 480l-117 217h102l43 -73l67 73h109l-193 -217h-11zM16 0l75 426h132l-16 -77q52 86 138 86q71 0 107.5 -55t20.5 -144l-20 -112q-4 -25 18 -25h30l-17 -99h-50q-75 0 -100.5 25t-12.5 98l19 109q15 86 -60 86q-40 0 -61.5 -20.5t-29.5 -66.5l-41 -231h-132z" />
    <glyph glyph-name="Omacron" unicode="&#x14c;" horiz-adv-x="780" 
d="M339 777l17 96h240l-17 -96h-240zM398 -9q-141 0 -235.5 95t-94.5 242q0 161 105 260.5t256 99.5q141 0 236 -95t95 -242q0 -161 -105.5 -260.5t-256.5 -99.5zM403 113q98 0 157 65.5t59 175.5q0 96 -54 154t-140 58q-98 0 -157 -65.5t-59 -175.5q0 -96 54 -154t140 -58z
" />
    <glyph glyph-name="omacron" unicode="&#x14d;" horiz-adv-x="530" 
d="M190 529l17 96h240l-17 -96h-240zM260 -9q-95 0 -160 61.5t-65 154.5q0 102 68 165t169 63q96 0 160.5 -61t64.5 -156q0 -101 -68 -164t-169 -63zM264 103q45 0 71 32t26 84q0 47 -25 74.5t-68 27.5q-45 0 -71 -32t-26 -84q0 -47 25 -74.5t68 -27.5z" />
    <glyph glyph-name="Ohungarumlaut" unicode="&#x150;" horiz-adv-x="780" 
d="M483 748l86 188h138l-122 -188h-102zM302 748l86 188h138l-122 -188h-102zM398 -9q-141 0 -235.5 95t-94.5 242q0 161 105 260.5t256 99.5q141 0 236 -95t95 -242q0 -161 -105.5 -260.5t-256.5 -99.5zM403 113q98 0 157 65.5t59 175.5q0 96 -54 154t-140 58
q-98 0 -157 -65.5t-59 -175.5q0 -96 54 -154t140 -58z" />
    <glyph glyph-name="ohungarumlaut" unicode="&#x151;" horiz-adv-x="530" 
d="M333 500l86 188h138l-122 -188h-102zM152 500l86 188h138l-122 -188h-102zM260 -9q-95 0 -160 61.5t-65 154.5q0 102 68 165t169 63q96 0 160.5 -61t64.5 -156q0 -101 -68 -164t-169 -63zM264 103q45 0 71 32t26 84q0 47 -25 74.5t-68 27.5q-45 0 -71 -32t-26 -84
q0 -47 25 -74.5t68 -27.5z" />
    <glyph glyph-name="OE" unicode="&#x152;" horiz-adv-x="983" 
d="M388 0q-150 0 -234.5 85.5t-84.5 228.5q0 164 108.5 265t276.5 101h547l-21 -120h-305l-39 -220h267l-21 -118h-267l-18 -102h319l-22 -120h-506zM405 120h55l78 440h-87q-117 0 -178.5 -69.5t-61.5 -182.5q0 -89 48 -138.5t146 -49.5z" />
    <glyph glyph-name="oe" unicode="&#x153;" horiz-adv-x="840" 
d="M427 68q-57 -77 -167 -77q-95 0 -160 61.5t-65 154.5q0 102 68.5 165t171.5 63q102 0 155 -76q57 76 160 76q109 0 163.5 -64t60.5 -175l-316 -34q22 -63 105 -63q55 0 101 36l80 -84q-73 -60 -182 -60q-120 0 -175 77zM493 236l177 19q-2 35 -22.5 55t-56.5 20
q-88 0 -98 -94zM264 103q45 0 71 32t26 85q0 46 -25 73.5t-68 27.5q-45 0 -71 -32t-26 -84q0 -47 25 -74.5t68 -27.5z" />
    <glyph glyph-name="Racute" unicode="&#x154;" horiz-adv-x="602" 
d="M293 748l80 188h158l-136 -188h-102zM426 204l108 -204h-144l-90 170q-10 -1 -31 -1h-70l-30 -169h-137l120 680h151q131 0 204.5 -63.5t73.5 -178.5q0 -80 -39 -143t-116 -91zM219 287h52q169 0 169 151q0 123 -151 123h-22z" />
    <glyph glyph-name="racute" unicode="&#x155;" horiz-adv-x="379" 
d="M187 500l80 188h158l-136 -188h-102zM16 0l75 426h132l-17 -82q52 91 131 91q34 0 64 -17l-50 -121q-22 14 -55 14q-47 0 -75 -26.5t-40 -95.5l-33 -189h-132z" />
    <glyph glyph-name="Rcommaaccent" unicode="&#x156;" horiz-adv-x="602" 
d="M426 204l108 -204h-144l-90 170q-10 -1 -31 -1h-70l-30 -169h-137l120 680h151q131 0 204.5 -63.5t73.5 -178.5q0 -80 -39 -143t-116 -91zM176 -283l48 99q-40 21 -40 68q0 31 22.5 52.5t52.5 21.5q31 0 53.5 -21t22.5 -52q0 -39 -33 -85l-62 -83h-64zM219 287h52
q169 0 169 151q0 123 -151 123h-22z" />
    <glyph glyph-name="rcommaaccent" unicode="&#x157;" horiz-adv-x="379" 
d="M16 0l75 426h132l-17 -82q52 91 131 91q34 0 64 -17l-50 -121q-22 14 -55 14q-47 0 -75 -26.5t-40 -95.5l-33 -189h-132zM-19 -283l48 99q-40 21 -40 68q0 31 22.5 52.5t52.5 21.5q31 0 53.5 -21t22.5 -52q0 -39 -33 -85l-62 -83h-64z" />
    <glyph glyph-name="Rcaron" unicode="&#x158;" horiz-adv-x="602" 
d="M353 728l-117 217h102l43 -73l67 73h109l-193 -217h-11zM426 204l108 -204h-144l-90 170q-10 -1 -31 -1h-70l-30 -169h-137l120 680h151q131 0 204.5 -63.5t73.5 -178.5q0 -80 -39 -143t-116 -91zM219 287h52q169 0 169 151q0 123 -151 123h-22z" />
    <glyph glyph-name="rcaron" unicode="&#x159;" horiz-adv-x="379" 
d="M243 480l-117 217h102l43 -73l67 73h109l-193 -217h-11zM16 0l75 426h132l-17 -82q52 91 131 91q34 0 64 -17l-50 -121q-22 14 -55 14q-47 0 -75 -26.5t-40 -95.5l-33 -189h-132z" />
    <glyph glyph-name="Sacute" unicode="&#x15a;" horiz-adv-x="526" 
d="M271 748l80 188h158l-136 -188h-102zM251 -9q-89 0 -155.5 41.5t-94.5 96.5l108 73q56 -91 142 -91q43 0 70 19.5t27 52.5q0 27 -17.5 45t-67.5 51l-32 21q-67 44 -97.5 89.5t-30.5 110.5q0 81 55 134.5t157 53.5q118 0 185 -85l-98 -84q-41 51 -94 51q-34 0 -52 -18.5
t-18 -45.5q0 -25 15.5 -43.5t54.5 -43.5l33 -21q77 -49 112 -93t35 -112q0 -98 -66 -150t-171 -52z" />
    <glyph glyph-name="sacute" unicode="&#x15b;" horiz-adv-x="413" 
d="M181 500l80 188h158l-136 -188h-102zM186 -9q-126 0 -182 88l91 64q35 -49 94 -49q51 0 51 26q0 4 -1 7t-4 5.5t-6.5 5t-11 6l-14 6.5t-19.5 8.5l-24 10.5q-48 22 -72.5 52t-24.5 77q0 65 44.5 101t115.5 36q95 0 149 -63l-86 -72q-27 34 -63 34q-39 0 -39 -26
q0 -11 12 -19t49 -24q63 -27 91.5 -55.5t28.5 -84.5q0 -61 -46 -97.5t-133 -36.5z" />
    <glyph glyph-name="Scircumflex" unicode="&#x15c;" horiz-adv-x="526" 
d="M172 748l193 216h11l117 -216h-102l-43 72l-67 -72h-109zM251 -9q-89 0 -155.5 41.5t-94.5 96.5l108 73q56 -91 142 -91q43 0 70 19.5t27 52.5q0 27 -17.5 45t-67.5 51l-32 21q-67 44 -97.5 89.5t-30.5 110.5q0 81 55 134.5t157 53.5q118 0 185 -85l-98 -84
q-41 51 -94 51q-34 0 -52 -18.5t-18 -45.5q0 -25 15.5 -43.5t54.5 -43.5l33 -21q77 -49 112 -93t35 -112q0 -98 -66 -150t-171 -52z" />
    <glyph glyph-name="scircumflex" unicode="&#x15d;" horiz-adv-x="413" 
d="M84 500l193 216h11l117 -216h-102l-43 72l-67 -72h-109zM186 -9q-126 0 -182 88l91 64q35 -49 94 -49q51 0 51 26q0 4 -1 7t-4 5.5t-6.5 5t-11 6l-14 6.5t-19.5 8.5l-24 10.5q-48 22 -72.5 52t-24.5 77q0 65 44.5 101t115.5 36q95 0 149 -63l-86 -72q-27 34 -63 34
q-39 0 -39 -26q0 -11 12 -19t49 -24q63 -27 91.5 -55.5t28.5 -84.5q0 -61 -46 -97.5t-133 -36.5z" />
    <glyph glyph-name="Scedilla" unicode="&#x15e;" horiz-adv-x="526" 
d="M235 -240q-86 0 -117 62l65 36q16 -28 44 -28q38 0 38 36q0 37 -42 37h-35l16 92q-72 10 -125.5 48.5t-77.5 85.5l108 73q56 -91 142 -91q43 0 70 19.5t27 52.5q0 27 -17.5 45t-67.5 51l-32 21q-67 44 -97.5 89.5t-30.5 110.5q0 81 55 134.5t157 53.5q118 0 185 -85
l-98 -84q-41 51 -94 51q-34 0 -52 -18.5t-18 -45.5q0 -25 15.5 -43.5t54.5 -43.5l33 -21q77 -49 112 -93t35 -112q0 -92 -59 -144t-155 -57l-5 -33q30 -5 52.5 -30t22.5 -64q0 -49 -32 -77t-77 -28z" />
    <glyph glyph-name="scedilla" unicode="&#x15f;" horiz-adv-x="413" 
d="M180 -240q-86 0 -117 62l65 36q16 -28 44 -28q38 0 38 36q0 37 -42 37h-35l16 90q-99 12 -145 86l91 64q35 -49 94 -49q51 0 51 26q0 4 -1 7t-4 5.5t-6.5 5t-11 6l-14 6.5t-19.5 8.5l-24 10.5q-48 22 -72.5 52t-24.5 77q0 65 44.5 101t115.5 36q95 0 149 -63l-86 -72
q-27 34 -63 34q-39 0 -39 -26q0 -11 12 -19t49 -24q63 -27 91.5 -55.5t28.5 -84.5q0 -55 -37.5 -90t-108.5 -42l-5 -34q30 -5 52.5 -30t22.5 -64q0 -49 -32 -77t-77 -28z" />
    <glyph glyph-name="Scaron" unicode="&#x160;" horiz-adv-x="526" 
d="M313 728l-117 217h102l43 -73l67 73h109l-193 -217h-11zM251 -9q-89 0 -155.5 41.5t-94.5 96.5l108 73q56 -91 142 -91q43 0 70 19.5t27 52.5q0 27 -17.5 45t-67.5 51l-32 21q-67 44 -97.5 89.5t-30.5 110.5q0 81 55 134.5t157 53.5q118 0 185 -85l-98 -84q-41 51 -94 51
q-34 0 -52 -18.5t-18 -45.5q0 -25 15.5 -43.5t54.5 -43.5l33 -21q77 -49 112 -93t35 -112q0 -98 -66 -150t-171 -52z" />
    <glyph glyph-name="scaron" unicode="&#x161;" horiz-adv-x="413" 
d="M226 480l-117 217h102l43 -73l67 73h109l-193 -217h-11zM186 -9q-126 0 -182 88l91 64q35 -49 94 -49q51 0 51 26q0 4 -1 7t-4 5.5t-6.5 5t-11 6l-14 6.5t-19.5 8.5l-24 10.5q-48 22 -72.5 52t-24.5 77q0 65 44.5 101t115.5 36q95 0 149 -63l-86 -72q-27 34 -63 34
q-39 0 -39 -26q0 -11 12 -19t49 -24q63 -27 91.5 -55.5t28.5 -84.5q0 -61 -46 -97.5t-133 -36.5z" />
    <glyph glyph-name="Tcommaaccent" unicode="&#x162;" horiz-adv-x="575" 
d="M184 0l99 560h-191l21 120h518l-21 -120h-189l-99 -560h-138zM151 -283l48 99q-40 21 -40 68q0 31 22.5 52.5t52.5 21.5q31 0 53.5 -21t22.5 -52q0 -39 -33 -85l-62 -83h-64z" />
    <glyph glyph-name="Tcommaaccent" unicode="&#x21a;" horiz-adv-x="575" 
d="M184 0l99 560h-191l21 120h518l-21 -120h-189l-99 -560h-138zM151 -283l48 99q-40 21 -40 68q0 31 22.5 52.5t52.5 21.5q31 0 53.5 -21t22.5 -52q0 -39 -33 -85l-62 -83h-64z" />
    <glyph glyph-name="tcommaaccent" unicode="&#x163;" horiz-adv-x="362" 
d="M112 317h-62l19 109h62l39 222h131l-39 -222h103l-19 -109h-103l-28 -161q-10 -53 25 -53q21 0 46 15l42 -93q-46 -34 -111 -34q-72 0 -110.5 39t-22.5 130zM65 -283l48 99q-40 21 -40 68q0 31 22.5 52.5t52.5 21.5q31 0 53.5 -21t22.5 -52q0 -39 -33 -85l-62 -83h-64z
" />
    <glyph glyph-name="tcommaaccent" unicode="&#x21b;" horiz-adv-x="362" 
d="M112 317h-62l19 109h62l39 222h131l-39 -222h103l-19 -109h-103l-28 -161q-10 -53 25 -53q21 0 46 15l42 -93q-46 -34 -111 -34q-72 0 -110.5 39t-22.5 130zM65 -283l48 99q-40 21 -40 68q0 31 22.5 52.5t52.5 21.5q31 0 53.5 -21t22.5 -52q0 -39 -33 -85l-62 -83h-64z
" />
    <glyph glyph-name="Tcaron" unicode="&#x164;" horiz-adv-x="575" 
d="M363 728l-117 217h102l43 -73l67 73h109l-193 -217h-11zM184 0l99 560h-191l21 120h518l-21 -120h-189l-99 -560h-138z" />
    <glyph glyph-name="tcaron" unicode="&#x165;" horiz-adv-x="480" 
d="M396 420l59 120q-42 24 -42 71q0 33 22.5 55t54.5 22t54.5 -22.5t22.5 -56.5q0 -36 -33 -83l-74 -106h-64zM112 317h-62l19 109h62l39 222h131l-39 -222h103l-19 -109h-103l-28 -161q-10 -53 25 -53q21 0 46 15l42 -93q-46 -34 -111 -34q-72 0 -110.5 39t-22.5 130z" />
    <glyph glyph-name="Umacron" unicode="&#x16a;" horiz-adv-x="669" 
d="M306 777l17 96h240l-17 -96h-240zM323 -9q-125 0 -196.5 77.5t-49.5 201.5l72 410h138l-74 -420q-13 -72 17.5 -109.5t99.5 -37.5q63 0 97 32.5t46 100.5l77 434h138l-81 -456q-21 -115 -94.5 -174t-189.5 -59z" />
    <glyph glyph-name="umacron" unicode="&#x16b;" horiz-adv-x="528" 
d="M194 529l17 96h240l-17 -96h-240zM176 -9q-71 0 -107.5 55t-20.5 144l41 236h133l-41 -232q-15 -86 60 -86q40 0 61.5 20.5t29.5 66.5l41 231h132l-53 -302q-4 -25 18 -25h30l-17 -99h-50q-66 0 -89 15t-27 46l-1 7q-54 -77 -140 -77z" />
    <glyph glyph-name="Ubreve" unicode="&#x16c;" horiz-adv-x="669" 
d="M429 748q-69 0 -110 39t-44 101l101 15q5 -57 54 -57q48 0 60 57l99 -15q-9 -62 -51 -101t-109 -39zM323 -9q-125 0 -196.5 77.5t-49.5 201.5l72 410h138l-74 -420q-13 -72 17.5 -109.5t99.5 -37.5q63 0 97 32.5t46 100.5l77 434h138l-81 -456q-21 -115 -94.5 -174
t-189.5 -59z" />
    <glyph glyph-name="ubreve" unicode="&#x16d;" horiz-adv-x="528" 
d="M309 500q-69 0 -110 39t-44 101l101 15q5 -57 54 -57q48 0 60 57l99 -15q-9 -62 -51 -101t-109 -39zM176 -9q-71 0 -107.5 55t-20.5 144l41 236h133l-41 -232q-15 -86 60 -86q40 0 61.5 20.5t29.5 66.5l41 231h132l-53 -302q-4 -25 18 -25h30l-17 -99h-50q-66 0 -89 15
t-27 46l-1 7q-54 -77 -140 -77z" />
    <glyph glyph-name="Uring" unicode="&#x16e;" horiz-adv-x="669" 
d="M425 722q-53 0 -89 35t-36 84t36 84t89 35t89 -35t36 -84t-36 -84t-89 -35zM323 -9q-125 0 -196.5 77.5t-49.5 201.5l72 410h138l-74 -420q-13 -72 17.5 -109.5t99.5 -37.5q63 0 97 32.5t46 100.5l77 434h138l-81 -456q-21 -115 -94.5 -174t-189.5 -59zM425 795
q18 0 30 12.5t12 33.5t-12 33.5t-30 12.5t-30 -12.5t-12 -33.5t12 -33.5t30 -12.5z" />
    <glyph glyph-name="uring" unicode="&#x16f;" horiz-adv-x="528" 
d="M310 474q-53 0 -89 35t-36 84t36 84t89 35t89 -35t36 -84t-36 -84t-89 -35zM176 -9q-71 0 -107.5 55t-20.5 144l41 236h133l-41 -232q-15 -86 60 -86q40 0 61.5 20.5t29.5 66.5l41 231h132l-53 -302q-4 -25 18 -25h30l-17 -99h-50q-66 0 -89 15t-27 46l-1 7
q-54 -77 -140 -77zM310 547q18 0 30 12.5t12 33.5t-12 33.5t-30 12.5t-30 -12.5t-12 -33.5t12 -33.5t30 -12.5z" />
    <glyph glyph-name="Uhungarumlaut" unicode="&#x170;" horiz-adv-x="669" 
d="M457 748l86 188h138l-122 -188h-102zM276 748l86 188h138l-122 -188h-102zM323 -9q-125 0 -196.5 77.5t-49.5 201.5l72 410h138l-74 -420q-13 -72 17.5 -109.5t99.5 -37.5q63 0 97 32.5t46 100.5l77 434h138l-81 -456q-21 -115 -94.5 -174t-189.5 -59z" />
    <glyph glyph-name="uhungarumlaut" unicode="&#x171;" horiz-adv-x="528" 
d="M342 500l86 188h138l-122 -188h-102zM161 500l86 188h138l-122 -188h-102zM176 -9q-71 0 -107.5 55t-20.5 144l41 236h133l-41 -232q-15 -86 60 -86q40 0 61.5 20.5t29.5 66.5l41 231h132l-53 -302q-4 -25 18 -25h30l-17 -99h-50q-66 0 -89 15t-27 46l-1 7
q-54 -77 -140 -77z" />
    <glyph glyph-name="Uogonek" unicode="&#x172;" horiz-adv-x="669" 
d="M285 -7q-110 12 -169 87.5t-39 189.5l72 410h138l-74 -420q-13 -72 17.5 -109.5t99.5 -37.5q63 0 97 32.5t46 100.5l77 434h138l-81 -456q-19 -104 -81 -162.5t-162 -68.5l-49 -63q-32 -41 -32 -70t28 -29q19 0 40 28l65 -38q-35 -61 -111 -61q-45 0 -76.5 24.5
t-31.5 69.5q0 59 53 107z" />
    <glyph glyph-name="uogonek" unicode="&#x173;" horiz-adv-x="528" 
d="M345 15q-25 14 -28 46l-1 7q-54 -77 -140 -77q-71 0 -107.5 55t-20.5 144l41 236h133l-41 -232q-15 -86 60 -86q40 0 61.5 20.5t29.5 66.5l41 231h132l-53 -302q-4 -25 18 -25h30l-17 -99h-50q-18 0 -27 1l-14 -17l-27 -36l-14 -18q-32 -41 -32 -70t28 -29q19 0 40 28
l65 -38q-35 -61 -111 -61q-45 0 -76.5 24.5t-31.5 69.5q0 59 58 112z" />
    <glyph glyph-name="Ydieresis" unicode="&#x178;" horiz-adv-x="664" 
d="M527 756q-28 0 -50.5 22t-22.5 52t22.5 52t50.5 22q29 0 50.5 -22t21.5 -52t-21.5 -52t-50.5 -22zM317 756q-28 0 -50 22t-22 52t22 52t50 22q29 0 51 -22t22 -52t-22 -52t-51 -22zM272 217l-170 463h145l78 -219q8 -23 16 -57t12 -56l4 -22q37 85 72 135l152 219h149
l-320 -457l-39 -223h-137z" />
    <glyph glyph-name="Zacute" unicode="&#x179;" horiz-adv-x="595" 
d="M324 748l80 188h158l-136 -188h-102zM2 0v12l389 549h-253l21 119h462v-12l-390 -549h291l-21 -119h-499z" />
    <glyph glyph-name="zacute" unicode="&#x17a;" horiz-adv-x="437" 
d="M211 500l80 188h158l-136 -188h-102zM-1 0v11l224 307h-160l19 108h362v-11l-224 -307h164l-19 -108h-366z" />
    <glyph glyph-name="Zdotaccent" unicode="&#x17b;" horiz-adv-x="595" 
d="M391 756q-28 0 -50 22t-22 52t22 52t50 22q29 0 51 -22t22 -52t-22 -52t-51 -22zM2 0v12l389 549h-253l21 119h462v-12l-390 -549h291l-21 -119h-499z" />
    <glyph glyph-name="zdotaccent" unicode="&#x17c;" horiz-adv-x="437" 
d="M274 508q-28 0 -50 22t-22 52t22 52t50 22q29 0 51 -22t22 -52t-22 -52t-51 -22zM-1 0v11l224 307h-160l19 108h362v-11l-224 -307h164l-19 -108h-366z" />
    <glyph glyph-name="Zcaron" unicode="&#x17d;" horiz-adv-x="595" 
d="M370 728l-117 217h102l43 -73l67 73h109l-193 -217h-11zM2 0v12l389 549h-253l21 119h462v-12l-390 -549h291l-21 -119h-499z" />
    <glyph glyph-name="zcaron" unicode="&#x17e;" horiz-adv-x="437" 
d="M257 480l-117 217h102l43 -73l67 73h109l-193 -217h-11zM-1 0v11l224 307h-160l19 108h362v-11l-224 -307h164l-19 -108h-366z" />
    <glyph glyph-name="florin" unicode="&#x192;" horiz-adv-x="400" 
d="M110 184h-70l19 105h70l31 176q14 80 53.5 116.5t106.5 36.5q86 0 132 -65l-84 -73q-16 24 -41 24q-31 0 -39 -43l-30 -172h105l-19 -105h-105l-69 -396h-129z" />
    <glyph glyph-name="Scommaaccent" unicode="&#x218;" horiz-adv-x="526" 
d="M251 -9q-89 0 -155.5 41.5t-94.5 96.5l108 73q56 -91 142 -91q43 0 70 19.5t27 52.5q0 27 -17.5 45t-67.5 51l-32 21q-67 44 -97.5 89.5t-30.5 110.5q0 81 55 134.5t157 53.5q118 0 185 -85l-98 -84q-41 51 -94 51q-34 0 -52 -18.5t-18 -45.5q0 -25 15.5 -43.5
t54.5 -43.5l33 -21q77 -49 112 -93t35 -112q0 -98 -66 -150t-171 -52zM116 -283l48 99q-40 21 -40 68q0 31 22.5 52.5t52.5 21.5q31 0 53.5 -21t22.5 -52q0 -39 -33 -85l-62 -83h-64z" />
    <glyph glyph-name="scommaaccent" unicode="&#x219;" horiz-adv-x="413" 
d="M186 -9q-126 0 -182 88l91 64q35 -49 94 -49q51 0 51 26q0 4 -1 7t-4 5.5t-6.5 5t-11 6l-14 6.5t-19.5 8.5l-24 10.5q-48 22 -72.5 52t-24.5 77q0 65 44.5 101t115.5 36q95 0 149 -63l-86 -72q-27 34 -63 34q-39 0 -39 -26q0 -11 12 -19t49 -24q63 -27 91.5 -55.5
t28.5 -84.5q0 -61 -46 -97.5t-133 -36.5zM70 -283l48 99q-40 21 -40 68q0 31 22.5 52.5t52.5 21.5q31 0 53.5 -21t22.5 -52q0 -39 -33 -85l-62 -83h-64z" />
    <glyph glyph-name="circumflex" unicode="&#x2c6;" horiz-adv-x="490" 
d="M136 500l193 216h11l117 -216h-102l-43 72l-67 -72h-109z" />
    <glyph glyph-name="caron" unicode="&#x2c7;" horiz-adv-x="490" 
d="M288 480l-117 217h102l43 -73l67 73h109l-193 -217h-11z" />
    <glyph glyph-name="breve" unicode="&#x2d8;" horiz-adv-x="490" 
d="M287 500q-69 0 -110 39t-44 101l101 15q5 -57 54 -57q48 0 60 57l99 -15q-9 -62 -51 -101t-109 -39z" />
    <glyph glyph-name="dotaccent" unicode="&#x2d9;" horiz-adv-x="490" 
d="M311 508q-28 0 -50 22t-22 52t22 52t50 22q29 0 51 -22t22 -52t-22 -52t-51 -22z" />
    <glyph glyph-name="ring" unicode="&#x2da;" horiz-adv-x="490" 
d="M314 474q-53 0 -89 35t-36 84t36 84t89 35t89 -35t36 -84t-36 -84t-89 -35zM314 547q18 0 30 12.5t12 33.5t-12 33.5t-30 12.5t-30 -12.5t-12 -33.5t12 -33.5t30 -12.5z" />
    <glyph glyph-name="ogonek" unicode="&#x2db;" horiz-adv-x="490" 
d="M200 -240q-45 0 -76.5 24.5t-31.5 69.5q0 59 53 107l43 39h77l-55 -70q-32 -41 -32 -70t28 -29q19 0 40 28l65 -38q-35 -61 -111 -61z" />
    <glyph glyph-name="tilde" unicode="&#x2dc;" horiz-adv-x="490" 
d="M224 500l-87 9q9 68 40 104t74 36q34 0 63 -20q5 -4 13.5 -10t12.5 -8.5t9 -4.5t10 -2q23 0 31 45l87 -9q-7 -68 -38.5 -104t-75.5 -36q-34 0 -63 20l-14 9.5t-11.5 8.5t-9 5t-10.5 2q-23 0 -31 -45z" />
    <glyph glyph-name="hungarumlaut" unicode="&#x2dd;" horiz-adv-x="490" 
d="M310 500l86 188h138l-122 -188h-102zM129 500l86 188h138l-122 -188h-102z" />
    <glyph glyph-name="Delta" unicode="&#x394;" 
d="M131 173q-34 0 -58.5 24t-24.5 61q0 36 24.5 60t58.5 24t58.5 -24t24.5 -60q0 -37 -24.5 -61t-58.5 -24z" />
    <glyph glyph-name="Delta" unicode="&#x2206;" 
d="M131 173q-34 0 -58.5 24t-24.5 61q0 36 24.5 60t58.5 24t58.5 -24t24.5 -60q0 -37 -24.5 -61t-58.5 -24z" />
    <glyph glyph-name="Omega" unicode="&#x3a9;" 
d="M131 173q-34 0 -58.5 24t-24.5 61q0 36 24.5 60t58.5 24t58.5 -24t24.5 -60q0 -37 -24.5 -61t-58.5 -24z" />
    <glyph glyph-name="Omega" unicode="&#x2126;" 
d="M131 173q-34 0 -58.5 24t-24.5 61q0 36 24.5 60t58.5 24t58.5 -24t24.5 -60q0 -37 -24.5 -61t-58.5 -24z" />
    <glyph glyph-name="pi" unicode="&#x3c0;" 
d="M131 173q-34 0 -58.5 24t-24.5 61q0 36 24.5 60t58.5 24t58.5 -24t24.5 -60q0 -37 -24.5 -61t-58.5 -24z" />
    <glyph glyph-name="endash" unicode="&#x2013;" horiz-adv-x="398" 
d="M23 171l21 116h339l-21 -116h-339z" />
    <glyph glyph-name="emdash" unicode="&#x2014;" horiz-adv-x="644" 
d="M23 171l21 116h585l-21 -116h-585z" />
    <glyph glyph-name="quoteleft" unicode="&#x2018;" horiz-adv-x="239" 
d="M170 412q-32 0 -54.5 22.5t-22.5 56.5q0 36 33 83l74 106h64l-59 -120q42 -24 42 -71q0 -33 -22.5 -55t-54.5 -22z" />
    <glyph glyph-name="quoteright" unicode="&#x2019;" horiz-adv-x="239" 
d="M97 420l59 120q-42 24 -42 71q0 33 22.5 55t54.5 22t54.5 -22.5t22.5 -56.5q0 -36 -33 -83l-74 -106h-64z" />
    <glyph glyph-name="quotesinglbase" unicode="&#x201a;" horiz-adv-x="239" 
d="M5 -103l59 120q-42 24 -42 71q0 33 22.5 55t54.5 22t54.5 -22.5t22.5 -56.5q0 -36 -33 -83l-74 -106h-64z" />
    <glyph glyph-name="quotedblleft" unicode="&#x201c;" horiz-adv-x="452" 
d="M382 412q-32 0 -54.5 22.5t-22.5 56.5q0 36 33 83l74 106h64l-59 -120q42 -24 42 -71q0 -33 -22.5 -55t-54.5 -22zM170 412q-32 0 -54.5 22.5t-22.5 56.5q0 36 33 83l74 106h64l-59 -120q42 -24 42 -71q0 -33 -22.5 -55t-54.5 -22z" />
    <glyph glyph-name="quotedblright" unicode="&#x201d;" horiz-adv-x="451" 
d="M309 420l59 120q-42 24 -42 71q0 33 22.5 55t54.5 22t54.5 -22.5t22.5 -56.5q0 -36 -33 -83l-74 -106h-64zM97 420l59 120q-42 24 -42 71q0 33 22.5 55t54.5 22t54.5 -22.5t22.5 -56.5q0 -36 -33 -83l-74 -106h-64z" />
    <glyph glyph-name="quotedblbase" unicode="&#x201e;" horiz-adv-x="451" 
d="M217 -103l59 120q-42 24 -42 71q0 33 22.5 55t54.5 22t54.5 -22.5t22.5 -56.5q0 -36 -33 -83l-74 -106h-64zM5 -103l59 120q-42 24 -42 71q0 33 22.5 55t54.5 22t54.5 -22.5t22.5 -56.5q0 -36 -33 -83l-74 -106h-64z" />
    <glyph glyph-name="dagger" unicode="&#x2020;" horiz-adv-x="355" 
d="M166 475h-88l19 108h88l17 97h119l-17 -97h88l-19 -108h-88l-41 -233h-119z" />
    <glyph glyph-name="daggerdbl" unicode="&#x2021;" horiz-adv-x="355" 
d="M168 486h-88l17 97h88l18 97h119l-17 -97h87l-17 -97h-88l-9 -51h88l-17 -97h-88l-17 -97h-119l17 97h-88l17 97h88z" />
    <glyph glyph-name="bullet" unicode="&#x2022;" horiz-adv-x="268" 
d="M142 145q-42 0 -73 31.5t-31 76.5q0 46 31 77t73 31q43 0 74.5 -31t31.5 -77q0 -45 -31.5 -76.5t-74.5 -31.5z" />
    <glyph glyph-name="ellipsis" unicode="&#x2026;" horiz-adv-x="714" 
d="M572 -6q-34 0 -57.5 23.5t-23.5 59.5q0 35 23.5 59t57.5 24t57.5 -24t23.5 -59q0 -36 -23.5 -59.5t-57.5 -23.5zM335 -6q-34 0 -57.5 23.5t-23.5 59.5q0 35 24 59t57 24t57 -24t24 -59q0 -36 -23.5 -59.5t-57.5 -23.5zM98 -6q-34 0 -57.5 23.5t-23.5 59.5q0 35 23.5 59
t57.5 24t57.5 -24t23.5 -59q0 -36 -23.5 -59.5t-57.5 -23.5z" />
    <glyph glyph-name="perthousand" unicode="&#x2030;" horiz-adv-x="1236" 
d="M213 217q-69 0 -113.5 44.5t-44.5 108.5q0 71 47.5 116t115.5 45q70 0 114 -43t44 -107q0 -71 -47.5 -117.5t-115.5 -46.5zM175 0l419 522h127l-419 -522h-127zM1038 -9q-69 0 -113.5 44.5t-44.5 108.5q0 71 47.5 116t115.5 45q70 0 114 -43t44 -107q0 -71 -47.5 -117.5
t-115.5 -46.5zM678 -9q-69 0 -113.5 44.5t-44.5 108.5q0 71 47.5 116t115.5 45q70 0 114 -43t44 -107q0 -71 -47.5 -117.5t-115.5 -46.5zM214 314q22 0 37.5 18t15.5 45q0 28 -14 42.5t-35 14.5q-23 0 -38 -17t-15 -46q0 -26 14.5 -41.5t34.5 -15.5zM1039 88q22 0 37.5 18
t15.5 45q0 28 -14 42.5t-35 14.5q-23 0 -38 -17t-15 -46q0 -26 14.5 -41.5t34.5 -15.5zM679 88q22 0 37.5 18t15.5 45q0 28 -14 42.5t-35 14.5q-23 0 -38 -17t-15 -46q0 -26 14.5 -41.5t34.5 -15.5z" />
    <glyph glyph-name="guilsinglleft" unicode="&#x2039;" horiz-adv-x="290" 
d="M103 32l-72 164v8l123 169h133l-128 -175l73 -166h-129z" />
    <glyph glyph-name="guilsinglright" unicode="&#x203a;" horiz-adv-x="290" 
d="M3 32l128 175l-73 166h129l72 -164v-8l-123 -169h-133z" />
    <glyph glyph-name="fraction" unicode="&#x2044;" horiz-adv-x="522" 
d="M-46 0l529 680h133l-529 -680h-133z" />
    <glyph glyph-name="fraction" unicode="&#x2215;" horiz-adv-x="522" 
d="M-46 0l529 680h133l-529 -680h-133z" />
    <glyph glyph-name="Euro" unicode="&#x20ac;" horiz-adv-x="590" 
d="M90 283h-58l15 82h64q32 76 100.5 121t148.5 45q71 0 121.5 -23.5t90.5 -76.5l-99 -68q-20 28 -44.5 40.5t-66.5 12.5q-70 0 -108 -51h135l-15 -82h-150q0 -4 -0.5 -14t-0.5 -15v-17h144l-14 -82h-105q32 -51 103 -51q63 0 106 48l89 -73q-70 -88 -197 -88
q-85 0 -150 44.5t-93 119.5h-95l14 82h64v16q0 20 1 30z" />
    <glyph glyph-name="trademark" unicode="&#x2122;" horiz-adv-x="697" 
d="M365 378l54 306h9l119 -147l171 147h9l-54 -306h-88l21 122l-74 -71h-8l-50 71l-21 -122h-88zM185 606h-80l13 74h249l-13 -74h-79l-40 -228h-90z" />
    <glyph glyph-name="partialdiff" unicode="&#x2202;" 
d="M131 173q-34 0 -58.5 24t-24.5 61q0 36 24.5 60t58.5 24t58.5 -24t24.5 -60q0 -37 -24.5 -61t-58.5 -24z" />
    <glyph glyph-name="product" unicode="&#x220f;" 
d="M131 173q-34 0 -58.5 24t-24.5 61q0 36 24.5 60t58.5 24t58.5 -24t24.5 -60q0 -37 -24.5 -61t-58.5 -24z" />
    <glyph glyph-name="summation" unicode="&#x2211;" horiz-adv-x="612" 
d="M7 0v12l308 315l-195 341v12h514l-22 -123h-201l-83 4q26 -33 41 -60l99 -181v-12l-120 -126q-13 -14 -30.5 -29.5l-27.5 -24.5l-11 -9q51 4 88 4h184l-22 -123h-522z" />
    <glyph glyph-name="minus" unicode="&#x2212;" 
d="M131 173q-34 0 -58.5 24t-24.5 61q0 36 24.5 60t58.5 24t58.5 -24t24.5 -60q0 -37 -24.5 -61t-58.5 -24z" />
    <glyph glyph-name="radical" unicode="&#x221a;" 
d="M131 173q-34 0 -58.5 24t-24.5 61q0 36 24.5 60t58.5 24t58.5 -24t24.5 -60q0 -37 -24.5 -61t-58.5 -24z" />
    <glyph glyph-name="integral" unicode="&#x222b;" 
d="M131 173q-34 0 -58.5 24t-24.5 61q0 36 24.5 60t58.5 24t58.5 -24t24.5 -60q0 -37 -24.5 -61t-58.5 -24z" />
    <glyph glyph-name="approxequal" unicode="&#x2248;" 
d="M131 173q-34 0 -58.5 24t-24.5 61q0 36 24.5 60t58.5 24t58.5 -24t24.5 -60q0 -37 -24.5 -61t-58.5 -24z" />
    <glyph glyph-name="lessequal" unicode="&#x2264;" 
d="M131 173q-34 0 -58.5 24t-24.5 61q0 36 24.5 60t58.5 24t58.5 -24t24.5 -60q0 -37 -24.5 -61t-58.5 -24z" />
    <glyph glyph-name="greaterequal" unicode="&#x2265;" 
d="M131 173q-34 0 -58.5 24t-24.5 61q0 36 24.5 60t58.5 24t58.5 -24t24.5 -60q0 -37 -24.5 -61t-58.5 -24z" />
    <glyph glyph-name="lozenge" unicode="&#x25ca;" 
d="M131 173q-34 0 -58.5 24t-24.5 61q0 36 24.5 60t58.5 24t58.5 -24t24.5 -60q0 -37 -24.5 -61t-58.5 -24z" />
    <glyph glyph-name="Lslashsmall" unicode="&#xf6f9;" horiz-adv-x="472" 
d="M206 173l-10 -57h227l-20 -116h-362l23 128l-56 -17l20 115l56 17l49 279h135l-42 -234l135 42l-20 -115z" />
    <glyph glyph-name="OEsmall" unicode="&#xf6fa;" horiz-adv-x="779" 
d="M302 0q-114 0 -184 69t-70 178q0 124 80.5 199.5t205.5 75.5h452l-20 -114h-229l-21 -117h193l-19 -108h-193l-12 -69h242l-20 -114h-405zM310 114h42l51 294h-74q-68 0 -105.5 -45.5t-37.5 -119.5q0 -60 31.5 -94.5t92.5 -34.5z" />
    <glyph glyph-name="Scaronsmall" unicode="&#xf6fd;" horiz-adv-x="445" 
d="M248 566l-117 217h102l43 -73l67 73h109l-193 -217h-11zM209 -9q-73 0 -128 31.5t-80 77.5l103 71q16 -26 43.5 -46t62.5 -20q56 0 56 36q0 16 -11.5 29t-44.5 34l-23 15q-56 37 -82 74t-26 86q0 63 44 107.5t133 44.5q104 0 161 -81l-93 -68q-31 39 -70 39
q-22 0 -34 -10t-12 -25q0 -25 38 -50l23 -15q69 -45 99.5 -82t30.5 -96q0 -75 -54 -113.5t-136 -38.5z" />
    <glyph glyph-name="Zcaronsmall" unicode="&#xf6ff;" horiz-adv-x="496" 
d="M299 566l-117 217h102l43 -73l67 73h109l-193 -217h-11zM0 0v11l286 397h-193l20 114h394v-11l-285 -397h210l-20 -114h-412z" />
    <glyph glyph-name="Asmall" unicode="&#xf761;" horiz-adv-x="534" 
d="M142 44l-26 -44h-132l325 528h11l158 -528h-135l-11 44h-190zM314 134l-10 39q-8 30 -13.5 64t-7.5 53l-2 19q-26 -70 -62 -130l-27 -45h122z" />
    <glyph glyph-name="Bsmall" unicode="&#xf762;" horiz-adv-x="497" 
d="M21 0l92 522h192q71 0 111 -38.5t40 -99.5q0 -35 -22.5 -64t-62.5 -42q39 -14 63 -43.5t24 -67.5q0 -75 -54 -121t-136 -46h-247zM212 330h70q19 0 31.5 12t12.5 30t-9.5 29.5t-26.5 11.5h-63zM173 110h94q26 0 42 17.5t16 45.5q0 58 -56 58h-74z" />
    <glyph glyph-name="Csmall" unicode="&#xf763;" horiz-adv-x="565" 
d="M306 -9q-113 0 -185.5 75t-72.5 187q0 121 80 199.5t202 78.5q144 0 217 -114l-109 -70q-41 69 -113 69q-62 0 -99.5 -49t-37.5 -117t35.5 -105.5t87.5 -37.5q71 0 113 56l101 -75q-39 -45 -89.5 -71t-129.5 -26z" />
    <glyph glyph-name="Dsmall" unicode="&#xf764;" horiz-adv-x="552" 
d="M21 0l92 522h164q109 0 178.5 -68t69.5 -180q0 -127 -82 -200.5t-209 -73.5h-213zM175 116h65q70 0 108.5 46.5t38.5 117.5q0 60 -32.5 93t-95.5 33h-32z" />
    <glyph glyph-name="Esmall" unicode="&#xf765;" horiz-adv-x="469" 
d="M21 0l92 522h363l-20 -114h-229l-21 -117h193l-19 -108h-193l-12 -69h242l-20 -114h-376z" />
    <glyph glyph-name="Fsmall" unicode="&#xf766;" horiz-adv-x="450" 
d="M21 0l92 522h349l-21 -117h-214l-22 -127h194l-20 -116h-194l-29 -162h-135z" />
    <glyph glyph-name="Gsmall" unicode="&#xf767;" horiz-adv-x="593" 
d="M330 -9q-127 0 -204.5 73.5t-77.5 189.5q0 123 85.5 200t201.5 77q74 0 118 -18.5t82 -55.5l-94 -89q-45 45 -109 45q-61 0 -103 -43t-42 -115q0 -70 36.5 -111t108.5 -41q44 0 78 14l11 64h-112l19 107h232l-44 -248q-76 -49 -186 -49z" />
    <glyph glyph-name="Hsmall" unicode="&#xf768;" horiz-adv-x="573" 
d="M394 278l43 244h135l-92 -522h-135l28 159h-189l-28 -159h-135l92 522h135l-43 -244h189z" />
    <glyph glyph-name="Ismall" unicode="&#xf769;" horiz-adv-x="257" 
d="M25 0l92 522h135l-92 -522h-135z" />
    <glyph glyph-name="Jsmall" unicode="&#xf76a;" horiz-adv-x="413" 
d="M163 -9q-62 0 -106 33t-62 80l109 55q11 -28 24.5 -40t36.5 -12q43 0 53 58l63 357h135l-66 -372q-15 -87 -61 -123t-126 -36z" />
    <glyph glyph-name="Ksmall" unicode="&#xf76b;" horiz-adv-x="547" 
d="M189 262q45 73 93 124l130 136h151l-217 -226l152 -296h-147l-104 208l-66 -64l-25 -144h-135l92 522h135l-24 -129q-11 -56 -35 -131z" />
    <glyph glyph-name="Lsmall" unicode="&#xf76c;" horiz-adv-x="452" 
d="M21 0l92 522h135l-72 -406h227l-20 -116h-362z" />
    <glyph glyph-name="Msmall" unicode="&#xf76d;" horiz-adv-x="643" 
d="M21 0l93 529h10l203 -282l306 282h10l-93 -529h-129l24 137l24 118q-22 -38 -67 -81l-85 -81h-8l-66 82q-13 16 -27 39.5t-22 39.5l-7 15q-5 -88 -13 -132l-24 -137h-129z" />
    <glyph glyph-name="Nsmall" unicode="&#xf76e;" horiz-adv-x="548" 
d="M442 -7l-197 211q-17 19 -32.5 41.5t-22.5 35.5l-7 13q3 -52 -5 -97l-35 -197h-122l93 529h11l205 -218q15 -16 29 -36.5t20 -32.5l6 -12q-3 51 6 100l34 192h122l-94 -529h-11z" />
    <glyph glyph-name="Osmall" unicode="&#xf76f;" horiz-adv-x="629" 
d="M314 -9q-113 0 -189.5 75.5t-76.5 188.5q0 125 83.5 200.5t202.5 75.5q113 0 190 -75t77 -188q0 -125 -84.5 -201t-202.5 -76zM319 109q63 0 103.5 45t40.5 118q0 63 -37 102.5t-96 39.5q-63 0 -103.5 -45t-40.5 -118q0 -65 37 -103.5t96 -38.5z" />
    <glyph glyph-name="Psmall" unicode="&#xf770;" horiz-adv-x="491" 
d="M176 113l-20 -113h-135l92 522h148q100 0 160.5 -52.5t60.5 -141.5q0 -104 -70.5 -159.5t-185.5 -55.5h-50zM196 227h35q56 0 84.5 25t27.5 76q-2 78 -94 78h-22z" />
    <glyph glyph-name="Qsmall" unicode="&#xf771;" horiz-adv-x="633" 
d="M518 70l62 -84l-92 -65l-66 89q-50 -19 -106 -19q-113 0 -189.5 75.5t-76.5 188.5q0 125 83.5 200.5t202.5 75.5q113 0 190 -75t77 -188q0 -120 -85 -198zM352 105l-55 74l92 65l55 -75q21 41 21 103q0 63 -37 102.5t-96 39.5q-63 0 -103.5 -45t-40.5 -118
q0 -65 37 -106.5t96 -41.5q11 0 31 2z" />
    <glyph glyph-name="Rsmall" unicode="&#xf772;" horiz-adv-x="509" 
d="M369 161l86 -161h-139l-67 127h-15h-56l-22 -127h-135l92 522h142q102 0 163 -50.5t61 -142.5q0 -54 -29 -100.5t-81 -67.5zM197 237h44q101 0 101 92q0 77 -96 77h-21z" />
    <glyph glyph-name="Ssmall" unicode="&#xf773;" horiz-adv-x="445" 
d="M209 -9q-73 0 -128 31.5t-80 77.5l103 71q16 -26 43.5 -46t62.5 -20q56 0 56 36q0 16 -11.5 29t-44.5 34l-23 15q-56 37 -82 74t-26 86q0 63 44 107.5t133 44.5q104 0 161 -81l-93 -68q-31 39 -70 39q-22 0 -34 -10t-12 -25q0 -25 38 -50l23 -15q69 -45 99.5 -82
t30.5 -96q0 -75 -54 -113.5t-136 -38.5z" />
    <glyph glyph-name="Tsmall" unicode="&#xf774;" horiz-adv-x="487" 
d="M140 0l71 406h-145l20 116h427l-20 -116h-145l-70 -406h-138z" />
    <glyph glyph-name="Usmall" unicode="&#xf775;" horiz-adv-x="554" 
d="M260 -9q-104 0 -163 63.5t-42 160.5l54 307h135l-56 -320q-8 -43 12 -67.5t66 -24.5q84 0 100 93l56 319h135l-60 -342q-17 -91 -78.5 -140t-158.5 -49z" />
    <glyph glyph-name="Vsmall" unicode="&#xf776;" horiz-adv-x="529" 
d="M232 -7l-159 529h140l40 -154q8 -30 13.5 -68.5t6.5 -61.5l1 -24q24 82 61 146l93 162h140l-324 -529h-12z" />
    <glyph glyph-name="Wsmall" unicode="&#xf777;" horiz-adv-x="742" 
d="M187 -7l-114 529h139l29 -143q5 -26 9 -59t5 -52l1 -20q26 72 59 122l105 158h11l50 -165q8 -25 14 -56t8 -49l2 -19q24 72 50 121l90 162h136l-295 -529h-11l-59 203q-7 23 -13 53t-9 49l-3 18q-24 -63 -55 -111l-138 -212h-11z" />
    <glyph glyph-name="Xsmall" unicode="&#xf778;" horiz-adv-x="544" 
d="M-15 0l222 288l-96 234h147l18 -55q8 -21 15 -49.5t9 -46.5l3 -18q29 64 63 113l35 56h146l-180 -235l120 -287h-147l-37 101q-9 24 -17 52.5t-11 44.5l-3 17q-24 -57 -62 -107l-79 -108h-146z" />
    <glyph glyph-name="Ysmall" unicode="&#xf779;" horiz-adv-x="542" 
d="M205 173l-132 349h142l46 -133q8 -22 14.5 -51.5t9.5 -47.5l3 -18q27 64 59 111l94 139h140l-239 -347l-31 -175h-137z" />
    <glyph glyph-name="Zsmall" unicode="&#xf77a;" horiz-adv-x="496" 
d="M0 0v11l286 397h-193l20 114h394v-11l-285 -397h210l-20 -114h-412z" />
    <glyph glyph-name="Agravesmall" unicode="&#xf7e0;" horiz-adv-x="534" 
d="M264 586l-91 188h152l39 -188h-100zM142 44l-26 -44h-132l325 528h11l158 -528h-135l-11 44h-190zM314 134l-10 39q-8 30 -13.5 64t-7.5 53l-2 19q-26 -70 -62 -130l-27 -45h122z" />
    <glyph glyph-name="Aacutesmall" unicode="&#xf7e1;" horiz-adv-x="534" 
d="M270 586l80 188h158l-136 -188h-102zM142 44l-26 -44h-132l325 528h11l158 -528h-135l-11 44h-190zM314 134l-10 39q-8 30 -13.5 64t-7.5 53l-2 19q-26 -70 -62 -130l-27 -45h122z" />
    <glyph glyph-name="Acircumflexsmall" unicode="&#xf7e2;" horiz-adv-x="534" 
d="M154 586l193 216h11l117 -216h-102l-43 72l-67 -72h-109zM142 44l-26 -44h-132l325 528h11l158 -528h-135l-11 44h-190zM314 134l-10 39q-8 30 -13.5 64t-7.5 53l-2 19q-26 -70 -62 -130l-27 -45h122z" />
    <glyph glyph-name="Atildesmall" unicode="&#xf7e3;" horiz-adv-x="534" 
d="M235 586l-87 9q9 68 40 104t74 36q34 0 63 -20q5 -4 13.5 -10t12.5 -8.5t9 -4.5t10 -2q24 0 31 45l87 -9q-7 -68 -38.5 -104t-75.5 -36q-34 0 -63 20l-14 9.5t-11.5 8.5t-9 5t-10.5 2q-24 0 -31 -45zM142 44l-26 -44h-132l325 528h11l158 -528h-135l-11 44h-190zM314 134
l-10 39q-8 30 -13.5 64t-7.5 53l-2 19q-26 -70 -62 -130l-27 -45h122z" />
    <glyph glyph-name="Adieresissmall" unicode="&#xf7e4;" horiz-adv-x="534" 
d="M430 594q-28 0 -50.5 22t-22.5 52t22.5 52t50.5 22q29 0 50.5 -22t21.5 -52t-21.5 -52t-50.5 -22zM220 594q-28 0 -50 22t-22 52t22 52t50 22q29 0 51 -22t22 -52t-22 -52t-51 -22zM142 44l-26 -44h-132l325 528h11l158 -528h-135l-11 44h-190zM314 134l-10 39
q-8 30 -13.5 64t-7.5 53l-2 19q-26 -70 -62 -130l-27 -45h122z" />
    <glyph glyph-name="Aringsmall" unicode="&#xf7e5;" horiz-adv-x="534" 
d="M322 560q-53 0 -89 35t-36 84t36 84t89 35t89 -35t36 -84t-36 -84t-89 -35zM142 44l-26 -44h-132l325 528h11l158 -528h-135l-11 44h-190zM322 633q18 0 30 12.5t12 33.5t-12 33.5t-30 12.5t-30 -12.5t-12 -33.5t12 -33.5t30 -12.5zM314 134l-10 39q-8 30 -13.5 64
t-7.5 53l-2 19q-26 -70 -62 -130l-27 -45h122z" />
    <glyph glyph-name="AEsmall" unicode="&#xf7e6;" horiz-adv-x="790" 
d="M173 51l-43 -51h-151l466 522h352l-20 -114h-229l-21 -117h193l-19 -108h-193l-12 -69h242l-20 -114h-376l9 51h-178zM368 149l18 98l29 112q-39 -69 -69 -105l-90 -105h112z" />
    <glyph glyph-name="Ccedillasmall" unicode="&#xf7e7;" horiz-adv-x="565" 
d="M240 -1q-87 21 -139.5 90.5t-52.5 163.5q0 121 80 199.5t202 78.5q144 0 217 -114l-109 -70q-41 69 -113 69q-62 0 -99.5 -49t-37.5 -117t35.5 -105.5t87.5 -37.5q71 0 113 56l101 -75q-84 -96 -216 -97l-5 -32q30 -5 52.5 -30t22.5 -64q0 -49 -32 -77t-77 -28
q-86 0 -117 62l65 36q16 -28 44 -28q38 0 38 36q0 37 -42 37h-35z" />
    <glyph glyph-name="Egravesmall" unicode="&#xf7e8;" horiz-adv-x="469" 
d="M256 586l-91 188h152l39 -188h-100zM21 0l92 522h363l-20 -114h-229l-21 -117h193l-19 -108h-193l-12 -69h242l-20 -114h-376z" />
    <glyph glyph-name="Eacutesmall" unicode="&#xf7e9;" horiz-adv-x="469" 
d="M244 586l80 188h158l-136 -188h-102zM21 0l92 522h363l-20 -114h-229l-21 -117h193l-19 -108h-193l-12 -69h242l-20 -114h-376z" />
    <glyph glyph-name="Ecircumflexsmall" unicode="&#xf7ea;" horiz-adv-x="469" 
d="M139 586l193 216h11l117 -216h-102l-43 72l-67 -72h-109zM21 0l92 522h363l-20 -114h-229l-21 -117h193l-19 -108h-193l-12 -69h242l-20 -114h-376z" />
    <glyph glyph-name="Edieresissmall" unicode="&#xf7eb;" horiz-adv-x="469" 
d="M418 594q-28 0 -50.5 22t-22.5 52t22.5 52t50.5 22q29 0 50.5 -22t21.5 -52t-21.5 -52t-50.5 -22zM208 594q-28 0 -50 22t-22 52t22 52t50 22q29 0 51 -22t22 -52t-22 -52t-51 -22zM21 0l92 522h363l-20 -114h-229l-21 -117h193l-19 -108h-193l-12 -69h242l-20 -114h-376
z" />
    <glyph glyph-name="Igravesmall" unicode="&#xf7ec;" horiz-adv-x="257" 
d="M142 586l-91 188h152l39 -188h-100zM25 0l92 522h135l-92 -522h-135z" />
    <glyph glyph-name="Iacutesmall" unicode="&#xf7ed;" horiz-adv-x="257" 
d="M137 586l80 188h158l-136 -188h-102zM25 0l92 522h135l-92 -522h-135z" />
    <glyph glyph-name="Icircumflexsmall" unicode="&#xf7ee;" horiz-adv-x="257" 
d="M33 586l193 216h11l117 -216h-102l-43 72l-67 -72h-109zM25 0l92 522h135l-92 -522h-135z" />
    <glyph glyph-name="Idieresissmall" unicode="&#xf7ef;" horiz-adv-x="257" 
d="M307 594q-28 0 -50.5 22t-22.5 52t22.5 52t50.5 22q29 0 50.5 -22t21.5 -52t-21.5 -52t-50.5 -22zM97 594q-28 0 -50 22t-22 52t22 52t50 22q29 0 51 -22t22 -52t-22 -52t-51 -22zM25 0l92 522h135l-92 -522h-135z" />
    <glyph glyph-name="Ethsmall" unicode="&#xf7f0;" horiz-adv-x="552" 
d="M54 184h-43l20 111h43l40 227h163q109 0 178.5 -68t69.5 -180q0 -127 -82 -200.5t-209 -73.5h-212zM206 295h95l-20 -111h-95l-12 -68h66q70 0 108.5 46.5t38.5 117.5q0 60 -32.5 93t-95.5 33h-33z" />
    <glyph glyph-name="Ntildesmall" unicode="&#xf7f1;" horiz-adv-x="548" 
d="M258 586l-87 9q9 68 40 104t74 36q34 0 63 -20q5 -4 13.5 -10t12.5 -8.5t9 -4.5t10 -2q23 0 31 45l87 -9q-7 -68 -38.5 -104t-75.5 -36q-34 0 -63 20l-14 9.5t-11.5 8.5t-9 5t-10.5 2q-23 0 -31 -45zM442 -7l-197 211q-17 19 -32.5 41.5t-22.5 35.5l-7 13q3 -52 -5 -97
l-35 -197h-122l93 529h11l205 -218q15 -16 29 -36.5t20 -32.5l6 -12q-3 51 6 100l34 192h122l-94 -529h-11z" />
    <glyph glyph-name="Ogravesmall" unicode="&#xf7f2;" horiz-adv-x="629" 
d="M290 586l-91 188h152l39 -188h-100zM314 -9q-113 0 -189.5 75.5t-76.5 188.5q0 125 83.5 200.5t202.5 75.5q113 0 190 -75t77 -188q0 -125 -84.5 -201t-202.5 -76zM319 109q63 0 103.5 45t40.5 118q0 63 -37 102.5t-96 39.5q-63 0 -103.5 -45t-40.5 -118q0 -65 37 -103.5
t96 -38.5z" />
    <glyph glyph-name="Oacutesmall" unicode="&#xf7f3;" horiz-adv-x="629" 
d="M294 586l80 188h158l-136 -188h-102zM314 -9q-113 0 -189.5 75.5t-76.5 188.5q0 125 83.5 200.5t202.5 75.5q113 0 190 -75t77 -188q0 -125 -84.5 -201t-202.5 -76zM319 109q63 0 103.5 45t40.5 118q0 63 -37 102.5t-96 39.5q-63 0 -103.5 -45t-40.5 -118
q0 -65 37 -103.5t96 -38.5z" />
    <glyph glyph-name="Ocircumflexsmall" unicode="&#xf7f4;" horiz-adv-x="629" 
d="M200 586l193 216h11l117 -216h-102l-43 72l-67 -72h-109zM314 -9q-113 0 -189.5 75.5t-76.5 188.5q0 125 83.5 200.5t202.5 75.5q113 0 190 -75t77 -188q0 -125 -84.5 -201t-202.5 -76zM319 109q63 0 103.5 45t40.5 118q0 63 -37 102.5t-96 39.5q-63 0 -103.5 -45
t-40.5 -118q0 -65 37 -103.5t96 -38.5z" />
    <glyph glyph-name="Otildesmall" unicode="&#xf7f5;" horiz-adv-x="629" 
d="M285 586l-87 9q9 68 40 104t74 36q34 0 63 -20q5 -4 13.5 -10t12.5 -8.5t9 -4.5t10 -2q24 0 31 45l87 -9q-7 -68 -38.5 -104t-75.5 -36q-34 0 -63 20l-14 9.5t-11.5 8.5t-9 5t-10.5 2q-24 0 -31 -45zM314 -9q-113 0 -189.5 75.5t-76.5 188.5q0 125 83.5 200.5t202.5 75.5
q113 0 190 -75t77 -188q0 -125 -84.5 -201t-202.5 -76zM319 109q63 0 103.5 45t40.5 118q0 63 -37 102.5t-96 39.5q-63 0 -103.5 -45t-40.5 -118q0 -65 37 -103.5t96 -38.5z" />
    <glyph glyph-name="Odieresissmall" unicode="&#xf7f6;" horiz-adv-x="629" 
d="M481 594q-28 0 -50.5 22t-22.5 52t22.5 52t50.5 22q29 0 50.5 -22t21.5 -52t-21.5 -52t-50.5 -22zM271 594q-28 0 -50 22t-22 52t22 52t50 22q29 0 51 -22t22 -52t-22 -52t-51 -22zM314 -9q-113 0 -189.5 75.5t-76.5 188.5q0 125 83.5 200.5t202.5 75.5q113 0 190 -75
t77 -188q0 -125 -84.5 -201t-202.5 -76zM319 109q63 0 103.5 45t40.5 118q0 63 -37 102.5t-96 39.5q-63 0 -103.5 -45t-40.5 -118q0 -65 37 -103.5t96 -38.5z" />
    <glyph glyph-name="Oslashsmall" unicode="&#xf7f8;" horiz-adv-x="629" 
d="M568 398q33 -60 33 -130q0 -125 -84.5 -201t-202.5 -76q-97 0 -168 57l-73 -60l-65 74l73 61q-33 60 -33 132q0 125 83.5 200.5t202.5 75.5q99 0 171 -58l70 58l65 -74zM188 211l221 183q-32 23 -79 23q-64 0 -105 -46t-41 -120q0 -24 4 -40zM462 309l-221 -182
q31 -21 78 -21q64 0 105 46t41 120q0 20 -3 37z" />
    <glyph glyph-name="Ugravesmall" unicode="&#xf7f9;" horiz-adv-x="554" 
d="M284 586l-91 188h152l39 -188h-100zM260 -9q-104 0 -163 63.5t-42 160.5l54 307h135l-56 -320q-8 -43 12 -67.5t66 -24.5q84 0 100 93l56 319h135l-60 -342q-17 -91 -78.5 -140t-158.5 -49z" />
    <glyph glyph-name="Uacutesmall" unicode="&#xf7fa;" horiz-adv-x="554" 
d="M280 586l80 188h158l-136 -188h-102zM260 -9q-104 0 -163 63.5t-42 160.5l54 307h135l-56 -320q-8 -43 12 -67.5t66 -24.5q84 0 100 93l56 319h135l-60 -342q-17 -91 -78.5 -140t-158.5 -49z" />
    <glyph glyph-name="Ucircumflexsmall" unicode="&#xf7fb;" horiz-adv-x="554" 
d="M176 586l193 216h11l117 -216h-102l-43 72l-67 -72h-109zM260 -9q-104 0 -163 63.5t-42 160.5l54 307h135l-56 -320q-8 -43 12 -67.5t66 -24.5q84 0 100 93l56 319h135l-60 -342q-17 -91 -78.5 -140t-158.5 -49z" />
    <glyph glyph-name="Udieresissmall" unicode="&#xf7fc;" horiz-adv-x="554" 
d="M457 594q-28 0 -50.5 22t-22.5 52t22.5 52t50.5 22q29 0 50.5 -22t21.5 -52t-21.5 -52t-50.5 -22zM247 594q-28 0 -50 22t-22 52t22 52t50 22q29 0 51 -22t22 -52t-22 -52t-51 -22zM260 -9q-104 0 -163 63.5t-42 160.5l54 307h135l-56 -320q-8 -43 12 -67.5t66 -24.5
q84 0 100 93l56 319h135l-60 -342q-17 -91 -78.5 -140t-158.5 -49z" />
    <glyph glyph-name="Yacutesmall" unicode="&#xf7fd;" horiz-adv-x="542" 
d="M278 586l80 188h158l-136 -188h-102zM205 173l-132 349h142l46 -133q8 -22 14.5 -51.5t9.5 -47.5l3 -18q27 64 59 111l94 139h140l-239 -347l-31 -175h-137z" />
    <glyph glyph-name="Thornsmall" unicode="&#xf7fe;" horiz-adv-x="492" 
d="M239 469h13q100 0 160.5 -52.5t60.5 -141.5q0 -104 -70.5 -159.5t-185.5 -55.5h-50l-11 -60h-135l92 522h135zM187 174h35q56 0 84.5 25t27.5 76q-2 78 -94 78h-22z" />
    <glyph glyph-name="Ydieresissmall" unicode="&#xf7ff;" horiz-adv-x="542" 
d="M441 594q-28 0 -50.5 22t-22.5 52t22.5 52t50.5 22q29 0 50.5 -22t21.5 -52t-21.5 -52t-50.5 -22zM231 594q-28 0 -50 22t-22 52t22 52t50 22q29 0 51 -22t22 -52t-22 -52t-51 -22zM205 173l-132 349h142l46 -133q8 -22 14.5 -51.5t9.5 -47.5l3 -18q27 64 59 111l94 139
h140l-239 -347l-31 -175h-137z" />
    <glyph glyph-name="Q.alt1" horiz-adv-x="780" 
d="M470 9q46 -42 92 -42q47 0 80 43l89 -77q-62 -86 -170 -86q-25 0 -49 6.5t-40 13.5t-40 25t-32.5 25t-34.5 31t-30 28q-23 21 -35.5 31t-32 19.5t-37.5 9.5q-58 0 -105 -68l-93 78q34 56 99 81q-63 83 -63 201q0 161 105 260.5t256 99.5q141 0 236 -95t95 -242
q0 -143 -79.5 -232.5t-210.5 -109.5zM403 113q98 0 157 65.5t59 175.5q0 96 -54 154t-140 58q-98 0 -157 -65.5t-59 -175.5q0 -96 54 -154t140 -58z" />
    <glyph glyph-name="apple" 
d="M131 173q-34 0 -58.5 24t-24.5 61q0 36 24.5 60t58.5 24t58.5 -24t24.5 -60q0 -37 -24.5 -61t-58.5 -24z" />
    <glyph glyph-name="G.alt" horiz-adv-x="782" 
d="M405 -9q-152 0 -244.5 93.5t-92.5 241.5q0 157 104.5 259.5t255.5 102.5q193 0 283 -135l-106 -77q-64 90 -181 90q-96 0 -155.5 -67t-59.5 -174q0 -92 54.5 -153t145.5 -61q77 0 130.5 38t66.5 97h-179l21 118h309q-1 -172 -90 -272.5t-262 -100.5z" />
    <glyph glyph-name="M.alt" horiz-adv-x="843" 
d="M32 0l176 687h14l177 -325l37 -82q33 52 60 82l295 325h14l-66 -687h-134l25 247q2 24 7.5 57t9.5 54l4 20q-41 -68 -79 -111l-154 -173h-12l-96 175q-11 20 -24.5 49t-21.5 48l-8 20q-13 -88 -26 -140l-61 -246h-137z" />
    <glyph glyph-name="Q.alt" horiz-adv-x="780" 
d="M435 -7l-26 -147h-130l28 157q-107 28 -173 116t-66 209q0 161 105 260.5t256 99.5q141 0 236 -95t95 -242q0 -151 -93 -248.5t-232 -109.5zM328 124l20 112h130l-21 -120q75 17 118.5 80.5t43.5 157.5q0 96 -54 154t-140 58q-98 0 -157 -65.5t-59 -175.5q0 -73 32 -126
t87 -75z" />
    <glyph glyph-name="e.alt" horiz-adv-x="527" 
d="M171 174q15 -76 105 -76q54 0 104 37l77 -86q-75 -58 -182 -58q-110 0 -174 59.5t-64 156.5q0 102 70 165t171 63q111 0 167.5 -73.5t41.5 -187.5h-316zM173 249h186q1 37 -22 59t-63 22q-83 0 -101 -81z" />
    <glyph glyph-name="u.alt" horiz-adv-x="507" 
d="M235 -9q-102 0 -152 59t-32 160l38 216h132l-40 -227q-17 -95 62 -95q37 0 54 19.5t25 65.5l42 237h132l-44 -252q-16 -91 -68.5 -137t-148.5 -46z" />
    <glyph glyph-name="eacute.alt" horiz-adv-x="515" 
d="M243 500l80 188h158l-136 -188h-102zM171 174q15 -76 105 -76q54 0 104 37l77 -86q-75 -58 -182 -58q-110 0 -174 59.5t-64 156.5q0 102 70 165t171 63q111 0 167.5 -73.5t41.5 -187.5h-316zM173 249h186q1 37 -22 59t-63 22q-83 0 -101 -81z" />
    <glyph glyph-name="egrave.alt" horiz-adv-x="515" 
d="M234 500l-91 188h152l39 -188h-100zM171 174q15 -76 105 -76q54 0 104 37l77 -86q-75 -58 -182 -58q-110 0 -174 59.5t-64 156.5q0 102 70 165t171 63q111 0 167.5 -73.5t41.5 -187.5h-316zM173 249h186q1 37 -22 59t-63 22q-83 0 -101 -81z" />
    <glyph glyph-name="ecircumflex.alt" horiz-adv-x="515" 
d="M131 500l193 216h11l117 -216h-102l-43 72l-67 -72h-109zM171 174q15 -76 105 -76q54 0 104 37l77 -86q-75 -58 -182 -58q-110 0 -174 59.5t-64 156.5q0 102 70 165t171 63q111 0 167.5 -73.5t41.5 -187.5h-316zM173 249h186q1 37 -22 59t-63 22q-83 0 -101 -81z" />
    <glyph glyph-name="edieresis.alt" horiz-adv-x="515" 
d="M421 508q-28 0 -50.5 22t-22.5 52t22.5 52t50.5 22q29 0 50.5 -22t21.5 -52t-21.5 -52t-50.5 -22zM211 508q-28 0 -50 22t-22 52t22 52t50 22q29 0 51 -22t22 -52t-22 -52t-51 -22zM171 174q15 -76 105 -76q54 0 104 37l77 -86q-75 -58 -182 -58q-110 0 -174 59.5
t-64 156.5q0 102 70 165t171 63q111 0 167.5 -73.5t41.5 -187.5h-316zM173 249h186q1 37 -22 59t-63 22q-83 0 -101 -81z" />
    <glyph glyph-name="uacute.alt" horiz-adv-x="507" 
d="M236 500l80 188h158l-136 -188h-102zM235 -9q-102 0 -152 59t-32 160l38 216h132l-40 -227q-17 -95 62 -95q37 0 54 19.5t25 65.5l42 237h132l-44 -252q-16 -91 -68.5 -137t-148.5 -46z" />
    <glyph glyph-name="ugrave.alt" horiz-adv-x="507" 
d="M231 500l-91 188h152l39 -188h-100zM235 -9q-102 0 -152 59t-32 160l38 216h132l-40 -227q-17 -95 62 -95q37 0 54 19.5t25 65.5l42 237h132l-44 -252q-16 -91 -68.5 -137t-148.5 -46z" />
    <glyph glyph-name="ucircumflex.alt" horiz-adv-x="507" 
d="M122 500l193 216h11l117 -216h-102l-43 72l-67 -72h-109zM235 -9q-102 0 -152 59t-32 160l38 216h132l-40 -227q-17 -95 62 -95q37 0 54 19.5t25 65.5l42 237h132l-44 -252q-16 -91 -68.5 -137t-148.5 -46z" />
    <glyph glyph-name="udieresis.alt" horiz-adv-x="507" 
d="M400 508q-28 0 -50.5 22t-22.5 52t22.5 52t50.5 22q29 0 50.5 -22t21.5 -52t-21.5 -52t-50.5 -22zM190 508q-28 0 -50 22t-22 52t22 52t50 22q29 0 51 -22t22 -52t-22 -52t-51 -22zM235 -9q-102 0 -152 59t-32 160l38 216h132l-40 -227q-17 -95 62 -95q37 0 54 19.5
t25 65.5l42 237h132l-44 -252q-16 -91 -68.5 -137t-148.5 -46z" />
    <glyph glyph-name="zerolining" horiz-adv-x="722" 
d="M367 -9q-133 0 -219.5 92t-86.5 235q0 164 100 267t241 103q133 0 220 -91t87 -234q0 -164 -99.5 -268t-242.5 -104zM371 114q85 0 140.5 68t55.5 182q0 94 -45.5 147.5t-123.5 53.5q-85 0 -140.5 -68t-55.5 -182q0 -94 45.5 -147.5t123.5 -53.5z" />
    <glyph glyph-name="onelining" horiz-adv-x="347" 
d="M103 0l98 558h-109l22 122h245l-120 -680h-136z" />
    <glyph glyph-name="twolining" horiz-adv-x="541" 
d="M-22 0v12l316 295q65 60 91.5 99t26.5 78q0 37 -21 59t-65 22q-84 0 -112 -101l-136 25q22 98 91 148.5t163 50.5q101 0 159.5 -55.5t58.5 -144.5q0 -65 -34.5 -118.5t-111.5 -125.5l-93 -87q-9 -8 -24.5 -19t-26.5 -18l-11 -7q44 5 70 5h171l-22 -118h-490z" />
    <glyph glyph-name="threelining" horiz-adv-x="544" 
d="M256 -9q-98 0 -166 44t-95 116l122 56q39 -93 135 -93q56 0 90.5 35t34.5 87t-33 86t-91 34q-40 0 -74 -12l-8 12l136 163q9 11 22 22.5t22 17.5l9 6q-43 -4 -66 -4h-178l21 119h436v-12l-160 -194q-7 -8 -18 -17.5t-19 -14.5l-7 -6q59 -12 103.5 -66t44.5 -137
q0 -104 -76 -173t-185 -69z" />
    <glyph glyph-name="fourlining" horiz-adv-x="629" 
d="M515 209h86l-20 -110h-85l-18 -99h-137l18 99h-332l19 106l542 489h12zM378 209l22 128l20 78q-24 -41 -53 -67l-107 -96q-13 -12 -31.5 -24.5t-30.5 -19.5l-12 -6q44 7 77 7h115z" />
    <glyph glyph-name="fivelining" horiz-adv-x="562" 
d="M267 -9q-94 0 -161.5 44t-96.5 116l120 60q45 -97 138 -97q58 0 91 33.5t33 84.5q0 53 -35.5 85t-97.5 32q-77 0 -160 -56l-11 5l67 382h384l-21 -120h-266l-20 -108q28 10 73 10q102 0 164.5 -64t62.5 -164q0 -109 -72.5 -176t-191.5 -67z" />
    <glyph glyph-name="sixlining" horiz-adv-x="584" 
d="M287 -9q-107 0 -176 67.5t-69 166.5q0 101 84 202l211 253h158l-129 -159q-14 -18 -32 -33.5t-29 -22.5l-11 -7q20 5 44 5q94 0 154 -63t60 -159q0 -110 -73.5 -180t-191.5 -70zM292 110q55 0 86.5 38t31.5 91t-29 86t-82 33q-56 0 -87.5 -37t-31.5 -90q0 -49 29.5 -85
t82.5 -36z" />
    <glyph glyph-name="sevenlining" horiz-adv-x="555" 
d="M45 0l355 558h-314l22 122h514v-12l-423 -668h-154z" />
    <glyph glyph-name="eightlining" horiz-adv-x="590" 
d="M206 406q-55 41 -55 110q0 74 59.5 123t143.5 49q83 0 139 -48t56 -118q0 -94 -97 -137q103 -56 103 -165q0 -103 -73 -166t-189 -63q-115 0 -184.5 62t-69.5 155q0 80 46 129t121 69zM350 447q29 0 46.5 18t17.5 46q0 25 -18 43t-45 18q-29 0 -47 -18t-18 -46
q0 -25 18 -43t46 -18zM294 109q51 0 86 34t35 86q0 49 -31 77.5t-83 28.5q-51 0 -86 -32t-35 -83q0 -49 31.5 -80t82.5 -31z" />
    <glyph glyph-name="ninelining" horiz-adv-x="583" 
d="M136 0l129 158q14 18 32 33.5t29 22.5l11 7q-20 -5 -46 -5q-93 0 -152.5 63.5t-59.5 158.5q0 109 74.5 179.5t190.5 70.5q110 0 177.5 -65.5t67.5 -168.5t-84 -202l-211 -252h-158zM331 321q55 0 87 37t32 90q0 51 -29 86t-83 35t-86 -38t-32 -91q0 -54 28.5 -86.5
t82.5 -32.5z" />
    <glyph glyph-name="minuslining" 
d="M131 173q-34 0 -58.5 24t-24.5 61q0 36 24.5 60t58.5 24t58.5 -24t24.5 -60q0 -37 -24.5 -61t-58.5 -24z" />
    <glyph glyph-name="multiplylining" 
d="M131 173q-34 0 -58.5 24t-24.5 61q0 36 24.5 60t58.5 24t58.5 -24t24.5 -60q0 -37 -24.5 -61t-58.5 -24z" />
    <glyph glyph-name="spacelining" horiz-adv-x="206" 
 />
    <glyph glyph-name="numbersignlining" horiz-adv-x="475" 
d="M150 482h-68l18 101h75l25 97h103l-25 -97h71l25 97h103l-25 -97h58l-18 -101h-65l-19 -77h70l-18 -101h-77l-25 -101h-103l25 101h-71l-25 -101h-103l25 101h-56l18 101h63zM324 482h-71l-19 -77h71z" />
    <glyph glyph-name="dollarlining" horiz-adv-x="526" 
d="M190 -4q-66 11 -115 46.5t-78 81.5l110 78q50 -72 104 -86l31 175l-6 3q-146 72 -143 203q0 81 57 136t159 55h4l15 85h65l-16 -92q85 -20 134 -93l-107 -74q-19 31 -49 45q-27 -152 -27 -153l6 -3q78 -41 119 -91t41 -118q0 -100 -64 -150.5t-176 -52.5l-19 -107h-65z
M291 569q-30 -2 -47.5 -20.5t-17.5 -43.5q0 -37 42 -66zM276 112q80 8 80 72q0 42 -54 76z" />
    <glyph glyph-name="percentlining" horiz-adv-x="944" 
d="M257 322q-75 0 -126 51t-51 129q0 82 56 134t132 52q75 0 127 -51t52 -129q0 -82 -56.5 -134t-133.5 -52zM165 0l529 680h133l-529 -680h-133zM722 -9q-75 0 -126 51t-51 129q0 82 56 134t132 52q75 0 127 -51t52 -129q0 -82 -56.5 -134t-133.5 -52zM259 424q30 0 51 22
t21 62q0 36 -18.5 57t-46.5 21q-30 0 -50.5 -22t-20.5 -62q0 -36 17.5 -57t46.5 -21zM724 93q30 0 51 22t21 62q0 36 -18.5 57t-46.5 21q-30 0 -50.5 -22t-20.5 -62q0 -36 17.5 -57t46.5 -21z" />
    <glyph glyph-name="parenleftlining" horiz-adv-x="337" 
d="M174 -133q-51 66 -85.5 155.5t-34.5 189.5q0 97 23.5 179.5t67 144.5t83 102.5t92.5 80.5l62 -71q-191 -174 -191 -438q0 -160 71 -289z" />
    <glyph glyph-name="parenrightlining" horiz-adv-x="337" 
d="M50 -133l-64 71q191 174 191 438q0 160 -71 289l88 54q51 -66 85.5 -155.5t34.5 -189.5q0 -97 -23.5 -179.5t-66.5 -144.5t-82.5 -102.5t-91.5 -80.5z" />
    <glyph glyph-name="pluslining" horiz-adv-x="436" 
d="M285 262l-23 -130h-115l23 130h-122l20 113h122l23 130h115l-23 -130h123l-20 -113h-123z" />
    <glyph glyph-name="commalining" horiz-adv-x="240" 
d="M-1 -114l62 119q-44 24 -44 74q0 34 23.5 57.5t57.5 23.5t57.5 -24t23.5 -59q0 -36 -35 -83l-79 -108h-66z" />
    <glyph glyph-name="periodlining" horiz-adv-x="240" 
d="M98 -6q-34 0 -57.5 23.5t-23.5 59.5q0 35 23.5 59t57.5 24t57.5 -24t23.5 -59q0 -36 -23.5 -59.5t-57.5 -23.5z" />
    <glyph glyph-name="colonlining" horiz-adv-x="246" 
d="M141 226q-34 0 -57.5 23.5t-23.5 59.5q0 35 24 59t57 24t57 -24t24 -59q0 -36 -23.5 -59.5t-57.5 -23.5zM101 -6q-34 0 -57.5 23.5t-23.5 59.5q0 35 24 59t57 24t57 -24t24 -59q0 -36 -23.5 -59.5t-57.5 -23.5z" />
    <glyph glyph-name="semicolonlining" horiz-adv-x="246" 
d="M141 226q-34 0 -57.5 23.5t-23.5 59.5q0 35 24 59t57 24t57 -24t24 -59q0 -36 -23.5 -59.5t-57.5 -23.5zM2 -114l62 119q-44 24 -44 74q0 34 23.5 57.5t57.5 23.5q33 0 57 -24t24 -59q0 -36 -35 -83l-79 -108h-66z" />
    <glyph glyph-name="lesslining" horiz-adv-x="386" 
d="M336 122l-295 189v10l362 183l-22 -125l-154 -71l128 -73z" />
    <glyph glyph-name="equallining" horiz-adv-x="432" 
d="M57 330l20 112h362l-20 -112h-362zM26 155l20 112h362l-20 -112h-362z" />
    <glyph glyph-name="greaterlining" horiz-adv-x="386" 
d="M22 122l22 125l154 71l-128 73l19 113l295 -189v-10z" />
    <glyph glyph-name="bracketleftlining" horiz-adv-x="330" 
d="M0 -128l150 850h242l-19 -111h-110l-111 -628h110l-20 -111h-242z" />
    <glyph glyph-name="bracketrightlining" horiz-adv-x="330" 
d="M-30 -128l20 111h110l111 628h-110l19 111h242l-150 -850h-242z" />
    <glyph glyph-name="braceleftlining" horiz-adv-x="406" 
d="M241 -128q-67 0 -108 37.5t-27 117.5l23 133q6 35 -2.5 48t-36.5 13h-62l20 111h59q31 0 44 13.5t21 57.5l32 180q25 139 152 139h111l-19 -111h-71q-34 0 -40 -37l-35 -201q-9 -54 -35.5 -74.5t-74.5 -26.5q89 -13 72 -111l-25 -142q-3 -18 2.5 -27t26.5 -9h69l-20 -111
h-76z" />
    <glyph glyph-name="bracerightlining" horiz-adv-x="406" 
d="M-33 -128l19 111h71q34 0 40 37l28 159q9 54 35.5 74.5t74.5 26.5q-89 13 -72 111l32 184q3 18 -2.5 27t-26.5 9h-69l20 111h76q67 0 108 -37.5t27 -117.5l-31 -175q-7 -35 2.5 -48t37.5 -13h62l-20 -111h-59q-31 0 -44.5 -13.5t-21.5 -57.5l-24 -138q-24 -139 -152 -139
h-111z" />
    <glyph glyph-name="degreelining" horiz-adv-x="363" 
d="M237 393q-62 0 -105.5 43t-43.5 103q0 63 46 106t109 43q62 0 106 -41.5t44 -100.5q0 -65 -46 -109t-110 -44zM238 477q26 0 43.5 18.5t17.5 47.5q0 27 -16 44t-41 17q-26 0 -43 -18.5t-17 -47.5q0 -26 15.5 -43.5t40.5 -17.5z" />
    <glyph glyph-name="centlining" horiz-adv-x="455" 
d="M189 0q-71 20 -112.5 75.5t-41.5 133.5q0 99 65.5 161.5t165.5 64.5l19 106h65l-20 -112q75 -15 120 -79l-98 -74q-14 24 -42 39l-38 -213q31 3 68 33l76 -85q-59 -59 -157 -59h-6l-19 -107h-65zM246 322q-36 -7 -56.5 -36.5t-20.5 -76.5q0 -68 40 -95z" />
    <glyph glyph-name="sterlinglining" horiz-adv-x="625" 
d="M196 276h-99l17 93h62q-10 52 -10 96q0 99 65 161t171 62q147 0 211 -125l-108 -65q-21 40 -44.5 57.5t-60.5 17.5q-44 0 -70 -28t-26 -82q0 -30 8 -94h194l-17 -93h-163q4 -46 4 -71q0 -40 -10 -73q49 -27 90 -27q53 0 96 51l83 -78q-37 -45 -77 -66t-98 -21
q-78 0 -144 53q-53 -53 -134 -53q-56 0 -93 33t-37 80q0 53 36.5 84t88.5 31q41 0 76 -16q-1 32 -11 73zM195 115q-32 25 -59 25q-40 0 -40 -34q0 -14 10 -24t29 -10q42 0 60 43z" />
    <glyph glyph-name="sectionlining" horiz-adv-x="562" 
d="M163 405q-27 42 -27 100q0 77 55.5 130t142.5 53q130 0 187 -106l-109 -67q-17 30 -34.5 42.5t-42.5 12.5q-26 0 -42.5 -17.5t-16.5 -40.5q0 -42 40 -67l106 -65q111 -68 111 -168q0 -97 -116 -137q26 -40 26 -91q0 -77 -55.5 -120.5t-154.5 -43.5q-151 0 -224 115
l109 72q46 -68 114 -68q71 0 71 44q0 17 -13 30.5t-48 35.5l-98 59q-57 35 -80.5 70.5t-23.5 83.5q0 59 35 94t88 49zM353 139q48 15 48 55q0 39 -55 73l-103 63l-23 15q-47 -15 -47 -55q0 -23 9 -36.5t36 -29.5l97 -59q29 -19 38 -26z" />
    <glyph glyph-name="yenlining" horiz-adv-x="657" 
d="M426 261l-27 -40l-4 -21h196l-16 -93h-196l-19 -107h-137l19 107h-196l16 93h196l6 31l-11 30h-180l16 93h133l-109 326h144l63 -225q7 -24 14 -60t10 -60l4 -24q39 93 72 144l147 225h145l-223 -326h129l-16 -93h-176z" />
    <glyph glyph-name="florinlining" horiz-adv-x="400" 
d="M117 219h-70l19 105h69l37 211q27 153 160 153q86 0 133 -62l-85 -76q-16 24 -41 24q-32 0 -39 -43l-36 -207h106l-19 -105h-105l-76 -431h-129z" />
    <glyph glyph-name="dividelining" 
d="M131 173q-34 0 -58.5 24t-24.5 61q0 36 24.5 60t58.5 24t58.5 -24t24.5 -60q0 -37 -24.5 -61t-58.5 -24z" />
    <glyph glyph-name="perthousandlining" horiz-adv-x="1361" 
d="M257 322q-75 0 -126 51t-51 129q0 82 56 134t132 52q75 0 127 -51t52 -129q0 -82 -56.5 -134t-133.5 -52zM165 0l529 680h133l-529 -680h-133zM1139 -9q-75 0 -126 51t-51 129q0 82 56 134t132 52q75 0 127 -51t52 -129q0 -82 -56.5 -134t-133.5 -52zM722 -9
q-75 0 -126 51t-51 129q0 82 56 134t132 52q75 0 127 -51t52 -129q0 -82 -56.5 -134t-133.5 -52zM259 424q30 0 51 22t21 62q0 36 -18.5 57t-46.5 21q-30 0 -50.5 -22t-20.5 -62q0 -36 17.5 -57t46.5 -21zM1141 93q30 0 51 22t21 62q0 36 -18.5 57t-46.5 21q-30 0 -50.5 -22
t-20.5 -62q0 -36 17.5 -57t46.5 -21zM724 93q30 0 51 22t21 62q0 36 -18.5 57t-46.5 21q-30 0 -50.5 -22t-20.5 -62q0 -36 17.5 -57t46.5 -21z" />
    <glyph glyph-name="fl.alt" horiz-adv-x="576" 
d="M472 0q-75 0 -100.5 25t-12.5 98l105 599h132l-105 -598q-4 -25 18 -25h38l-17 -99h-58zM120 317h-70l19 109h70l27 152q28 157 158 157q59 0 91 -28l-45 -102q-19 12 -34 12q-31 0 -39 -42l-26 -149h87l-19 -109h-87l-73 -414q-13 -73 -43.5 -94t-103.5 -21h-69l19 99
h40q12 0 18 5t9 20z" />
    <glyph glyph-name="ffl.alt" horiz-adv-x="849" 
d="M745 0q-75 0 -100.5 25t-12.5 98l105 599h132l-105 -598q-4 -25 18 -25h38l-17 -99h-58zM393 317h-141l-73 -414q-13 -73 -43.5 -94t-103.5 -21h-69l19 99h40q12 0 18 5t9 20l71 405h-70l19 109h70l24 132q14 78 53 117.5t111 39.5q61 0 98 -33l-57 -99q-17 14 -35 14
q-31 0 -39 -42l-23 -129h141l27 152q28 157 158 157q59 0 91 -28l-45 -102q-19 12 -34 12q-31 0 -39 -42l-26 -149h87l-19 -109h-87l-69 -389q-13 -73 -43.5 -94t-103.5 -21h-61l19 99h32q12 0 18 5t9 20z" />
    <glyph glyph-name="Eurolining" horiz-adv-x="733" 
d="M130 360h-60l18 91h58q33 110 119 173.5t199 63.5q178 0 257 -143l-109 -63q-25 44 -60 65.5t-92 21.5q-123 0 -170 -118h253l-18 -91h-255q-1 -11 -1 -32v-21h249l-16 -91h-216q38 -106 154 -106q95 0 155 78l99 -79q-49 -59 -109.5 -88.5t-149.5 -29.5
q-110 0 -187.5 60.5t-104.5 164.5h-96l16 91h66v19q0 23 1 34z" />
    <glyph glyph-name="at.up" horiz-adv-x="896" 
d="M462 -127q-190 0 -301.5 109.5t-111.5 279.5q0 127 60 225.5t158 149.5t214 51q181 0 289 -104t108 -258q0 -125 -54.5 -187.5t-147.5 -62.5q-51 0 -85 22.5t-47 56.5q-40 -84 -124 -84q-75 0 -122 53t-47 137q0 94 52 152t125 58q85 0 119 -78l9 68h126l-39 -219
q-14 -73 39 -73q36 0 60.5 38.5t24.5 121.5q0 123 -79.5 191.5t-206.5 68.5q-136 0 -224.5 -91t-88.5 -237q0 -131 77.5 -210t218.5 -79q80 0 153 24l35 -91q-75 -32 -190 -32zM457 177q31 0 51 28.5t20 70.5q0 36 -19 61.5t-47 25.5q-34 0 -54.5 -26t-20.5 -74
q0 -41 19 -63.5t51 -22.5z" />
    <glyph glyph-name="fb.alt" horiz-adv-x="857" 
d="M625 -9q-102 0 -146 88l-10 -79h-132l127 722h132l-62 -353q49 66 121 66q74 0 123 -56t49 -148q0 -107 -59.5 -173.5t-142.5 -66.5zM120 317h-70l19 109h70l27 152q28 157 158 157q59 0 91 -28l-45 -102q-19 12 -34 12q-31 0 -39 -42l-26 -149h87l-19 -109h-87l-73 -414
q-13 -73 -43.5 -94t-103.5 -21h-69l19 99h40q12 0 18 5t9 20zM590 105q46 0 72.5 32.5t26.5 86.5q0 45 -23 70.5t-64 25.5q-44 0 -71.5 -32.5t-27.5 -83.5q0 -45 23 -72t64 -27z" />
    <glyph glyph-name="fh.alt" horiz-adv-x="846" 
d="M337 0l127 722h132l-65 -369q53 82 135 82q71 0 107.5 -55t20.5 -144l-20 -112q-4 -25 18 -25h30l-17 -99h-43q-72 0 -101.5 29t-17.5 99l18 104q15 86 -60 86q-40 0 -61.5 -20.5t-29.5 -66.5l-41 -231h-132zM120 317h-70l19 109h70l27 152q28 157 158 157q59 0 91 -28
l-45 -102q-19 12 -34 12q-31 0 -39 -42l-26 -149h87l-19 -109h-87l-73 -414q-13 -73 -43.5 -94t-103.5 -21h-69l19 99h40q12 0 18 5t9 20z" />
    <glyph glyph-name="fk.alt" horiz-adv-x="812" 
d="M491 125l-22 -125h-132l127 722h132l-65 -368q-8 -46 -24 -97l161 169h150l-173 -177l62 -125q8 -16 14.5 -20.5t19.5 -4.5h31l-17 -99h-48q-53 0 -76 18t-47 67l-42 85zM120 317h-70l19 109h70l27 152q28 157 158 157q59 0 91 -28l-45 -102q-19 12 -34 12q-31 0 -39 -42
l-26 -149h87l-19 -109h-87l-73 -414q-13 -73 -43.5 -94t-103.5 -21h-69l19 99h40q12 0 18 5t9 20z" />
    <glyph glyph-name="ffb.alt" horiz-adv-x="1130" 
d="M898 -9q-102 0 -146 88l-10 -79h-132l127 722h132l-62 -353q49 66 121 66q74 0 123 -56t49 -148q0 -107 -59.5 -173.5t-142.5 -66.5zM120 317h-70l19 109h70l24 132q14 78 53 117.5t111 39.5q61 0 98 -33l-57 -99q-17 14 -35 14q-31 0 -39 -42l-23 -129h141l27 152
q28 157 158 157q59 0 91 -28l-45 -102q-19 12 -34 12q-31 0 -39 -42l-26 -149h87l-19 -109h-87l-69 -389q-13 -73 -43.5 -94t-103.5 -21h-61l19 99h32q12 0 18 5t9 20l67 380h-141l-73 -414q-13 -73 -43.5 -94t-103.5 -21h-69l19 99h40q12 0 18 5t9 20zM863 105
q46 0 72.5 32.5t26.5 86.5q0 45 -23 70.5t-64 25.5q-44 0 -71.5 -32.5t-27.5 -83.5q0 -45 23 -72t64 -27z" />
    <glyph glyph-name="ffh.alt" horiz-adv-x="1119" 
d="M610 0l127 722h132l-65 -369q53 82 135 82q71 0 107.5 -55t20.5 -144l-20 -112q-4 -25 18 -25h30l-17 -99h-43q-72 0 -101.5 29t-17.5 99l18 104q15 86 -60 86q-40 0 -61.5 -20.5t-29.5 -66.5l-41 -231h-132zM120 317h-70l19 109h70l24 132q14 78 53 117.5t111 39.5
q61 0 98 -33l-57 -99q-17 14 -35 14q-31 0 -39 -42l-23 -129h141l27 152q28 157 158 157q59 0 91 -28l-45 -102q-19 12 -34 12q-31 0 -39 -42l-26 -149h87l-19 -109h-87l-69 -389q-13 -73 -43.5 -94t-103.5 -21h-61l19 99h32q12 0 18 5t9 20l67 380h-141l-73 -414
q-13 -73 -43.5 -94t-103.5 -21h-69l19 99h40q12 0 18 5t9 20z" />
    <glyph glyph-name="ffk.alt" horiz-adv-x="1085" 
d="M918 249l62 -125q8 -16 14.5 -20.5t19.5 -4.5h31l-17 -99h-48q-53 0 -76 18t-47 67l-42 85l-51 -45l-22 -125h-132l127 722h132l-65 -368q-8 -46 -24 -97l161 169h150zM252 317l-73 -414q-13 -73 -43.5 -94t-103.5 -21h-69l19 99h40q12 0 18 5t9 20l71 405h-70l19 109h70
l24 132q14 78 53 117.5t111 39.5q61 0 98 -33l-57 -99q-17 14 -35 14q-31 0 -39 -42l-23 -129h141l27 152q28 157 158 157q59 0 91 -28l-45 -102q-19 12 -34 12q-31 0 -39 -42l-26 -149h87l-19 -109h-87l-69 -389q-13 -73 -43.5 -94t-103.5 -21h-61l19 99h32q12 0 18 5t9 20
l67 380h-141z" />
    <glyph glyph-name="fffl.alt" horiz-adv-x="1122" 
d="M1017 0q-75 0 -100.5 25t-12.5 98l105 599h132l-105 -598q-4 -25 18 -25h38l-17 -99h-58zM665 317h-141l-71 -404q-13 -73 -43.5 -94t-103.5 -21h-69l19 99h40q12 0 18 5t9 20l70 395h-141l-73 -414q-13 -73 -43.5 -94t-103.5 -21h-69l19 99h40q12 0 18 5t9 20l71 405
h-70l19 109h70l24 132q14 78 53 117.5t111 39.5q61 0 98 -33l-57 -99q-17 14 -35 14q-31 0 -39 -42l-23 -129h141l25 142q14 78 53 117.5t111 39.5q61 0 98 -33l-57 -99q-17 14 -35 14q-31 0 -39 -42l-25 -139h141l27 152q28 157 158 157q59 0 91 -28l-45 -102
q-19 12 -34 12q-31 0 -39 -42l-26 -149h87l-19 -109h-87l-69 -389q-13 -73 -43.5 -94t-103.5 -21h-61l19 99h32q12 0 18 5t9 20z" />
    <glyph glyph-name="space.up" horiz-adv-x="206" 
 />
    <glyph glyph-name="nbspace.up" horiz-adv-x="206" 
 />
    <glyph glyph-name="hyphen.up" horiz-adv-x="312" 
d="M36 216l20 116h245l-20 -116h-245z" />
    <glyph glyph-name="guillemotleft.up" horiz-adv-x="501" 
d="M324 92l-72 164v8l123 169h133l-128 -175l73 -166h-129zM114 92l-72 164v8l123 169h133l-128 -175l73 -166h-129z" />
    <glyph glyph-name="guillemotright.up" horiz-adv-x="499" 
d="M223 92l128 175l-73 166h129l72 -164v-8l-123 -169h-133zM13 92l128 175l-73 166h129l72 -164v-8l-123 -169h-133z" />
    <glyph glyph-name="endash.up" horiz-adv-x="450" 
d="M33 216l21 116h388l-21 -116h-388z" />
    <glyph glyph-name="emdash.up" horiz-adv-x="726" 
d="M33 216l21 116h664l-21 -116h-664z" />
    <glyph glyph-name="guilsinglleft.up" horiz-adv-x="291" 
d="M114 92l-72 164v8l123 169h133l-128 -175l73 -166h-129z" />
    <glyph glyph-name="guilsinglright.up" horiz-adv-x="289" 
d="M13 92l128 175l-73 166h129l72 -164v-8l-123 -169h-133z" />
    <glyph glyph-name="umacron.alt" horiz-adv-x="507" 
d="M181 529l17 96h240l-17 -96h-240zM235 -9q-102 0 -152 59t-32 160l38 216h132l-40 -227q-17 -95 62 -95q37 0 54 19.5t25 65.5l42 237h132l-44 -252q-16 -91 -68.5 -137t-148.5 -46z" />
    <glyph glyph-name="uring.alt" horiz-adv-x="507" 
d="M308 474q-53 0 -89 35t-36 84t36 84t89 35t89 -35t36 -84t-36 -84t-89 -35zM235 -9q-102 0 -152 59t-32 160l38 216h132l-40 -227q-17 -95 62 -95q37 0 54 19.5t25 65.5l42 237h132l-44 -252q-16 -91 -68.5 -137t-148.5 -46zM308 547q18 0 30 12.5t12 33.5t-12 33.5
t-30 12.5t-30 -12.5t-12 -33.5t12 -33.5t30 -12.5z" />
    <glyph glyph-name="uhungarumlaut.alt" horiz-adv-x="507" 
d="M334 500l86 188h138l-122 -188h-102zM153 500l86 188h138l-122 -188h-102zM235 -9q-102 0 -152 59t-32 160l38 216h132l-40 -227q-17 -95 62 -95q37 0 54 19.5t25 65.5l42 237h132l-44 -252q-16 -91 -68.5 -137t-148.5 -46z" />
    <glyph glyph-name="uogonek.alt" horiz-adv-x="507" 
d="M197 -7q-84 11 -123 68.5t-23 148.5l38 216h132l-40 -227q-17 -95 62 -95q37 0 54 19.5t25 65.5l42 237h132l-44 -252q-29 -163 -176 -181l-50 -63q-32 -41 -32 -70t28 -29q19 0 40 28l65 -38q-35 -61 -111 -61q-45 0 -76.5 24.5t-31.5 69.5q0 59 53 107z" />
    <glyph glyph-name="Gcommaaccent.alt" horiz-adv-x="782" 
d="M405 -9q-152 0 -244.5 93.5t-92.5 241.5q0 157 104.5 259.5t255.5 102.5q193 0 283 -135l-106 -77q-64 90 -181 90q-96 0 -155.5 -67t-59.5 -174q0 -92 54.5 -153t145.5 -61q77 0 130.5 38t66.5 97h-179l21 118h309q-1 -172 -90 -272.5t-262 -100.5zM272 -283l48 99
q-40 21 -40 68q0 31 22.5 52.5t52.5 21.5q31 0 53.5 -21t22.5 -52q0 -39 -33 -85l-62 -83h-64z" />
    <glyph glyph-name="Gbreve.alt" horiz-adv-x="782" 
d="M447 748q-69 0 -110 39t-44 101l101 15q5 -57 54 -57q48 0 60 57l99 -15q-9 -62 -51 -101t-109 -39zM405 -9q-152 0 -244.5 93.5t-92.5 241.5q0 157 104.5 259.5t255.5 102.5q193 0 283 -135l-106 -77q-64 90 -181 90q-96 0 -155.5 -67t-59.5 -174q0 -92 54.5 -153
t145.5 -61q77 0 130.5 38t66.5 97h-179l21 118h309q-1 -172 -90 -272.5t-262 -100.5z" />
    <glyph glyph-name="Gcircumflex.alt" horiz-adv-x="782" 
d="M291 748l193 216h11l117 -216h-102l-43 72l-67 -72h-109zM405 -9q-152 0 -244.5 93.5t-92.5 241.5q0 157 104.5 259.5t255.5 102.5q193 0 283 -135l-106 -77q-64 90 -181 90q-96 0 -155.5 -67t-59.5 -174q0 -92 54.5 -153t145.5 -61q77 0 130.5 38t66.5 97h-179l21 118
h309q-1 -172 -90 -272.5t-262 -100.5z" />
    <glyph glyph-name="emacron.alt" horiz-adv-x="527" 
d="M181 529l17 96h240l-17 -96h-240zM171 174q15 -76 105 -76q54 0 104 37l77 -86q-75 -58 -182 -58q-110 0 -174 59.5t-64 156.5q0 102 70 165t171 63q111 0 167.5 -73.5t41.5 -187.5h-316zM173 249h186q1 37 -22 59t-63 22q-83 0 -101 -81z" />
    <glyph glyph-name="edotaccent.alt" horiz-adv-x="527" 
d="M312 508q-28 0 -50 22t-22 52t22 52t50 22q29 0 51 -22t22 -52t-22 -52t-51 -22zM171 174q15 -76 105 -76q54 0 104 37l77 -86q-75 -58 -182 -58q-110 0 -174 59.5t-64 156.5q0 102 70 165t171 63q111 0 167.5 -73.5t41.5 -187.5h-316zM173 249h186q1 37 -22 59t-63 22
q-83 0 -101 -81z" />
    <glyph glyph-name="ecaron.alt" horiz-adv-x="527" 
d="M289 480l-117 217h102l43 -73l67 73h109l-193 -217h-11zM171 174q15 -76 105 -76q54 0 104 37l77 -86q-75 -58 -182 -58q-110 0 -174 59.5t-64 156.5q0 102 70 165t171 63q111 0 167.5 -73.5t41.5 -187.5h-316zM173 249h186q1 37 -22 59t-63 22q-83 0 -101 -81z" />
    <glyph glyph-name="eogonek.alt" horiz-adv-x="527" 
d="M283 -9l-48 -61q-32 -41 -32 -70t28 -29q19 0 40 28l65 -38q-35 -61 -111 -61q-45 0 -76.5 24.5t-31.5 69.5q0 59 53 107l40 36q-81 17 -127 73t-46 137q0 102 70 165t171 63q111 0 167.5 -73.5t41.5 -187.5h-316q15 -76 105 -76q54 0 104 37l77 -86q-72 -57 -174 -58z
M173 249h186q1 37 -22 59t-63 22q-83 0 -101 -81z" />
    <glyph glyph-name="ubreve.alt" horiz-adv-x="507" 
d="M302 500q-69 0 -110 39t-44 101l101 15q5 -57 54 -57q48 0 60 57l99 -15q-9 -62 -51 -101t-109 -39zM235 -9q-102 0 -152 59t-32 160l38 216h132l-40 -227q-17 -95 62 -95q37 0 54 19.5t25 65.5l42 237h132l-44 -252q-16 -91 -68.5 -137t-148.5 -46z" />
    <glyph glyph-name="zero.numerator" horiz-adv-x="554" 
d="M312 195q-101 0 -171.5 68t-70.5 173q0 117 73 184.5t183 67.5q101 0 171.5 -68t70.5 -173q0 -115 -75 -183.5t-181 -68.5zM316 304q58 0 91.5 39.5t33.5 106.5q0 57 -34.5 93t-85.5 36q-58 0 -91.5 -39.5t-33.5 -106.5q0 -57 34.5 -93t85.5 -36z" />
    <glyph glyph-name="one.numerator" horiz-adv-x="305" 
d="M106 203l64 367h-89l19 110h214l-85 -477h-123z" />
    <glyph glyph-name="two.numerator" horiz-adv-x="439" 
d="M21 203v12l217 203q47 44 65 69.5t18 47.5q0 18 -11.5 30t-33.5 12q-50 0 -94 -60l-99 60q68 111 195 111q77 0 123 -42.5t46 -106.5q0 -78 -110 -173l-22 -19q-13 -12 -31.5 -23.5t-30.5 -17.5l-12 -6q70 9 88 9h98l-20 -106h-386z" />
    <glyph glyph-name="three.numerator" horiz-adv-x="421" 
d="M223 195q-73 0 -124 33t-70 82l110 50q21 -55 84 -55q32 0 52.5 19t20.5 47q0 30 -20.5 48t-53.5 18q-36 0 -59 -9l-7 11l76 92q7 8 19 19.5l21 19.5l9 7q-40 -4 -74 -4h-100l19 107h337v-11l-94 -120q-9 -11 -21 -21t-20 -14l-8 -5q40 -9 72 -47t32 -93
q0 -76 -54.5 -125t-146.5 -49z" />
    <glyph glyph-name="four.numerator" horiz-adv-x="468" 
d="M401 354h65l-16 -92h-65l-10 -59h-121l11 59h-236l16 91l405 335h10zM281 354l8 48l17 62q-19 -26 -44 -47l-38 -32q-9 -8 -22.5 -16.5t-21.5 -12.5l-9 -5q34 3 60 3h50z" />
    <glyph glyph-name="five.numerator" horiz-adv-x="426" 
d="M223 195q-71 0 -121.5 31.5t-73.5 78.5l105 60q10 -18 18.5 -29t27.5 -20.5t44 -9.5q34 0 56 15.5t22 42.5q0 28 -23 44t-61 16q-70 0 -123 -32l-10 8l49 280h292l-19 -107h-188l-11 -63q24 8 53 8q74 0 121.5 -41t47.5 -111q0 -82 -57 -126.5t-149 -44.5z" />
    <glyph glyph-name="six.numerator" horiz-adv-x="451" 
d="M253 195q-82 0 -138.5 50.5t-56.5 120.5q0 74 69 157l131 157h146l-78 -93q-13 -16 -32.5 -31.5t-33.5 -23.5l-13 -8q18 6 45 6q64 0 113 -44.5t49 -110.5q0 -82 -56.5 -131t-144.5 -49zM255 301q32 0 54 20t22 53q0 29 -21.5 48.5t-54.5 19.5q-32 0 -53.5 -20t-21.5 -53
q0 -29 21 -48.5t54 -19.5z" />
    <glyph glyph-name="seven.numerator" horiz-adv-x="431" 
d="M59 203l235 367h-209l19 110h391v-11l-296 -466h-140z" />
    <glyph glyph-name="eight.numerator" horiz-adv-x="443" 
d="M176 488q-40 32 -40 81q0 50 46 84.5t107 34.5t104 -34t43 -84q0 -65 -72 -97q78 -40 78 -115q0 -72 -55.5 -117.5t-142.5 -45.5q-84 0 -137 45.5t-53 109.5q0 52 34 87.5t88 50.5zM283 521q18 0 30 10t12 26t-10 26t-28 10t-30 -10t-12 -26t10 -26t28 -10zM246 303
q30 0 49.5 18.5t19.5 47.5q0 25 -18 42t-46 17q-30 0 -50 -18.5t-20 -46.5q0 -25 18.5 -42.5t46.5 -17.5z" />
    <glyph glyph-name="nine.numerator" horiz-adv-x="451" 
d="M121 203l85 94q14 16 34 31.5t33 23.5l13 7q-18 -6 -43 -6q-64 0 -113 44.5t-49 110.5q0 82 56.5 131t144.5 49q82 0 138.5 -50.5t56.5 -120.5q0 -81 -72 -160l-139 -154h-145zM280 441q32 0 53.5 20t21.5 53q0 29 -21 48.5t-54 19.5q-32 0 -54 -20t-22 -53
q0 -29 21.5 -48.5t54.5 -19.5z" />
    <glyph glyph-name="zero.denominator" horiz-adv-x="554" 
d="M276 -8q-101 0 -171.5 68t-70.5 173q0 117 73 184.5t183 67.5q101 0 171.5 -68t70.5 -173q0 -115 -75 -183.5t-181 -68.5zM280 101q58 0 91.5 39.5t33.5 106.5q0 57 -34.5 93t-85.5 36q-58 0 -91.5 -39.5t-33.5 -106.5q0 -57 34.5 -93t85.5 -36z" />
    <glyph glyph-name="one.denominator" horiz-adv-x="305" 
d="M70 0l64 367h-89l19 110h214l-85 -477h-123z" />
    <glyph glyph-name="two.denominator" horiz-adv-x="439" 
d="M-15 0v12l217 203q47 44 65 69.5t18 47.5q0 18 -11.5 30t-33.5 12q-50 0 -94 -60l-99 60q68 111 195 111q77 0 123 -42.5t46 -106.5q0 -78 -110 -173l-22 -19q-13 -12 -31.5 -23.5t-30.5 -17.5l-12 -6q70 9 88 9h98l-20 -106h-386z" />
    <glyph glyph-name="three.denominator" horiz-adv-x="421" 
d="M187 -8q-73 0 -124 33t-70 82l110 50q21 -55 84 -55q32 0 52.5 19t20.5 47q0 30 -20.5 48t-53.5 18q-36 0 -59 -9l-7 11l76 92q7 8 19 19.5t21 18.5l9 8q-40 -4 -74 -4h-100l19 107h337v-11l-94 -120q-9 -11 -21 -21t-20 -15l-8 -4q40 -9 72 -47t32 -93q0 -76 -54.5 -125
t-146.5 -49z" />
    <glyph glyph-name="four.denominator" horiz-adv-x="468" 
d="M376 151h65l-16 -92h-65l-10 -59h-121l11 59h-236l16 91l405 335h10zM256 151l8 48l17 62q-19 -26 -44 -47l-38 -32q-9 -8 -22.5 -16.5t-22.5 -13.5l-8 -4q34 3 60 3h50z" />
    <glyph glyph-name="five.denominator" horiz-adv-x="426" 
d="M187 -8q-71 0 -121.5 31.5t-73.5 78.5l105 60q10 -18 18.5 -29t27.5 -20.5t44 -9.5q34 0 56 15.5t22 42.5q0 28 -23 44t-61 16q-70 0 -123 -32l-10 8l49 280h292l-19 -107h-188l-11 -63q24 8 53 8q74 0 121.5 -41t47.5 -111q0 -82 -57 -126.5t-149 -44.5z" />
    <glyph glyph-name="six.denominator" horiz-adv-x="451" 
d="M217 -8q-82 0 -138.5 50.5t-56.5 120.5q0 74 69 157l131 157h146l-78 -93q-13 -16 -32.5 -31.5t-33.5 -23.5l-13 -8q18 6 45 6q64 0 113 -44.5t49 -110.5q0 -82 -56.5 -131t-144.5 -49zM219 98q32 0 54 20t22 53q0 29 -21.5 48.5t-54.5 19.5q-32 0 -53.5 -20t-21.5 -53
q0 -29 21 -48.5t54 -19.5z" />
    <glyph glyph-name="seven.denominator" horiz-adv-x="431" 
d="M23 0l235 367h-209l19 110h391v-11l-296 -466h-140z" />
    <glyph glyph-name="eight.denominator" horiz-adv-x="443" 
d="M141 285q-40 32 -40 81q0 50 46 84.5t107 34.5t104 -34t43 -84q0 -65 -72 -97q78 -40 78 -115q0 -72 -55.5 -117.5t-142.5 -45.5q-84 0 -137 45.5t-53 109.5q0 52 34 87.5t88 50.5zM248 318q18 0 30 10t12 26t-10 26t-28 10t-30 -10t-12 -26t10 -26t28 -10zM211 100
q30 0 49.5 18.5t19.5 47.5q0 25 -18 42t-46 17q-30 0 -50 -18.5t-20 -46.5q0 -25 18.5 -42.5t46.5 -17.5z" />
    <glyph glyph-name="nine.denominator" horiz-adv-x="451" 
d="M85 0l85 94q14 16 34 31.5t33 22.5l13 8q-18 -6 -43 -6q-64 0 -113 44.5t-49 110.5q0 82 56.5 131t144.5 49q82 0 138.5 -50.5t56.5 -120.5q0 -81 -72 -160l-139 -154h-145zM244 238q32 0 53.5 20t21.5 53q0 29 -21 48.5t-54 19.5q-32 0 -54 -20t-22 -53
q0 -29 21.5 -48.5t54.5 -19.5z" />
    <glyph glyph-name="minussmall" 
d="M131 173q-34 0 -58.5 24t-24.5 61q0 36 24.5 60t58.5 24t58.5 -24t24.5 -60q0 -37 -24.5 -61t-58.5 -24z" />
    <glyph glyph-name="multiplysmall" 
d="M131 173q-34 0 -58.5 24t-24.5 61q0 36 24.5 60t58.5 24t58.5 -24t24.5 -60q0 -37 -24.5 -61t-58.5 -24z" />
    <glyph glyph-name="spacesmall" horiz-adv-x="206" 
 />
    <glyph glyph-name="numbersignsmall" horiz-adv-x="475" 
d="M139 421h-68l18 101h75l25 97h103l-25 -97h71l25 97h103l-25 -97h58l-18 -101h-65l-19 -77h70l-18 -101h-77l-25 -101h-103l25 101h-71l-25 -101h-103l25 101h-56l18 101h63zM313 421h-71l-19 -77h71z" />
    <glyph glyph-name="dollarsmall" horiz-adv-x="476" 
d="M161 -3q-120 22 -169 125l103 52q28 -58 84 -75l20 116q-80 27 -113.5 67t-33.5 98q0 71 52.5 111t136.5 40h13l18 100h65l-19 -109q82 -21 126 -86l-91 -63q-19 34 -53 48l-18 -102q81 -26 121 -66.5t40 -102.5q0 -81 -60 -120t-158 -39l-19 -107h-65zM237 433
q-64 -3 -64 -45q0 -33 48 -50zM242 92q76 6 76 49q0 19 -12.5 31.5t-44.5 23.5z" />
    <glyph glyph-name="percentsmall" horiz-adv-x="876" 
d="M213 217q-69 0 -113.5 44.5t-44.5 108.5q0 71 47.5 116t115.5 45q70 0 114 -43t44 -107q0 -71 -47.5 -117.5t-115.5 -46.5zM175 0l419 522h127l-419 -522h-127zM678 -9q-69 0 -113.5 44.5t-44.5 108.5q0 71 47.5 116t115.5 45q70 0 114 -43t44 -107q0 -71 -47.5 -117.5
t-115.5 -46.5zM214 314q22 0 37.5 18t15.5 45q0 28 -14 42.5t-35 14.5q-23 0 -38 -17t-15 -46q0 -26 14.5 -41.5t34.5 -15.5zM679 88q22 0 37.5 18t15.5 45q0 28 -14 42.5t-35 14.5q-23 0 -38 -17t-15 -46q0 -26 14.5 -41.5t34.5 -15.5z" />
    <glyph glyph-name="parenleftsmall" horiz-adv-x="336" 
d="M186 -67q-122 161 -122 333q0 73 17.5 139t43 113t64 92t70 72t71.5 57l62 -71q-191 -170 -191 -411q0 -140 71 -272z" />
    <glyph glyph-name="parenrightsmall" horiz-adv-x="335" 
d="M52 -67l-62 71q191 170 191 411q0 140 -71 272l86 52q122 -161 122 -333q0 -73 -17.5 -139t-43 -113t-64 -92t-70 -72t-71.5 -57z" />
    <glyph glyph-name="plussmall" horiz-adv-x="403" 
d="M261 213l-20 -112h-114l20 112h-107l20 110h106l20 112h114l-20 -112h106l-20 -110h-105z" />
    <glyph glyph-name="commasmall" horiz-adv-x="240" 
d="M-1 -114l62 119q-44 24 -44 74q0 34 23.5 57.5t57.5 23.5t57.5 -24t23.5 -59q0 -36 -35 -83l-79 -108h-66z" />
    <glyph glyph-name="periodsmall" horiz-adv-x="240" 
d="M98 -6q-34 0 -57.5 23.5t-23.5 59.5q0 35 23.5 59t57.5 24t57.5 -24t23.5 -59q0 -36 -23.5 -59.5t-57.5 -23.5z" />
    <glyph glyph-name="slashsmall" horiz-adv-x="396" 
d="M-73 -128l422 850h131l-422 -850h-131z" />
    <glyph glyph-name="zerosmall" horiz-adv-x="604" 
d="M302 -9q-106 0 -179 74t-73 188q0 122 82 200t191 78q106 0 178.5 -74t72.5 -188q0 -122 -80.5 -200t-191.5 -78zM305 109q54 0 92.5 44.5t38.5 118.5q0 66 -33 103.5t-86 37.5t-91.5 -45t-38.5 -118q0 -66 32.5 -103.5t85.5 -37.5z" />
    <glyph glyph-name="onesmall" horiz-adv-x="318" 
d="M87 0l72 406h-101l20 116h236l-92 -522h-135z" />
    <glyph glyph-name="twosmall" horiz-adv-x="468" 
d="M-18 0v12l249 226q48 45 66 72t18 50q0 22 -13.5 36t-41.5 14q-62 0 -88 -70l-129 30q28 84 87.5 122.5t135.5 38.5q87 0 137 -45t50 -116q0 -90 -109 -188l-32 -29q-11 -10 -28 -21l-28 -18l-11 -6q46 6 65 6h114l-20 -114h-422z" />
    <glyph glyph-name="threesmall" horiz-adv-x="467" 
d="M221 -9q-84 0 -139.5 38.5t-77.5 96.5l115 52q24 -68 100 -68q37 0 58.5 20.5t21.5 52.5t-22.5 53.5t-67.5 21.5t-73 -13l-6 9l90 104q12 13 27.5 26.5t24.5 19.5l10 7q-51 -5 -84 -5h-107l20 116h366v-11l-104 -127q-10 -12 -22 -23.5t-19 -16.5l-7 -5q40 -11 75 -54
t35 -105q0 -85 -58 -137t-156 -52z" />
    <glyph glyph-name="foursmall" horiz-adv-x="527" 
d="M252 0l12 65h-254l19 103l439 360h12l-63 -358h71l-19 -105h-71l-11 -65h-135zM142 160q49 4 84 4h62l8 46q4 19 10 42t10 36l5 13q-37 -40 -70 -66l-34 -27q-14 -11 -32.5 -23t-30.5 -19z" />
    <glyph glyph-name="fivesmall" horiz-adv-x="464" 
d="M212 -9q-77 0 -130.5 32.5t-77.5 83.5l117 65q32 -62 91 -62q36 0 59 18.5t23 47.5q0 35 -26.5 54t-70.5 19q-67 0 -129 -39l-7 6l54 306h312l-20 -115h-198l-11 -63q27 8 53 8q76 0 128 -47t52 -127q0 -84 -61 -135.5t-158 -51.5z" />
    <glyph glyph-name="sixsmall" horiz-adv-x="503" 
d="M249 -9q-90 0 -151 56t-61 134q0 89 73 175l141 166h156l-91 -108q-11 -13 -29 -29t-31 -25l-12 -9q24 8 50 8q66 0 118 -48t52 -122q0 -90 -59 -144t-156 -54zM248 108q39 0 59 23t20 55t-20.5 54t-56.5 22q-37 0 -58.5 -23.5t-21.5 -57.5q0 -30 21 -51.5t57 -21.5z" />
    <glyph glyph-name="sevensmall" horiz-adv-x="468" 
d="M36 0l252 406h-222l22 116h414v-11l-316 -511h-150z" />
    <glyph glyph-name="eightsmall" horiz-adv-x="493" 
d="M160 311q-56 33 -56 91q0 57 50.5 93t119.5 36q66 0 115 -35.5t49 -88.5q0 -76 -82 -108q95 -41 95 -129q0 -77 -60.5 -128t-155.5 -51q-91 0 -149 49t-58 121q0 59 36.5 97t95.5 53zM268 343q18 0 33 11t15 31q0 17 -13 28t-31 11q-19 0 -33.5 -10.5t-14.5 -30.5
q0 -17 13.5 -28.5t30.5 -11.5zM236 106q34 0 56 20.5t22 51.5q0 29 -20 50t-51 21q-34 0 -56 -21t-22 -53q0 -29 19.5 -49t51.5 -20z" />
    <glyph glyph-name="ninesmall" horiz-adv-x="503" 
d="M100 0l104 109q13 14 31.5 30t30.5 25l12 9q-25 -10 -46 -10q-68 0 -120.5 48t-52.5 122q0 89 60.5 143.5t154.5 54.5t153 -55t59 -135q0 -99 -79 -182l-151 -159h-156zM273 260q37 0 58.5 23.5t21.5 57.5q0 30 -21 51.5t-57 21.5q-39 0 -59 -23t-20 -55t20.5 -54
t56.5 -22z" />
    <glyph glyph-name="colonsmall" horiz-adv-x="246" 
d="M141 226q-34 0 -57.5 23.5t-23.5 59.5q0 35 24 59t57 24t57 -24t24 -59q0 -36 -23.5 -59.5t-57.5 -23.5zM101 -6q-34 0 -57.5 23.5t-23.5 59.5q0 35 24 59t57 24t57 -24t24 -59q0 -36 -23.5 -59.5t-57.5 -23.5z" />
    <glyph glyph-name="semicolonsmall" horiz-adv-x="246" 
d="M141 226q-34 0 -57.5 23.5t-23.5 59.5q0 35 24 59t57 24t57 -24t24 -59q0 -36 -23.5 -59.5t-57.5 -23.5zM2 -114l62 119q-44 24 -44 74q0 34 23.5 57.5t57.5 23.5q33 0 57 -24t24 -59q0 -36 -35 -83l-79 -108h-66z" />
    <glyph glyph-name="lesssmall" horiz-adv-x="351" 
d="M292 72l-261 166v11l321 165l-21 -120l-124 -56l104 -56z" />
    <glyph glyph-name="equalsmall" horiz-adv-x="397" 
d="M48 279l20 115h327l-20 -115h-327zM19 115l21 115h327l-21 -115h-327z" />
    <glyph glyph-name="greatersmall" horiz-adv-x="351" 
d="M13 72l21 120l124 56l-104 56l19 110l261 -166v-11z" />
    <glyph glyph-name="bracketleftsmall" horiz-adv-x="331" 
d="M12 -62l140 794h242l-19 -111h-110l-101 -572h110l-20 -111h-242z" />
    <glyph glyph-name="bracketrightsmall" horiz-adv-x="330" 
d="M-18 -62l20 111h110l101 572h-110l19 111h242l-140 -794h-242z" />
    <glyph glyph-name="Q.alt1small" horiz-adv-x="612" 
d="M374 12q23 -20 51 -20q29 0 52 32l89 -75q-51 -75 -142 -75q-25 0 -46.5 6t-43.5 22t-32.5 25t-35.5 34.5l-30 30.5q-3 3 -9.5 9t-9.5 9t-8 7.5t-8.5 7t-8 5t-9 3.5t-8.5 1q-37 0 -72 -50l-92 78q23 41 71 62q-34 57 -34 132q0 124 81 197.5t197 73.5q109 0 183 -75.5
t74 -188.5q0 -106 -56 -170t-153 -81zM311 115q63 0 97 39.5t34 112.5q0 64 -33.5 101.5t-86.5 37.5q-63 0 -97.5 -40.5t-34.5 -113.5q0 -64 34 -100.5t87 -36.5z" />
    <glyph glyph-name="braceleftsmall" horiz-adv-x="406" 
d="M252 -62q-67 0 -108 37.5t-27 117.5l16 89q6 35 -2.5 48t-36.5 13h-62l20 111h59q31 0 44 13.5t21 57.5l30 168q25 139 152 139h111l-19 -111h-71q-34 0 -40 -37l-33 -189q-9 -54 -35.5 -74.5t-74.5 -26.5q88 -13 71 -111l-17 -98q-3 -18 2.5 -27t26.5 -9h69l-20 -111
h-76z" />
    <glyph glyph-name="bracerightsmall" horiz-adv-x="406" 
d="M-18 -62l20 111h71q34 0 40 37l21 116q9 54 35 74.5t74 26.5q-89 13 -72 111l30 171q3 18 -2.5 27t-26.5 9h-68l19 111h76q67 0 108 -37.5t27 -117.5l-29 -162q-7 -35 2.5 -48t37.5 -13h62l-20 -111h-59q-31 0 -44.5 -13.5t-21.5 -57.5l-16 -95q-24 -139 -152 -139h-112z
" />
    <glyph glyph-name="degreesmall" horiz-adv-x="325" 
d="M196 268q-56 0 -96 37.5t-40 92.5q0 58 41 95.5t99 37.5q56 0 95.5 -36t39.5 -91q0 -58 -40.5 -97t-98.5 -39zM197 346q22 0 36.5 16t14.5 41q0 24 -13.5 37t-35.5 13t-36.5 -15.5t-14.5 -40.5q0 -24 13.5 -37.5t35.5 -13.5z" />
    <glyph glyph-name="centsmall" horiz-adv-x="421" 
d="M179 0q-64 19 -103.5 68.5t-39.5 120.5q0 89 60 145t152 58l17 98h62l-18 -104q69 -15 110 -72l-98 -72q-10 18 -32 32l-30 -174q28 3 54 28l75 -83q-58 -53 -144 -53h-4l-19 -108h-62zM229 281q-28 -6 -44.5 -30.5t-16.5 -61.5q0 -53 31 -77z" />
    <glyph glyph-name="sterlingsmall" horiz-adv-x="529" 
d="M161 214h-87l15 86h48q-7 30 -7 54q0 80 52 128.5t140 48.5q122 0 178 -96l-107 -66q-27 48 -69 48q-57 0 -57 -66q0 -21 5 -51h142l-15 -86h-115q2 -26 2 -40q0 -31 -7 -53q31 -12 56 -12q46 0 80 37l82 -81q-54 -74 -154 -74q-64 0 -116 41q-47 -41 -113 -41
q-52 0 -85 27.5t-33 68.5q0 44 33.5 70t82.5 26q32 0 57 -9q-1 16 -8 40zM157 95q-21 16 -43 16q-32 0 -32 -24t32 -24q29 0 43 32z" />
    <glyph glyph-name="sectionsmall" horiz-adv-x="492" 
d="M135 313q-18 33 -18 76q0 61 48.5 101.5t117.5 40.5q107 0 165 -78l-100 -68q-23 35 -59 35q-17 0 -29 -8.5t-12 -21.5q0 -24 25 -37l93 -50q87 -47 87 -130q0 -75 -94 -106q23 -37 23 -83q0 -61 -50.5 -96t-137.5 -35q-64 0 -116 25t-76 64l104 73q33 -52 90 -52
q49 0 49 25q0 18 -27 33l-107 60q-78 43 -78 120q0 46 30 75t72 37zM298 123q28 6 28 27q0 29 -31 46l-99 55q-1 1 -4 2.5l-5 2.5q-26 -5 -26 -31q0 -27 25 -40l97 -53z" />
    <glyph glyph-name="yensmall" horiz-adv-x="562" 
d="M357 196l-14 -20l-3 -17h147l-15 -85h-147l-13 -74h-135l13 74h-148l15 85h148l3 17l-7 20h-137l15 85h94l-81 241h144l33 -118q8 -26 13 -63.5t6 -61.5l2 -24q35 91 72 149l75 118h145l-167 -241h94l-15 -85h-137z" />
    <glyph glyph-name="florinsmall" horiz-adv-x="400" 
d="M111 188h-70l18 101h70l16 89q14 80 53.5 116.5t106.5 36.5q81 0 129 -63l-84 -73q-17 22 -38 22q-31 0 -39 -43l-15 -85h97l-18 -101h-97l-50 -282h-129z" />
    <glyph glyph-name="Eurosmall" horiz-adv-x="578" 
d="M87 277h-55l14 78h54q27 83 95.5 129.5t157.5 46.5q140 0 207 -117l-109 -63q-38 62 -103 62q-70 0 -103 -58h149l-14 -78h-154q-2 -13 -2 -37h149l-14 -78h-118q25 -56 100 -56q58 0 98 52l98 -73q-39 -49 -86 -71.5t-114 -22.5q-88 0 -149.5 46.5t-86.5 124.5h-90
l14 78h61q0 25 1 37z" />
    <glyph glyph-name="perthousandsmall" horiz-adv-x="1236" 
d="M213 217q-69 0 -113.5 44.5t-44.5 108.5q0 71 47.5 116t115.5 45q70 0 114 -43t44 -107q0 -71 -47.5 -117.5t-115.5 -46.5zM175 0l419 522h127l-419 -522h-127zM1038 -9q-69 0 -113.5 44.5t-44.5 108.5q0 71 47.5 116t115.5 45q70 0 114 -43t44 -107q0 -71 -47.5 -117.5
t-115.5 -46.5zM678 -9q-69 0 -113.5 44.5t-44.5 108.5q0 71 47.5 116t115.5 45q70 0 114 -43t44 -107q0 -71 -47.5 -117.5t-115.5 -46.5zM214 314q22 0 37.5 18t15.5 45q0 28 -14 42.5t-35 14.5q-23 0 -38 -17t-15 -46q0 -26 14.5 -41.5t34.5 -15.5zM1039 88q22 0 37.5 18
t15.5 45q0 28 -14 42.5t-35 14.5q-23 0 -38 -17t-15 -46q0 -26 14.5 -41.5t34.5 -15.5zM679 88q22 0 37.5 18t15.5 45q0 28 -14 42.5t-35 14.5q-23 0 -38 -17t-15 -46q0 -26 14.5 -41.5t34.5 -15.5z" />
    <glyph glyph-name="G.altsmall" horiz-adv-x="618" 
d="M321 -9q-119 0 -196 75t-77 188q0 119 80 198t199 79q145 0 224 -113l-112 -72q-41 67 -117 67q-64 0 -100.5 -46t-36.5 -119q0 -60 39 -101t100 -41q47 0 80 21.5t46 58.5h-112l18 106h238q2 -132 -67 -216.5t-206 -84.5z" />
    <glyph glyph-name="M.altsmall" horiz-adv-x="672" 
d="M17 0l136 527h11l144 -230q8 -13 16 -29t12 -26l3 -9q17 35 46 64l229 230h11l-42 -527h-130l12 154q2 24 6 50.5t7 40.5l4 14q-26 -49 -60 -82l-106 -101h-10l-60 94q-11 16 -22 38.5t-16 37.5l-6 14q-5 -55 -20 -111l-39 -149h-126z" />
    <glyph glyph-name="Q.altsmall" horiz-adv-x="627" 
d="M344 -6l-19 -107h-118l21 119q-81 25 -130.5 92t-49.5 157q0 125 83 200.5t202 75.5q113 0 189.5 -75t76.5 -188q0 -116 -73.5 -189.5t-181.5 -84.5zM248 120l15 82h118l-16 -92q45 16 71 59t26 103q0 63 -37 102.5t-96 39.5q-63 0 -103.5 -45t-40.5 -118q0 -94 63 -131z
" />
    <glyph glyph-name="Amacronsmall" horiz-adv-x="534" 
d="M202 615l17 96h240l-17 -96h-240zM142 44l-26 -44h-132l325 528h11l158 -528h-135l-11 44h-190zM314 134l-10 39q-8 30 -13.5 64t-7.5 53l-2 19q-26 -70 -62 -130l-27 -45h122z" />
    <glyph glyph-name="Aogoneksmall" horiz-adv-x="534" 
d="M474 15l-67 -85q-32 -40 -32 -70q0 -29 28 -29q19 0 40 28l65 -38q-35 -61 -111 -61q-45 0 -76.5 24.5t-31.5 69.5q0 59 53 107l43 39h-42l-11 44h-190l-26 -44h-132l325 528h11zM314 134l-10 39q-8 30 -13.5 64t-7.5 53l-2 19q-26 -70 -62 -130l-27 -45h122z" />
    <glyph glyph-name="Ccaronsmall" horiz-adv-x="565" 
d="M330 566l-117 217h102l43 -73l67 73h109l-193 -217h-11zM306 -9q-113 0 -185.5 75t-72.5 187q0 121 80 199.5t202 78.5q144 0 217 -114l-109 -70q-41 69 -113 69q-62 0 -99.5 -49t-37.5 -117t35.5 -105.5t87.5 -37.5q71 0 113 56l101 -75q-39 -45 -89.5 -71t-129.5 -26z
" />
    <glyph glyph-name="Cacutesmall" horiz-adv-x="565" 
d="M281 586l80 188h158l-136 -188h-102zM306 -9q-113 0 -185.5 75t-72.5 187q0 121 80 199.5t202 78.5q144 0 217 -114l-109 -70q-41 69 -113 69q-62 0 -99.5 -49t-37.5 -117t35.5 -105.5t87.5 -37.5q71 0 113 56l101 -75q-39 -45 -89.5 -71t-129.5 -26z" />
    <glyph glyph-name="Zacutesmall" horiz-adv-x="496" 
d="M253 586l80 188h158l-136 -188h-102zM0 0v11l286 397h-193l20 114h394v-11l-285 -397h210l-20 -114h-412z" />
    <glyph glyph-name="Dcaronsmall" horiz-adv-x="552" 
d="M299 566l-117 217h102l43 -73l67 73h109l-193 -217h-11zM21 0l92 522h164q109 0 178.5 -68t69.5 -180q0 -127 -82 -200.5t-209 -73.5h-213zM175 116h65q70 0 108.5 46.5t38.5 117.5q0 60 -32.5 93t-95.5 33h-32z" />
    <glyph glyph-name="Emacronsmall" horiz-adv-x="469" 
d="M186 615l17 96h240l-17 -96h-240zM21 0l92 522h363l-20 -114h-229l-21 -117h193l-19 -108h-193l-12 -69h242l-20 -114h-376z" />
    <glyph glyph-name="Edotaccentsmall" horiz-adv-x="469" 
d="M311 594q-28 0 -50 22t-22 52t22 52t50 22q29 0 51 -22t22 -52t-22 -52t-51 -22zM21 0l92 522h363l-20 -114h-229l-21 -117h193l-19 -108h-193l-12 -69h242l-20 -114h-376z" />
    <glyph glyph-name="Ecaronsmall" horiz-adv-x="469" 
d="M293 566l-117 217h102l43 -73l67 73h109l-193 -217h-11zM21 0l92 522h363l-20 -114h-229l-21 -117h193l-19 -108h-193l-12 -69h242l-20 -114h-376z" />
    <glyph glyph-name="Eogoneksmall" horiz-adv-x="469" 
d="M269 0h-248l92 522h363l-20 -114h-229l-21 -117h193l-19 -108h-193l-12 -69h242l-20 -114h-51l-55 -70q-32 -41 -32 -70t28 -29q19 0 40 28l65 -38q-35 -61 -111 -61q-45 0 -76.5 24.5t-31.5 69.5q0 59 53 107z" />
    <glyph glyph-name="Gcommaaccentsmall" horiz-adv-x="593" 
d="M330 -9q-127 0 -204.5 73.5t-77.5 189.5q0 123 85.5 200t201.5 77q74 0 118 -18.5t82 -55.5l-94 -89q-45 45 -109 45q-61 0 -103 -43t-42 -115q0 -70 36.5 -111t108.5 -41q44 0 78 14l11 64h-112l19 107h232l-44 -248q-76 -49 -186 -49zM177 -283l48 99q-40 21 -40 68
q0 31 22.5 52.5t52.5 21.5q31 0 53.5 -21t22.5 -52q0 -39 -33 -85l-62 -83h-64z" />
    <glyph glyph-name="Iogoneksmall" horiz-adv-x="257" 
d="M69 0h-44l92 522h135l-88 -499l-73 -93q-19 -25 -25.5 -38.5t-6.5 -31.5q0 -29 28 -29q19 0 40 28l65 -38q-35 -61 -111 -61q-45 0 -76.5 24.5t-31.5 69.5q0 59 53 107z" />
    <glyph glyph-name="Imacronsmall" horiz-adv-x="257" 
d="M80 615l17 96h240l-17 -96h-240zM25 0l92 522h135l-92 -522h-135z" />
    <glyph glyph-name="Lcommaaccentsmall" horiz-adv-x="452" 
d="M21 0l92 522h135l-72 -406h227l-20 -116h-362zM108 -283l48 99q-40 21 -40 68q0 31 22.5 52.5t52.5 21.5q31 0 53.5 -21t22.5 -52q0 -39 -33 -85l-62 -83h-64z" />
    <glyph glyph-name="Lcaronsmall" horiz-adv-x="452" 
d="M301 263l59 120q-42 24 -42 71q0 33 22.5 55t54.5 22t54.5 -22.5t22.5 -56.5q0 -36 -33 -83l-74 -106h-64zM21 0l92 522h135l-72 -406h227l-20 -116h-362z" />
    <glyph glyph-name="Lacutesmall" horiz-adv-x="452" 
d="M137 586l80 188h158l-136 -188h-102zM21 0l92 522h135l-72 -406h227l-20 -116h-362z" />
    <glyph glyph-name="Ncommaaccentsmall" horiz-adv-x="548" 
d="M442 -7l-197 211q-17 19 -32.5 41.5t-22.5 35.5l-7 13q3 -52 -5 -97l-35 -197h-122l93 529h11l205 -218q15 -16 29 -36.5t20 -32.5l6 -12q-3 51 6 100l34 192h122l-94 -529h-11zM162 -283l48 99q-40 21 -40 68q0 31 22.5 52.5t52.5 21.5q31 0 53.5 -21t22.5 -52
q0 -39 -33 -85l-62 -83h-64z" />
    <glyph glyph-name="Abrevesmall" horiz-adv-x="534" 
d="M320 586q-69 0 -110 39t-44 101l101 15q5 -57 54 -57q48 0 60 57l99 -15q-9 -62 -51 -101t-109 -39zM142 44l-26 -44h-132l325 528h11l158 -528h-135l-11 44h-190zM314 134l-10 39q-8 30 -13.5 64t-7.5 53l-2 19q-26 -70 -62 -130l-27 -45h122z" />
    <glyph glyph-name="Nacutesmall" horiz-adv-x="548" 
d="M270 586l80 188h158l-136 -188h-102zM442 -7l-197 211q-17 19 -32.5 41.5t-22.5 35.5l-7 13q3 -52 -5 -97l-35 -197h-122l93 529h11l205 -218q15 -16 29 -36.5t20 -32.5l6 -12q-3 51 6 100l34 192h122l-94 -529h-11z" />
    <glyph glyph-name="Ncaronsmall" horiz-adv-x="548" 
d="M309 566l-117 217h102l43 -73l67 73h109l-193 -217h-11zM442 -7l-197 211q-17 19 -32.5 41.5t-22.5 35.5l-7 13q3 -52 -5 -97l-35 -197h-122l93 529h11l205 -218q15 -16 29 -36.5t20 -32.5l6 -12q-3 51 6 100l34 192h122l-94 -529h-11z" />
    <glyph glyph-name="Ohungarumlautsmall" horiz-adv-x="629" 
d="M381 586l86 188h138l-122 -188h-102zM200 586l86 188h138l-122 -188h-102zM314 -9q-113 0 -189.5 75.5t-76.5 188.5q0 125 83.5 200.5t202.5 75.5q113 0 190 -75t77 -188q0 -125 -84.5 -201t-202.5 -76zM319 109q63 0 103.5 45t40.5 118q0 63 -37 102.5t-96 39.5
q-63 0 -103.5 -45t-40.5 -118q0 -65 37 -103.5t96 -38.5z" />
    <glyph glyph-name="Omacronsmall" horiz-adv-x="629" 
d="M238 615l17 96h240l-17 -96h-240zM314 -9q-113 0 -189.5 75.5t-76.5 188.5q0 125 83.5 200.5t202.5 75.5q113 0 190 -75t77 -188q0 -125 -84.5 -201t-202.5 -76zM319 109q63 0 103.5 45t40.5 118q0 63 -37 102.5t-96 39.5q-63 0 -103.5 -45t-40.5 -118q0 -65 37 -103.5
t96 -38.5z" />
    <glyph glyph-name="Racutesmall" horiz-adv-x="509" 
d="M225 586l80 188h158l-136 -188h-102zM369 161l86 -161h-139l-67 127h-15h-56l-22 -127h-135l92 522h142q102 0 163 -50.5t61 -142.5q0 -54 -29 -100.5t-81 -67.5zM197 237h44q101 0 101 92q0 77 -96 77h-21z" />
    <glyph glyph-name="Rcaronsmall" horiz-adv-x="509" 
d="M276 566l-117 217h102l43 -73l67 73h109l-193 -217h-11zM369 161l86 -161h-139l-67 127h-15h-56l-22 -127h-135l92 522h142q102 0 163 -50.5t61 -142.5q0 -54 -29 -100.5t-81 -67.5zM197 237h44q101 0 101 92q0 77 -96 77h-21z" />
    <glyph glyph-name="Rcommaaccentsmall" horiz-adv-x="509" 
d="M369 161l86 -161h-139l-67 127h-15h-56l-22 -127h-135l92 522h142q102 0 163 -50.5t61 -142.5q0 -54 -29 -100.5t-81 -67.5zM132 -283l48 99q-40 21 -40 68q0 31 22.5 52.5t52.5 21.5q31 0 53.5 -21t22.5 -52q0 -39 -33 -85l-62 -83h-64zM197 237h44q101 0 101 92
q0 77 -96 77h-21z" />
    <glyph glyph-name="Sacutesmall" horiz-adv-x="445" 
d="M210 586l80 188h158l-136 -188h-102zM209 -9q-73 0 -128 31.5t-80 77.5l103 71q16 -26 43.5 -46t62.5 -20q56 0 56 36q0 16 -11.5 29t-44.5 34l-23 15q-56 37 -82 74t-26 86q0 63 44 107.5t133 44.5q104 0 161 -81l-93 -68q-31 39 -70 39q-22 0 -34 -10t-12 -25
q0 -25 38 -50l23 -15q69 -45 99.5 -82t30.5 -96q0 -75 -54 -113.5t-136 -38.5z" />
    <glyph glyph-name="Tcaronsmall" horiz-adv-x="487" 
d="M287 566l-117 217h102l43 -73l67 73h109l-193 -217h-11zM140 0l71 406h-145l20 116h427l-20 -116h-145l-70 -406h-138z" />
    <glyph glyph-name="Umacronsmall" horiz-adv-x="554" 
d="M224 615l17 96h240l-17 -96h-240zM260 -9q-104 0 -163 63.5t-42 160.5l54 307h135l-56 -320q-8 -43 12 -67.5t66 -24.5q84 0 100 93l56 319h135l-60 -342q-17 -91 -78.5 -140t-158.5 -49z" />
    <glyph glyph-name="Uringsmall" horiz-adv-x="554" 
d="M343 560q-53 0 -89 35t-36 84t36 84t89 35t89 -35t36 -84t-36 -84t-89 -35zM260 -9q-104 0 -163 63.5t-42 160.5l54 307h135l-56 -320q-8 -43 12 -67.5t66 -24.5q84 0 100 93l56 319h135l-60 -342q-17 -91 -78.5 -140t-158.5 -49zM343 633q18 0 30 12.5t12 33.5t-12 33.5
t-30 12.5t-30 -12.5t-12 -33.5t12 -33.5t30 -12.5z" />
    <glyph glyph-name="Uhungarumlautsmall" horiz-adv-x="554" 
d="M372 586l86 188h138l-122 -188h-102zM191 586l86 188h138l-122 -188h-102zM260 -9q-104 0 -163 63.5t-42 160.5l54 307h135l-56 -320q-8 -43 12 -67.5t66 -24.5q84 0 100 93l56 319h135l-60 -342q-17 -91 -78.5 -140t-158.5 -49z" />
    <glyph glyph-name="Uogoneksmall" horiz-adv-x="554" 
d="M225 -7q-89 11 -137.5 72.5t-32.5 149.5l54 307h135l-56 -320q-8 -43 12 -67.5t66 -24.5q84 0 100 93l56 319h135l-60 -342q-14 -80 -63.5 -128t-128.5 -58l-50 -64q-32 -41 -32 -70t28 -29q19 0 40 28l65 -38q-35 -61 -111 -61q-45 0 -76.5 24.5t-31.5 69.5q0 59 53 107
z" />
    <glyph glyph-name="Kcommaaccentsmall" horiz-adv-x="547" 
d="M189 262q45 73 93 124l130 136h151l-217 -226l152 -296h-147l-104 208l-66 -64l-25 -144h-135l92 522h135l-24 -129q-11 -56 -35 -131zM150 -283l48 99q-40 21 -40 68q0 31 22.5 52.5t52.5 21.5q31 0 53.5 -21t22.5 -52q0 -39 -33 -85l-62 -83h-64z" />
    <glyph glyph-name="Zdotaccentsmall" horiz-adv-x="496" 
d="M317 594q-28 0 -50 22t-22 52t22 52t50 22q29 0 51 -22t22 -52t-22 -52t-51 -22zM0 0v11l286 397h-193l20 114h394v-11l-285 -397h210l-20 -114h-412z" />
    <glyph glyph-name="Idotaccentsmall" horiz-adv-x="257" 
d="M202 594q-28 0 -50 22t-22 52t22 52t50 22q29 0 51 -22t22 -52t-22 -52t-51 -22zM25 0l92 522h135l-92 -522h-135z" />
    <glyph glyph-name="Gbrevesmall" horiz-adv-x="593" 
d="M358 586q-69 0 -110 39t-44 101l101 15q5 -57 54 -57q48 0 60 57l99 -15q-9 -62 -51 -101t-109 -39zM330 -9q-127 0 -204.5 73.5t-77.5 189.5q0 123 85.5 200t201.5 77q74 0 118 -18.5t82 -55.5l-94 -89q-45 45 -109 45q-61 0 -103 -43t-42 -115q0 -70 36.5 -111
t108.5 -41q44 0 78 14l11 64h-112l19 107h232l-44 -248q-76 -49 -186 -49z" />
    <glyph glyph-name="Dcroatsmall" horiz-adv-x="552" 
d="M54 184h-43l20 111h43l40 227h163q109 0 178.5 -68t69.5 -180q0 -127 -82 -200.5t-209 -73.5h-212zM206 295h95l-20 -111h-95l-12 -68h66q70 0 108.5 46.5t38.5 117.5q0 60 -32.5 93t-95.5 33h-33z" />
    <glyph glyph-name="Scommaaccentsmall" horiz-adv-x="445" 
d="M209 -9q-73 0 -128 31.5t-80 77.5l103 71q16 -26 43.5 -46t62.5 -20q56 0 56 36q0 16 -11.5 29t-44.5 34l-23 15q-56 37 -82 74t-26 86q0 63 44 107.5t133 44.5q104 0 161 -81l-93 -68q-31 39 -70 39q-22 0 -34 -10t-12 -25q0 -25 38 -50l23 -15q69 -45 99.5 -82
t30.5 -96q0 -75 -54 -113.5t-136 -38.5zM85 -283l48 99q-40 21 -40 68q0 31 22.5 52.5t52.5 21.5q31 0 53.5 -21t22.5 -52q0 -39 -33 -85l-62 -83h-64z" />
    <glyph glyph-name="Tcommaaccentsmall" horiz-adv-x="487" 
d="M140 0l71 406h-145l20 116h427l-20 -116h-145l-70 -406h-138zM109 -283l48 99q-40 21 -40 68q0 31 22.5 52.5t52.5 21.5q31 0 53.5 -21t22.5 -52q0 -39 -33 -85l-62 -83h-64z" />
    <glyph glyph-name="Gcommaaccentsmall.alt" horiz-adv-x="618" 
d="M321 -9q-119 0 -196 75t-77 188q0 119 80 198t199 79q145 0 224 -113l-112 -72q-41 67 -117 67q-64 0 -100.5 -46t-36.5 -119q0 -60 39 -101t100 -41q47 0 80 21.5t46 58.5h-112l18 106h238q2 -132 -67 -216.5t-206 -84.5zM180 -283l48 99q-40 21 -40 68q0 31 22.5 52.5
t52.5 21.5q31 0 53.5 -21t22.5 -52q0 -39 -33 -85l-62 -83h-64z" />
    <glyph glyph-name="Gbrevesmall.alt" horiz-adv-x="618" 
d="M352 586q-69 0 -110 39t-44 101l101 15q5 -57 54 -57q48 0 60 57l99 -15q-9 -62 -51 -101t-109 -39zM321 -9q-119 0 -196 75t-77 188q0 119 80 198t199 79q145 0 224 -113l-112 -72q-41 67 -117 67q-64 0 -100.5 -46t-36.5 -119q0 -60 39 -101t100 -41q47 0 80 21.5
t46 58.5h-112l18 106h238q2 -132 -67 -216.5t-206 -84.5z" />
    <glyph glyph-name="Ccircumflexsmall" horiz-adv-x="565" 
d="M183 586l193 216h11l117 -216h-102l-43 72l-67 -72h-109zM306 -9q-113 0 -185.5 75t-72.5 187q0 121 80 199.5t202 78.5q144 0 217 -114l-109 -70q-41 69 -113 69q-62 0 -99.5 -49t-37.5 -117t35.5 -105.5t87.5 -37.5q71 0 113 56l101 -75q-39 -45 -89.5 -71t-129.5 -26z
" />
    <glyph glyph-name="Gcircumflexsmall" horiz-adv-x="593" 
d="M189 586l193 216h11l117 -216h-102l-43 72l-67 -72h-109zM330 -9q-127 0 -204.5 73.5t-77.5 189.5q0 123 85.5 200t201.5 77q74 0 118 -18.5t82 -55.5l-94 -89q-45 45 -109 45q-61 0 -103 -43t-42 -115q0 -70 36.5 -111t108.5 -41q44 0 78 14l11 64h-112l19 107h232
l-44 -248q-76 -49 -186 -49z" />
    <glyph glyph-name="Hcircumflexsmall" horiz-adv-x="573" 
d="M177 586l193 216h11l117 -216h-102l-43 72l-67 -72h-109zM394 278l43 244h135l-92 -522h-135l28 159h-189l-28 -159h-135l92 522h135l-43 -244h189z" />
    <glyph glyph-name="Jcircumflexsmall" horiz-adv-x="413" 
d="M188 586l193 216h11l117 -216h-102l-43 72l-67 -72h-109zM163 -9q-62 0 -106 33t-62 80l109 55q11 -28 24.5 -40t36.5 -12q43 0 53 58l63 357h135l-66 -372q-15 -87 -61 -123t-126 -36z" />
    <glyph glyph-name="Scircumflexsmall" horiz-adv-x="445" 
d="M105 586l193 216h11l117 -216h-102l-43 72l-67 -72h-109zM209 -9q-73 0 -128 31.5t-80 77.5l103 71q16 -26 43.5 -46t62.5 -20q56 0 56 36q0 16 -11.5 29t-44.5 34l-23 15q-56 37 -82 74t-26 86q0 63 44 107.5t133 44.5q104 0 161 -81l-93 -68q-31 39 -70 39
q-22 0 -34 -10t-12 -25q0 -25 38 -50l23 -15q69 -45 99.5 -82t30.5 -96q0 -75 -54 -113.5t-136 -38.5z" />
    <glyph glyph-name="Ubrevesmall" horiz-adv-x="554" 
d="M337 586q-69 0 -110 39t-44 101l101 15q5 -57 54 -57q48 0 60 57l99 -15q-9 -62 -51 -101t-109 -39zM260 -9q-104 0 -163 63.5t-42 160.5l54 307h135l-56 -320q-8 -43 12 -67.5t66 -24.5q84 0 100 93l56 319h135l-60 -342q-17 -91 -78.5 -140t-158.5 -49z" />
    <glyph glyph-name="Gcircumflexsmall.alt" horiz-adv-x="618" 
d="M185 586l193 216h11l117 -216h-102l-43 72l-67 -72h-109zM321 -9q-119 0 -196 75t-77 188q0 119 80 198t199 79q145 0 224 -113l-112 -72q-41 67 -117 67q-64 0 -100.5 -46t-36.5 -119q0 -60 39 -101t100 -41q47 0 80 21.5t46 58.5h-112l18 106h238q2 -132 -67 -216.5
t-206 -84.5z" />
    <glyph glyph-name="minustab" horiz-adv-x="520" 
d="M76 213l19 110h372l-19 -110h-372z" />
    <glyph glyph-name="multiplytab" horiz-adv-x="520" 
d="M349 262l92 -109l-86 -74l-92 108l-126 -108l-71 82l127 109l-92 109l88 74l91 -109l127 109l70 -82z" />
    <glyph glyph-name="spacetab" horiz-adv-x="200" 
 />
    <glyph glyph-name="numbersigntab" horiz-adv-x="520" 
d="M161 421h-73l18 101h80l25 97h103l-24 -97h70l25 97h103l-24 -97h62l-18 -101h-70l-19 -77h75l-18 -101h-82l-25 -101h-103l25 101h-71l-25 -101h-103l25 101h-61l18 101h68zM335 421h-71l-19 -77h71z" />
    <glyph glyph-name="dollartab" horiz-adv-x="520" 
d="M183 -3q-120 22 -169 125l103 52q28 -58 84 -75l20 116q-80 27 -113.5 67t-33.5 98q0 71 52.5 111t136.5 40h13l18 100h65l-19 -109q82 -21 126 -86l-91 -63q-19 34 -53 48l-18 -102q81 -26 121 -66.5t40 -102.5q0 -81 -60 -120t-158 -39l-19 -107h-65zM259 433
q-64 -3 -64 -45q0 -33 48 -50zM264 92q76 6 76 49q0 19 -12.5 31.5t-44.5 23.5z" />
    <glyph glyph-name="percenttab" horiz-adv-x="750" 
d="M174 217q-65 0 -102 41.5t-37 102.5q0 73 46.5 121.5t108.5 48.5q65 0 102 -41.5t37 -102.5q0 -73 -46.5 -121.5t-108.5 -48.5zM112 0l423 522h123l-423 -522h-123zM580 -9q-65 0 -102 41.5t-37 102.5q0 73 46.5 121.5t108.5 48.5q65 0 102 -41.5t37 -102.5
q0 -73 -46.5 -121.5t-108.5 -48.5zM176 311q22 0 35 22.5t13 52.5q0 51 -38 51q-22 0 -35 -22.5t-13 -52.5q0 -51 38 -51zM582 85q22 0 35 22.5t13 52.5q0 51 -38 51q-22 0 -35 -22.5t-13 -52.5q0 -51 38 -51z" />
    <glyph glyph-name="parenlefttab" horiz-adv-x="300" 
d="M150 -128q-111 169 -111 347q0 76 15.5 144.5t39 118.5t58 97.5t64.5 77.5t67 61l66 -67q-80 -81 -126.5 -193t-46.5 -241q0 -157 59 -299z" />
    <glyph glyph-name="parenrighttab" horiz-adv-x="300" 
d="M50 -127l-66 67q80 81 126.5 192.5t46.5 240.5q0 157 -59 299l85 46q111 -169 111 -347q0 -93 -21.5 -173t-61.5 -141.5t-76 -101t-85 -82.5z" />
    <glyph glyph-name="plustab" horiz-adv-x="520" 
d="M318 213l-23 -130h-114l23 130h-125l19 110h126l23 132h114l-23 -132h126l-19 -110h-127z" />
    <glyph glyph-name="commatab" horiz-adv-x="200" 
d="M-22 -115l63 120q-42 24 -42 71q0 33 22.5 55t55.5 22q32 0 55 -22.5t23 -56.5q0 -33 -34 -80l-80 -109h-63z" />
    <glyph glyph-name="periodtab" horiz-adv-x="200" 
d="M77 -6q-32 0 -55 22.5t-23 57.5q0 34 23 56.5t55 22.5t55 -22.5t23 -56.5q0 -35 -23 -57.5t-55 -22.5z" />
    <glyph glyph-name="zerotab" horiz-adv-x="520" 
d="M253 -9q-94 0 -152 64t-58 172q0 137 66.5 220.5t177.5 83.5q98 0 154 -64t56 -172q0 -137 -66.5 -220.5t-177.5 -83.5zM257 109q48 0 74.5 52.5t26.5 135.5q0 116 -74 116q-48 0 -75 -53.5t-27 -136.5q0 -114 75 -114z" />
    <glyph glyph-name="onetab" horiz-adv-x="520" 
d="M189 109l54 304h-105l19 109h239l-73 -413h107l-19 -109h-354l19 109h113z" />
    <glyph glyph-name="twotab" horiz-adv-x="520" 
d="M17 0v12l216 208q55 54 75 81t20 57q0 24 -13.5 39.5t-41.5 15.5q-54 0 -83 -71l-122 31q50 158 212 158q90 0 137 -46.5t47 -112.5q0 -54 -27 -98t-88 -101l-36 -34q-8 -8 -21 -16.5t-22 -12.5l-9 -5q36 5 56 5h127l-19 -110h-408z" />
    <glyph glyph-name="threetab" horiz-adv-x="520" 
d="M219 -103q-85 0 -143 39.5t-82 94.5l119 59q30 -76 105 -76q43 0 72 26.5t29 77.5q0 45 -31 74.5t-82 29.5q-44 0 -84 -19l-8 12l137 158q10 11 22 22.5t19 17.5l8 6q-38 -5 -66 -5h-138l19 108h392v-11l-145 -168q-8 -9 -19 -18.5l-17 -14.5l-7 -5q55 -13 98 -61.5
t43 -127.5q0 -94 -63 -156.5t-178 -62.5z" />
    <glyph glyph-name="fourtab" horiz-adv-x="520" 
d="M415 100h60l-18 -100h-60l-16 -94h-135l17 94h-267l16 94l465 434h14zM287 95l15 86q2 13 9.5 36t13.5 39l6 17q-38 -52 -62 -75l-72 -65q-11 -10 -24 -20.5l-21 -16.5l-7 -5q32 4 60 4h82z" />
    <glyph glyph-name="fivetab" horiz-adv-x="520" 
d="M212 -103q-86 0 -142 38.5t-78 96.5l121 54q27 -72 94 -72q49 0 73 26.5t24 70.5q0 41 -27.5 68.5t-78.5 27.5q-58 0 -117 -39l-8 5l61 349h336l-19 -108h-222l-18 -104q20 5 40 5q88 0 142 -58t54 -141q0 -94 -62.5 -156.5t-172.5 -62.5z" />
    <glyph glyph-name="sixtab" horiz-adv-x="520" 
d="M251 -9q-92 0 -152 57t-60 146q0 92 96 200l193 215h155l-168 -186q-10 -11 -29 -24t-33 -21l-14 -7q29 10 63 10q70 0 121.5 -52t51.5 -132q0 -95 -63.5 -150.5t-160.5 -55.5zM255 105q40 0 64.5 26t24.5 66q0 38 -23 62t-62 24q-40 0 -64 -25.5t-24 -65.5
q0 -38 22.5 -62.5t61.5 -24.5z" />
    <glyph glyph-name="seventab" horiz-adv-x="520" 
d="M27 -94l299 508h-255l19 108h435v-11l-355 -605h-143z" />
    <glyph glyph-name="eighttab" horiz-adv-x="520" 
d="M185 360q-54 39 -53 104q0 62 49 108t132 46q78 0 128 -44.5t50 -108.5q0 -92 -101 -126q98 -52 97 -154q0 -87 -62 -140.5t-165 -53.5q-97 0 -160.5 56.5t-63.5 138.5q0 72 40 115.5t109 58.5zM310 397q22 0 36.5 16t14.5 42q0 24 -13 39.5t-37 15.5q-23 0 -37.5 -15.5
t-14.5 -40.5t13.5 -41t37.5 -16zM260 106q42 0 65.5 27.5t23.5 70.5q0 39 -22.5 65.5t-61.5 26.5q-41 0 -65 -28.5t-24 -71.5q0 -39 22.5 -64.5t61.5 -25.5z" />
    <glyph glyph-name="ninetab" horiz-adv-x="520" 
d="M42 -94l173 189q13 14 35 30t38 25l15 9q-30 -17 -74 -17q-71 0 -123 51t-52 131q0 95 63.5 151t158.5 56q94 0 154.5 -55.5t60.5 -146.5q0 -55 -28 -106t-79 -109l-185 -208h-157zM270 239q40 0 64.5 26.5t24.5 66.5q0 39 -23 63t-61 24q-41 0 -65 -26.5t-24 -66.5
q0 -39 22.5 -63t61.5 -24z" />
    <glyph glyph-name="colontab" horiz-adv-x="200" 
d="M117 229q-32 0 -54.5 22t-22.5 57q0 34 22.5 57t54.5 23q33 0 55.5 -23t22.5 -57q0 -35 -22.5 -57t-55.5 -22zM77 -6q-32 0 -55 22.5t-23 57.5q0 34 23 56.5t55 22.5t55 -22.5t23 -56.5q0 -35 -23 -57.5t-55 -22.5z" />
    <glyph glyph-name="semicolontab" horiz-adv-x="200" 
d="M117 229q-32 0 -54.5 22t-22.5 57q0 34 22.5 57t54.5 23q33 0 55.5 -23t22.5 -57q0 -35 -22.5 -57t-55.5 -22zM-22 -115l63 120q-42 24 -42 71q0 33 22.5 55t55.5 22q32 0 55 -22.5t23 -56.5q0 -33 -34 -80l-80 -109h-63z" />
    <glyph glyph-name="lesstab" horiz-adv-x="520" 
d="M395 54l-316 176v10l384 198l-23 -125l-166 -77l140 -76z" />
    <glyph glyph-name="equaltab" horiz-adv-x="520" 
d="M109 279l20 115h327l-20 -115h-327zM80 115l21 115h327l-21 -115h-327z" />
    <glyph glyph-name="greatertab" horiz-adv-x="520" 
d="M77 54l23 125l166 77l-140 76l19 106l316 -176v-10z" />
    <glyph glyph-name="bracketlefttab" horiz-adv-x="300" 
d="M-13 -128l150 850h232l-19 -111h-100l-111 -628h100l-20 -111h-232z" />
    <glyph glyph-name="bracketrighttab" horiz-adv-x="300" 
d="M-37 -128l20 111h100l111 628h-100l19 111h232l-150 -850h-232z" />
    <glyph glyph-name="bracelefttab" horiz-adv-x="300" 
d="M183 -128q-67 0 -108 37.5t-27 117.5l23 133q6 35 -2.5 48t-36.5 13h-22l20 111h19q31 0 44 13.5t21 57.5l32 180q25 139 152 139h71l-19 -111h-31q-34 0 -40 -37l-35 -201q-9 -54 -35.5 -74.5t-74.5 -26.5q89 -13 72 -111l-25 -142q-3 -18 2.5 -27t26.5 -9h29l-20 -111
h-36z" />
    <glyph glyph-name="bracerighttab" horiz-adv-x="300" 
d="M-36 -128l19 111h31q34 0 40 37l28 159q9 54 35.5 74.5t74.5 26.5q-89 13 -72 111l32 184q3 18 -2.5 27t-26.5 9h-29l20 111h36q67 0 108 -37.5t27 -117.5l-31 -175q-7 -35 2.5 -48t37.5 -13h22l-20 -111h-19q-31 0 -44.5 -13.5t-21.5 -57.5l-24 -138q-24 -139 -152 -139
h-71z" />
    <glyph glyph-name="degreetab" horiz-adv-x="350" 
d="M208 268q-56 0 -96 37.5t-40 92.5q0 58 41 95.5t99 37.5q56 0 95.5 -36t39.5 -91q0 -58 -40.5 -97t-98.5 -39zM209 346q22 0 36.5 16t14.5 41q0 24 -13.5 37t-35.5 13t-36.5 -15.5t-14.5 -40.5q0 -24 13.5 -37.5t35.5 -13.5z" />
    <glyph glyph-name="centtab" horiz-adv-x="520" 
d="M221 0q-71 20 -112.5 75.5t-41.5 133.5q0 99 65.5 161.5t165.5 64.5l19 106h65l-20 -112q75 -15 120 -79l-98 -74q-14 24 -42 39l-38 -213q31 3 68 33l76 -85q-59 -59 -157 -59h-6l-19 -107h-65zM278 322q-36 -7 -56.5 -36.5t-20.5 -76.5q0 -68 40 -95z" />
    <glyph glyph-name="sterlingtab" horiz-adv-x="520" 
d="M162 248h-105l17 99h67q-10 48 -10 83q0 85 56.5 136.5t151.5 51.5q126 0 186 -105l-105 -67q-18 29 -36 42t-46 13q-33 0 -53 -22t-20 -58q0 -32 5 -74h133l-17 -99h-104q2 -32 2 -50q0 -39 -11 -77q33 -19 62 -19q39 0 83 42l74 -80q-59 -73 -159 -73q-60 0 -111 44
q-47 -44 -114 -44q-55 0 -86.5 30.5t-31.5 74.5q0 51 33 79t82 28q35 0 65 -14q-1 26 -8 59zM159 99q-29 27 -51 27q-12 0 -20 -8t-8 -20q0 -30 30 -30q33 0 49 31z" />
    <glyph glyph-name="sectiontab" horiz-adv-x="520" 
d="M149 388q-18 33 -18 79q0 67 50.5 109t122.5 42q127 0 169 -99l-106 -52q-18 46 -60 46q-26 0 -38.5 -12t-12.5 -31q0 -30 32 -45l97 -44q59 -26 85 -60.5t26 -83.5q0 -91 -105 -125q15 -28 15 -69q0 -69 -48.5 -107.5t-139.5 -38.5q-72 0 -122.5 30.5t-66.5 76.5l107 52
q21 -53 79 -53q57 0 57 35q0 25 -34 40l-88 38q-59 25 -85 60t-26 85q0 54 31 85.5t79 41.5zM337 168q36 12 36 47q0 38 -43 57l-95 43q-20 8 -37 21q-38 -14 -38 -51t42 -55l90 -39q29 -13 45 -23z" />
    <glyph glyph-name="yentab" horiz-adv-x="520" 
d="M359 241l-37 -54l-1 -5h147l-15 -83h-147l-17 -99h-132l17 99h-147l15 83h147l1 5l-18 54h-120l15 83h78l-66 198h138l38 -152q5 -21 8.5 -50.5t4.5 -48.5v-19q18 66 48 115l96 155h140l-136 -198h77l-15 -83h-119z" />
    <glyph glyph-name="florintab" horiz-adv-x="520" 
d="M165 184h-93l19 105h92l27 152q32 177 180 177q103 0 152 -81l-90 -69q-21 36 -55 36q-45 0 -55 -60l-27 -155h131l-19 -105h-131l-69 -396h-132z" />
    <glyph glyph-name="dividetab" horiz-adv-x="520" 
d="M302 364q-32 0 -55 22.5t-23 57.5q0 34 23 56.5t55 22.5t55 -22.5t23 -56.5q0 -35 -23 -57.5t-55 -22.5zM79 213l19 110h366l-19 -110h-366zM240 13q-32 0 -55 22.5t-23 57.5q0 34 23 56.5t55 22.5t55 -22.5t23 -56.5q0 -35 -23 -57.5t-55 -22.5z" />
    <glyph glyph-name="Eurotab" horiz-adv-x="520" 
d="M70 283h-48l15 82h52q29 76 91 121t136 45q67 0 114.5 -22.5t88.5 -77.5l-95 -72q-22 31 -44.5 44t-61.5 13q-60 0 -90 -51h120l-15 -82h-129q0 -5 -0.5 -16.5t-0.5 -17.5v-12h122l-14 -82h-92q22 -51 85 -51q53 0 95 49l91 -74q-70 -88 -188 -88q-78 0 -137 43t-83 121
h-82l14 82h55v14q0 22 1 32z" />
    <glyph glyph-name="perthousandtab" horiz-adv-x="1100" 
d="M184 217q-65 0 -102 41.5t-37 102.5q0 73 46.5 121.5t108.5 48.5q65 0 102 -41.5t37 -102.5q0 -73 -46.5 -121.5t-108.5 -48.5zM124 0l423 522h123l-423 -522h-123zM920 -9q-65 0 -102 41.5t-37 102.5q0 73 46.5 121.5t108.5 48.5q65 0 102 -41.5t37 -102.5
q0 -73 -46.5 -121.5t-108.5 -48.5zM594 -9q-65 0 -102 41.5t-37 102.5q0 73 46.5 121.5t108.5 48.5q65 0 102 -41.5t37 -102.5q0 -73 -46.5 -121.5t-108.5 -48.5zM186 311q22 0 35 22.5t13 52.5q0 51 -38 51q-22 0 -35 -22.5t-13 -52.5q0 -51 38 -51zM922 85q22 0 35 22.5
t13 52.5q0 51 -38 51q-22 0 -35 -22.5t-13 -52.5q0 -51 38 -51zM596 85q22 0 35 22.5t13 52.5q0 51 -38 51q-22 0 -35 -22.5t-13 -52.5q0 -51 38 -51z" />
    <glyph glyph-name="minustabsmall" horiz-adv-x="500" 
d="M66 213l19 110h372l-19 -110h-372z" />
    <glyph glyph-name="multiplytabsmall" horiz-adv-x="500" 
d="M339 262l92 -109l-86 -74l-92 108l-126 -108l-71 82l127 109l-92 109l88 74l91 -109l127 109l70 -82z" />
    <glyph glyph-name="spacetabsmall" horiz-adv-x="200" 
 />
    <glyph glyph-name="numbersigntabsmall" horiz-adv-x="500" 
d="M151 421h-68l18 101h75l25 97h103q-24 -97 -25 -97h71l25 97h103l-25 -97h58l-18 -101h-65l-19 -77h70l-18 -101h-77l-25 -101h-103l25 101h-71l-25 -101h-103l25 101h-56l18 101h63zM325 421h-71l-19 -77h71z" />
    <glyph glyph-name="dollartabsmall" horiz-adv-x="500" 
d="M173 -3q-120 22 -169 125l103 52q28 -58 84 -75l20 116q-80 27 -113.5 67t-33.5 98q0 71 52.5 111t136.5 40h13l18 100h65l-19 -109q82 -21 126 -86l-91 -63q-19 34 -53 48l-18 -102q81 -26 121 -66.5t40 -102.5q0 -81 -60 -120t-158 -39l-19 -107h-65zM249 433
q-64 -3 -64 -45q0 -33 48 -50zM254 92q76 6 76 49q0 19 -12.5 31.5t-44.5 23.5z" />
    <glyph glyph-name="percenttabsmall" horiz-adv-x="750" 
d="M174 217q-65 0 -102 41.5t-37 102.5q0 73 46.5 121.5t108.5 48.5q65 0 102 -41.5t37 -102.5q0 -73 -46.5 -121.5t-108.5 -48.5zM112 0l423 522h123l-423 -522h-123zM580 -9q-65 0 -102 41.5t-37 102.5q0 73 46.5 121.5t108.5 48.5q65 0 102 -41.5t37 -102.5
q0 -73 -46.5 -121.5t-108.5 -48.5zM176 311q22 0 35 22.5t13 52.5q0 51 -38 51q-22 0 -35 -22.5t-13 -52.5q0 -51 38 -51zM582 85q22 0 35 22.5t13 52.5q0 51 -38 51q-22 0 -35 -22.5t-13 -52.5q0 -51 38 -51z" />
    <glyph glyph-name="parenlefttabsmall" horiz-adv-x="300" 
d="M159 -65q-110 163 -110 331q0 90 23 167t65.5 136t77.5 94.5t84 75.5l63 -68q-80 -78 -128 -183.5t-48 -230.5q0 -79 14 -139.5t45 -134.5z" />
    <glyph glyph-name="parenrighttabsmall" horiz-adv-x="300" 
d="M48 -65l-63 68q80 78 128 183.5t48 230.5q0 79 -14 139.5t-45 134.5l86 48q110 -163 110 -331q0 -90 -23 -167t-65.5 -136t-77.5 -94.5t-84 -75.5z" />
    <glyph glyph-name="plustabsmall" horiz-adv-x="500" 
d="M308 213l-23 -130h-114l23 130h-125l19 110h126l23 132h114l-23 -132h126l-19 -110h-127z" />
    <glyph glyph-name="commatabsmall" horiz-adv-x="200" 
d="M-22 -115l63 120q-42 24 -42 71q0 33 22.5 55t55.5 22q32 0 55 -22.5t23 -56.5q0 -33 -34 -80l-80 -109h-63z" />
    <glyph glyph-name="periodtabsmall" horiz-adv-x="200" 
d="M77 -6q-32 0 -55 22.5t-23 57.5q0 34 23 56.5t55 22.5t55 -22.5t23 -56.5q0 -35 -23 -57.5t-55 -22.5z" />
    <glyph glyph-name="zerotabsmall" horiz-adv-x="500" 
d="M237 -9q-89 0 -141 60.5t-52 163.5q0 141 65 228.5t174 87.5q89 0 141 -60.5t52 -163.5q0 -142 -65 -229t-174 -87zM242 108q47 0 72.5 57t25.5 145q0 104 -61 104q-46 0 -72.5 -56t-26.5 -140q0 -110 62 -110z" />
    <glyph glyph-name="onetabsmall" horiz-adv-x="500" 
d="M174 107l53 303h-106l20 112h241l-73 -415h107l-19 -107h-356l19 107h114z" />
    <glyph glyph-name="twotabsmall" horiz-adv-x="500" 
d="M-6 0v12l239 226q48 45 66 72t18 50q0 22 -13.5 36t-41.5 14q-59 0 -84 -68l-129 30q52 159 219 159q87 0 137 -45t50 -116q0 -86 -109 -188l-31 -29q-12 -11 -28 -22t-27 -17l-10 -6q43 6 62 6h114l-20 -114h-412z" />
    <glyph glyph-name="threetabsmall" horiz-adv-x="500" 
d="M234 -9q-84 0 -139.5 38.5t-77.5 96.5l115 52q24 -68 100 -68q37 0 58.5 20.5t21.5 52.5t-22.5 53.5t-67.5 21.5t-73 -13l-6 9l90 104q12 13 27.5 26.5t25.5 19.5l9 7q-51 -5 -84 -5h-107l20 116h366v-11l-104 -127q-10 -12 -22 -23.5t-19 -16.5l-7 -5q40 -11 75 -54
t35 -105q0 -85 -58 -137t-156 -52z" />
    <glyph glyph-name="fourtabsmall" horiz-adv-x="500" 
d="M403 170h68l-19 -105h-68l-11 -65h-133l11 65h-243l19 101l427 362h12zM274 164l8 47l24 93q-33 -43 -65 -71l-40 -35q-12 -11 -29 -21.5t-28 -15.5l-11 -5q43 8 79 8h62z" />
    <glyph glyph-name="fivetabsmall" horiz-adv-x="500" 
d="M228 -9q-77 0 -130.5 32.5t-77.5 83.5l117 65q32 -62 91 -62q36 0 59 18.5t23 47.5q0 35 -26.5 54t-70.5 19q-67 0 -129 -39l-7 6l54 306h312l-20 -115h-198l-11 -63q27 8 53 8q76 0 128 -47t52 -127q0 -84 -61 -135.5t-158 -51.5z" />
    <glyph glyph-name="sixtabsmall" horiz-adv-x="500" 
d="M249 -9q-90 0 -151 56t-61 134q0 89 73 175l141 166h156l-91 -108q-11 -13 -29 -29t-31 -25l-12 -9q24 8 50 8q66 0 118 -48t52 -122q0 -90 -59 -144t-156 -54zM248 108q39 0 59 23t20 55t-20.5 54t-56.5 22q-37 0 -58.5 -23.5t-21.5 -57.5q0 -30 21 -51.5t57 -21.5z" />
    <glyph glyph-name="seventabsmall" horiz-adv-x="500" 
d="M50 0l252 406h-230l20 116h424v-11l-316 -511h-150z" />
    <glyph glyph-name="eighttabsmall" horiz-adv-x="500" 
d="M165 311q-55 32 -55 91q0 57 49.5 93t117.5 36q65 0 112.5 -35.5t47.5 -88.5q0 -76 -80 -108q93 -41 93 -129q0 -77 -59.5 -128t-152.5 -51q-89 0 -145.5 49t-56.5 121q0 59 36 97t93 53zM271 343q18 0 32 11t14 31q0 17 -12.5 28t-29.5 11q-19 0 -32.5 -10.5
t-13.5 -30.5q0 -17 12.5 -28.5t29.5 -11.5zM239 106q33 0 54 20t21 52q0 30 -18.5 50.5t-49.5 20.5q-33 0 -53.5 -21t-20.5 -53q0 -29 18 -49t49 -20z" />
    <glyph glyph-name="ninetabsmall" horiz-adv-x="500" 
d="M94 0l104 109q13 14 31.5 30t30.5 25l12 9q-25 -10 -46 -10q-67 0 -119 48t-52 122q0 90 59.5 144t153.5 54t152 -55t58 -135q0 -101 -77 -182l-151 -159h-156zM267 260q37 0 57.5 23.5t20.5 57.5q0 30 -20 51.5t-56 21.5q-39 0 -58 -22.5t-19 -55.5t19.5 -54.5
t55.5 -21.5z" />
    <glyph glyph-name="colontabsmall" horiz-adv-x="200" 
d="M117 229q-32 0 -54.5 22t-22.5 57q0 34 22.5 57t54.5 23q33 0 55.5 -23t22.5 -57q0 -35 -22.5 -57t-55.5 -22zM77 -6q-32 0 -55 22.5t-23 57.5q0 34 23 56.5t55 22.5t55 -22.5t23 -56.5q0 -35 -23 -57.5t-55 -22.5z" />
    <glyph glyph-name="semicolontabsmall" horiz-adv-x="200" 
d="M117 229q-32 0 -54.5 22t-22.5 57q0 34 22.5 57t54.5 23q33 0 55.5 -23t22.5 -57q0 -35 -22.5 -57t-55.5 -22zM-22 -115l63 120q-42 24 -42 71q0 33 22.5 55t55.5 22q32 0 55 -22.5t23 -56.5q0 -33 -34 -80l-80 -109h-63z" />
    <glyph glyph-name="lesstabsmall" horiz-adv-x="500" 
d="M385 54l-316 176v10l384 198l-23 -125l-166 -77l140 -76z" />
    <glyph glyph-name="equaltabsmall" horiz-adv-x="500" 
d="M99 279l20 115h327l-20 -115h-327zM70 115l21 115h327l-21 -115h-327z" />
    <glyph glyph-name="greatertabsmall" horiz-adv-x="500" 
d="M67 54l23 125l166 77l-140 76l19 106l316 -176v-10z" />
    <glyph glyph-name="bracketlefttabsmall" horiz-adv-x="300" 
d="M-1 -62l140 794h231l-19 -111h-99l-101 -572h99l-20 -111h-231z" />
    <glyph glyph-name="bracketrighttabsmall" horiz-adv-x="300" 
d="M-25 -62l20 111h100l101 572h-100l19 111h232l-140 -794h-232z" />
    <glyph glyph-name="bracelefttabsmall" horiz-adv-x="300" 
d="M194 -62q-67 0 -108 37.5t-27 117.5l16 89q6 36 -0.5 48.5t-33.5 12.5h-27l20 111h19q31 0 44 13.5t21 57.5l30 168q25 139 152 139h70l-19 -111h-30q-34 0 -40 -37l-33 -189q-9 -54 -35.5 -74.5t-74.5 -26.5q88 -13 71 -111l-17 -98q-3 -18 2.5 -27t26.5 -9h29l-20 -111
h-36z" />
    <glyph glyph-name="bracerighttabsmall" horiz-adv-x="300" 
d="M-25 -62l20 111h31q34 0 40 37l21 116q9 54 35 74.5t74 26.5q-89 13 -72 111l30 171q7 36 -35 36h-23l19 111h37q67 0 108 -37.5t27 -117.5l-29 -162q-7 -35 2.5 -48t37.5 -13h22l-20 -111h-19q-31 0 -44.5 -13.5t-21.5 -57.5l-16 -95q-24 -139 -152 -139h-72z" />
    <glyph glyph-name="degreetabsmall" horiz-adv-x="332" 
d="M199 268q-56 0 -96 37.5t-40 92.5q0 58 41 95.5t99 37.5q56 0 95.5 -36t39.5 -91q0 -58 -40.5 -97t-98.5 -39zM200 346q22 0 36.5 16t14.5 41q0 24 -13.5 37t-35.5 13t-36.5 -15.5t-14.5 -40.5q0 -24 13.5 -37.5t35.5 -13.5z" />
    <glyph glyph-name="centtabsmall" horiz-adv-x="500" 
d="M218 0q-64 19 -103.5 68.5t-39.5 120.5q0 89 60 145t152 58l17 98h62l-18 -104q69 -15 110 -72l-98 -72q-10 18 -32 32l-30 -174q28 3 54 28l75 -83q-58 -53 -144 -53h-4l-19 -108h-62zM268 281q-28 -6 -44.5 -30.5t-16.5 -61.5q0 -53 31 -77z" />
    <glyph glyph-name="sterlingtabsmall" horiz-adv-x="500" 
d="M155 214h-96l15 86h53q-8 29 -8 54q0 79 48.5 128t135.5 49q115 0 171 -96l-107 -66q-16 26 -29 37t-33 11q-23 0 -38 -16.5t-15 -49.5q0 -21 5 -51h142l-15 -86h-113q3 -20 3 -40q0 -31 -7 -55q25 -10 49 -10q36 0 70 37l82 -81q-54 -74 -144 -74q-61 0 -107 41
q-44 -41 -104 -41q-51 0 -82 27t-31 69q0 44 31.5 70t79.5 26q31 0 54 -9q-3 21 -10 40zM156 94q-21 19 -42 19q-33 0 -33 -26t31 -26q30 0 44 33z" />
    <glyph glyph-name="sectiontabsmall" horiz-adv-x="500" 
d="M155 304q-24 38 -24 83q0 60 45.5 102t110.5 42q100 0 155 -78l-100 -68q-20 35 -51 35q-11 0 -20 -7.5t-9 -19.5q0 -22 23 -37l75 -47q87 -54 87 -125q0 -82 -93 -117q22 -33 22 -76q0 -61 -48.5 -99.5t-129.5 -38.5q-119 0 -182 89l104 73q33 -52 80 -52q19 0 29 7.5
t10 17.5q0 16 -27 32l-87 54q-78 49 -78 116q0 47 31.5 76.5t76.5 37.5zM289 126q31 6 31 28q0 26 -31 45l-79 50l-2 1q-3 2 -5 3q-28 -5 -28 -32q0 -23 25 -39l77 -48q2 -1 6 -3.5t6 -4.5z" />
    <glyph glyph-name="yentabsmall" horiz-adv-x="500" 
d="M324 196l-11 -16l-4 -21h144l-15 -85h-144l-13 -74h-135l13 74h-145l15 85h145l4 20l-5 17h-137l15 85h94l-77 241h143l35 -135q7 -26 10.5 -57t3.5 -50v-18q19 60 53 117l85 143h146l-163 -241h94l-15 -85h-136z" />
    <glyph glyph-name="florintabsmall" horiz-adv-x="520" 
d="M146 188h-81l18 101h82l11 65q32 177 180 177q103 0 152 -81l-90 -69q-21 36 -55 36q-45 0 -55 -60l-12 -68h122l-18 -101h-122l-49 -282h-132z" />
    <glyph glyph-name="dividetabsmall" horiz-adv-x="500" 
d="M292 364q-32 0 -55 22.5t-23 57.5q0 34 23 56.5t55 22.5t55 -22.5t23 -56.5q0 -35 -23 -57.5t-55 -22.5zM69 213l19 110h366l-19 -110h-366zM230 13q-32 0 -55 22.5t-23 57.5q0 34 23 56.5t55 22.5t55 -22.5t23 -56.5q0 -35 -23 -57.5t-55 -22.5z" />
    <glyph glyph-name="Eurotabsmall" horiz-adv-x="500" 
d="M67 277h-38l13 78h44q29 80 90.5 128t143.5 48q131 0 185 -109l-102 -61q-31 59 -84 59q-60 0 -95 -65h119l-14 -78h-129q-2 -13 -4 -37h127l-13 -78h-110q15 -58 79 -58q30 0 50.5 14t40.5 42l97 -65q-64 -104 -191 -104q-80 0 -135 46.5t-71 124.5h-61l13 78h42z" />
    <glyph glyph-name="perthousandtabsmall" horiz-adv-x="1100" 
d="M184 217q-65 0 -102 41.5t-37 102.5q0 73 46.5 121.5t108.5 48.5q65 0 102 -41.5t37 -102.5q0 -73 -46.5 -121.5t-108.5 -48.5zM124 0l423 522h123l-423 -522h-123zM920 -9q-65 0 -102 41.5t-37 102.5q0 73 46.5 121.5t108.5 48.5q65 0 102 -41.5t37 -102.5
q0 -73 -46.5 -121.5t-108.5 -48.5zM594 -9q-65 0 -102 41.5t-37 102.5q0 73 46.5 121.5t108.5 48.5q65 0 102 -41.5t37 -102.5q0 -73 -46.5 -121.5t-108.5 -48.5zM186 311q22 0 35 22.5t13 52.5q0 51 -38 51q-22 0 -35 -22.5t-13 -52.5q0 -51 38 -51zM922 85q22 0 35 22.5
t13 52.5q0 51 -38 51q-22 0 -35 -22.5t-13 -52.5q0 -51 38 -51zM596 85q22 0 35 22.5t13 52.5q0 51 -38 51q-22 0 -35 -22.5t-13 -52.5q0 -51 38 -51z" />
    <glyph glyph-name="minustablining" horiz-adv-x="580" 
d="M96 262l20 113h407l-20 -113h-407z" />
    <glyph glyph-name="multiplytablining" horiz-adv-x="580" 
d="M386 301l92 -109l-86 -74l-92 108l-126 -108l-71 82l127 109l-92 109l88 74l91 -109l127 109l70 -82z" />
    <glyph glyph-name="spacetablining" horiz-adv-x="200" 
 />
    <glyph glyph-name="numbersigntablining" horiz-adv-x="580" 
d="M197 482h-88l18 101h95l25 97h103l-25 -97h81l25 97h103l-25 -97h78l-18 -101h-85l-19 -77h90l-18 -101h-97l-25 -101h-103l25 101h-81l-25 -101h-103l25 101h-76l18 101h83zM381 482h-81l-19 -77h81z" />
    <glyph glyph-name="dollartablining" horiz-adv-x="580" 
d="M217 -4q-66 11 -115 46.5t-78 81.5l110 78q50 -72 104 -86l31 175l-6 3q-146 72 -143 203q0 81 57 136t159 55h4l15 85h65l-16 -92q85 -20 134 -93l-107 -74q-19 31 -49 45l-27 -153l6 -3q78 -41 119 -91t41 -118q0 -100 -64 -150.5t-176 -52.5l-19 -107h-65zM318 569
q-30 -2 -47.5 -20.5t-17.5 -43.5q0 -37 42 -66zM303 112q80 8 80 72q0 42 -54 76z" />
    <glyph glyph-name="percenttablining" horiz-adv-x="800" 
d="M211 322q-66 0 -109.5 47t-43.5 122q0 82 51 139.5t124 57.5q66 0 110 -47t44 -122q0 -82 -51.5 -139.5t-124.5 -57.5zM93 0l529 680h133l-529 -680h-133zM614 -9q-66 0 -109.5 47t-43.5 122q0 82 51 139.5t124 57.5q66 0 110 -47t44 -122q0 -82 -51.5 -139.5
t-124.5 -57.5zM216 422q27 0 42.5 28.5t15.5 70.5q0 66 -44 66q-27 0 -42.5 -28.5t-15.5 -70.5q0 -66 44 -66zM619 91q27 0 42.5 28.5t15.5 70.5q0 66 -44 66q-27 0 -42.5 -28.5t-15.5 -70.5q0 -66 44 -66z" />
    <glyph glyph-name="parenlefttablining" horiz-adv-x="300" 
d="M150 -128q-111 169 -111 347q0 76 15.5 144.5t39 118.5t58 97.5t64.5 77.5t67 61l66 -67q-80 -81 -126.5 -193t-46.5 -241q0 -157 59 -299z" />
    <glyph glyph-name="parenrighttablining" horiz-adv-x="300" 
d="M50 -127l-66 67q80 81 126.5 192.5t46.5 240.5q0 157 -59 299l85 46q111 -169 111 -347q0 -93 -21.5 -173t-61.5 -141.5t-76 -101t-85 -82.5z" />
    <glyph glyph-name="plustablining" horiz-adv-x="580" 
d="M357 262l-26 -150h-115l26 150h-146l20 113h146l27 150h115l-27 -150h146l-20 -113h-146z" />
    <glyph glyph-name="commatablining" horiz-adv-x="200" 
d="M-22 -115l63 120q-42 24 -42 71q0 33 22.5 55t55.5 22q32 0 55 -22.5t23 -56.5q0 -33 -34 -80l-80 -109h-63z" />
    <glyph glyph-name="periodtablining" horiz-adv-x="200" 
d="M77 -6q-32 0 -55 22.5t-23 57.5q0 34 23 56.5t55 22.5t55 -22.5t23 -56.5q0 -35 -23 -57.5t-55 -22.5z" />
    <glyph glyph-name="zerotablining" horiz-adv-x="580" 
d="M275 -9q-102 0 -163.5 69.5t-61.5 200.5q0 183 84.5 305t217.5 122q102 0 164 -69.5t62 -200.5q0 -182 -85 -304.5t-218 -122.5zM281 113q47 0 83 51t52.5 123t16.5 148q0 131 -87 131q-47 0 -82.5 -51t-52 -123t-16.5 -148q0 -131 86 -131z" />
    <glyph glyph-name="onetablining" horiz-adv-x="580" 
d="M222 0l98 558h-161l22 122h297l-120 -680h-136z" />
    <glyph glyph-name="twotablining" horiz-adv-x="580" 
d="M-9 0v12l306 295q63 61 89.5 100t26.5 79q0 79 -82 79q-79 0 -107 -101l-136 25q22 98 89.5 148.5t159.5 50.5q98 0 156 -55t58 -143q0 -67 -34.5 -123t-109.5 -125l-93 -85q-9 -8 -24.5 -19t-26.5 -18l-11 -7q44 5 70 5h171l-22 -118h-480z" />
    <glyph glyph-name="threetablining" horiz-adv-x="580" 
d="M279 -9q-97 0 -164 44t-94 116l122 56q39 -93 132 -93q55 0 88.5 35t33.5 87t-33 86t-92 34q-42 0 -78 -15l-6 9l142 170q9 11 22 22t22 17l8 6q-45 -4 -68 -4h-174l21 119h434v-12l-160 -194q-7 -8 -18 -17.5t-19 -14.5l-7 -6q58 -12 102 -66t44 -137
q0 -105 -73.5 -173.5t-184.5 -68.5z" />
    </font>
</defs>
</svg>
