<?xml version="1.0" encoding="utf-8"?>
<!-- Generator: Adobe Illustrator 19.1.0, SVG Export Plug-In . SVG Version: 6.00 Build 0)  -->
<svg version="1.1" id="Layer_1" xmlns="http://www.w3.org/2000/svg" xmlns:xlink="http://www.w3.org/1999/xlink" x="0px" y="0px"
	 viewBox="-280 384 50 25" style="enable-background:new -280 384 50 25;" xml:space="preserve">
<path d="M-261.2,397.8c0,0.2,0,0.4,0,0.6l-18.8-4.6v-2.5l19.1,4.7C-261.1,396.5-261.3,397.2-261.2,397.8z M-235.9,402l-0.3,2.5
	l-16.9-4.1c0.5-0.7,0.7-1.5,0.7-2.4L-235.9,402z M-234.7,395.2l-2.8,4.8l-15.1-3.7c-0.6-1.8-2.3-3-4.2-3c-1.1,0-2.2,0.4-3.1,1.2
	l-14.4-3.6c0,0-3.5-3.2-3.8-6.6l10.9,2.8l5-3.1l2.8,1.3l-3.8,2.3L-234.7,395.2z M-256.8,394.7c1.7,0,3,1.4,3,3.1
	c0,1.7-1.3,3.1-3,3.1s-3-1.4-3-3.1C-259.8,396.1-258.4,394.7-256.8,394.7z M-230,409h-50v-11.9L-230,409z"/>
</svg>
