<?xml version="1.0" encoding="utf-8"?>
<!-- Generator: Adobe Illustrator 19.2.1, SVG Export Plug-In . SVG Version: 6.00 Build 0)  -->
<svg version="1.1" id="Layer_1" xmlns="http://www.w3.org/2000/svg" xmlns:xlink="http://www.w3.org/1999/xlink" x="0px" y="0px"
	 viewBox="0 0 20 32" style="enable-background:new 0 0 20 32;" xml:space="preserve">
<title>icon_marker-pushpin</title>
<path d="M18.6,19.1h-7.4l-0.3,6.5L10,29l-0.9-3.4l-0.3-6.5H1.4C1.2,19.1,1,19,1,18.8c0,0,0-0.1,0-0.1l0.7-2.8c0-0.2,0.2-0.3,0.3-0.4
	l3.5-1.4c0.2-0.1,0.3-0.2,0.4-0.4l0.5-7.8c0-0.2-0.1-0.4-0.4-0.5L4.5,4.8C4.4,4.8,4.3,4.7,4.2,4.5l-1.1-3C3.1,1.3,3.2,1.1,3.4,1
	c0,0,0.1,0,0.1,0h13c0.2,0,0.4,0.1,0.4,0.3c0,0,0,0.1,0,0.1l-1.1,3c-0.1,0.2-0.2,0.3-0.3,0.3l-1.5,0.6c-0.2,0.1-0.4,0.3-0.4,0.5
	l0.5,7.8c0,0.2,0.2,0.4,0.4,0.4l3.6,1.4c0.2,0.1,0.3,0.2,0.4,0.4l0.6,2.8c0,0.2-0.1,0.4-0.3,0.4C18.7,19.1,18.6,19.1,18.6,19.1z"/>
</svg>
